<?xml version="1.0" encoding="utf-8"?>
<!-- Generator: Adobe Illustrator 22.1.0, SVG Export Plug-In . SVG Version: 6.00 Build 0)  -->
<!DOCTYPE svg PUBLIC "-//W3C//DTD SVG 1.1//EN" "http://www.w3.org/Graphics/SVG/1.1/DTD/svg11.dtd">
<svg version="1.1" id="Layer_1" xmlns="http://www.w3.org/2000/svg" xmlns:xlink="http://www.w3.org/1999/xlink" x="0px" y="0px"
	 viewBox="0 0 1324 660.7" style="enable-background:new 0 0 1324 660.7;" xml:space="preserve">
<style type="text/css">
	.st0{fill:#F2F2F2;}
</style>
<g>
	<path class="st0" d="M974,5.6c3.7,0,6.7,3,6.7,6.7c0,3.7-3,6.7-6.7,6.7s-6.7-3-6.7-6.7C967.3,8.6,970.3,5.6,974,5.6 M988,23.7
		L988,23.7c-1.4-1.4-2.9-2.5-4.6-3.5c1.9-2.2,2.9-5,2.9-7.9C986.3,5.5,980.8,0,974,0c-6.8,0-12.3,5.5-12.3,12.3
		c0,2.9,1.1,5.7,2.9,7.9c-1.7,0.9-3.2,2.1-4.6,3.5c-3.7,3.7-5.8,8.7-5.8,14v2h6.7v-2c0-7.2,5.9-13.1,13.1-13.1
		c7.2,0,13.1,5.9,13.1,13.1v2h6.7v-2C993.8,32.4,991.8,27.4,988,23.7"/>
	<path class="st0" d="M1029,5.6c3.7,0,6.7,3,6.7,6.7c0,3.7-3,6.7-6.7,6.7c-3.7,0-6.7-3-6.7-6.7C1022.3,8.6,1025.3,5.6,1029,5.6
		 M1043,23.7L1043,23.7c-1.4-1.4-2.9-2.5-4.6-3.5c1.9-2.2,2.9-5,2.9-7.9c0-6.8-5.5-12.3-12.3-12.3c-6.8,0-12.3,5.5-12.3,12.3
		c0,2.9,1.1,5.7,2.9,7.9c-1.7,0.9-3.2,2.1-4.6,3.5c-3.7,3.7-5.8,8.7-5.8,14v2h6.7v-2c0-7.2,5.9-13.1,13.1-13.1
		c7.2,0,13.1,5.9,13.1,13.1v2h6.7v-2C1048.9,32.4,1046.8,27.4,1043,23.7"/>
	<path class="st0" d="M1084,5.6c3.7,0,6.7,3,6.7,6.7c0,3.7-3,6.7-6.7,6.7c-3.7,0-6.7-3-6.7-6.7C1077.4,8.6,1080.4,5.6,1084,5.6
		 M1098.1,23.7L1098.1,23.7c-1.4-1.4-2.9-2.5-4.6-3.5c1.9-2.2,2.9-5,2.9-7.9c0-6.8-5.5-12.3-12.3-12.3c-6.8,0-12.3,5.5-12.3,12.3
		c0,2.9,1.1,5.7,2.9,7.9c-1.7,0.9-3.2,2.1-4.6,3.5c-3.7,3.7-5.8,8.7-5.8,14v2h6.7v-2c0-7.2,5.9-13.1,13.1-13.1
		c7.2,0,13.1,5.9,13.1,13.1v2h6.7v-2C1103.9,32.4,1101.8,27.4,1098.1,23.7"/>
	<path class="st0" d="M1139.1,5.6c3.7,0,6.7,3,6.7,6.7c0,3.7-3,6.7-6.7,6.7c-3.7,0-6.7-3-6.7-6.7C1132.4,8.6,1135.4,5.6,1139.1,5.6
		 M1153.1,23.7L1153.1,23.7c-1.4-1.4-2.9-2.5-4.6-3.5c1.9-2.2,2.9-5,2.9-7.9c0-6.8-5.5-12.3-12.3-12.3c-6.8,0-12.3,5.5-12.3,12.3
		c0,2.9,1.1,5.7,2.9,7.9c-1.7,0.9-3.2,2.1-4.6,3.5c-3.7,3.7-5.8,8.7-5.8,14v2h6.7v-2c0-7.2,5.9-13.1,13.1-13.1
		c7.2,0,13.1,5.9,13.1,13.1v2h6.7v-2C1158.9,32.4,1156.9,27.4,1153.1,23.7"/>
	<path class="st0" d="M1194.1,5.6c3.7,0,6.7,3,6.7,6.7c0,3.7-3,6.7-6.7,6.7c-3.7,0-6.7-3-6.7-6.7C1187.4,8.6,1190.4,5.6,1194.1,5.6
		 M1208.1,23.7L1208.1,23.7c-1.4-1.4-2.9-2.5-4.6-3.5c1.9-2.2,2.9-5,2.9-7.9c0-6.8-5.5-12.3-12.3-12.3c-6.8,0-12.3,5.5-12.3,12.3
		c0,2.9,1.1,5.7,2.9,7.9c-1.7,0.9-3.2,2.1-4.6,3.5c-3.7,3.7-5.8,8.7-5.8,14v2h6.7v-2c0-7.2,5.9-13.1,13.1-13.1
		c7.2,0,13.1,5.9,13.1,13.1v2h6.7v-2C1213.9,32.4,1211.9,27.4,1208.1,23.7"/>
	<path class="st0" d="M1249.1,5.6c3.7,0,6.7,3,6.7,6.7c0,3.7-3,6.7-6.7,6.7c-3.7,0-6.7-3-6.7-6.7C1242.4,8.6,1245.4,5.6,1249.1,5.6
		 M1263.2,23.7L1263.2,23.7c-1.4-1.4-2.9-2.5-4.6-3.5c1.9-2.2,2.9-5,2.9-7.9c0-6.8-5.5-12.3-12.3-12.3c-6.8,0-12.3,5.5-12.3,12.3
		c0,2.9,1.1,5.7,2.9,7.9c-1.7,0.9-3.2,2.1-4.6,3.5c-3.7,3.7-5.8,8.7-5.8,14v2h6.7v-2c0-7.2,5.9-13.1,13.1-13.1
		c7.2,0,13.1,5.9,13.1,13.1v2h6.7v-2C1269,32.4,1266.9,27.4,1263.2,23.7"/>
	<path class="st0" d="M1304.2,5.6c3.7,0,6.7,3,6.7,6.7c0,3.7-3,6.7-6.7,6.7c-3.7,0-6.7-3-6.7-6.7C1297.5,8.6,1300.5,5.6,1304.2,5.6
		 M1318.2,23.7L1318.2,23.7c-1.4-1.4-2.9-2.5-4.6-3.5c1.9-2.2,2.9-5,2.9-7.9c0-6.8-5.5-12.3-12.3-12.3c-6.8,0-12.3,5.5-12.3,12.3
		c0,2.9,1.1,5.7,2.9,7.9c-1.7,0.9-3.2,2.1-4.6,3.5c-3.7,3.7-5.8,8.7-5.8,14v2h6.7v-2c0-7.2,5.9-13.1,13.1-13.1
		c7.2,0,13.1,5.9,13.1,13.1v2h6.7v-2C1324,32.4,1321.9,27.4,1318.2,23.7"/>
	<path class="st0" d="M961.2,75.7c3.7,0,6.7,3,6.7,6.7c0,3.7-3,6.7-6.7,6.7s-6.7-3-6.7-6.7C954.6,78.7,957.6,75.7,961.2,75.7
		 M975.3,93.8L975.3,93.8c-1.4-1.4-2.9-2.5-4.6-3.5c1.9-2.2,2.9-5,2.9-7.9c0-6.8-5.5-12.3-12.3-12.3c-6.8,0-12.3,5.5-12.3,12.3
		c0,2.9,1.1,5.7,2.9,7.9c-1.7,0.9-3.2,2.1-4.6,3.5c-3.7,3.7-5.8,8.7-5.8,14v2h6.7v-2c0-7.2,5.9-13.1,13.1-13.1
		c7.2,0,13.1,5.9,13.1,13.1v2h6.7v-2C981.1,102.5,979,97.5,975.3,93.8"/>
	<path class="st0" d="M1017.9,78.3c3.7,0,6.7,3,6.7,6.7c0,3.7-3,6.7-6.7,6.7s-6.7-3-6.7-6.7C1011.2,81.3,1014.2,78.3,1017.9,78.3
		 M1032,96.4L1032,96.4c-1.4-1.4-2.9-2.5-4.6-3.5c1.9-2.2,2.9-5,2.9-7.9c0-6.8-5.5-12.3-12.3-12.3c-6.8,0-12.3,5.5-12.3,12.3
		c0,2.9,1.1,5.7,2.9,7.9c-1.7,0.9-3.2,2.1-4.6,3.5c-3.7,3.7-5.8,8.7-5.8,14v2h6.7v-2c0-7.2,5.9-13.1,13.1-13.1
		c7.2,0,13.1,5.9,13.1,13.1v2h6.7v-2C1037.8,105.2,1035.7,100.2,1032,96.4"/>
	<path class="st0" d="M1074.7,75.7c3.7,0,6.7,3,6.7,6.7c0,3.7-3,6.7-6.7,6.7c-3.7,0-6.7-3-6.7-6.7C1068,78.7,1071,75.7,1074.7,75.7
		 M1088.7,93.8L1088.7,93.8c-1.4-1.4-2.9-2.5-4.6-3.5c1.9-2.2,2.9-5,2.9-7.9c0-6.8-5.5-12.3-12.3-12.3c-6.8,0-12.3,5.5-12.3,12.3
		c0,2.9,1.1,5.7,2.9,7.9c-1.7,0.9-3.2,2.1-4.6,3.5c-3.7,3.7-5.8,8.7-5.8,14v2h6.7v-2c0-7.2,5.9-13.1,13.1-13.1
		c7.2,0,13.1,5.9,13.1,13.1v2h6.7v-2C1094.6,102.5,1092.5,97.5,1088.7,93.8"/>
	<path class="st0" d="M1129.7,75.7c3.7,0,6.7,3,6.7,6.7c0,3.7-3,6.7-6.7,6.7c-3.7,0-6.7-3-6.7-6.7
		C1123.1,78.7,1126.1,75.7,1129.7,75.7 M1143.8,93.8L1143.8,93.8c-1.4-1.4-2.9-2.5-4.6-3.5c1.9-2.2,2.9-5,2.9-7.9
		c0-6.8-5.5-12.3-12.3-12.3c-6.8,0-12.3,5.5-12.3,12.3c0,2.9,1.1,5.7,2.9,7.9c-1.7,0.9-3.2,2.1-4.6,3.5c-3.7,3.7-5.8,8.7-5.8,14v2
		h6.7v-2c0-7.2,5.9-13.1,13.1-13.1c7.2,0,13.1,5.9,13.1,13.1v2h6.7v-2C1149.6,102.5,1147.5,97.5,1143.8,93.8"/>
	<path class="st0" d="M1184.8,75.7c3.7,0,6.7,3,6.7,6.7c0,3.7-3,6.7-6.7,6.7c-3.7,0-6.7-3-6.7-6.7
		C1178.1,78.7,1181.1,75.7,1184.8,75.7 M1198.8,93.8L1198.8,93.8c-1.4-1.4-2.9-2.5-4.6-3.5c1.9-2.2,2.9-5,2.9-7.9
		c0-6.8-5.5-12.3-12.3-12.3c-6.8,0-12.3,5.5-12.3,12.3c0,2.9,1.1,5.7,2.9,7.9c-1.7,0.9-3.2,2.1-4.6,3.5c-3.7,3.7-5.8,8.7-5.8,14v2
		h6.7v-2c0-7.2,5.9-13.1,13.1-13.1c7.2,0,13.1,5.9,13.1,13.1v2h6.7v-2C1204.6,102.5,1202.6,97.5,1198.8,93.8"/>
	<path class="st0" d="M1239.8,75.7c3.7,0,6.7,3,6.7,6.7c0,3.7-3,6.7-6.7,6.7c-3.7,0-6.7-3-6.7-6.7
		C1233.1,78.7,1236.1,75.7,1239.8,75.7 M1253.8,93.8L1253.8,93.8c-1.4-1.4-2.9-2.5-4.6-3.5c1.9-2.2,2.9-5,2.9-7.9
		c0-6.8-5.5-12.3-12.3-12.3c-6.8,0-12.3,5.5-12.3,12.3c0,2.9,1.1,5.7,2.9,7.9c-1.7,0.9-3.2,2.1-4.6,3.5c-3.7,3.7-5.8,8.7-5.8,14v2
		h6.7v-2c0-7.2,5.9-13.1,13.1-13.1c7.2,0,13.1,5.9,13.1,13.1v2h6.7v-2C1259.6,102.5,1257.6,97.5,1253.8,93.8"/>
	<path class="st0" d="M1297.5,74.9c3.7,0,6.7,3,6.7,6.7c0,3.7-3,6.7-6.7,6.7c-3.7,0-6.7-3-6.7-6.7
		C1290.8,77.9,1293.8,74.9,1297.5,74.9 M1311.5,92.9L1311.5,92.9c-1.4-1.4-2.9-2.5-4.6-3.5c1.9-2.2,2.9-5,2.9-7.9
		c0-6.8-5.5-12.3-12.3-12.3c-6.8,0-12.3,5.5-12.3,12.3c0,2.9,1.1,5.7,2.9,7.9c-1.7,0.9-3.2,2.1-4.6,3.5c-3.7,3.7-5.8,8.7-5.8,14v2
		h6.7v-2c0-7.2,5.9-13.1,13.1-13.1c7.2,0,13.1,5.9,13.1,13.1v2h6.7v-2C1317.3,101.7,1315.2,96.7,1311.5,92.9"/>
	<path class="st0" d="M931.4,143.8c3.7,0,6.7,3,6.7,6.7c0,3.7-3,6.7-6.7,6.7c-3.7,0-6.7-3-6.7-6.7
		C924.7,146.8,927.7,143.8,931.4,143.8 M945.4,161.9L945.4,161.9c-1.4-1.4-2.9-2.5-4.6-3.5c1.9-2.2,2.9-5,2.9-7.9
		c0-6.8-5.5-12.3-12.3-12.3c-6.8,0-12.3,5.5-12.3,12.3c0,2.9,1.1,5.7,2.9,7.9c-1.7,0.9-3.2,2.1-4.6,3.5c-3.7,3.7-5.8,8.7-5.8,14v2
		h6.7v-2c0-7.2,5.9-13.1,13.1-13.1c7.2,0,13.1,5.9,13.1,13.1v2h6.7v-2C951.3,170.6,949.2,165.6,945.4,161.9"/>
	<path class="st0" d="M991,145.6c3.7,0,6.7,3,6.7,6.7c0,3.7-3,6.7-6.7,6.7s-6.7-3-6.7-6.7C984.3,148.6,987.3,145.6,991,145.6
		 M1005,163.7L1005,163.7c-1.4-1.4-2.9-2.5-4.6-3.5c1.9-2.2,2.9-5,2.9-7.9c0-6.8-5.5-12.3-12.3-12.3c-6.8,0-12.3,5.5-12.3,12.3
		c0,2.9,1.1,5.7,2.9,7.9c-1.7,0.9-3.2,2.1-4.6,3.5c-3.7,3.7-5.8,8.7-5.8,14v2h6.7v-2c0-7.2,5.9-13.1,13.1-13.1
		c7.2,0,13.1,5.9,13.1,13.1v2h6.7v-2C1010.9,172.4,1008.8,167.4,1005,163.7"/>
	<path class="st0" d="M1053.2,144.7c3.7,0,6.7,3,6.7,6.7c0,3.7-3,6.7-6.7,6.7c-3.7,0-6.7-3-6.7-6.7
		C1046.5,147.7,1049.5,144.7,1053.2,144.7 M1067.2,162.7L1067.2,162.7c-1.4-1.4-2.9-2.5-4.6-3.5c1.9-2.2,2.9-5,2.9-7.9
		c0-6.8-5.5-12.3-12.3-12.3c-6.8,0-12.3,5.5-12.3,12.3c0,2.9,1.1,5.7,2.9,7.9c-1.7,0.9-3.2,2.1-4.6,3.5c-3.7,3.7-5.8,8.7-5.8,14v2
		h6.7v-2c0-7.2,5.9-13.1,13.1-13.1c7.2,0,13.1,5.9,13.1,13.1v2h6.7v-2C1073,171.5,1070.9,166.5,1067.2,162.7"/>
	<path class="st0" d="M1109.9,146.4c3.7,0,6.7,3,6.7,6.7s-3,6.7-6.7,6.7c-3.7,0-6.7-3-6.7-6.7S1106.2,146.4,1109.9,146.4
		 M1123.9,164.5L1123.9,164.5c-1.4-1.4-2.9-2.5-4.6-3.5c1.9-2.2,2.9-5,2.9-7.9c0-6.8-5.5-12.3-12.3-12.3c-6.8,0-12.3,5.5-12.3,12.3
		c0,2.9,1.1,5.7,2.9,7.9c-1.7,0.9-3.2,2.1-4.6,3.5c-3.7,3.7-5.8,8.7-5.8,14v2h6.7v-2c0-7.2,5.9-13.1,13.1-13.1
		c7.2,0,13.1,5.9,13.1,13.1v2h6.7v-2C1129.7,173.3,1127.7,168.3,1123.9,164.5"/>
	<path class="st0" d="M1169,145.5c3.7,0,6.7,3,6.7,6.7c0,3.7-3,6.7-6.7,6.7c-3.7,0-6.7-3-6.7-6.7
		C1162.3,148.5,1165.3,145.5,1169,145.5 M1183,163.6L1183,163.6c-1.4-1.4-2.9-2.5-4.6-3.5c1.9-2.2,2.9-5,2.9-7.9
		c0-6.8-5.5-12.3-12.3-12.3c-6.8,0-12.3,5.5-12.3,12.3c0,2.9,1.1,5.7,2.9,7.9c-1.7,0.9-3.2,2.1-4.6,3.5c-3.7,3.7-5.8,8.7-5.8,14v2
		h6.7v-2c0-7.2,5.9-13.1,13.1-13.1c7.2,0,13.1,5.9,13.1,13.1v2h6.7v-2C1188.8,172.3,1186.7,167.3,1183,163.6"/>
	<path class="st0" d="M1225.4,147.3c3.7,0,6.7,3,6.7,6.7c0,3.7-3,6.7-6.7,6.7c-3.7,0-6.7-3-6.7-6.7
		C1218.7,150.3,1221.7,147.3,1225.4,147.3 M1239.4,165.4L1239.4,165.4c-1.4-1.4-2.9-2.5-4.6-3.5c1.9-2.2,2.9-5,2.9-7.9
		c0-6.8-5.5-12.3-12.3-12.3c-6.8,0-12.3,5.5-12.3,12.3c0,2.9,1.1,5.7,2.9,7.9c-1.7,0.9-3.2,2.1-4.6,3.5c-3.7,3.7-5.8,8.7-5.8,14v2
		h6.7v-2c0-7.2,5.9-13.1,13.1-13.1c7.2,0,13.1,5.9,13.1,13.1v2h6.7v-2C1245.2,174.1,1243.1,169.1,1239.4,165.4"/>
	<path class="st0" d="M1284.3,140.6c3.7,0,6.7,3,6.7,6.7c0,3.7-3,6.7-6.7,6.7c-3.7,0-6.7-3-6.7-6.7
		C1277.6,143.7,1280.6,140.6,1284.3,140.6 M1298.3,158.7L1298.3,158.7c-1.4-1.4-2.9-2.5-4.6-3.5c1.9-2.2,2.9-5,2.9-7.9
		c0-6.8-5.5-12.3-12.3-12.3c-6.8,0-12.3,5.5-12.3,12.3c0,2.9,1.1,5.7,2.9,7.9c-1.7,0.9-3.2,2.1-4.6,3.5c-3.7,3.7-5.8,8.7-5.8,14v2
		h6.7v-2c0-7.2,5.9-13.1,13.1-13.1c7.2,0,13.1,5.9,13.1,13.1v2h6.7v-2C1304.2,167.5,1302.1,162.5,1298.3,158.7"/>
	<path class="st0" d="M887.7,198.2c3.7,0,6.7,3,6.7,6.7c0,3.7-3,6.7-6.7,6.7s-6.7-3-6.7-6.7C881,201.2,884,198.2,887.7,198.2
		 M901.8,216.3L901.8,216.3c-1.4-1.4-2.9-2.5-4.6-3.5c1.9-2.2,2.9-5,2.9-7.9c0-6.8-5.5-12.3-12.3-12.3c-6.8,0-12.3,5.5-12.3,12.3
		c0,2.9,1.1,5.7,2.9,7.9c-1.7,0.9-3.2,2.1-4.6,3.5c-3.7,3.7-5.8,8.7-5.8,14v2h6.7v-2c0-7.2,5.9-13.1,13.1-13.1
		c7.2,0,13.1,5.9,13.1,13.1v2h6.7v-2C907.6,225,905.5,220,901.8,216.3"/>
	<path class="st0" d="M951.3,210.7c3.7,0,6.7,3,6.7,6.7c0,3.7-3,6.7-6.7,6.7c-3.7,0-6.7-3-6.7-6.7
		C944.6,213.7,947.6,210.7,951.3,210.7 M965.3,228.8L965.3,228.8c-1.4-1.4-2.9-2.5-4.6-3.5c1.9-2.2,2.9-5,2.9-7.9
		c0-6.8-5.5-12.3-12.3-12.3c-6.8,0-12.3,5.5-12.3,12.3c0,2.9,1.1,5.7,2.9,7.9c-1.7,0.9-3.2,2.1-4.6,3.5c-3.7,3.7-5.8,8.7-5.8,14v2
		h6.7v-2c0-7.2,5.9-13.1,13.1-13.1c7.2,0,13.1,5.9,13.1,13.1v2h6.7v-2C971.1,237.5,969,232.5,965.3,228.8"/>
	<path class="st0" d="M1021.1,207.8c3.7,0,6.7,3,6.7,6.7c0,3.7-3,6.7-6.7,6.7c-3.7,0-6.7-3-6.7-6.7
		C1014.4,210.8,1017.4,207.8,1021.1,207.8 M1035.1,225.8L1035.1,225.8c-1.4-1.4-2.9-2.5-4.6-3.5c1.9-2.2,2.9-5,2.9-7.9
		c0-6.8-5.5-12.3-12.3-12.3c-6.8,0-12.3,5.5-12.3,12.3c0,2.9,1.1,5.7,2.9,7.9c-1.7,0.9-3.2,2.1-4.6,3.5c-3.7,3.7-5.8,8.7-5.8,14v2
		h6.7v-2c0-7.2,5.9-13.1,13.1-13.1c7.2,0,13.1,5.9,13.1,13.1v2h6.7v-2C1040.9,234.6,1038.9,229.6,1035.1,225.8"/>
	<path class="st0" d="M1081.2,214.2c3.7,0,6.7,3,6.7,6.7c0,3.7-3,6.7-6.7,6.7c-3.7,0-6.7-3-6.7-6.7
		C1074.6,217.2,1077.6,214.2,1081.2,214.2 M1095.3,232.3L1095.3,232.3c-1.4-1.4-2.9-2.5-4.6-3.5c1.9-2.2,2.9-5,2.9-7.9
		c0-6.8-5.5-12.3-12.3-12.3c-6.8,0-12.3,5.5-12.3,12.3c0,2.9,1.1,5.7,2.9,7.9c-1.7,0.9-3.2,2.1-4.6,3.5c-3.7,3.7-5.8,8.7-5.8,14v2
		h6.7v-2c0-7.2,5.9-13.1,13.1-13.1c7.2,0,13.1,5.9,13.1,13.1v2h6.7v-2C1101.1,241,1099,236,1095.3,232.3"/>
	<path class="st0" d="M1142.7,209.8c3.7,0,6.7,3,6.7,6.7c0,3.7-3,6.7-6.7,6.7c-3.7,0-6.7-3-6.7-6.7
		C1136,212.8,1139,209.8,1142.7,209.8 M1156.7,227.9L1156.7,227.9c-1.4-1.4-2.9-2.5-4.6-3.5c1.9-2.2,2.9-5,2.9-7.9
		c0-6.8-5.5-12.3-12.3-12.3c-6.8,0-12.3,5.5-12.3,12.3c0,2.9,1.1,5.7,2.9,7.9c-1.7,0.9-3.2,2.1-4.6,3.5c-3.7,3.7-5.8,8.7-5.8,14v2
		h6.7v-2c0-7.2,5.9-13.1,13.1-13.1c7.2,0,13.1,5.9,13.1,13.1v2h6.7v-2C1162.5,236.7,1160.5,231.7,1156.7,227.9"/>
	<path class="st0" d="M1199.5,213.4c3.7,0,6.7,3,6.7,6.7c0,3.7-3,6.7-6.7,6.7c-3.7,0-6.7-3-6.7-6.7
		C1192.9,216.4,1195.9,213.4,1199.5,213.4 M1213.6,231.5L1213.6,231.5c-1.4-1.4-2.9-2.5-4.6-3.5c1.9-2.2,2.9-5,2.9-7.9
		c0-6.8-5.5-12.3-12.3-12.3c-6.8,0-12.3,5.5-12.3,12.3c0,2.9,1.1,5.7,2.9,7.9c-1.7,0.9-3.2,2.1-4.6,3.5c-3.7,3.7-5.8,8.7-5.8,14v2
		h6.7v-2c0-7.2,5.9-13.1,13.1-13.1c7.2,0,13.1,5.9,13.1,13.1v2h6.7v-2C1219.4,240.2,1217.3,235.2,1213.6,231.5"/>
	<path class="st0" d="M1262.3,203.4c3.7,0,6.7,3,6.7,6.7c0,3.7-3,6.7-6.7,6.7c-3.7,0-6.7-3-6.7-6.7
		C1255.6,206.4,1258.6,203.4,1262.3,203.4 M1276.3,221.5L1276.3,221.5c-1.4-1.4-2.9-2.5-4.6-3.5c1.9-2.2,2.9-5,2.9-7.9
		c0-6.8-5.5-12.3-12.3-12.3c-6.8,0-12.3,5.5-12.3,12.3c0,2.9,1.1,5.7,2.9,7.9c-1.7,0.9-3.2,2.1-4.6,3.5c-3.7,3.7-5.8,8.7-5.8,14v2
		h6.7v-2c0-7.2,5.9-13.1,13.1-13.1c7.2,0,13.1,5.9,13.1,13.1v2h6.7v-2C1282.1,230.2,1280,225.2,1276.3,221.5"/>
	<path class="st0" d="M831.9,246c3.7,0,6.7,3,6.7,6.7c0,3.7-3,6.7-6.7,6.7s-6.7-3-6.7-6.7C825.2,249,828.2,246,831.9,246
		 M845.9,264.1L845.9,264.1c-1.4-1.4-2.9-2.5-4.6-3.5c1.9-2.2,2.9-5,2.9-7.9c0-6.8-5.5-12.3-12.3-12.3c-6.8,0-12.3,5.5-12.3,12.3
		c0,2.9,1.1,5.7,2.9,7.9c-1.7,0.9-3.2,2.1-4.6,3.5c-3.7,3.7-5.8,8.7-5.8,14v2h6.7v-2c0-7.2,5.9-13.1,13.1-13.1
		c7.2,0,13.1,5.9,13.1,13.1v2h6.7v-2C851.8,272.8,849.7,267.9,845.9,264.1"/>
	<path class="st0" d="M899.7,264.8c3.7,0,6.7,3,6.7,6.7c0,3.7-3,6.7-6.7,6.7c-3.7,0-6.7-3-6.7-6.7
		C893,267.8,896.1,264.8,899.7,264.8 M913.8,282.9L913.8,282.9c-1.4-1.4-2.9-2.5-4.6-3.5c1.9-2.2,2.9-5,2.9-7.9
		c0-6.8-5.5-12.3-12.3-12.3c-6.8,0-12.3,5.5-12.3,12.3c0,2.9,1.1,5.7,2.9,7.9c-1.7,0.9-3.2,2.1-4.6,3.5c-3.7,3.7-5.8,8.7-5.8,14v2
		h6.7v-2c0-7.2,5.9-13.1,13.1-13.1c7.2,0,13.1,5.9,13.1,13.1v2h6.7v-2C919.6,291.7,917.5,286.7,913.8,282.9"/>
	<path class="st0" d="M978.4,265.7c3.7,0,6.7,3,6.7,6.7s-3,6.7-6.7,6.7s-6.7-3-6.7-6.7S974.7,265.7,978.4,265.7 M992.4,283.8
		L992.4,283.8c-1.4-1.4-2.9-2.5-4.6-3.5c1.9-2.2,2.9-5,2.9-7.9c0-6.8-5.5-12.3-12.3-12.3c-6.8,0-12.3,5.5-12.3,12.3
		c0,2.9,1.1,5.7,2.9,7.9c-1.7,0.9-3.2,2.1-4.6,3.5c-3.7,3.7-5.8,8.7-5.8,14v2h6.7v-2c0-7.2,5.9-13.1,13.1-13.1
		c7.2,0,13.1,5.9,13.1,13.1v2h6.7v-2C998.2,292.5,996.2,287.5,992.4,283.8"/>
	<path class="st0" d="M1039.1,273.2c3.7,0,6.7,3,6.7,6.7c0,3.7-3,6.7-6.7,6.7c-3.7,0-6.7-3-6.7-6.7
		C1032.4,276.2,1035.4,273.2,1039.1,273.2 M1053.1,291.3L1053.1,291.3c-1.4-1.4-2.9-2.5-4.6-3.5c1.9-2.2,2.9-5,2.9-7.9
		c0-6.8-5.5-12.3-12.3-12.3c-6.8,0-12.3,5.5-12.3,12.3c0,2.9,1.1,5.7,2.9,7.9c-1.7,0.9-3.2,2.1-4.6,3.5c-3.7,3.7-5.8,8.7-5.8,14v2
		h6.7v-2c0-7.2,5.9-13.1,13.1-13.1c7.2,0,13.1,5.9,13.1,13.1v2h6.7v-2C1058.9,300,1056.9,295.1,1053.1,291.3"/>
	<path class="st0" d="M1110,273.2c3.7,0,6.7,3,6.7,6.7c0,3.7-3,6.7-6.7,6.7c-3.7,0-6.7-3-6.7-6.7
		C1103.3,276.2,1106.3,273.2,1110,273.2 M1124,291.3L1124,291.3c-1.4-1.4-2.9-2.5-4.6-3.5c1.9-2.2,2.9-5,2.9-7.9
		c0-6.8-5.5-12.3-12.3-12.3c-6.8,0-12.3,5.5-12.3,12.3c0,2.9,1.1,5.7,2.9,7.9c-1.7,0.9-3.2,2.1-4.6,3.5c-3.7,3.7-5.8,8.7-5.8,14v2
		h6.7v-2c0-7.2,5.9-13.1,13.1-13.1c7.2,0,13.1,5.9,13.1,13.1v2h6.7v-2C1129.9,300,1127.8,295.1,1124,291.3"/>
	<path class="st0" d="M1169,279.5c3.7,0,6.7,3,6.7,6.7c0,3.7-3,6.7-6.7,6.7c-3.7,0-6.7-3-6.7-6.7
		C1162.3,282.5,1165.3,279.5,1169,279.5 M1183,297.6L1183,297.6c-1.4-1.4-2.9-2.5-4.6-3.5c1.9-2.2,2.9-5,2.9-7.9
		c0-6.8-5.5-12.3-12.3-12.3c-6.8,0-12.3,5.5-12.3,12.3c0,2.9,1.1,5.7,2.9,7.9c-1.7,0.9-3.2,2.1-4.6,3.5c-3.7,3.7-5.8,8.7-5.8,14v2
		h6.7v-2c0-7.2,5.9-13.1,13.1-13.1c7.2,0,13.1,5.9,13.1,13.1v2h6.7v-2C1188.8,306.3,1186.7,301.3,1183,297.6"/>
	<path class="st0" d="M1237.2,267.4c3.7,0,6.7,3,6.7,6.7c0,3.7-3,6.7-6.7,6.7c-3.7,0-6.7-3-6.7-6.7
		C1230.5,270.4,1233.5,267.4,1237.2,267.4 M1251.2,285.5L1251.2,285.5c-1.4-1.4-2.9-2.5-4.6-3.5c1.9-2.2,2.9-5,2.9-7.9
		c0-6.8-5.5-12.3-12.3-12.3c-6.8,0-12.3,5.5-12.3,12.3c0,2.9,1.1,5.7,2.9,7.9c-1.7,0.9-3.2,2.1-4.6,3.5c-3.7,3.7-5.8,8.7-5.8,14v2
		h6.7v-2c0-7.2,5.9-13.1,13.1-13.1c7.2,0,13.1,5.9,13.1,13.1v2h6.7v-2C1257,294.2,1255,289.2,1251.2,285.5"/>
	<path class="st0" d="M1203.4,328c3.7,0,6.7,3,6.7,6.7c0,3.7-3,6.7-6.7,6.7c-3.7,0-6.7-3-6.7-6.7C1196.7,331,1199.7,328,1203.4,328
		 M1217.5,346.1L1217.5,346.1c-1.4-1.4-2.9-2.5-4.6-3.5c1.9-2.2,2.9-5,2.9-7.9c0-6.8-5.5-12.3-12.3-12.3c-6.8,0-12.3,5.5-12.3,12.3
		c0,2.9,1.1,5.7,2.9,7.9c-1.7,0.9-3.2,2.1-4.6,3.5c-3.7,3.7-5.8,8.7-5.8,14v2h6.7v-2c0-7.2,5.9-13.1,13.1-13.1
		c7.2,0,13.1,5.9,13.1,13.1v2h6.7v-2C1223.3,354.8,1221.2,349.8,1217.5,346.1"/>
	<path class="st0" d="M1081.2,393.9c3.7,0,6.7,3,6.7,6.7s-3,6.7-6.7,6.7c-3.7,0-6.7-3-6.7-6.7S1077.6,393.9,1081.2,393.9
		 M1095.3,412L1095.3,412c-1.4-1.4-2.9-2.5-4.6-3.5c1.9-2.2,2.9-5,2.9-7.9c0-6.8-5.5-12.3-12.3-12.3c-6.8,0-12.3,5.5-12.3,12.3
		c0,2.9,1.1,5.7,2.9,7.9c-1.7,0.9-3.2,2.1-4.6,3.5c-3.7,3.7-5.8,8.7-5.8,14v2h6.7v-2c0-7.2,5.9-13.1,13.1-13.1
		c7.2,0,13.1,5.9,13.1,13.1v2h6.7v-2C1101.1,420.7,1099,415.7,1095.3,412"/>
	<path class="st0" d="M1025.8,441.2c3.7,0,6.7,3,6.7,6.7c0,3.7-3,6.7-6.7,6.7c-3.7,0-6.7-3-6.7-6.7
		C1019.1,444.2,1022.1,441.2,1025.8,441.2 M1039.9,459.2L1039.9,459.2c-1.4-1.4-2.9-2.5-4.6-3.5c1.9-2.2,2.9-5,2.9-7.9
		c0-6.8-5.5-12.3-12.3-12.3c-6.8,0-12.3,5.5-12.3,12.3c0,2.9,1.1,5.7,2.9,7.9c-1.7,0.9-3.2,2.1-4.6,3.5c-3.7,3.7-5.8,8.7-5.8,14v2
		h6.7v-2c0-7.2,5.9-13.1,13.1-13.1c7.2,0,13.1,5.9,13.1,13.1v2h6.7v-2C1045.7,468,1043.6,463,1039.9,459.2"/>
	<path class="st0" d="M992.3,328.6c3.7,0,6.7,3,6.7,6.7c0,3.7-3,6.7-6.7,6.7c-3.7,0-6.7-3-6.7-6.7
		C985.6,331.6,988.6,328.6,992.3,328.6 M1006.3,346.7L1006.3,346.7c-1.4-1.4-2.9-2.5-4.6-3.5c1.9-2.2,2.9-5,2.9-7.9
		c0-6.8-5.5-12.3-12.3-12.3c-6.8,0-12.3,5.5-12.3,12.3c0,2.9,1.1,5.7,2.9,7.9c-1.7,0.9-3.2,2.1-4.6,3.5c-3.7,3.7-5.8,8.7-5.8,14v2
		h6.7v-2c0-7.2,5.9-13.1,13.1-13.1c7.2,0,13.1,5.9,13.1,13.1v2h6.7v-2C1012.1,355.5,1010,350.5,1006.3,346.7"/>
	<path class="st0" d="M968.8,485.1c3.7,0,6.7,3,6.7,6.7c0,3.7-3,6.7-6.7,6.7s-6.7-3-6.7-6.7C962.1,488.1,965.1,485.1,968.8,485.1
		 M982.8,503.1L982.8,503.1c-1.4-1.4-2.9-2.5-4.6-3.5c1.9-2.2,2.9-5,2.9-7.9c0-6.8-5.5-12.3-12.3-12.3c-6.8,0-12.3,5.5-12.3,12.3
		c0,2.9,1.1,5.7,2.9,7.9c-1.7,0.9-3.2,2.1-4.6,3.5c-3.7,3.7-5.8,8.7-5.8,14v2h6.7v-2c0-7.2,5.9-13.1,13.1-13.1
		c7.2,0,13.1,5.9,13.1,13.1v2h6.7v-2C988.6,511.9,986.6,506.9,982.8,503.1"/>
	<path class="st0" d="M871.7,408.4c3.7,0,6.7,3,6.7,6.7c0,3.7-3,6.7-6.7,6.7s-6.7-3-6.7-6.7C865,411.4,868,408.4,871.7,408.4
		 M885.8,426.4L885.8,426.4c-1.4-1.4-2.9-2.5-4.6-3.5c1.9-2.2,2.9-5,2.9-7.9c0-6.8-5.5-12.3-12.3-12.3c-6.8,0-12.3,5.5-12.3,12.3
		c0,2.9,1.1,5.7,2.9,7.9c-1.7,0.9-3.2,2.1-4.6,3.5c-3.7,3.7-5.8,8.7-5.8,14v2h6.7v-2c0-7.2,5.9-13.1,13.1-13.1
		c7.2,0,13.1,5.9,13.1,13.1v2h6.7v-2C891.6,435.2,889.5,430.2,885.8,426.4"/>
	<path class="st0" d="M800.6,383.3c3.7,0,6.7,3,6.7,6.7s-3,6.7-6.7,6.7s-6.7-3-6.7-6.7S796.9,383.3,800.6,383.3 M814.6,401.4
		L814.6,401.4c-1.4-1.4-2.9-2.5-4.6-3.5c1.9-2.2,2.9-5,2.9-7.9c0-6.8-5.5-12.3-12.3-12.3c-6.8,0-12.3,5.5-12.3,12.3
		c0,2.9,1.1,5.7,2.9,7.9c-1.7,0.9-3.2,2.1-4.6,3.5c-3.7,3.7-5.8,8.7-5.8,14v2h6.7v-2c0-7.2,5.9-13.1,13.1-13.1
		c7.2,0,13.1,5.9,13.1,13.1v2h6.7v-2C820.4,410.1,818.4,405.1,814.6,401.4"/>
	<path class="st0" d="M765.6,506.8c3.7,0,6.7,3,6.7,6.7c0,3.7-3,6.7-6.7,6.7c-3.7,0-6.7-3-6.7-6.7
		C758.9,509.8,761.9,506.8,765.6,506.8 M779.6,524.9L779.6,524.9c-1.4-1.4-2.9-2.5-4.6-3.5c1.9-2.2,2.9-5,2.9-7.9
		c0-6.8-5.5-12.3-12.3-12.3c-6.8,0-12.3,5.5-12.3,12.3c0,2.9,1.1,5.7,2.9,7.9c-1.7,0.9-3.2,2.1-4.6,3.5c-3.7,3.7-5.8,8.7-5.8,14v2
		h6.7v-2c0-7.2,5.9-13.1,13.1-13.1c7.2,0,13.1,5.9,13.1,13.1v2h6.7v-2C785.4,533.6,783.4,528.6,779.6,524.9"/>
	<path class="st0" d="M828.6,604.5c3.7,0,6.7,3,6.7,6.7s-3,6.7-6.7,6.7s-6.7-3-6.7-6.7S824.9,604.5,828.6,604.5 M842.6,622.5
		L842.6,622.5c-1.4-1.4-2.9-2.5-4.6-3.5c1.9-2.2,2.9-5,2.9-7.9c0-6.8-5.5-12.3-12.3-12.3c-6.8,0-12.3,5.5-12.3,12.3
		c0,2.9,1.1,5.7,2.9,7.9c-1.7,0.9-3.2,2.1-4.6,3.5c-3.7,3.7-5.8,8.7-5.8,14v2h6.7v-2c0-7.2,5.9-13.1,13.1-13.1
		c7.2,0,13.1,5.9,13.1,13.1v2h6.7v-2C848.4,631.3,846.3,626.3,842.6,622.5"/>
	<path class="st0" d="M696.3,573.6c3.7,0,6.7,3,6.7,6.7s-3,6.7-6.7,6.7c-3.7,0-6.7-3-6.7-6.7S692.6,573.6,696.3,573.6 M710.3,591.7
		L710.3,591.7c-1.4-1.4-2.9-2.5-4.6-3.5c1.9-2.2,2.9-5,2.9-7.9c0-6.8-5.5-12.3-12.3-12.3c-6.8,0-12.3,5.5-12.3,12.3
		c0,2.9,1.1,5.7,2.9,7.9c-1.7,0.9-3.2,2.1-4.6,3.5c-3.7,3.7-5.8,8.7-5.8,14v2h6.7v-2c0-7.2,5.9-13.1,13.1-13.1
		c7.2,0,13.1,5.9,13.1,13.1v2h6.7v-2C716.1,600.4,714.1,595.5,710.3,591.7"/>
	<path class="st0" d="M626,626.7c3.7,0,6.7,3,6.7,6.7c0,3.7-3,6.7-6.7,6.7c-3.7,0-6.7-3-6.7-6.7C619.3,629.7,622.3,626.7,626,626.7
		 M640,644.7L640,644.7c-1.4-1.4-2.9-2.5-4.6-3.5c1.9-2.2,2.9-5,2.9-7.9c0-6.8-5.5-12.3-12.3-12.3c-6.8,0-12.3,5.5-12.3,12.3
		c0,2.9,1.1,5.7,2.9,7.9c-1.7,0.9-3.2,2.1-4.6,3.5c-3.7,3.7-5.8,8.7-5.8,14v2h6.7v-2c0-7.2,5.9-13.1,13.1-13.1
		c7.2,0,13.1,5.9,13.1,13.1v2h6.7v-2C645.8,653.5,643.7,648.5,640,644.7"/>
	<path class="st0" d="M559.8,619.1c3.7,0,6.7,3,6.7,6.7c0,3.7-3,6.7-6.7,6.7c-3.7,0-6.7-3-6.7-6.7
		C553.1,622.1,556.1,619.1,559.8,619.1 M573.8,637.2L573.8,637.2c-1.4-1.4-2.9-2.5-4.6-3.5c1.9-2.2,2.9-5,2.9-7.9
		c0-6.8-5.5-12.3-12.3-12.3c-6.8,0-12.3,5.5-12.3,12.3c0,2.9,1.1,5.7,2.9,7.9c-1.7,0.9-3.2,2.1-4.6,3.5c-3.7,3.7-5.8,8.7-5.8,14v2
		h6.7v-2c0-7.2,5.9-13.1,13.1-13.1c7.2,0,13.1,5.9,13.1,13.1v2h6.7v-2C579.6,645.9,577.6,641,573.8,637.2"/>
	<path class="st0" d="M482.3,545.1c3.7,0,6.7,3,6.7,6.7c0,3.7-3,6.7-6.7,6.7s-6.7-3-6.7-6.7C475.6,548.1,478.6,545.1,482.3,545.1
		 M496.3,563.2L496.3,563.2c-1.4-1.4-2.9-2.5-4.6-3.5c1.9-2.2,2.9-5,2.9-7.9c0-6.8-5.5-12.3-12.3-12.3c-6.8,0-12.3,5.5-12.3,12.3
		c0,2.9,1.1,5.7,2.9,7.9c-1.7,0.9-3.2,2.1-4.6,3.5c-3.7,3.7-5.8,8.7-5.8,14v2h6.7v-2c0-7.2,5.9-13.1,13.1-13.1
		c7.2,0,13.1,5.9,13.1,13.1v2h6.7v-2C502.1,571.9,500.1,567,496.3,563.2"/>
	<path class="st0" d="M485.8,487.5c3.7,0,6.7,3,6.7,6.7s-3,6.7-6.7,6.7c-3.7,0-6.7-3-6.7-6.7S482.1,487.5,485.8,487.5 M499.8,505.5
		L499.8,505.5c-1.4-1.4-2.9-2.5-4.6-3.5c1.9-2.2,2.9-5,2.9-7.9c0-6.8-5.5-12.3-12.3-12.3c-6.8,0-12.3,5.5-12.3,12.3
		c0,2.9,1.1,5.7,2.9,7.9c-1.7,0.9-3.2,2.1-4.6,3.5c-3.7,3.7-5.8,8.7-5.8,14v2h6.7v-2c0-7.2,5.9-13.1,13.1-13.1
		c7.2,0,13.1,5.9,13.1,13.1v2h6.7v-2C505.6,514.3,503.5,509.3,499.8,505.5"/>
	<path class="st0" d="M587.2,459.7c3.7,0,6.7,3,6.7,6.7c0,3.7-3,6.7-6.7,6.7s-6.7-3-6.7-6.7C580.5,462.7,583.6,459.7,587.2,459.7
		 M601.3,477.7L601.3,477.7c-1.4-1.4-2.9-2.5-4.6-3.5c1.9-2.2,2.9-5,2.9-7.9c0-6.8-5.5-12.3-12.3-12.3c-6.8,0-12.3,5.5-12.3,12.3
		c0,2.9,1.1,5.7,2.9,7.9c-1.7,0.9-3.2,2.1-4.6,3.5c-3.7,3.7-5.8,8.7-5.8,14v2h6.7v-2c0-7.2,5.9-13.1,13.1-13.1
		c7.2,0,13.1,5.9,13.1,13.1v2h6.7v-2C607.1,486.5,605,481.5,601.3,477.7"/>
	<path class="st0" d="M519.4,386.4c3.7,0,6.7,3,6.7,6.7c0,3.7-3,6.7-6.7,6.7c-3.7,0-6.7-3-6.7-6.7
		C512.8,389.4,515.8,386.4,519.4,386.4 M533.5,404.5L533.5,404.5c-1.4-1.4-2.9-2.5-4.6-3.5c1.9-2.2,2.9-5,2.9-7.9
		c0-6.8-5.5-12.3-12.3-12.3c-6.8,0-12.3,5.5-12.3,12.3c0,2.9,1.1,5.7,2.9,7.9c-1.7,0.9-3.2,2.1-4.6,3.5c-3.7,3.7-5.8,8.7-5.8,14v2
		h6.7v-2c0-7.2,5.9-13.1,13.1-13.1c7.2,0,13.1,5.9,13.1,13.1v2h6.7v-2C539.3,413.3,537.2,408.3,533.5,404.5"/>
	<path class="st0" d="M454.2,354.3c3.7,0,6.7,3,6.7,6.7c0,3.7-3,6.7-6.7,6.7c-3.7,0-6.7-3-6.7-6.7
		C447.5,357.3,450.5,354.3,454.2,354.3 M468.2,372.4L468.2,372.4c-1.4-1.4-2.9-2.5-4.6-3.5c1.9-2.2,2.9-5,2.9-7.9
		c0-6.8-5.5-12.3-12.3-12.3c-6.8,0-12.3,5.5-12.3,12.3c0,2.9,1.1,5.7,2.9,7.9c-1.7,0.9-3.2,2.1-4.6,3.5c-3.7,3.7-5.8,8.7-5.8,14v2
		h6.7v-2c0-7.2,5.9-13.1,13.1-13.1c7.2,0,13.1,5.9,13.1,13.1v2h6.7v-2C474,381.1,472,376.2,468.2,372.4"/>
	<path class="st0" d="M329.4,329.9c3.7,0,6.7,3,6.7,6.7c0,3.7-3,6.7-6.7,6.7s-6.7-3-6.7-6.7C322.7,332.9,325.7,329.9,329.4,329.9
		 M343.4,348L343.4,348c-1.4-1.4-2.9-2.5-4.6-3.5c1.9-2.2,2.9-5,2.9-7.9c0-6.8-5.5-12.3-12.3-12.3c-6.8,0-12.3,5.5-12.3,12.3
		c0,2.9,1.1,5.7,2.9,7.9c-1.7,0.9-3.2,2.1-4.6,3.5c-3.7,3.7-5.8,8.7-5.8,14v2h6.7v-2c0-7.2,5.9-13.1,13.1-13.1
		c7.2,0,13.1,5.9,13.1,13.1v2h6.7v-2C349.2,356.7,347.1,351.7,343.4,348"/>
	<path class="st0" d="M303.4,378.7c3.7,0,6.7,3,6.7,6.7c0,3.7-3,6.7-6.7,6.7s-6.7-3-6.7-6.7C296.7,381.7,299.7,378.7,303.4,378.7
		 M317.4,396.8L317.4,396.8c-1.4-1.4-2.9-2.5-4.6-3.5c1.9-2.2,2.9-5,2.9-7.9c0-6.8-5.5-12.3-12.3-12.3c-6.8,0-12.3,5.5-12.3,12.3
		c0,2.9,1.1,5.7,2.9,7.9c-1.7,0.9-3.2,2.1-4.6,3.5c-3.7,3.7-5.8,8.7-5.8,14v2h6.7v-2c0-7.2,5.9-13.1,13.1-13.1
		c7.2,0,13.1,5.9,13.1,13.1v2h6.7v-2C323.2,405.5,321.1,400.6,317.4,396.8"/>
	<path class="st0" d="M359.2,425.1c3.7,0,6.7,3,6.7,6.7c0,3.7-3,6.7-6.7,6.7c-3.7,0-6.7-3-6.7-6.7
		C352.5,428.1,355.5,425.1,359.2,425.1 M373.2,443.2L373.2,443.2c-1.4-1.4-2.9-2.5-4.6-3.5c1.9-2.2,2.9-5,2.9-7.9
		c0-6.8-5.5-12.3-12.3-12.3c-6.8,0-12.3,5.5-12.3,12.3c0,2.9,1.1,5.7,2.9,7.9c-1.7,0.9-3.2,2.1-4.6,3.5c-3.7,3.7-5.8,8.7-5.8,14v2
		h6.7v-2c0-7.2,5.9-13.1,13.1-13.1c7.2,0,13.1,5.9,13.1,13.1v2h6.7v-2C379,451.9,376.9,446.9,373.2,443.2"/>
	<path class="st0" d="M350.8,482.7c3.7,0,6.7,3,6.7,6.7s-3,6.7-6.7,6.7c-3.7,0-6.7-3-6.7-6.7S347.1,482.7,350.8,482.7 M364.8,500.8
		L364.8,500.8c-1.4-1.4-2.9-2.5-4.6-3.5c1.9-2.2,2.9-5,2.9-7.9c0-6.8-5.5-12.3-12.3-12.3c-6.8,0-12.3,5.5-12.3,12.3
		c0,2.9,1.1,5.7,2.9,7.9c-1.7,0.9-3.2,2.1-4.6,3.5c-3.7,3.7-5.8,8.7-5.8,14v2h6.7v-2c0-7.2,5.9-13.1,13.1-13.1
		c7.2,0,13.1,5.9,13.1,13.1v2h6.7v-2C370.6,509.5,368.6,504.5,364.8,500.8"/>
	<path class="st0" d="M238.8,393.9c3.7,0,6.7,3,6.7,6.7c0,3.7-3,6.7-6.7,6.7s-6.7-3-6.7-6.7C232.1,396.9,235.1,393.9,238.8,393.9
		 M252.9,412L252.9,412c-1.4-1.4-2.9-2.5-4.6-3.5c1.9-2.2,2.9-5,2.9-7.9c0-6.8-5.5-12.3-12.3-12.3c-6.8,0-12.3,5.5-12.3,12.3
		c0,2.9,1.1,5.7,2.9,7.9c-1.7,0.9-3.2,2.1-4.6,3.5c-3.7,3.7-5.8,8.7-5.8,14v2h6.7v-2c0-7.2,5.9-13.1,13.1-13.1
		c7.2,0,13.1,5.9,13.1,13.1v2h6.7v-2C258.7,420.7,256.6,415.7,252.9,412"/>
	<path class="st0" d="M155.7,383.3c3.7,0,6.7,3,6.7,6.7s-3,6.7-6.7,6.7s-6.7-3-6.7-6.7S152,383.3,155.7,383.3 M169.7,401.4
		L169.7,401.4c-1.4-1.4-2.9-2.5-4.6-3.5c1.9-2.2,2.9-5,2.9-7.9c0-6.8-5.5-12.3-12.3-12.3c-6.8,0-12.3,5.5-12.3,12.3
		c0,2.9,1.1,5.7,2.9,7.9c-1.7,0.9-3.2,2.1-4.6,3.5c-3.7,3.7-5.8,8.7-5.8,14v2h6.7v-2c0-7.2,5.9-13.1,13.1-13.1
		c7.2,0,13.1,5.9,13.1,13.1v2h6.7v-2C175.5,410.1,173.4,405.1,169.7,401.4"/>
	<path class="st0" d="M211.5,272.5c3.7,0,6.7,3,6.7,6.7c0,3.7-3,6.7-6.7,6.7s-6.7-3-6.7-6.7C204.8,275.5,207.8,272.5,211.5,272.5
		 M225.5,290.5L225.5,290.5c-1.4-1.4-2.9-2.5-4.6-3.5c1.9-2.2,2.9-5,2.9-7.9c0-6.8-5.5-12.3-12.3-12.3c-6.8,0-12.3,5.5-12.3,12.3
		c0,2.9,1.1,5.7,2.9,7.9c-1.7,0.9-3.2,2.1-4.6,3.5c-3.7,3.7-5.8,8.7-5.8,14v2h6.7v-2c0-7.2,5.9-13.1,13.1-13.1
		c7.2,0,13.1,5.9,13.1,13.1v2h6.7v-2C231.3,299.3,229.2,294.3,225.5,290.5"/>
	<path class="st0" d="M151.5,280c3.7,0,6.7,3,6.7,6.7s-3,6.7-6.7,6.7c-3.7,0-6.7-3-6.7-6.7S147.9,280,151.5,280 M165.6,298.1
		L165.6,298.1c-1.4-1.4-2.9-2.5-4.6-3.5c1.9-2.2,2.9-5,2.9-7.9c0-6.8-5.5-12.3-12.3-12.3c-6.8,0-12.3,5.5-12.3,12.3
		c0,2.9,1.1,5.7,2.9,7.9c-1.7,0.9-3.2,2.1-4.6,3.5c-3.7,3.7-5.8,8.7-5.8,14v2h6.7v-2c0-7.2,5.9-13.1,13.1-13.1
		c7.2,0,13.1,5.9,13.1,13.1v2h6.7v-2C171.4,306.8,169.3,301.8,165.6,298.1"/>
	<path class="st0" d="M177,212.1c3.7,0,6.7,3,6.7,6.7c0,3.7-3,6.7-6.7,6.7c-3.7,0-6.7-3-6.7-6.7C170.3,215.1,173.3,212.1,177,212.1
		 M191,230.1L191,230.1c-1.4-1.4-2.9-2.5-4.6-3.5c1.9-2.2,2.9-5,2.9-7.9c0-6.8-5.5-12.3-12.3-12.3c-6.8,0-12.3,5.5-12.3,12.3
		c0,2.9,1.1,5.7,2.9,7.9c-1.7,0.9-3.2,2.1-4.6,3.5c-3.7,3.7-5.8,8.7-5.8,14v2h6.7v-2c0-7.2,5.9-13.1,13.1-13.1
		c7.2,0,13.1,5.9,13.1,13.1v2h6.7v-2C196.9,238.9,194.8,233.9,191,230.1"/>
	<path class="st0" d="M553.1,280c3.7,0,6.7,3,6.7,6.7s-3,6.7-6.7,6.7s-6.7-3-6.7-6.7S549.4,280,553.1,280 M567.1,298.1L567.1,298.1
		c-1.4-1.4-2.9-2.5-4.6-3.5c1.9-2.2,2.9-5,2.9-7.9c0-6.8-5.5-12.3-12.3-12.3c-6.8,0-12.3,5.5-12.3,12.3c0,2.9,1.1,5.7,2.9,7.9
		c-1.7,0.9-3.2,2.1-4.6,3.5c-3.7,3.7-5.8,8.7-5.8,14v2h6.7v-2c0-7.2,5.9-13.1,13.1-13.1c7.2,0,13.1,5.9,13.1,13.1v2h6.7v-2
		C573,306.8,570.9,301.8,567.1,298.1"/>
	<path class="st0" d="M434.3,201.3c3.7,0,6.7,3,6.7,6.7c0,3.7-3,6.7-6.7,6.7c-3.7,0-6.7-3-6.7-6.7
		C427.6,204.3,430.6,201.3,434.3,201.3 M448.4,219.4L448.4,219.4c-1.4-1.4-2.9-2.5-4.6-3.5c1.9-2.2,2.9-5,2.9-7.9
		c0-6.8-5.5-12.3-12.3-12.3c-6.8,0-12.3,5.5-12.3,12.3c0,2.9,1.1,5.7,2.9,7.9c-1.7,0.9-3.2,2.1-4.6,3.5c-3.7,3.7-5.8,8.7-5.8,14v2
		h6.7v-2c0-7.2,5.9-13.1,13.1-13.1c7.2,0,13.1,5.9,13.1,13.1v2h6.7v-2C454.2,228.1,452.1,223.1,448.4,219.4"/>
	<path class="st0" d="M660,463.1c3.7,0,6.7,3,6.7,6.7c0,3.7-3,6.7-6.7,6.7c-3.7,0-6.7-3-6.7-6.7C653.3,466.1,656.3,463.1,660,463.1
		 M674.1,481.2L674.1,481.2c-1.4-1.4-2.9-2.5-4.6-3.5c1.9-2.2,2.9-5,2.9-7.9c0-6.8-5.5-12.3-12.3-12.3c-6.8,0-12.3,5.5-12.3,12.3
		c0,2.9,1.1,5.7,2.9,7.9c-1.7,0.9-3.2,2.1-4.6,3.5c-3.7,3.7-5.8,8.7-5.8,14v2h6.7v-2c0-7.2,5.9-13.1,13.1-13.1
		c7.2,0,13.1,5.9,13.1,13.1v2h6.7v-2C679.9,489.9,677.8,484.9,674.1,481.2"/>
	<path class="st0" d="M697.2,352.6c3.7,0,6.7,3,6.7,6.7c0,3.7-3,6.7-6.7,6.7s-6.7-3-6.7-6.7C690.5,355.6,693.5,352.6,697.2,352.6
		 M711.2,370.7L711.2,370.7c-1.4-1.4-2.9-2.5-4.6-3.5c1.9-2.2,2.9-5,2.9-7.9c0-6.8-5.5-12.3-12.3-12.3c-6.8,0-12.3,5.5-12.3,12.3
		c0,2.9,1.1,5.7,2.9,7.9c-1.7,0.9-3.2,2.1-4.6,3.5c-3.7,3.7-5.8,8.7-5.8,14v2h6.7v-2c0-7.2,5.9-13.1,13.1-13.1
		c7.2,0,13.1,5.9,13.1,13.1v2h6.7v-2C717.1,379.4,715,374.4,711.2,370.7"/>
	<path class="st0" d="M899.7,459.7c3.7,0,6.7,3,6.7,6.7s-3,6.7-6.7,6.7c-3.7,0-6.7-3-6.7-6.7S896.1,459.7,899.7,459.7 M913.8,477.8
		L913.8,477.8c-1.4-1.4-2.9-2.5-4.6-3.5c1.9-2.2,2.9-5,2.9-7.9c0-6.8-5.5-12.3-12.3-12.3c-6.8,0-12.3,5.5-12.3,12.3
		c0,2.9,1.1,5.7,2.9,7.9c-1.7,0.9-3.2,2.1-4.6,3.5c-3.7,3.7-5.8,8.7-5.8,14v2h6.7v-2c0-7.2,5.9-13.1,13.1-13.1
		c7.2,0,13.1,5.9,13.1,13.1v2h6.7v-2C919.6,486.5,917.5,481.5,913.8,477.8"/>
</g>
<polygon class="st0" points="60.5,10.9 67.3,10.9 67.3,39.9 75,39.9 75,4.1 60.5,4.1 "/>
<g>
	<path class="st0" d="M17,11.6c-5.8,0-10.4,4.7-10.4,10.4c0,5.8,4.7,10.4,10.4,10.4S27.4,27.8,27.4,22C27.4,16.2,22.7,11.6,17,11.6
		 M17,39C7.6,39,0,31.4,0,22C0,12.6,7.6,5,17,5s17,7.6,17,17C33.9,31.4,26.3,39,17,39"/>
</g>
<polygon class="st0" points="171.6,10.9 178.4,10.9 178.4,39.9 186.1,39.9 186.1,4.1 171.6,4.1 "/>
<polygon class="st0" points="180.8,83.4 187.7,83.4 187.7,112.4 195.4,112.4 195.4,76.6 180.8,76.6 "/>
<polygon class="st0" points="224.7,10.9 231.5,10.9 231.5,39.9 239.2,39.9 239.2,4.1 224.7,4.1 "/>
<polygon class="st0" points="282,10.9 288.8,10.9 288.8,39.9 296.5,39.9 296.5,4.1 282,4.1 "/>
<polygon class="st0" points="291.9,83.4 298.7,83.4 298.7,112.4 306.4,112.4 306.4,76.6 291.9,76.6 "/>
<g>
	<path class="st0" d="M128,11.6c-5.8,0-10.4,4.7-10.4,10.4c0,5.8,4.7,10.4,10.4,10.4c5.8,0,10.4-4.7,10.4-10.4
		C138.5,16.2,133.8,11.6,128,11.6 M128,39c-9.4,0-17-7.6-17-17c0-9.4,7.6-17,17-17s17,7.6,17,17C145,31.4,137.4,39,128,39"/>
	<path class="st0" d="M134,80.8c-5.8,0-10.4,4.7-10.4,10.4c0,5.8,4.7,10.4,10.4,10.4c5.8,0,10.4-4.7,10.4-10.4
		C144.4,85.5,139.7,80.8,134,80.8 M134,108.2c-9.4,0-17-7.6-17-17s7.6-17,17-17s17,7.6,17,17S143.3,108.2,134,108.2"/>
	<path class="st0" d="M77.9,82.9c-5.8,0-10.4,4.7-10.4,10.4c0,5.8,4.7,10.4,10.4,10.4c5.8,0,10.4-4.7,10.4-10.4
		C88.3,87.6,83.6,82.9,77.9,82.9 M77.9,110.3c-9.4,0-17-7.6-17-17s7.6-17,17-17s17,7.6,17,17S87.2,110.3,77.9,110.3"/>
	<path class="st0" d="M22.9,79.5c-5.8,0-10.4,4.7-10.4,10.4c0,5.8,4.7,10.4,10.4,10.4s10.4-4.7,10.4-10.4
		C33.4,84.2,28.7,79.5,22.9,79.5 M22.9,106.9c-9.4,0-17-7.6-17-17s7.6-17,17-17s17,7.6,17,17S32.3,106.9,22.9,106.9"/>
	<path class="st0" d="M345.9,11.6c-5.8,0-10.4,4.7-10.4,10.4c0,5.8,4.7,10.4,10.4,10.4c5.8,0,10.4-4.7,10.4-10.4
		C356.4,16.2,351.7,11.6,345.9,11.6 M345.9,39c-9.4,0-17-7.6-17-17c0-9.4,7.6-17,17-17c9.4,0,17,7.6,17,17
		C362.9,31.4,355.3,39,345.9,39"/>
	<path class="st0" d="M245.9,82.9c-5.8,0-10.4,4.7-10.4,10.4c0,5.8,4.7,10.4,10.4,10.4c5.8,0,10.4-4.7,10.4-10.4
		C256.3,87.6,251.7,82.9,245.9,82.9 M245.9,110.3c-9.4,0-17-7.6-17-17s7.6-17,17-17c9.4,0,17,7.6,17,17S255.3,110.3,245.9,110.3"/>
	<path class="st0" d="M359.2,82.9c-5.8,0-10.4,4.7-10.4,10.4c0,5.8,4.7,10.4,10.4,10.4c5.8,0,10.4-4.7,10.4-10.4
		C369.6,87.6,364.9,82.9,359.2,82.9 M359.2,110.3c-9.4,0-17-7.6-17-17s7.6-17,17-17c9.4,0,17,7.6,17,17S368.5,110.3,359.2,110.3"/>
</g>
<polygon class="st0" points="85.5,150.4 92.3,150.4 92.3,179.4 100,179.4 100,143.6 85.5,143.6 "/>
<polygon class="st0" points="105.1,333 111.9,333 111.9,362.1 119.6,362.1 119.6,326.2 105.1,326.2 "/>
<g>
	<path class="st0" d="M34.5,146.4c-5.8,0-10.4,4.7-10.4,10.4c0,5.8,4.7,10.4,10.4,10.4s10.4-4.7,10.4-10.4
		C44.9,151.1,40.2,146.4,34.5,146.4 M34.5,173.8c-9.4,0-17-7.6-17-17c0-9.4,7.6-17,17-17s17,7.6,17,17
		C51.4,166.2,43.8,173.8,34.5,173.8"/>
</g>
<polygon class="st0" points="202.8,153.9 209.6,153.9 209.6,182.9 217.3,182.9 217.3,147.1 202.8,147.1 "/>
<polygon class="st0" points="231.6,219.7 238.4,219.7 238.4,248.7 246.1,248.7 246.1,212.9 231.6,212.9 "/>
<polygon class="st0" points="255.6,151 262.4,151 262.4,180 270.1,180 270.1,144.2 255.6,144.2 "/>
<polygon class="st0" points="321.7,156.2 328.5,156.2 328.5,185.2 336.2,185.2 336.2,149.4 321.7,149.4 "/>
<polygon class="st0" points="357.4,215.9 364.3,215.9 364.3,245 371.9,245 371.9,209.1 357.4,209.1 "/>
<polygon class="st0" points="413.1,271.1 419.9,271.1 419.9,300.1 427.6,300.1 427.6,264.3 413.1,264.3 "/>
<polygon class="st0" points="542.7,342 549.5,342 549.5,371 557.2,371 557.2,335.2 542.7,335.2 "/>
<polygon class="st0" points="385.7,320.4 392.6,320.4 392.6,349.4 400.2,349.4 400.2,313.6 385.7,313.6 "/>
<polygon class="st0" points="238.8,485 245.6,485 245.6,514 253.3,514 253.3,478.2 238.8,478.2 "/>
<polygon class="st0" points="378.3,381.9 385.1,381.9 385.1,410.9 392.8,410.9 392.8,375 378.3,375 "/>
<polygon class="st0" points="441.1,419 447.9,419 447.9,448 455.6,448 455.6,412.2 441.1,412.2 "/>
<polygon class="st0" points="405.8,524.4 412.6,524.4 412.6,553.5 420.3,553.5 420.3,517.6 405.8,517.6 "/>
<polygon class="st0" points="419.2,585.8 426,585.8 426,614.8 433.7,614.8 433.7,579 419.2,579 "/>
<polygon class="st0" points="508.9,446.2 515.7,446.2 515.7,475.2 523.4,475.2 523.4,439.4 508.9,439.4 "/>
<polygon class="st0" points="545.9,512.5 552.7,512.5 552.7,541.5 560.4,541.5 560.4,505.7 545.9,505.7 "/>
<polygon class="st0" points="542.7,567.9 549.5,567.9 549.5,596.9 557.2,596.9 557.2,561.1 542.7,561.1 "/>
<polygon class="st0" points="615.6,578.8 622.4,578.8 622.4,607.8 630.1,607.8 630.1,572 615.6,572 "/>
<polygon class="st0" points="688.3,524.4 695.1,524.4 695.1,553.5 702.8,553.5 702.8,517.6 688.3,517.6 "/>
<polygon class="st0" points="758.6,567.9 765.4,567.9 765.4,596.9 773.1,596.9 773.1,561.1 758.6,561.1 "/>
<polygon class="st0" points="724.1,464.1 730.9,464.1 730.9,493.1 738.6,493.1 738.6,457.3 724.1,457.3 "/>
<polygon class="st0" points="758.6,285.2 765.4,285.2 765.4,314.3 773.1,314.3 773.1,278.4 758.6,278.4 "/>
<polygon class="st0" points="924.2,381.9 931,381.9 931,410.9 938.7,410.9 938.7,375 924.2,375 "/>
<polygon class="st0" points="1121.2,345.7 1128,345.7 1128,374.7 1135.7,374.7 1135.7,338.8 1121.2,338.8 "/>
<polygon class="st0" points="1109.5,440.9 1116.3,440.9 1116.3,469.9 1124,469.9 1124,434.1 1109.5,434.1 "/>
<polygon class="st0" points="793.4,448.9 800.2,448.9 800.2,477.9 807.9,477.9 807.9,442.1 793.4,442.1 "/>
<polygon class="st0" points="827,312.9 833.9,312.9 833.9,341.9 841.5,341.9 841.5,306 827,306 "/>
<polygon class="st0" points="830.5,550 837.3,550 837.3,579 845,579 845,543.2 830.5,543.2 "/>
<polygon class="st0" points="946.8,560.9 953.7,560.9 953.7,589.9 961.3,589.9 961.3,554 946.8,554 "/>
<polygon class="st0" points="652.8,414.9 659.6,414.9 659.6,444 667.3,444 667.3,408.1 652.8,408.1 "/>
<polygon class="st0" points="615.6,357.5 622.4,357.5 622.4,386.5 630.1,386.5 630.1,350.7 615.6,350.7 "/>
<g>
	<path class="st0" d="M150.9,150.8c-5.8,0-10.4,4.7-10.4,10.4c0,5.8,4.7,10.4,10.4,10.4c5.8,0,10.4-4.7,10.4-10.4
		C161.4,155.4,156.7,150.8,150.9,150.8 M150.9,178.2c-9.4,0-17-7.6-17-17c0-9.4,7.6-17,17-17c9.4,0,17,7.6,17,17
		C167.9,170.6,160.3,178.2,150.9,178.2"/>
	<path class="st0" d="M280.3,281.9c-5.8,0-10.4,4.7-10.4,10.4c0,5.8,4.7,10.4,10.4,10.4c5.8,0,10.4-4.7,10.4-10.4
		C290.7,286.6,286,281.9,280.3,281.9 M280.3,309.4c-9.4,0-17-7.6-17-17c0-9.4,7.6-17,17-17c9.4,0,17,7.6,17,17
		C297.2,301.7,289.6,309.4,280.3,309.4"/>
	<path class="st0" d="M344.1,271.8c-5.8,0-10.4,4.7-10.4,10.4c0,5.8,4.7,10.4,10.4,10.4c5.8,0,10.4-4.7,10.4-10.4
		C354.6,276.5,349.9,271.8,344.1,271.8 M344.1,299.2c-9.4,0-17-7.6-17-17c0-9.4,7.6-17,17-17c9.4,0,17,7.6,17,17
		C361.1,291.6,353.5,299.2,344.1,299.2"/>
	<path class="st0" d="M481.6,313.5c-5.8,0-10.4,4.7-10.4,10.4c0,5.8,4.7,10.4,10.4,10.4c5.8,0,10.4-4.7,10.4-10.4
		C492,318.2,487.3,313.5,481.6,313.5 M481.6,340.9c-9.4,0-17-7.6-17-17c0-9.4,7.6-17,17-17c9.4,0,17,7.6,17,17
		C498.5,333.3,490.9,340.9,481.6,340.9"/>
	<path class="st0" d="M420.3,465.7c-5.8,0-10.4,4.7-10.4,10.4s4.7,10.4,10.4,10.4c5.8,0,10.4-4.7,10.4-10.4S426.1,465.7,420.3,465.7
		 M420.3,493.1c-9.4,0-17-7.6-17-17s7.6-17,17-17c9.4,0,17,7.6,17,17S429.7,493.1,420.3,493.1"/>
	<path class="st0" d="M305.9,527.1c-5.8,0-10.4,4.7-10.4,10.4c0,5.8,4.7,10.4,10.4,10.4c5.8,0,10.4-4.7,10.4-10.4
		C316.3,531.7,311.6,527.1,305.9,527.1 M305.9,554.5c-9.4,0-17-7.6-17-17s7.6-17,17-17c9.4,0,17,7.6,17,17S315.2,554.5,305.9,554.5"
		/>
	<path class="st0" d="M364.7,561.5c-5.8,0-10.4,4.7-10.4,10.4c0,5.8,4.7,10.4,10.4,10.4c5.8,0,10.4-4.7,10.4-10.4
		C375.1,566.2,370.5,561.5,364.7,561.5 M364.7,588.9c-9.4,0-17-7.6-17-17c0-9.4,7.6-17,17-17c9.4,0,17,7.6,17,17
		C381.7,581.3,374.1,588.9,364.7,588.9"/>
	<path class="st0" d="M492.5,611.4c-5.8,0-10.4,4.7-10.4,10.4c0,5.8,4.7,10.4,10.4,10.4c5.8,0,10.4-4.7,10.4-10.4
		C502.9,616.1,498.2,611.4,492.5,611.4 M492.5,638.8c-9.4,0-17-7.6-17-17c0-9.4,7.6-17,17-17c9.4,0,17,7.6,17,17
		C509.4,631.2,501.8,638.8,492.5,638.8"/>
	<path class="st0" d="M588.7,409.1c-5.8,0-10.4,4.7-10.4,10.4c0,5.8,4.7,10.4,10.4,10.4c5.8,0,10.4-4.7,10.4-10.4
		C599.2,413.8,594.5,409.1,588.7,409.1 M588.7,436.5c-9.4,0-17-7.6-17-17c0-9.4,7.6-17,17-17c9.4,0,17,7.6,17,17
		C605.7,428.9,598.1,436.5,588.7,436.5"/>
	<path class="st0" d="M622.8,303.6c-5.8,0-10.4,4.7-10.4,10.4c0,5.8,4.7,10.4,10.4,10.4c5.8,0,10.4-4.7,10.4-10.4
		C633.3,308.3,628.6,303.6,622.8,303.6 M622.8,331.1c-9.4,0-17-7.6-17-17c0-9.4,7.6-17,17-17c9.4,0,17,7.6,17,17
		C639.8,323.4,632.2,331.1,622.8,331.1"/>
	<path class="st0" d="M695.5,302.6c-5.8,0-10.4,4.7-10.4,10.4c0,5.8,4.7,10.4,10.4,10.4c5.8,0,10.4-4.7,10.4-10.4
		C706,307.2,701.3,302.6,695.5,302.6 M695.5,330c-9.4,0-17-7.6-17-17c0-9.4,7.6-17,17-17c9.4,0,17,7.6,17,17
		C712.5,322.4,704.9,330,695.5,330"/>
	<path class="st0" d="M770.1,342.9c-5.8,0-10.4,4.7-10.4,10.4c0,5.8,4.7,10.4,10.4,10.4c5.8,0,10.4-4.7,10.4-10.4
		C780.5,347.6,775.8,342.9,770.1,342.9 M770.1,370.3c-9.4,0-17-7.6-17-17c0-9.4,7.6-17,17-17c9.4,0,17,7.6,17,17
		C787,362.7,779.4,370.3,770.1,370.3"/>
	<path class="st0" d="M865.9,360.7c-5.8,0-10.4,4.7-10.4,10.4c0,5.8,4.7,10.4,10.4,10.4c5.8,0,10.4-4.7,10.4-10.4
		C876.3,365.4,871.6,360.7,865.9,360.7 M865.9,388.1c-9.4,0-17-7.6-17-17c0-9.4,7.6-17,17-17c9.4,0,17,7.6,17,17
		C882.8,380.5,875.2,388.1,865.9,388.1"/>
	<path class="st0" d="M924.2,321.1c-5.8,0-10.4,4.7-10.4,10.4c0,5.8,4.7,10.4,10.4,10.4c5.8,0,10.4-4.7,10.4-10.4
		C934.6,325.7,929.9,321.1,924.2,321.1 M924.2,348.5c-9.4,0-17-7.6-17-17c0-9.4,7.6-17,17-17c9.4,0,17,7.6,17,17
		C941.1,340.9,933.5,348.5,924.2,348.5"/>
	<path class="st0" d="M1016.7,387.1c-5.8,0-10.4,4.7-10.4,10.4c0,5.8,4.7,10.4,10.4,10.4c5.8,0,10.4-4.7,10.4-10.4
		C1027.1,391.8,1022.4,387.1,1016.7,387.1 M1016.7,414.5c-9.4,0-17-7.6-17-17c0-9.4,7.6-17,17-17c9.4,0,17,7.6,17,17
		C1033.7,406.9,1026,414.5,1016.7,414.5"/>
	<path class="st0" d="M1164.4,389.3c-5.8,0-10.4,4.7-10.4,10.4c0,5.8,4.7,10.4,10.4,10.4c5.8,0,10.4-4.7,10.4-10.4
		C1174.9,394,1170.2,389.3,1164.4,389.3 M1164.4,416.7c-9.4,0-17-7.6-17-17s7.6-17,17-17c9.4,0,17,7.6,17,17
		S1173.8,416.7,1164.4,416.7"/>
	<path class="st0" d="M1066.3,337.4c-5.8,0-10.4,4.7-10.4,10.4c0,5.8,4.7,10.4,10.4,10.4c5.8,0,10.4-4.7,10.4-10.4
		C1076.8,342,1072.1,337.4,1066.3,337.4 M1066.3,364.8c-9.4,0-17-7.6-17-17c0-9.4,7.6-17,17-17c9.4,0,17,7.6,17,17
		C1083.3,357.2,1075.7,364.8,1066.3,364.8"/>
	<path class="st0" d="M731.3,408.2c-5.8,0-10.4,4.7-10.4,10.4c0,5.8,4.7,10.4,10.4,10.4c5.8,0,10.4-4.7,10.4-10.4
		C741.8,412.8,737.1,408.2,731.3,408.2 M731.3,435.6c-9.4,0-17-7.6-17-17s7.6-17,17-17c9.4,0,17,7.6,17,17S740.7,435.6,731.3,435.6"
		/>
	<path class="st0" d="M623.8,522.4c-5.8,0-10.4,4.7-10.4,10.4c0,5.8,4.7,10.4,10.4,10.4c5.8,0,10.4-4.7,10.4-10.4
		C634.2,527.1,629.5,522.4,623.8,522.4 M623.8,549.8c-9.4,0-17-7.6-17-17c0-9.4,7.6-17,17-17c9.4,0,17,7.6,17,17
		C640.7,542.2,633.1,549.8,623.8,549.8"/>
	<path class="st0" d="M694.1,632.4c-5.8,0-10.4,4.7-10.4,10.4c0,5.8,4.7,10.4,10.4,10.4c5.8,0,10.4-4.7,10.4-10.4
		C704.5,637.1,699.8,632.4,694.1,632.4 M694.1,659.8c-9.4,0-17-7.6-17-17c0-9.4,7.6-17,17-17c9.4,0,17,7.6,17,17
		C711.1,652.2,703.4,659.8,694.1,659.8"/>
	<path class="st0" d="M761.9,625.2c-5.8,0-10.4,4.7-10.4,10.4c0,5.8,4.7,10.4,10.4,10.4c5.8,0,10.4-4.7,10.4-10.4
		C772.3,629.9,767.6,625.2,761.9,625.2 M761.9,652.7c-9.4,0-17-7.6-17-17s7.6-17,17-17c9.4,0,17,7.6,17,17S771.2,652.7,761.9,652.7"
		/>
	<path class="st0" d="M835.3,494.5c-5.8,0-10.4,4.7-10.4,10.4c0,5.8,4.7,10.4,10.4,10.4c5.8,0,10.4-4.7,10.4-10.4
		C845.7,499.2,841,494.5,835.3,494.5 M835.3,521.9c-9.4,0-17-7.6-17-17c0-9.4,7.6-17,17-17c9.4,0,17,7.6,17,17
		C852.2,514.3,844.6,521.9,835.3,521.9"/>
	<path class="st0" d="M905.1,525.1c-5.8,0-10.4,4.7-10.4,10.4c0,5.8,4.7,10.4,10.4,10.4c5.8,0,10.4-4.7,10.4-10.4
		C915.6,529.8,910.9,525.1,905.1,525.1 M905.1,552.5c-9.4,0-17-7.6-17-17c0-9.4,7.6-17,17-17c9.4,0,17,7.6,17,17
		C922.1,544.9,914.5,552.5,905.1,552.5"/>
	<path class="st0" d="M960.9,429.9c-5.8,0-10.4,4.7-10.4,10.4c0,5.8,4.7,10.4,10.4,10.4c5.8,0,10.4-4.7,10.4-10.4
		C971.3,434.6,966.6,429.9,960.9,429.9 M960.9,457.3c-9.4,0-17-7.6-17-17c0-9.4,7.6-17,17-17c9.4,0,17,7.6,17,17
		C977.9,449.7,970.2,457.3,960.9,457.3"/>
	<path class="st0" d="M893,588.4c-5.8,0-10.4,4.7-10.4,10.4c0,5.8,4.7,10.4,10.4,10.4c5.8,0,10.4-4.7,10.4-10.4
		C903.5,593.1,898.8,588.4,893,588.4 M893,615.8c-9.4,0-17-7.6-17-17c0-9.4,7.6-17,17-17c9.4,0,17,7.6,17,17
		C910,608.2,902.4,615.8,893,615.8"/>
	<path class="st0" d="M1014.2,527.1c-5.8,0-10.4,4.7-10.4,10.4c0,5.8,4.7,10.4,10.4,10.4c5.8,0,10.4-4.7,10.4-10.4
		C1024.7,531.7,1020,527.1,1014.2,527.1 M1014.2,554.5c-9.4,0-17-7.6-17-17c0-9.4,7.6-17,17-17c9.4,0,17,7.6,17,17
		C1031.2,546.9,1023.6,554.5,1014.2,554.5"/>
	<path class="st0" d="M1069,485.4c-5.8,0-10.4,4.7-10.4,10.4c0,5.8,4.7,10.4,10.4,10.4c5.8,0,10.4-4.7,10.4-10.4
		C1079.5,490,1074.8,485.4,1069,485.4 M1069,512.8c-9.4,0-17-7.6-17-17c0-9.4,7.6-17,17-17c9.4,0,17,7.6,17,17
		C1086,505.2,1078.4,512.8,1069,512.8"/>
	<path class="st0" d="M253.3,336.2c-5.8,0-10.4,4.7-10.4,10.4c0,5.8,4.7,10.4,10.4,10.4c5.8,0,10.4-4.7,10.4-10.4
		C263.8,340.9,259.1,336.2,253.3,336.2 M253.3,363.7c-9.4,0-17-7.6-17-17c0-9.4,7.6-17,17-17c9.4,0,17,7.6,17,17
		C270.3,356.1,262.7,363.7,253.3,363.7"/>
	<path class="st0" d="M122.8,223.8c-5.8,0-10.4,4.7-10.4,10.4c0,5.8,4.7,10.4,10.4,10.4c5.8,0,10.4-4.7,10.4-10.4
		C133.2,228.5,128.6,223.8,122.8,223.8 M122.8,251.2c-9.4,0-17-7.6-17-17c0-9.4,7.6-17,17-17s17,7.6,17,17
		C139.8,243.6,132.2,251.2,122.8,251.2"/>
	<path class="st0" d="M56,213.4c-5.8,0-10.4,4.7-10.4,10.4c0,5.8,4.7,10.4,10.4,10.4s10.4-4.7,10.4-10.4
		C66.5,218,61.8,213.4,56,213.4 M56,240.8c-9.4,0-17-7.6-17-17c0-9.4,7.6-17,17-17s17,7.6,17,17C73,233.2,65.4,240.8,56,240.8"/>
	<path class="st0" d="M82.9,275.4c-5.8,0-10.4,4.7-10.4,10.4c0,5.8,4.7,10.4,10.4,10.4c5.8,0,10.4-4.7,10.4-10.4
		C93.3,280.1,88.6,275.4,82.9,275.4 M82.9,302.8c-9.4,0-17-7.6-17-17c0-9.4,7.6-17,17-17s17,7.6,17,17
		C99.9,295.2,92.2,302.8,82.9,302.8"/>
	<path class="st0" d="M191.6,346.7c-5.8,0-10.4,4.7-10.4,10.4c0,5.8,4.7,10.4,10.4,10.4c5.8,0,10.4-4.7,10.4-10.4
		C202.1,351.4,197.4,346.7,191.6,346.7 M191.6,374.1c-9.4,0-17-7.6-17-17c0-9.4,7.6-17,17-17c9.4,0,17,7.6,17,17
		C208.6,366.5,201,374.1,191.6,374.1"/>
	<path class="st0" d="M198.8,440.4c-5.8,0-10.4,4.7-10.4,10.4c0,5.8,4.7,10.4,10.4,10.4c5.8,0,10.4-4.7,10.4-10.4
		C209.2,445.1,204.5,440.4,198.8,440.4 M198.8,467.9c-9.4,0-17-7.6-17-17c0-9.4,7.6-17,17-17c9.4,0,17,7.6,17,17
		C215.8,460.2,208.1,467.9,198.8,467.9"/>
	<path class="st0" d="M292.3,448.7c-5.8,0-10.4,4.7-10.4,10.4c0,5.8,4.7,10.4,10.4,10.4c5.8,0,10.4-4.7,10.4-10.4
		C302.7,453.4,298,448.7,292.3,448.7 M292.3,476.2c-9.4,0-17-7.6-17-17c0-9.4,7.6-17,17-17c9.4,0,17,7.6,17,17
		C309.3,468.6,301.6,476.2,292.3,476.2"/>
	<path class="st0" d="M388.6,149.3c-5.8,0-10.4,4.7-10.4,10.4c0,5.8,4.7,10.4,10.4,10.4c5.8,0,10.4-4.7,10.4-10.4
		C399.1,154,394.4,149.3,388.6,149.3 M388.6,176.7c-9.4,0-17-7.6-17-17c0-9.4,7.6-17,17-17c9.4,0,17,7.6,17,17
		C405.6,169.1,398,176.7,388.6,176.7"/>
	<path class="st0" d="M300,213.4c-5.8,0-10.4,4.7-10.4,10.4c0,5.8,4.7,10.4,10.4,10.4c5.8,0,10.4-4.7,10.4-10.4
		C310.5,218,305.8,213.4,300,213.4 M300,240.8c-9.4,0-17-7.6-17-17c0-9.4,7.6-17,17-17c9.4,0,17,7.6,17,17
		C317,233.2,309.4,240.8,300,240.8"/>
	<path class="st0" d="M488.1,253.6c-5.8,0-10.4,4.7-10.4,10.4c0,5.8,4.7,10.4,10.4,10.4c5.8,0,10.4-4.7,10.4-10.4
		C498.6,258.2,493.9,253.6,488.1,253.6 M488.1,281c-9.4,0-17-7.6-17-17c0-9.4,7.6-17,17-17c9.4,0,17,7.6,17,17
		C505.1,273.4,497.5,281,488.1,281"/>
</g>
</svg>
