<?xml version="1.0" encoding="utf-8"?>
<!-- Generator: Adobe Illustrator 22.1.0, SVG Export Plug-In . SVG Version: 6.00 Build 0)  -->
<!DOCTYPE svg PUBLIC "-//W3C//DTD SVG 1.1//EN" "http://www.w3.org/Graphics/SVG/1.1/DTD/svg11.dtd">
<svg version="1.1" id="Layer_1" xmlns="http://www.w3.org/2000/svg" xmlns:xlink="http://www.w3.org/1999/xlink" x="0px" y="0px"
	 viewBox="0 0 264 266.6" style="enable-background:new 0 0 264 266.6;" xml:space="preserve">
<style type="text/css">
	.st0{fill:#EE9F12;}
	.st1{fill:#FFFFFF;}
	.st2{fill:#B82229;}
	.st3{fill:#E36820;}
	.st4{fill:none;stroke:#FFFFFF;stroke-width:2.263;stroke-miterlimit:10;}
</style>
<g>
	<g>
		<g>
			<g>
				<path class="st0" d="M175.6,266.6H119c-5.3,0-9.2-4.3-8.7-9.6l9.7-110.4c0.5-5.3,5.1-9.6,10.4-9.6h56.6c5.3,0,9.2,4.3,8.7,9.6
					L186,257C185.5,262.3,180.9,266.6,175.6,266.6"/>
			</g>
		</g>
		<g>
			<g>
				<path class="st1" d="M169.9,260.6h-54.1c-2.6,0-5-1-6.7-2.9c-1.7-1.9-2.5-4.3-2.3-7l9.4-107.1c0.5-5.4,5.2-9.8,10.6-9.8h1.8
					c0.8,0,1.6,0.3,2.2,0.9c0.5,0.6,0.8,1.4,0.7,2.2l-0.3,3.1c-0.1,1.5,0.3,2.9,1.3,3.9c0.9,1,2.3,1.6,3.8,1.6h33.1
					c3.1,0,5.8-2.5,6.1-5.6l0.3-3.1c0.1-1.7,1.6-3.1,3.3-3.1h1.8c2.6,0,5,1,6.7,2.9c1.7,1.9,2.5,4.3,2.3,7l-9.4,107.1
					C180.1,256.2,175.3,260.6,169.9,260.6z M126.8,135.1c-4.8,0-9,3.9-9.4,8.7L108,250.8c-0.2,2.3,0.5,4.4,2,6.1
					c1.5,1.6,3.6,2.5,5.8,2.5h54.1c4.8,0,9-3.9,9.4-8.7l9.4-107.1c0.2-2.3-0.5-4.4-2-6.1c-1.5-1.6-3.6-2.5-5.8-2.5h-1.8
					c-1.1,0-2,0.9-2.1,1.9l-0.3,3.1c-0.3,3.7-3.6,6.7-7.3,6.7h-33.1c-1.8,0-3.5-0.7-4.7-2c-1.2-1.3-1.7-3-1.6-4.8l0.3-3.1
					c0-0.5-0.1-1-0.4-1.3s-0.8-0.5-1.3-0.5H126.8z"/>
			</g>
		</g>
		<g>
			<g>
				<path class="st1" d="M146.4,226.2h-20.9c-0.2,0-0.4-0.2-0.4-0.4l1-5.4h0.9c1.5,0,2.8-1.2,3.1-2.6c0.3-1.5-0.7-2.6-2.2-2.6h-0.9
					l0.9-5.1h0.9c1.5,0,2.8-1.2,3.1-2.6c0.3-1.5-0.7-2.6-2.2-2.6h-0.9l0.9-5.1h0.9c1.5,0,2.8-1.2,3.1-2.6c0.3-1.5-0.7-2.6-2.2-2.6
					h-0.9l0.9-5.1h0.9c1.5,0,2.8-1.2,3.1-2.6c0.3-1.5-0.7-2.6-2.2-2.6h-0.9l1-5.4c0-0.2,0.3-0.4,0.5-0.4h5.5c0.4,0,0.8-0.3,0.9-0.8
					c0.1-0.4-0.2-0.8-0.6-0.8h-5.5c-1.1,0-2.1,0.9-2.3,2l-1,5.4h-0.9c-1.5,0-2.8,1.2-3.1,2.6c-0.3,1.5,0.7,2.6,2.2,2.6h0.9l-0.9,5.1
					h-0.9c-1.5,0-2.8,1.2-3.1,2.6c-0.3,1.5,0.7,2.6,2.2,2.6h0.9l-0.9,5.1h-0.9c-1.5,0-2.8,1.2-3.1,2.6c-0.3,1.5,0.7,2.6,2.2,2.6h0.9
					l-0.9,5.1h-0.9c-1.5,0-2.8,1.2-3.1,2.6c-0.3,1.5,0.7,2.6,2.2,2.6h0.9l-1,5.4c-0.2,1.1,0.5,2,1.6,2h20.9c0.4,0,0.8-0.3,0.9-0.8
					C147.2,226.6,146.9,226.2,146.4,226.2 M128.6,186.6c0.1-0.6,0.7-1.1,1.3-1.1h1.7c0,0,0,0,0,0c0,0,0,0,0,0h1.7
					c0.6,0,1,0.5,0.9,1.1c-0.1,0.6-0.7,1.1-1.3,1.1h-3.3C128.9,187.7,128.4,187.2,128.6,186.6 M126.7,197c0.1-0.6,0.7-1.1,1.3-1.1
					h3.3c0.6,0,1,0.5,0.9,1.1s-0.7,1.1-1.3,1.1h-1.6c0,0,0,0,0,0c0,0,0,0,0,0h-1.6C127,198.1,126.6,197.6,126.7,197 M124.9,207.3
					c0.1-0.6,0.7-1.1,1.3-1.1h1.7c0,0,0,0,0,0s0,0,0,0h1.7c0.6,0,1,0.5,0.9,1.1s-0.7,1.1-1.3,1.1h-3.3
					C125.2,208.4,124.8,207.9,124.9,207.3 M123.1,217.7c0.1-0.6,0.7-1.1,1.3-1.1h3.3c0.6,0,1,0.5,0.9,1.1c-0.1,0.6-0.7,1.1-1.3,1.1
					h-1.6c0,0,0,0,0,0s0,0,0,0H124C123.4,218.8,123,218.3,123.1,217.7"/>
			</g>
		</g>
		<g>
			<g>
				<path class="st1" d="M142.6,178.1h21c2.1,0,3.5,1.7,3.1,3.8l-2.4,13.9c-0.1,0.4,0.2,0.8,0.6,0.8c0.4,0,0.8-0.3,0.9-0.8l2.4-13.9
					c0.5-2.9-1.4-5.3-4.4-5.3h-21c-0.4,0-0.8,0.3-0.9,0.8C141.9,177.7,142.2,178.1,142.6,178.1"/>
			</g>
		</g>
		<g>
			<g>
				<path class="st1" d="M168.7,222.9l0.1-0.5c0.2-0.9-0.3-1.7-1-2l0.8-6.2c0.1-0.4-0.2-0.8-0.7-0.7c-0.4,0-0.8,0.4-0.9,0.8
					l-0.9,6.8c-0.1,0.4,0.2,0.7,0.6,0.7c0.3,0,0.6,0.3,0.5,0.6l-0.1,0.5h-13.8l0.1-0.5c0.1-0.3,0.4-0.6,0.7-0.6
					c0.4,0,0.8-0.3,0.9-0.7l2.9-13.2h9.9l-0.4,3.2c-0.1,0.4,0.2,0.8,0.7,0.7c0.4,0,0.8-0.4,0.9-0.8l0.4-3.2h1.8
					c0.4,0,0.8-0.3,0.9-0.7l2.3-8.5c0.1-0.2,0-0.4-0.1-0.6c-0.1-0.2-0.3-0.3-0.5-0.3h-3.3c-0.4,0-0.8,0.3-0.9,0.8l-0.3,1.9h-1.4
					l0.1-2c0-0.4-0.3-0.7-0.7-0.7h-5c-0.4,0-0.8,0.3-0.9,0.7l-0.6,2h-1.4l0.3-1.9c0.1-0.4-0.2-0.8-0.6-0.8h-3.3
					c-0.2,0-0.4,0.1-0.6,0.3c-0.2,0.2-0.3,0.4-0.3,0.6l-0.7,8.5c0,0.4,0.2,0.7,0.6,0.7h1.8l-2.7,12.5c-0.9,0.3-1.6,1.1-1.8,2
					l-0.1,0.5c-1.4,0.1-2.6,1.2-2.9,2.6l-0.6,3.4c-0.1,0.4,0.2,0.8,0.6,0.8h20.2c0.4,0,0.8-0.3,0.9-0.8l0.6-3.4
					C170.9,224.1,170,223,168.7,222.9 M156.2,199.3h1.7l-0.3,1.9c-0.1,0.4,0.2,0.8,0.6,0.8h2.9c0.4,0,0.8-0.3,0.9-0.7l0.6-2h3.6
					l-0.1,2c0,0.4,0.3,0.7,0.7,0.7h2.9c0.4,0,0.8-0.3,0.9-0.8l0.3-1.9h1.7l-1.9,7h-1.9h-11.4h-1.9L156.2,199.3z M168.6,228.1H150
					l0.5-2.6c0.1-0.6,0.6-1,1.2-1h0.6h15.3h0.6c0.6,0,0.9,0.5,0.8,1L168.6,228.1z"/>
			</g>
		</g>
		<g>
			<g>
				<path class="st1" d="M148.3,186.1c0.3-1.9-0.9-3.4-2.8-3.4c-1.9,0-3.7,1.5-4,3.4c-0.3,1.9,0.9,3.4,2.8,3.4
					C146.2,189.5,148,188,148.3,186.1 M143.1,186.1c0.2-1,1.2-1.9,2.2-1.9c1,0,1.7,0.8,1.5,1.9c-0.2,1-1.2,1.9-2.2,1.9
					S142.9,187.2,143.1,186.1"/>
			</g>
		</g>
		<g>
			<g>
				<path class="st1" d="M142.7,200c-0.4,0.1-0.8,0.5-0.7,0.9c0,0.5,0.1,1.1,0.2,1.6c0.1,0.3,0.3,0.5,0.6,0.5c0.1,0,0.2,0,0.3,0
					c0.4-0.1,0.7-0.6,0.7-1c-0.1-0.5-0.1-0.9-0.2-1.4C143.6,200.1,143.2,199.9,142.7,200"/>
			</g>
		</g>
		<g>
			<g>
				<path class="st1" d="M143.3,195.3c-0.4,0-0.8,0.3-0.9,0.8l-0.2,0.9c0,0.2-0.1,0.5-0.1,0.7c-0.1,0.4,0.2,0.7,0.6,0.7c0,0,0,0,0,0
					c0.4,0,0.8-0.4,0.9-0.8c0-0.2,0.1-0.4,0.1-0.7l0.2-0.9C144,195.7,143.7,195.3,143.3,195.3"/>
			</g>
		</g>
		<g>
			<g>
				<path class="st1" d="M151,211.3c-0.4-0.2-0.8-0.4-1.2-0.6c-0.3-0.2-0.8,0-1.1,0.3c-0.3,0.4-0.2,0.9,0.1,1
					c0.4,0.2,0.9,0.5,1.4,0.7c0.1,0,0.2,0.1,0.3,0.1c0.3,0,0.6-0.2,0.8-0.5C151.5,212,151.4,211.5,151,211.3"/>
			</g>
		</g>
		<g>
			<g>
				<path class="st1" d="M145.1,205.9c-0.2-0.4-0.4-0.8-0.6-1.2c-0.1-0.4-0.6-0.5-1-0.3s-0.6,0.7-0.5,1.1c0.2,0.5,0.4,0.9,0.6,1.4
					c0.1,0.2,0.3,0.3,0.6,0.3c0.2,0,0.3,0,0.5-0.1C145.1,206.7,145.3,206.3,145.1,205.9"/>
			</g>
		</g>
		<g>
			<g>
				<path class="st1" d="M146.4,210.3c0.1,0.1,0.3,0.2,0.5,0.2c0.2,0,0.5-0.1,0.7-0.3c0.3-0.3,0.4-0.8,0.1-1.1
					c-0.3-0.3-0.7-0.6-0.9-1c-0.3-0.3-0.8-0.3-1.1,0c-0.4,0.3-0.4,0.8-0.2,1.1C145.7,209.6,146,210,146.4,210.3"/>
			</g>
		</g>
		<g>
			<g>
				<path class="st1" d="M147.2,196.5c0.3-0.3,0.4-0.8,0.1-1.1l-3-3.2c0,0,0,0,0,0c0,0,0,0,0,0c0,0,0,0,0,0c0,0,0,0,0,0c0,0,0,0,0,0
					c0,0,0,0,0,0c0,0,0,0,0,0c0,0,0,0,0,0c0,0,0,0,0,0c0,0,0,0,0,0c0,0,0,0,0,0c0,0,0,0,0,0c0,0,0,0,0,0c0,0,0,0,0,0
					c0,0-0.1,0-0.1,0c0,0,0,0,0,0c0,0,0,0,0,0c0,0,0,0,0,0c0,0,0,0,0,0c0,0,0,0,0,0c0,0,0,0,0,0c0,0,0,0,0,0c0,0,0,0,0,0
					c0,0,0,0,0,0c0,0,0,0,0,0c0,0,0,0,0,0c0,0,0,0,0,0c0,0,0,0,0,0c0,0,0,0,0,0l-4.1,3.2c-0.4,0.3-0.5,0.8-0.3,1.1
					c0.1,0.2,0.3,0.3,0.5,0.3c0.2,0,0.4-0.1,0.6-0.2l3.5-2.7l2.5,2.7C146.4,196.9,146.9,196.8,147.2,196.5"/>
			</g>
		</g>
		<g>
			<g>
				<path class="st1" d="M142.9,215c-0.3-0.3-0.7-0.3-1.1,0l-2.3,1.9l-1.6-1.9c-0.3-0.3-0.7-0.3-1.1,0c-0.4,0.3-0.4,0.8-0.2,1.1
					l1.6,1.9l-2.3,1.9c-0.4,0.3-0.4,0.8-0.2,1.1c0.1,0.2,0.3,0.2,0.5,0.2s0.4-0.1,0.6-0.2l2.3-1.9l1.6,1.9c0.1,0.2,0.3,0.2,0.5,0.2
					c0.2,0,0.4-0.1,0.6-0.2c0.4-0.3,0.4-0.8,0.2-1.1l-1.6-1.9l2.3-1.9C143,215.8,143.1,215.3,142.9,215"/>
			</g>
		</g>
		<g>
			<g>
				<path class="st2" d="M69.9,173.7H13.4c-5.3,0-9.2-4.3-8.7-9.6l9.7-110.4c0.5-5.3,5.1-9.6,10.4-9.6h56.6c5.3,0,9.2,4.3,8.7,9.6
					l-9.7,110.4C79.9,169.5,75.2,173.7,69.9,173.7"/>
			</g>
		</g>
		<g>
			<g>
				<path class="st1" d="M63.1,166.6H9.1c-2.6,0-5-1-6.7-2.9c-1.7-1.9-2.5-4.3-2.3-7L9.4,49.6c0.5-5.4,5.2-9.8,10.6-9.8h1.8
					c0.8,0,1.6,0.3,2.2,0.9c0.5,0.6,0.8,1.4,0.7,2.2l-0.3,3.1c-0.1,1.5,0.3,2.9,1.3,3.9c0.9,1,2.3,1.6,3.8,1.6h33.1
					c3.1,0,5.8-2.5,6.1-5.6l0.3-3.1c0.1-1.7,1.6-3.1,3.3-3.1h1.8c2.6,0,5,1,6.7,2.9c1.7,1.9,2.5,4.3,2.3,7l-9.4,107.1
					C73.3,162.2,68.5,166.6,63.1,166.6z M20.1,41.1c-4.8,0-9,3.9-9.4,8.7L1.2,156.8c-0.2,2.3,0.5,4.4,2,6.1c1.5,1.6,3.6,2.5,5.8,2.5
					h54.1c4.8,0,9-3.9,9.4-8.7l9.4-107.1c0.2-2.3-0.5-4.4-2-6.1c-1.5-1.6-3.6-2.5-5.8-2.5h-1.8c-1.1,0-2,0.9-2.1,1.9l-0.3,3.1
					c-0.3,3.7-3.6,6.7-7.3,6.7H29.5c-1.8,0-3.5-0.7-4.7-2c-1.2-1.3-1.7-3-1.6-4.8l0.3-3.1c0-0.5-0.1-1-0.4-1.3
					c-0.3-0.3-0.8-0.5-1.3-0.5H20.1z"/>
			</g>
		</g>
		<g>
			<g>
				<path class="st1" d="M56.2,108.9c0.2-1.3,0.3-2.6,0.2-3.8c0-0.4-0.4-0.7-0.9-0.5c-0.4,0.1-0.8,0.5-0.7,1
					c0.1,1.1,0.1,2.2-0.1,3.4c-0.7,3.7-2.9,7.2-6.1,9.7c-0.2,0.1-0.3,0.4-0.4,0.6l-2,11.2H34.9l0.4-2.1c0.1-0.4-0.2-0.8-0.6-0.8
					h-6.2c-1.3,0-2.1-1-1.9-2.3l0.7-4.2c0.1-0.4-0.2-0.8-0.6-0.8h-3.4l5.5-10.1c0.1-0.1,0.1-0.2,0.1-0.3c0-0.3,0.1-0.6,0.1-0.8
					c0.7-3.8,3-7.4,6.3-9.9c0.4-0.3,0.5-0.8,0.3-1.1c-0.2-0.3-0.7-0.4-1.1-0.1c-3.8,2.7-6.4,6.8-7.1,11.1c0,0.3-0.1,0.5-0.1,0.8
					l-6,11c-0.1,0.2-0.1,0.5,0,0.7c0.1,0.2,0.3,0.3,0.6,0.3h3.8l-0.6,3.4c-0.4,2.1,1,3.9,3.2,3.9h5.5l-0.2,1.3h-1
					c-0.3,0-0.5,0.1-0.7,0.3l-3.3,3.8c-0.2,0.2-0.3,0.5-0.2,0.8c0.1,0.3,0.3,0.4,0.6,0.4h4.4h12.9h1.8c0.4,0,0.8-0.3,0.9-0.8
					l0.7-3.8c0.1-0.4-0.2-0.8-0.6-0.8h-1l1.9-10.8C53.1,116.7,55.5,112.9,56.2,108.9 M47.4,134h-1H33.5h-2.9l1.9-2.2h1.4
					c0,0,0,0,0,0c0,0,0,0,0,0h12.9c0,0,0,0,0,0s0,0,0,0h1L47.4,134z"/>
			</g>
		</g>
		<g>
			<g>
				<path class="st1" d="M42.5,119h-1c-0.4,0-0.8,0.3-0.9,0.8c-0.1,0.4,0.2,0.8,0.6,0.8h1c1.5,0,2.8-1.2,3.1-2.6l0.5-2.7
					c0.3-1.5-0.7-2.6-2.2-2.6h-1c-0.4,0-0.8,0.3-0.9,0.8c-0.1,0.4,0.2,0.8,0.6,0.8h1c0.6,0,1,0.5,0.9,1.1l-0.5,2.7
					C43.7,118.5,43.1,119,42.5,119"/>
			</g>
		</g>
		<g>
			<g>
				<path class="st1" d="M64.6,94c0.1-1.6-0.6-3.1-2.1-3.8c0-0.2,0.1-0.3,0.1-0.5c0.2-2.4-1.8-4.2-4.5-4.1c-0.3,0-0.7,0.1-1,0.2
					c-0.4-2-2.3-3.4-4.7-3.2c-2.1,0.1-4,1.4-5,3c-0.4-0.1-0.8-0.1-1.2-0.1c-0.4,0-0.8,0.4-0.9,0.8C45.2,86.7,45.5,87,46,87
					c0.5,0,1,0.1,1.5,0.2c0.2,0.1,0.4,0,0.6-0.1c0.2-0.1,0.4-0.3,0.5-0.5c0.5-1.4,2.1-2.5,3.7-2.6c2-0.1,3.4,1.1,3.4,2.8
					c0,0.2,0.1,0.5,0.3,0.6c0.2,0.1,0.5,0.1,0.7,0c0.4-0.2,0.9-0.3,1.4-0.3c1.8-0.1,3.2,1.1,3.1,2.6c0,0.2-0.1,0.5-0.2,0.7
					c-0.1,0.4,0,0.8,0.3,0.9c1.2,0.5,1.9,1.5,1.8,2.8c-0.1,0.8-0.5,1.6-1.1,2.2c-0.8,0.7-1.8,1.2-2.9,1.3c-0.7,0-1.3-0.1-1.8-0.3
					c-0.3-0.1-0.7,0-0.9,0.2c-1.3,1.3-3.1,2.1-4.9,2.2c-2.5,0.2-4.7-1.1-5.4-3.1c-0.1-0.2-0.3-0.4-0.5-0.4c-0.3,0-0.5,0.1-0.7,0.3
					c-0.8,0.7-1.8,1.2-2.9,1.3c0,0-0.1,0-0.1,0c-0.1,0-0.2,0-0.3,0c-1.9,0-3.2-1.3-3.1-3c0-0.1,0-0.1,0-0.2c0,0,0,0,0,0
					c0-0.1,0.1-0.3,0.1-0.4c0,0,0,0,0,0c0.2-0.7,0.7-1.3,1.4-1.9c0,0,0,0,0,0c0.1,0,0.1-0.1,0.2-0.1c0,0,0,0,0,0
					c0.1-0.1,0.3-0.2,0.4-0.2c0.6-0.3,1.2-0.5,1.9-0.6c0.9-0.1,1.7,0.1,2.3,0.6c0.3,0.2,0.8,0.1,1.1-0.3c0.3-0.4,0.3-0.8-0.1-1.1
					c-0.9-0.6-2-0.9-3.2-0.8c-0.4,0-0.8,0.1-1.2,0.2c0.4-0.9,1.1-1.7,2.1-2.2c0.4-0.2,0.6-0.7,0.4-1.1c-0.2-0.4-0.6-0.5-1-0.2
					c-1.7,1-2.9,2.6-3.3,4.4c0,0,0,0-0.1,0c0,0-0.1,0.1-0.1,0.1c0,0-0.1,0.1-0.1,0.1c-0.1,0-0.1,0.1-0.2,0.1c0,0-0.1,0-0.1,0.1
					c-0.2,0.1-0.3,0.3-0.5,0.4c0,0,0,0,0,0c0,0,0,0,0,0c-0.1,0.1-0.1,0.1-0.2,0.2c0,0,0,0,0,0C38,92,38,92.1,37.9,92.2c0,0,0,0,0,0
					c-0.1,0.2-0.3,0.3-0.4,0.5c0,0,0,0,0,0c-0.1,0.1-0.1,0.2-0.2,0.3c0,0,0,0,0,0c-0.1,0.2-0.2,0.4-0.3,0.5c0,0,0,0,0,0
					c0,0.1-0.1,0.2-0.1,0.2c0,0,0,0,0,0c-0.1,0.2-0.1,0.4-0.2,0.5c0,0,0,0,0,0.1c0,0.1,0,0.1,0,0.2c0,0,0,0.1,0,0.1
					c0,0.1,0,0.2,0,0.3c0,0.1,0,0.2,0,0.2c0,0,0,0.1,0,0.1c0,0.1,0,0.1,0,0.2c0,0,0,0.1,0,0.1c0,0,0,0.1,0,0.1c0,0,0,0.1,0,0.1
					c0,0,0,0.1,0,0.1c0,0,0,0.1,0,0.1c0,0,0,0.1,0,0.1c0,0,0,0.1,0,0.1c0,0,0,0.1,0,0.1c0,0,0,0.1,0,0.1c0,0,0,0.1,0,0.1
					c0,0,0,0.1,0,0.1c0,0,0,0.1,0,0.1c0,0,0,0.1,0,0.1c0,0,0,0.1,0,0.1c0,0,0,0.1,0.1,0.1c0,0,0,0.1,0,0.1c0,0,0,0.1,0.1,0.1
					c0,0,0,0.1,0,0.1c0,0,0,0.1,0.1,0.1c0,0,0,0,0,0.1c0,0,0,0.1,0.1,0.1c0,0,0,0,0,0.1c0,0,0.1,0.1,0.1,0.1c0,0,0,0,0,0.1
					c0,0,0.1,0.1,0.1,0.1c0,0,0,0,0.1,0.1c0,0,0.1,0.1,0.1,0.1c0,0,0,0,0,0c0,0,0.1,0.1,0.1,0.1c0,0,0,0,0,0c0,0,0.1,0.1,0.1,0.1
					c0,0,0,0,0,0c0,0,0.1,0.1,0.1,0.1c0,0,0,0,0,0c0.3,0.2,0.6,0.4,0.9,0.5c0,0,0,0,0.1,0c0,0,0.1,0,0.1,0c0,0,0.1,0,0.1,0
					c0,0,0.1,0,0.1,0c0,0,0.1,0,0.1,0c0,0,0.1,0,0.1,0c0,0,0.1,0,0.1,0c0,0,0.1,0,0.1,0c0,0,0.1,0,0.1,0c0,0,0.1,0,0.1,0
					c0,0,0.1,0,0.1,0c0,0,0.1,0,0.1,0c0,0,0.1,0,0.1,0c0,0,0.1,0,0.1,0c0,0,0.1,0,0.1,0c0,0,0.1,0,0.1,0c0,0,0,0,0.1,0
					c0,0,0.1,0,0.1,0c0,0,0,0,0.1,0c0.1,0,0.2,0,0.2,0h0c1.1-0.1,2.3-0.5,3.2-1.1c0.3,0.5,0.6,0.9,0.9,1.2l-2.5,5.3
					c-0.1,0.2-0.1,0.5,0,0.7c0.1,0.2,0.3,0.3,0.6,0.3h2.8l-2.4,4.9c-0.2,0.3-0.1,0.7,0.2,0.9c0.1,0.1,0.2,0.1,0.4,0.1
					c0.2,0,0.4-0.1,0.6-0.2l9.6-8.1c0.3-0.2,0.4-0.6,0.3-0.8c-0.1-0.3-0.3-0.5-0.6-0.5h-3.8l0.3-0.7c2-0.1,4.1-1,5.6-2.4
					c0.6,0.2,1.3,0.3,2,0.2c1.5-0.1,3-0.8,4.1-1.8C63.9,96.4,64.5,95.2,64.6,94 M52.4,103.6l-5.4,4.6l1.4-2.9c0.1-0.2,0.1-0.5,0-0.7
					c-0.1-0.2-0.3-0.3-0.6-0.3h-2.8l1.8-3.9c0.8,0.5,1.7,0.7,2.7,0.9l-0.6,1.3c-0.1,0.2-0.1,0.5,0,0.7c0.1,0.2,0.3,0.3,0.6,0.3H52.4
					z"/>
			</g>
		</g>
		<g>
			<g>
				<path class="st1" d="M95.6,58.7l-1.4-1.8c15.2-11.6,33.2-17.7,52.1-17.7c9.8,0,17.1,1.1,25.2,3.8l-0.7,2.1
					c-7.9-2.6-15-3.7-24.5-3.7C127.9,41.4,110.4,47.4,95.6,58.7z"/>
			</g>
		</g>
		<g>
			<g>
				<polygon class="st1" points="165,48.1 164.1,46.1 169.6,43.5 166.7,38.2 168.7,37.1 172.8,44.5 				"/>
			</g>
		</g>
		<g>
			<g>
				<path class="st3" d="M243.8,133.9h-56.6c-5.3,0-9.2-4.3-8.7-9.6l9.7-110.4c0.5-5.3,5.1-9.6,10.4-9.6h56.6c5.3,0,9.2,4.3,8.7,9.6
					l-9.7,110.4C253.8,129.6,249.1,133.9,243.8,133.9"/>
			</g>
		</g>
		<g>
			<g>
				<path class="st1" d="M237,126.7H183c-2.6,0-5-1-6.7-2.9c-1.7-1.9-2.5-4.3-2.3-7l9.4-107.1c0.5-5.4,5.2-9.8,10.6-9.8h1.8
					c0.8,0,1.6,0.3,2.2,0.9c0.5,0.6,0.8,1.4,0.7,2.2l-0.3,3.1c-0.1,1.5,0.3,2.9,1.3,3.9c0.9,1,2.3,1.6,3.8,1.6h33.1
					c3.1,0,5.8-2.5,6.1-5.6l0.3-3.1c0.1-1.7,1.6-3.1,3.3-3.1h1.8c2.6,0,5,1,6.7,2.9c1.7,1.9,2.5,4.3,2.3,7l-9.4,107.1
					C247.2,122.3,242.4,126.7,237,126.7z M193.9,1.2c-4.8,0-9,3.9-9.4,8.7l-9.4,107.1c-0.2,2.3,0.5,4.4,2,6.1
					c1.5,1.6,3.6,2.5,5.8,2.5H237c4.8,0,9-3.9,9.4-8.7l9.4-107.1c0.2-2.3-0.5-4.4-2-6.1c-1.5-1.6-3.6-2.5-5.8-2.5h-1.8
					c-1.1,0-2,0.9-2.1,1.9l-0.3,3.1c-0.3,3.7-3.6,6.7-7.3,6.7h-33.1c-1.8,0-3.5-0.7-4.7-2c-1.2-1.3-1.7-3-1.6-4.8l0.3-3.1
					c0-0.5-0.1-1-0.4-1.3c-0.3-0.3-0.8-0.5-1.3-0.5H193.9z"/>
			</g>
		</g>
		<g>
			<g>
				<path class="st1" d="M214.3,61.2c0.5,0.2,1,0.3,1.5,0.3c1.4,0,2.9-0.8,3.8-2.2c1.2-1.9,0.8-4.1-1-5c-0.8-0.4-1.9-0.5-2.9-0.1
					c-1,0.4-1.9,1-2.5,2c-0.6,0.9-0.8,1.9-0.6,2.9S213.5,60.8,214.3,61.2 M214.7,56.8c0.3-0.5,0.9-1,1.5-1.2
					c0.3-0.1,0.5-0.1,0.8-0.1c0.3,0,0.6,0.1,0.9,0.2c1,0.5,1.3,1.8,0.6,3c-0.7,1.1-2.1,1.6-3.1,1.1c-0.5-0.2-0.8-0.7-0.9-1.3
					C214.2,58,214.3,57.4,214.7,56.8"/>
			</g>
		</g>
	</g>
	<g>
		<g>
			<g>
				<path class="st1" d="M205.4,78.2l2.4,1.2c0.1,0,0.2,0.1,0.3,0.1c0.3,0,0.6-0.2,0.8-0.5c0.2-0.4,0.2-0.9-0.2-1l-2.3-1.1l2.4-2.9
					c0,0,0-0.1,0.1-0.1c0.4-0.6,0.5-1.2,0.4-1.8c-0.1-0.6-0.5-1.1-1-1.4s-1.2-0.3-1.8-0.1c-0.6,0.2-1.2,0.7-1.6,1.3
					c0,0,0,0.1-0.1,0.1l-1.6,3.3l-1.8-0.9c1.6-5.9,4.6-13.6,7.4-18.9c0.2-0.4,0.1-0.8-0.3-1c-0.4-0.1-0.9,0.1-1.1,0.5
					c-3,5.6-6.1,13.8-7.7,19.9c-0.1,0.3,0,0.6,0.3,0.8l2.4,1.2l-1.5,3.1c-0.3,0.6-0.1,1.2,0.4,1.5c0.2,0.1,0.3,0.1,0.5,0.1
					c0.4,0,0.8-0.2,1.1-0.6L205.4,78.2z M206.2,72.5c0.1-0.2,0.3-0.3,0.5-0.4c0.2-0.1,0.5-0.1,0.6,0c0.2,0.1,0.3,0.3,0.4,0.5
					c0,0.2,0,0.4-0.1,0.6l-4.2,5L206.2,72.5z"/>
			</g>
		</g>
		<g>
			<g>
				<path class="st1" d="M240.4,53.1c-0.1-0.2-0.4-0.3-0.7-0.2l-3.1,0.6c0,0-0.1,0-0.1,0l-2.8-1c-2-0.7-4.4,0.5-5.4,2.5l-0.5,1
					c0.1-0.4,0.2-0.8,0.3-1.2c0,0,0-0.1,0-0.1c1-5.9-1.6-11.5-1.7-11.7c-0.1-0.2-0.4-0.4-0.7-0.4c0,0,0,0,0,0c0,0,0,0,0,0
					c-0.5,0.1-7,1-12.1,4.7c0,0-0.1,0-0.1,0.1c-1.7,1.2-3,2.6-4,4.2l-0.2,0.3c-0.2,0.4-0.2,0.9,0.2,1c0.4,0.2,0.9,0,1.1-0.4l0.2-0.3
					c0.8-1.3,2-2.5,3.2-3.4l12.6,6.3c-0.3,1.4-0.8,2.8-1.6,4.2c-1.2,1.8-3,4.2-5.2,6.8l-8-0.9c0,0,0,0,0,0c-1.3-0.1-2.6,0.8-3,2.2
					c0,0,0,0,0,0c0,0,0,0.1,0,0.1c0,0,0,0,0,0c0,0,0,0.1,0,0.1c0,0,0,0,0,0c-0.1,0.5,0,1.1,0.3,1.5c0,0,0,0,0,0c0,0,0,0.1,0.1,0.1
					c0,0,0,0,0.1,0.1c0,0,0.1,0.1,0.1,0.1c0,0,0.1,0.1,0.1,0.1c0,0,0.1,0,0.1,0.1c0,0,0.1,0,0.1,0.1c0,0,0.1,0,0.1,0.1
					c0,0,0.1,0,0.1,0c0,0,0.1,0,0.1,0.1c0,0,0,0,0.1,0c0.1,0,0.1,0,0.2,0.1c0,0,0,0,0,0c0.1,0,0.1,0,0.2,0.1c0,0,0,0,0,0
					c0.1,0,0.1,0,0.2,0l6.7,0.8l-3.1,3.4c0,0,0,0,0,0l-1.5,1.7c0,0,0,0,0,0c0,0,0,0.1-0.1,0.1l0,0c0,0,0,0,0,0l-0.3,0.4c0,0,0,0,0,0
					l-10.6,14.5c-0.3,0.4-0.2,0.8,0.1,1l3.2,2.2c0.1,0.1,0.2,0.1,0.4,0.1c0.2,0,0.5-0.1,0.7-0.3l8-8.5c0.3-0.3,0.3-0.8,0-1.1
					c-0.3-0.3-0.8-0.2-1.1,0.1l-7.5,7.9l-2.1-1.4l7-9.6l1.2-1.6c0.2,0.6,0.6,1.2,1.2,1.6l6.4,4.4l-3.5,7.7c-0.2,0.4,0,0.8,0.4,1
					l3.8,1.2c0.1,0,0.1,0,0.2,0c0.1,0,0.3,0,0.4-0.1c0.2-0.1,0.4-0.3,0.5-0.5l5.1-11.2c0.6-1.2,0.3-2.6-0.7-3.3l-4.2-2.8l5.9-6.4
					c0.7-0.7,1.1-1.6,1.2-2.4c0.2-1.3-0.2-2.5-1.1-3.3c-1.3-1.1-3.3-1-4.9,0c1.4-1.7,2.7-3.3,3.6-4.7c-0.5,2.1,0.4,4.2,2.4,4.9
					c0.5,0.2,0.9,0.2,1.4,0.2c2.1,0,4.1-1.3,5.1-3.3l1-2.1c0.2-0.4,0.4-0.9,0.5-1.3c1.4-0.5,2.5-1.5,3.2-2.8l1.4-2.8
					C240.6,53.6,240.6,53.3,240.4,53.1 M215.4,47.8c3.8-2.4,8.2-3.3,9.7-3.5c0.3,0.7,0.9,2.4,1.3,4.4c0,0,0,0,0,0
					c0,0.2,0.1,0.4,0.1,0.6c0,0,0,0.1,0,0.1c0,0.1,0,0.2,0,0.2c0,0,0,0.1,0,0.1c0,0.1,0,0.2,0,0.3c0,0,0,0.1,0,0.1
					c0,0.1,0,0.1,0,0.2c0,0,0,0.1,0,0.1c0,0.1,0,0.1,0,0.2c0,0.1,0,0.1,0,0.2c0,0.1,0,0.1,0,0.2c0,0.1,0,0.2,0,0.3c0,0,0,0.1,0,0.1
					c0,0.1,0,0.1,0,0.2c0,0,0,0.1,0,0.1c0,0.2,0,0.5,0,0.7c0,0,0,0.1,0,0.1c0,0.1,0,0.1,0,0.2c0,0,0,0.1,0,0.1c0,0.2,0,0.4,0,0.6
					L215.4,47.8z M211.3,68.6l-0.6-0.1c0,0,0,0,0,0c0,0-0.1,0-0.1,0c0,0,0,0,0,0c-0.3-0.1-0.6-0.4-0.5-0.7c0,0,0,0,0,0
					c0,0,0,0,0-0.1c0,0,0,0,0,0c0,0,0,0,0-0.1c0,0,0,0,0,0c0,0,0,0,0,0c0,0,0,0,0-0.1c0,0,0,0,0,0c0,0,0,0,0,0c0,0,0,0,0,0
					c0,0,0,0,0,0c0,0,0,0,0,0c0,0,0,0,0,0c0,0,0,0,0,0c0,0,0,0,0,0c0,0,0,0,0,0c0,0,0,0,0,0c0,0,0,0,0,0c0,0,0,0,0,0c0,0,0,0,0,0
					c0,0,0,0,0,0c0,0,0,0,0,0c0,0,0,0,0,0c0,0,0,0,0,0c0,0,0,0,0,0c0,0,0,0,0.1,0c0,0,0,0,0,0c0,0,0,0,0.1,0c0,0,0,0,0,0
					c0,0,0,0,0.1,0c0,0,0,0,0,0c0,0,0,0,0.1,0c0,0,0,0,0,0c0,0,0,0,0,0c0,0,0,0,0,0c0,0,0,0,0,0c0,0,0.1,0,0.1,0l0.3,0l0.5,0.1
					L211.3,68.6z M223.8,82.1L223.8,82.1c0.5,0.3,0.6,0.9,0.3,1.5L219.3,94l-2.4-0.7l3.4-7.5c0.2-0.3,0.1-0.7-0.2-0.9l-6.8-4.7
					c-0.9-0.6-1-1.9-0.3-3l0.3-0.4l1-1.1l2.4,1.6L223.8,82.1z M225.5,67c0.6,0.5,0.8,1.2,0.7,2c-0.1,0.5-0.4,1.1-0.8,1.5l-6,6.6
					l-1.6-1.1l-2.3-1.6l3.2-3.5l3.8,0.4c0,0,0,0,0,0c0.1,0,0.2,0,0.2,0c0.6,0,1.1-0.2,1.6-0.5c0.6-0.4,1-1,1.1-1.6
					c0.2-0.6,0.1-1.3-0.2-1.8c-0.3-0.5-0.8-0.8-1.5-0.9l-0.5-0.1C224.1,66.4,224.9,66.5,225.5,67 M223.4,68.2
					C223.4,68.2,223.4,68.2,223.4,68.2c0.5,0,0.7,0.5,0.6,0.9c-0.1,0.2-0.2,0.4-0.4,0.6c-0.2,0.1-0.4,0.2-0.6,0.2l-10.1-1.1l0.5-1.7
					L221,68c0,0,0,0,0,0L223.4,68.2z M234,60.3l-1,2.1c-0.7,1.3-2,2.2-3.4,2.2c-0.3,0-0.7-0.1-1-0.2c-1.6-0.5-2.2-2.4-1.3-4l0.3-0.6
					l1.5,0.5c0,0,0.1,0,0.1,0c0,0,0,0,0,0c0,0,0.1,0,0.1,0c0,0,0,0,0,0c0,0,0,0,0,0c0,0,0.1,0,0.1,0c0,0,0,0,0,0c0,0,0.1,0,0.1,0
					c0,0,0,0,0,0c0,0,0.1,0,0.1,0c0,0,0,0,0,0c0,0,0.1,0,0.1-0.1c0,0,0,0,0,0c0,0,0.1,0,0.1-0.1c0,0,0,0,0,0c0,0,0.1,0,0.1-0.1
					c0,0,0,0,0,0c0,0,0.1-0.1,0.1-0.1c0,0,0,0,0,0c0,0,0-0.1,0.1-0.1l0.1-0.1c0,0,0-0.1,0-0.1c0,0,0,0,0,0c0,0,0,0,0-0.1
					c0,0,0,0,0,0c0.2-0.3,0.6-0.5,0.9-0.5c0,0,0,0,0,0c0,0,0,0,0.1,0c0,0,0,0,0,0c0,0,0,0,0.1,0c0,0,0,0,0,0c0,0,0.1,0,0.1,0
					l1.3,0.5c0.1,0,0.2,0.1,0.3,0.1c0,0,0,0,0,0c0.1,0,0.2,0,0.3,0.1c0,0,0,0,0,0c0.2,0,0.4,0.1,0.5,0.1c0,0,0,0,0,0
					c0.1,0,0.2,0,0.2,0C234.2,60,234.1,60.2,234,60.3 M237.7,56.2c-0.5,1-1.5,1.8-2.5,2c-0.5,0.1-1.1,0.1-1.6-0.1l-1.3-0.5
					c-0.1,0-0.1,0-0.2-0.1c0,0,0,0,0,0c-0.1,0-0.1,0-0.2,0c0,0,0,0,0,0c-0.5-0.1-1,0-1.5,0.2c0,0-0.1,0-0.1,0c0,0,0,0,0,0
					c-0.3,0.1-0.5,0.3-0.7,0.5c0,0,0,0,0,0c-0.1,0-0.1,0.1-0.2,0.1c0,0,0,0,0,0c-0.1,0.1-0.1,0.1-0.1,0.2l-0.9-0.3l0,0l1.4-2.8
					c0.6-1.3,2.1-2,3.3-1.5l2.8,1c0.3,0.1,0.6,0.1,0.9,0.1l1.8-0.3L237.7,56.2z"/>
			</g>
		</g>
	</g>
	<g>
		<g>
			<g>
				<path class="st1" d="M199.6,92.4h-7.7c-0.4,0-0.8,0.3-0.9,0.8c-0.1,0.4,0.2,0.8,0.6,0.8h7.7c0.4,0,0.8-0.3,0.9-0.8
					C200.3,92.8,200,92.4,199.6,92.4"/>
			</g>
		</g>
		<g>
			<g>
				<path class="st1" d="M200.4,87.9h-5.4c-0.4,0-0.8,0.3-0.9,0.8c-0.1,0.4,0.2,0.8,0.6,0.8h5.4c0.4,0,0.8-0.3,0.9-0.8
					C201.1,88.3,200.8,87.9,200.4,87.9"/>
			</g>
		</g>
		<g>
			<g>
				<path class="st1" d="M201.1,83.5h-2.3c-0.4,0-0.8,0.3-0.9,0.8c-0.1,0.4,0.2,0.8,0.6,0.8h2.3c0.4,0,0.8-0.3,0.9-0.8
					C201.9,83.8,201.6,83.5,201.1,83.5"/>
			</g>
		</g>
		<g>
			<g>
				<path class="st1" d="M199.7,198.9l-1.3-1.8c18.4-13.5,29.9-33,33.2-56.6c0.6-4,0.9-8.1,0.9-12.2h2.3c0,4.2-0.3,8.4-0.9,12.5
					C230.5,165,218.7,185,199.7,198.9z"/>
			</g>
		</g>
		<g>
			<g>
				<polygon class="st1" points="206.2,199.9 197.7,198.9 199.4,190.5 201.6,191 200.4,197 206.5,197.7 				"/>
			</g>
		</g>
	</g>
	<g>
		<g>
			<path class="st4" d="M146.3,215.6"/>
		</g>
	</g>
	<g>
		<g>
			<path class="st4" d="M59,128.3"/>
		</g>
	</g>
	<g>
		<g>
			<g>
				<path class="st1" d="M105.7,206.8c-13.3-6.8-23.1-15.3-31-26.6l1.9-1.3c7.7,11,17.3,19.2,30.2,25.9L105.7,206.8z"/>
			</g>
		</g>
		<g>
			<g>
				<polygon class="st1" points="75.7,187 73.5,186.7 74.6,178.2 83,180 82.5,182.2 76.5,181 				"/>
			</g>
		</g>
	</g>
</g>
</svg>
