<?xml version="1.0" encoding="UTF-8"?>
<!-- Generator: Adobe Illustrator 18.1.1, SVG Export Plug-In . SVG Version: 6.00 Build 0)  -->
<svg version="1.1" id="Layer_1" xmlns="http://www.w3.org/2000/svg" xmlns:xlink="http://www.w3.org/1999/xlink" x="0px" y="0px" viewBox="0 0 161.8 124.6" enable-background="new 0 0 161.8 124.6" xml:space="preserve">
<g>
	<path fill="#990000" d="M63.2,59.2c0,0,0.2-0.2,0-0.4c-0.3-0.4-0.9-0.4-1.3-0.3c-0.5,0.1-0.8,0.5-1.5,0.2c-0.7-0.3-1.4-1.2-1.9-1.7   c-0.5-0.5-0.8-0.7-1.2-1.1c-0.4-0.4-0.5-1-0.5-1c1.1,0.6,1.7-0.5,1.7-0.5c-1,0.2-1.3-0.6-1.3-0.6c1,0.5,1.5-0.2,1.5-0.2   s-0.8-0.1-0.9-0.8c-0.1-0.8-0.6-1-0.6-1c1-0.3,0.5-1.3,0.5-1.3s-0.2,0.4-0.7,0.3c-0.3-0.1-0.6-0.3-1-0.7c-0.8-0.8-1.5-1-1.7-1.1   c-0.2-0.1-0.4-0.1-0.6-0.1c-0.6-0.1-1.4-0.1-1.7-0.1c-0.3,0-0.8,0-0.8,0s0.5-0.6,2-1c1.5-0.5,2.1-1.3,2.1-1.3   c0.4,0.3,0.8,0.5,1.6,0.9c0.8,0.4,1.1,1.3,1.1,1.3c0.4-0.3,0.2-0.8,0.2-0.8s0.4,0.1,1.2,0.8c0.8,0.7,0.1,1.2,0.5,1.7   c0.4,0.5,1,0.1,1,0.1c0.1,0.2,0.1,0.9,0.9,0.9c0.8,0,0.7-1,0.7-1c0.8,0.3,1.2-0.5,1-1c-0.2-0.4-0.6-0.6-0.6-0.6   c0.6-0.2,0.7-0.6,0.6-0.9c-0.1-0.2-0.2-0.4-0.4-0.5c-0.2-0.1-0.3-0.1-0.5-0.2c-0.3,0-0.9,0-0.9,0c-0.9-0.4-1.7-1.1-2-1.5   c-0.4-0.4-0.7-0.7-0.9-0.9c-0.2-0.2-0.3-0.4-0.3-0.4c0.5,0,0.7-0.3,0.7-0.3c-0.5-0.1-0.5-0.6-0.5-0.6c0.7,0,0.9-1,0.9-1   c-0.6,0.3-0.8-0.1-0.8-0.1c0.7-0.4,1-1.4,1.3-2.1c0.3-0.7,0.9-0.9,0.9-0.9c-0.4-0.3-0.8-0.2-0.8-0.2c0.5-1.3,1.4-1.9,1.6-2V33   c-0.2,0.2-0.4,0.4-0.4,0.4s-0.1-0.3-0.4-0.3c-0.2,0-0.6,0-0.8,0.6c-0.2,0.8,0.2,1.4,0.2,1.4s-0.1,0.1-0.2,0.3   c-0.2,0.8-0.7,1.3-1.7,1.7c-1,0.4-1.8,1.4-1.8,1.4c0.2-0.4-0.1-0.8-0.1-0.8s-0.8,0.5-1.5,0.2c-0.7-0.3-0.9-1-0.5-1.3   c0.4-0.3,1.3,0,1.3,0c0.5-0.6,0.3-1-0.1-1.2c-0.2-0.1-0.4-0.1-0.6,0c-0.4,0.1-1.6,0.3-1.9-1c0,0,0-0.1,0-0.1c0-0.1,0-0.1,0-0.2   c-0.1-1.1,0.5-1.5,1.7-1.3c1.3,0.2,1.5-0.6,1.5-1.1c0-0.5-0.1-0.7,0-1c0.1-0.3,0.1-0.5-0.6-0.5c-0.1,0-0.2,0-0.2,0   c-0.1,0-0.2,0-0.3,0c-0.4,0.1-0.5,0.2-1-0.1c-0.4-0.3-0.9-0.2-1.3-0.1c-0.4,0.1-0.7,0.3-0.7,0.3c-0.1-0.2-0.2-0.4-0.3-0.5   c-0.5-0.6-1.2-0.6-1.8-0.3c-0.7,0.4-1.5,0.2-1.5,0.2s0,0.4,0.1,0.6c0.5,0.8,1.6,0.6,1.6,0.6s-0.3,0.1-0.6,0.2   c-0.3,0.1-0.8,0.5-1.1,0.8c-0.7,0.8-0.3,1.6-0.7,2.1c-0.4,0.4-0.9,0.5-0.9,0.5c0.5,0.6,1.3,0.5,1.3,0.5c-0.2,1.3-1.2,1.6-1.2,1.6   c0.6,0.6,1.2,0.4,1.2,0.4c0,1.3-1,1.8-1,1.8c1.5,0.6,2-0.1,2-0.1c-0.1,1.3-1.3,1.5-1.3,1.5c0.9,0.7,1.6,0.4,1.6,0.4   s0.4,0.4,0.5,1.1c0.1,0.6-0.3,1.1-0.3,1.1c0.7,0.4,1.2,0,1.2,0c-1.1,1.7-2,2.7-2.9,3.4c-1.5,1.2-3.3,1.6-4.2,1.7   c-0.5,0-1,0-1.4-0.2c-0.4-0.1-0.7-0.5-0.9-0.8c-0.3-0.5-0.6-1.9,0.1-2.7c0.9-1.1,2.3-0.9,3-0.5c0.7,0.4,0.4,1.4,0.4,1.4   c1.2-1.3,0.2-2.2,0.2-2.2c2.3-0.8,2.1-3.2,1.2-4.2c-0.7-0.8-1.8-1-1.8-1c0.1-0.4,0.2-0.9,0.1-1.1c0-0.2-0.1-0.4-0.2-0.6   c-0.1-0.1-0.2-0.2-0.3-0.4c-0.1-0.1-0.2-0.2-0.4-0.2c-0.9-0.3-1.6,0.1-2.3-0.1c-0.6-0.1-0.9-0.7-0.9-0.7s-0.2,0.3-0.2,0.9   c0,0.7,0.4,1,0.4,1c-1.6-0.4-1.8-2.5-1.8-2.5s-0.3,0.8-0.2,1.6c0,2.4,1.6,3.4,4.2,3c2.3-0.4,2.8,1.1,2.9,1.7c0,0.6-0.3,1-0.3,1   c-0.1,0.1-0.1,0.1-0.2,0.2c-0.9,1.1-2.3,0.7-3.4,1c-0.4,0.1-0.8,0.4-0.8,0.4c-0.1-1-1-0.9-1.3-0.8c-0.3,0-0.5,0.1-0.5,0.1   s0.6,0.1,0.8,0.8c0.3,1-0.8,2.1-0.3,3.9c0.2,0.9,0.6,1.6,2.2,2.2c1.5,0.6,3.6-0.1,3.6-0.1c-0.9,0.4-1.2,1.4-1.4,2.1   c-0.2,0.7-0.9,0.6-0.9,0.6c0.5,0.7,1.2,0.6,1.2,0.6s-0.1,0.2-0.2,0.4c-0.2,0.6-0.3,1.5-0.3,1.5c-0.6-1.1-1.2-0.7-1.8-0.8   c-1-0.2-0.6-1-0.6-1s-0.6,0.1-0.7,0.6c-0.1,0.5,0.2,0.7,0.2,0.7s-0.3,0-0.4,0c-0.2,0-0.5,0-0.8,0.4c-0.2,0.5-0.2,1.4-0.5,2.2   c-0.2,0.6-0.8,0.8-0.8,0.8c0.5,0.5,0.9,0.2,0.9,0.2c-0.2,0.9-1.1,1.2-1.1,1.2c0.4,0.4,1.1,0.1,1.1,0.1c-0.2,1-1,1.1-1,1.1   c0.7,0.6,1.2,0.1,1.2,0.1s0.2,1.3,0.6,1.9c0.7,1.3,2.1,0.7,3,0.9c0.7,0.1,1.5,0.3,1.9-0.6c0.4-1.1-0.7-1.1-0.7-1.1s0.1-0.3,0-0.5   c-0.7-0.6-1.6,0.1-1.6,0.1c-0.6-0.4-0.9-1.3-0.8-1.8c0.2-1.9,0.9-1.7,1.7-1.2c0.8,0.5,1.9,0.2,1.9,0.2s-0.3,0.3-0.3,0.8   c0,0.5,0.6,1,0.6,1c0-1,0.6-1.6,0.6-1.6c-0.3,1,0.4,1.3,0.4,1.3s0-0.7,0.5-1c0.5-0.3,0.4-0.8,0.4-0.8c0.7,0.5,1.3-0.1,1.3-0.1   c-0.5-0.1-0.8-0.3-0.9-0.6c-0.2-0.5,0.5-0.7,0.7-2.1c0.1-1.3-0.1-2.2-0.1-2.2c3.1,0,3.4,0.9,3.5,1.4c0.1,0.5-0.2,0.8,0,1.3   c0.1,0.5,0.3,0.8,0.3,1.6c0,0.8-0.7,0.8-0.7,0.8s0.1,0.1,0.4,0.2c0.6,0.2,1.1-0.1,1.1-0.1c-0.2,0.6,0,1.2,0.7,1.4   c0.6,0.2,1,0.2,1.2,0.6c0.2,0.4,0,0.7,0,0.7c0.9-0.1,0.7-0.9,0.7-0.9c1,0.6,0.7,1.3,0.7,1.3c0.7-0.2,0.5-0.9,0.5-0.9   c0.6,0.3,0.6,1.2,0.6,1.2c0.6-0.2,0.6-0.7,0.6-0.7s0.4,0.2,1.3,0.6c0.8,0.5,1.7,0.1,2.5,0.2c0.4,0,1.3,0.3,1.5-0.5   C64.4,59.2,63.2,59.2,63.2,59.2z"/>
</g>
<g>
	<path fill="#E5C7BD" d="M45.7,41.2c-0.9,1.1-2.3,0.7-3.4,1c0,0,0.7-0.1,1.4-0.1c0.7,0,1.3-0.2,1.6-0.4   C45.6,41.5,45.7,41.2,45.7,41.2z"/>
	<path fill="#E5C7BD" d="M44.1,35.2c-0.9-0.3-1.6,0.1-2.3-0.1c-0.6-0.1-0.9-0.7-0.9-0.7s0.1,0.6,0.4,0.8c0.3,0.2,0.7,0.2,1.3,0.1   C43.4,35.1,44.1,35.2,44.1,35.2z"/>
	<path fill="#E5C7BD" d="M41.1,36.2c-1.6-0.4-1.8-2.5-1.8-2.5s-0.1,1.3,0.5,2.1c0.4,0.5,0.9,0.7,1.7,0.7c0.7,0,1-0.1,1.4,0   c0,0-0.4-0.2-0.9-0.2S41.1,36.2,41.1,36.2z"/>
	<path fill="#E5C7BD" d="M46.1,48.7c-0.9,0.4-1.2,1.4-1.4,2.1c-0.2,0.7-0.9,0.6-0.9,0.6s1.1,0.5,1.4-0.9   C45.4,49.1,46.1,48.7,46.1,48.7z"/>
	<path fill="#E5C7BD" d="M44.5,53.8c0,0,0.1-0.9,0.3-1.5c0,0-0.2,0.9,0,2.2C44.8,54.5,44.6,54.2,44.5,53.8z"/>
	<path fill="#E5C7BD" d="M41.1,53.3c-0.2,0-0.5,0-0.8,0.4c-0.2,0.5-0.2,1.4-0.5,2.2c-0.2,0.6-0.8,0.8-0.8,0.8s0.8,0,1-0.6   c0.2-0.5,0.2-1.4,0.4-2C40.6,53.4,41.1,53.3,41.1,53.3z"/>
	<path fill="#E5C7BD" d="M40.2,56.8c0,0-0.1,0.1-0.2,0.1c-0.2,0.9-1.1,1.2-1.1,1.2s0.6,0,1-0.6C40.2,57.1,40.2,56.8,40.2,56.8z"/>
	<path fill="#E5C7BD" d="M39,59.3c0,0,0.8-0.1,1-1.1c0.1,0,0.1-0.1,0.1-0.1c0,0,0,0.4-0.3,0.8C39.5,59.3,39,59.3,39,59.3z"/>
	<path fill="#E5C7BD" d="M55.3,30.1c-0.4,0.1-0.5,0.2-1-0.1c-0.4-0.3-0.9-0.2-1.3-0.1c0,0,0.7-0.1,1.1,0.3c0.2,0.2,0.4,0.3,0.6,0.3   C55,30.3,55.3,30.1,55.3,30.1z"/>
	<path fill="#E5C7BD" d="M52,29.5c-0.5-0.6-1.2-0.6-1.8-0.3c-0.7,0.4-1.5,0.2-1.5,0.2s0.7,0.5,1.6,0.1C51.2,28.9,52,29.5,52,29.5z"/>
	<path fill="#E5C7BD" d="M47.2,34.2c0,0,0.5-0.1,0.9-0.5c0.5-0.5,0.1-1.3,0.7-2.1c0.3-0.3,0.8-0.7,1.1-0.8c0,0-0.8,0.5-1,1.2   c-0.2,0.7-0.1,1.5-0.7,1.8C47.7,34.2,47.2,34.2,47.2,34.2"/>
	<path fill="#E5C7BD" d="M47.2,36.2c0,0,1-0.3,1.2-1.6c0,0,0.1,0.5-0.1,0.9C48.1,36.2,47.2,36.2,47.2,36.2z"/>
	<path fill="#E5C7BD" d="M47.4,38.4c0,0,1-0.2,1.2-0.8c0.2-0.5-0.1-0.9-0.1-0.9C48.5,37.9,47.4,38.4,47.4,38.4"/>
	<path fill="#E5C7BD" d="M48.2,39.8c0,0,1.2-0.2,1.3-1.5c0,0,0.2,0.4,0,0.9C49.2,39.7,48.2,39.8,48.2,39.8z"/>
	<path fill="#E5C7BD" d="M49.7,40.2c0,0,0.4,0.4,0.5,1.1c0.1,0.6-0.3,1.1-0.3,1.1s0.6-0.4,0.6-1.1C50.4,40.5,49.7,40.2,49.7,40.2z"/>
	<path fill="#E5C7BD" d="M51.1,42.4c-1.1,1.7-2,2.7-2.9,3.4c-1.5,1.2-3.3,1.6-4.2,1.7c0,0,2.6,0,4.5-1.5   C50.5,44.3,51.1,42.4,51.1,42.4z"/>
	<path fill="#E5C7BD" d="M60,35.5c-0.2,0.8-0.7,1.3-1.7,1.7c-1,0.4-1.8,1.4-1.8,1.4s0.7-0.7,1.8-1.1c1-0.4,1.4-0.7,1.6-1.1   C60,36,60,35.5,60,35.5z"/>
	<path fill="#E5C7BD" d="M62.4,47.2c-0.3,0-0.9,0-0.9,0c-0.9-0.4-1.7-1.1-2-1.5c0,0,0.5,0.7,1,1.1c0.6,0.4,0.9,0.6,0.9,0.6   C61.8,47.2,62.4,47.2,62.4,47.2z"/>
	<path fill="#E5C7BD" d="M49.5,51.5c0,0,0.4-0.2,0.4-0.8c0-0.6-0.3-0.9-0.3-0.9c0.2-1,1-1.4,1-1.4s-0.9,0.2-1.3,1.3   c0,0,0.2,0.3,0.3,0.9C49.6,51.2,49.5,51.5,49.5,51.5z"/>
	<path fill="#E5C7BD" d="M56.9,50.8c-0.3-0.1-0.6-0.3-1-0.7c-0.8-0.8-1.5-1-1.7-1.1c0,0,0.7,0.4,1.3,1.1   C56.3,51,56.9,50.8,56.9,50.8z"/>
</g>
<g>
	<path fill="#C3776B" d="M44.7,35.7c-0.1-0.1-0.2-0.2-0.3-0.4c-0.1-0.1-0.2-0.2-0.4-0.2c0,0-0.6-0.1-1.4,0.1c-0.6,0.1-1,0.1-1.3-0.1   c-0.3-0.2-0.4-0.8-0.4-0.8s-0.1,1,0.7,1.2c0.8,0.2,1.2-0.2,1.9,0.2c0.5,0.3,0.5,0.8,0.5,0.8s0.1-0.6-0.3-1   c-0.2-0.2-0.8-0.2-0.8-0.2s0.8-0.1,1.2,0C44.5,35.5,44.7,35.7,44.7,35.7z"/>
	<path fill="#C3776B" d="M42.9,36.5c-0.4-0.1-0.6-0.1-1.4,0c-0.7,0-1.3-0.2-1.7-0.7c-0.5-0.8-0.5-2.1-0.5-2.1s-0.3,1.2,0.1,2.1   s0.9,1.3,1.9,1.3c0.8,0,1.3,0,1.9,0.4c0,0-0.3-0.4-0.9-0.6c-0.6-0.1-1.1,0-1.7-0.3c0,0,0.7,0.1,1.2,0.1c0.5-0.1,1,0,1.7,0.5   c0,0,0-0.2-0.2-0.4C43.2,36.6,42.9,36.5,42.9,36.5z"/>
	<path fill="#C3776B" d="M45.8,41c-0.1,0.1-0.1,0.1-0.2,0.2c0,0-0.1,0.3-0.4,0.5c-0.3,0.3-0.9,0.4-1.6,0.4c-0.7,0-1.4,0.1-1.4,0.1   c-0.4,0.1-0.8,0.4-0.8,0.4s0.5-0.3,1.1-0.3c0.7-0.1,1.5,0.1,1.9-0.1c0.6-0.1,0.9-0.3,1.1-0.7C45.8,41.2,45.8,41,45.8,41z"/>
	<path fill="#C3776B" d="M47,47.9c0,0-0.2,0.2-0.4,0.4c-0.2,0.2-0.5,0.3-0.5,0.3s-0.7,0.5-1,1.8c-0.2,1.4-1.4,0.9-1.4,0.9   s0.8,0.5,1.3-0.1c0.5-0.6,0.3-1.2,0.6-1.8C46.1,48.8,46.8,48.4,47,47.9z"/>
	<path fill="#C3776B" d="M45,51.9c0,0-0.1,0.2-0.2,0.4c0,0-0.2,0.9,0,2.2c0,0,0.3,0.4,0.6,0.7c0,0-0.5-0.7-0.5-2.1   C44.9,52.5,45,51.9,45,51.9z"/>
	<path fill="#C3776B" d="M39.1,56.7c0,0,0.8,0,1-0.6c0.2-0.5,0.2-1.4,0.4-2c0.2-0.7,0.7-0.8,0.7-0.8c0.2,0,0.4,0,0.4,0   s-0.5,0-0.8,0.4c-0.3,0.5-0.3,1.4-0.4,2C40.3,56.3,39.8,56.8,39.1,56.7z"/>
	<path fill="#C3776B" d="M38.9,58.1c0,0,0.6,0,1-0.6c0.3-0.3,0.2-0.7,0.2-0.7c0.1,0,0.1-0.1,0.1-0.2c0,0,0.1,0.5-0.2,1   C39.6,58.1,38.9,58.1,38.9,58.1z"/>
	<path fill="#C3776B" d="M39,59.3c0,0,0.6,0,0.9-0.4c0.2-0.3,0.3-0.8,0.3-0.8c0.1,0,0.1-0.1,0.1-0.2c0,0,0.1,0.5-0.3,0.9   C39.6,59.4,39,59.3,39,59.3z"/>
	<path fill="#C3776B" d="M55.8,30.1c-0.1,0-0.2,0-0.2,0c-0.1,0-0.2,0-0.3,0c0,0-0.3,0.2-0.5,0.2c-0.3,0-0.4-0.1-0.6-0.3   c-0.4-0.3-1.1-0.3-1.1-0.3c-0.4,0.1-0.7,0.3-0.7,0.3c-0.1-0.2-0.2-0.4-0.3-0.5c0,0-0.8-0.6-1.7-0.1c-0.9,0.5-1.6-0.1-1.6-0.1   s0.3,0.7,1.4,0.3c1.1-0.3,1.8-0.4,2.1,0.5c0,0,0.6-0.3,1.1-0.2c0.7,0,0.6,0.5,1.1,0.5c0.3,0,0.5-0.1,0.7-0.2   C55.5,30.1,55.8,30.1,55.8,30.1z"/>
	<path fill="#C3776B" d="M48.5,34.7c0,0,0.1,0.5-0.1,0.9c-0.3,0.6-1.1,0.6-1.1,0.6s0.9,0.1,1.3-0.5C48.8,35.1,48.5,34.7,48.5,34.7z"/>
	<path fill="#C3776B" d="M47.2,34.2c0,0,0.5,0,1-0.3c0.6-0.4,0.5-1.1,0.7-1.8c0.2-0.7,1-1.2,1-1.2c0.3-0.1,0.6-0.2,0.6-0.2   s-1,0.5-1.3,1.4c-0.3,0.9-0.2,1.8-0.9,2C47.6,34.3,47.2,34.2,47.2,34.2z"/>
	<path fill="#C3776B" d="M48.5,36.6c0,0,0.3,0.4,0.1,0.9c-0.2,0.6-1.2,0.8-1.2,0.8s1.1,0.1,1.3-0.8C49,36.9,48.5,36.6,48.5,36.6z"/>
	<path fill="#C3776B" d="M48.2,39.8c0,0,1-0.1,1.2-0.6c0.2-0.5,0-0.9,0-0.9l0.1-0.1c0,0,0.4,0.6,0.1,1.1   C49.3,39.9,48.2,39.8,48.2,39.8z"/>
	<path fill="#C3776B" d="M49.7,40.2c0,0,0.7,0.4,0.7,1.1c0.1,0.7-0.6,1.1-0.6,1.1s0.8-0.4,0.8-1.2C50.6,40.4,49.7,40.2,49.7,40.2z"/>
	<path fill="#C3776B" d="M51.1,42.4c0,0-0.6,2-2.6,3.6c-1.9,1.6-4.5,1.5-4.5,1.5c-0.5,0-1,0-1.4-0.2c0,0,1.8,0.8,4.3-0.2   c1.9-0.8,3.2-2.4,3.7-3.3c0.5-1,0.6-1.7,0.6-1.7S51.2,42.3,51.1,42.4z"/>
	<path fill="#C3776B" d="M59.9,33.8c-0.2,0.8,0.2,1.4,0.2,1.4s-0.1,0.1-0.2,0.3c0,0,0,0.5-0.2,0.9c-0.2,0.4-0.5,0.7-1.6,1.1   c-1,0.4-1.8,1.1-1.8,1.1s0.7-0.5,1.8-0.8c1.1-0.3,1.7-0.8,2-1.7c0.1-0.4,0.3-0.7,0.3-0.7s-0.3-0.3-0.5-0.7   C59.9,34.2,59.9,33.8,59.9,33.8z"/>
	<path fill="#C3776B" d="M62.9,47.3c-0.2-0.1-0.3-0.1-0.5-0.2c0,0-0.6,0-1,0.3c0,0-0.3-0.2-0.9-0.6c-0.6-0.4-1-1.1-1-1.1   c-0.4-0.4-0.7-0.7-0.9-0.9c0,0,0.2,0.8,1,1.6c0.8,0.8,1.4,1.2,1.4,1.2s-0.2,0.1-0.1,0.9c0,0,0.4-0.7,1-0.9   C62.4,47.2,62.9,47.3,62.9,47.3z"/>
	<path fill="#C3776B" d="M50.6,48.4c0,0-0.8,0.4-1,1.4c0,0,0.4,0.3,0.3,0.9c0,0.6-0.4,0.8-0.4,0.8s0.6,0,0.7-0.9   c0-0.5-0.3-0.8-0.3-0.8s0.1-0.3,0.2-0.6C50.1,48.9,50.6,48.4,50.6,48.4z"/>
	<path fill="#C3776B" d="M57.7,50.5c0,0-0.2,0.4-0.7,0.3c0,0-0.7,0.2-1.4-0.7c-0.6-0.7-1.3-1.1-1.3-1.1c-0.2-0.1-0.4-0.1-0.6-0.1   c0,0,0.9,0.1,1.7,1.2c0.7,1,1.3,1,1.6,1C57.4,51,57.7,50.5,57.7,50.5z"/>
	<path fill="#C3776B" d="M50.1,33.5c0,0,0,0.5,0.3,0.8c0.4,0.2,0.4,0.8-0.1,1.2c0,0,0.2-0.5,0.1-0.8C50.2,34.3,49.8,34.2,50.1,33.5z   "/>
	<path fill="#C3776B" d="M50.9,36.2c0,0,0.2,0.5,0.8,0.7c0.5,0.2,0.4,0.7,0.2,1.1c0,0,0.1-0.5-0.2-0.7C51.4,37,50.9,37,50.9,36.2z"/>
	<path fill="#C3776B" d="M51.3,38.2c0,0,0,0.6,0.9,1c0.9,0.4,0.8,1,0.6,1.4c0,0,0.1-0.7-0.5-1C51.7,39.4,51.3,39.2,51.3,38.2z"/>
	<path fill="#C3776B" d="M52.8,38.1c0,0,0.7,1,2,0.8c0,0-0.2,0.2-0.4,0.3c0,0-0.7-0.1-1.1-0.4C52.9,38.4,52.8,38.1,52.8,38.1z"/>
	<path fill="#C3776B" d="M53.9,40.6c0,0,1.2-0.6,1.6,0.5c0.3,0.8,0.9,0.8,0.9,0.8s-0.7,0.3-1.1-0.6C54.8,40.4,53.9,40.6,53.9,40.6z"/>
	<path fill="#C3776B" d="M52.4,41.1c0,0,0,0.5,0.8,0.7c0.8,0.3,0.6,0.7,0.5,1.1c0,0,0.1-0.5-0.4-0.7C52.8,41.9,52.2,42,52.4,41.1z"/>
</g>
<g>
	<path fill="#990000" d="M52.8,30.4c0,0,0,0.8-0.7,1.2c0,0,0.6,0.1,0.9-0.1c0.4-0.1,0.1-0.4,0-0.5c-0.1-0.1,0-0.4,0.4-0.2   c0.2,0.1,0.3-0.1,0.3-0.1S53.3,30.4,52.8,30.4z"/>
	<path fill="#990000" d="M53.8,31.4c0,0-0.2,0.5-1.1,0.5c0,0,0.8,0.3,1.2,0C54.2,31.8,53.8,31.4,53.8,31.4z"/>
</g>
<g>
	<path fill="#000066" d="M14.5,122.9v-0.7l8.3-13.4h-5.9l-1,2.7h-0.8v-3.7h10.5v0.7l-8.3,13.4h6.2l1.5-2.7h0.8l-0.4,3.8H14.5z"/>
	<path fill="#000066" d="M26.7,111.3v-0.5h5.8v0.5l-1.8,0.7v7c0,2.1,1,3.1,3.1,3.1c2.1,0,3.1-1,3.1-3V112l-1.8-0.7v-0.5h5.1v0.5   l-1.8,0.7v6.8c0,2-0.5,3-1.7,3.7c-0.8,0.5-1.7,0.6-3.2,0.6c-3.4,0-4.8-1.2-4.8-3.9v-7.4L26.7,111.3z"/>
	<path fill="#000066" d="M41.7,122.9v-0.6l1.8-0.7V112l-1.8-0.7v-0.5h5.8v0.5l-1.8,0.7v9.6l1.8,0.7v0.6H41.7z"/>
	<path fill="#000066" d="M53.7,111.8h1.9c1.6,0,2.6,0.4,3.3,1.5c0.7,0.9,1,2,1,3.5c0,1.7-0.4,2.9-1.4,3.9c-0.9,0.9-1.7,1.2-3.2,1.2   h-1.7V111.8z M55.6,122.9c1.9,0,3.3-0.4,4.4-1.2c1.5-1.1,2.4-3,2.4-5.2c0-1.7-0.5-3.1-1.5-4.2c-1.2-1.3-2.3-1.6-5-1.6h-6.1v0.5   l1.8,0.7v9.6l-1.8,0.7v0.6H55.6z"/>
	<path fill="#000066" d="M70.8,103.4v6l1.9,0.8v0.6h-6v-0.6l1.9-0.8V96.9l-1.9-0.8v-0.6h6v0.6l-1.9,0.8v5.3h7.1v-5.3l-1.9-0.8v-0.6   h6v0.6L80,96.9v12.5l1.9,0.8v0.6h-6v-0.6l1.9-0.8v-6H70.8z"/>
	<path fill="#000066" d="M89.2,99.4c2.3,0,3.7,2,3.7,5.3c0,3.2-1.4,5.2-3.7,5.2c-2.3,0-3.7-2.1-3.7-5.3   C85.6,101.3,87,99.4,89.2,99.4z M89.1,111c3.7,0,6.3-2.7,6.3-6.6c0-3.7-2.3-6-5.9-6c-3.7,0-6.2,2.7-6.2,6.7   C83.2,108.6,85.5,111,89.1,111z"/>
	<path fill="#000066" d="M97.1,110.7v-0.6l1.8-0.7v-9.6l-1.8-0.7v-0.5h5.8v0.5l-1.8,0.7v9.9h3.2l1.2-2.3h0.7l-0.3,3.2H97.1z"/>
	<path fill="#000066" d="M108,110.7v-0.6l1.8-0.7v-9.6l-1.8-0.7v-0.5h5.8v0.5l-1.8,0.7v9.9h3.2l1.2-2.3h0.8l-0.3,3.2H108z"/>
	<path fill="#000066" d="M124.2,100.8l0.2,0.6l0.3,0.8l1,2.9h-3.3L124.2,100.8z M126,105.9l1.3,3.6l-1.5,0.7v0.6h5.5v-0.6l-1.6-0.7   l-4.1-11H124l-4.6,11l-1.6,0.7v0.6h4.4v-0.6l-1.5-0.7l1.3-3.6H126z"/>
	<path fill="#000066" d="M132.4,110.7v-0.6l1.8-0.7v-9.6l-1.8-0.7v-0.5h3.6l6.7,8.7v-7.4l-1.8-0.7v-0.5h4.8v0.5l-1.8,0.7v11h-1   l-7.6-9.9v8.5l1.8,0.7v0.6H132.4z"/>
	<path fill="#000066" d="M151.8,99.7h1.9c1.6,0,2.6,0.4,3.3,1.5c0.7,0.9,1,2,1,3.5c0,1.7-0.4,2.9-1.4,3.9c-0.9,0.9-1.7,1.2-3.2,1.2   h-1.7V99.7z M153.6,110.7c1.9,0,3.3-0.4,4.4-1.2c1.5-1.1,2.4-3,2.4-5.2c0-1.7-0.5-3.1-1.5-4.2c-1.2-1.3-2.3-1.6-5-1.6h-6.1v0.5   l1.8,0.7v9.6l-1.8,0.7v0.6H153.6z"/>
	<path fill="#000066" d="M3.7,96.3c0.3-0.1,0.7-0.2,1.1-0.2c1.2,0,2.1,1,2.1,2.4c0,1.6-0.9,2.5-2.5,2.5c-0.2,0-0.4,0-0.7,0V96.3z    M4.5,101.7c2.1,0,3.6-1.5,3.6-3.5c0-1.6-1.1-2.9-2.4-2.9c-0.4,0-1.2,0.3-2,0.7v-0.8l-2.3,0.5V96l1.1,0.3v7.4l-1.1,0.4v0.3H5v-0.3   l-1.4-0.4v-2.2C3.9,101.7,4.2,101.7,4.5,101.7z"/>
	<path fill="#000066" d="M9.6,101.6v-0.3l1.1-0.5v-4.5l-1.1-0.3v-0.3l2.3-0.5v0.8L12,96c0.9-0.4,1.4-0.7,1.8-0.7   c0.2,0,0.4,0.1,0.7,0.2V97h-0.9l-0.4-0.8c-0.1,0-0.3,0-0.3,0c-0.3,0-0.7,0.1-1,0.2v4.5l1.4,0.5v0.3H9.6z"/>
	<path fill="#000066" d="M18.8,95.9c1.1,0,1.8,1.1,1.8,2.9c0,1.6-0.6,2.5-1.7,2.5c-1.1,0-1.8-1-1.8-2.8   C17.1,96.8,17.7,95.9,18.8,95.9z M18.7,101.8c1.8,0,3.1-1.4,3.1-3.4c0-1.9-1.2-3.2-3-3.2c-1.9,0-3.1,1.4-3.1,3.4   C15.8,100.5,17,101.8,18.7,101.8z"/>
	<path fill="#000066" d="M25.8,101.8l-2.2-5.7l-0.8-0.4v-0.3h3v0.3l-0.9,0.4L26,99c0.2,0.4,0.3,0.8,0.4,1.3l1.6-4.2l-0.9-0.4v-0.3   h2.5v0.3l-0.8,0.4l-2.5,5.6H25.8z"/>
	<path fill="#000066" d="M31.1,101.6v-0.3l1.1-0.5v-4.5L31.1,96v-0.3l2.3-0.5v5.6l1.1,0.5v0.3H31.1z M32,93.2c0-0.4,0.3-0.7,0.8-0.7   c0.5,0,0.8,0.2,0.8,0.7c0,0.5-0.2,0.7-0.8,0.7C32.2,93.9,32,93.6,32,93.2z"/>
	<path fill="#000066" d="M36.2,101.6v-0.3l1.1-0.5v-4.5l-1.1-0.3v-0.3l2.3-0.5V96c0.1,0,0.1-0.1,0.2-0.1c0.1,0,0.3-0.1,0.6-0.2   c0.6-0.2,1-0.3,1.3-0.3c0.5,0,0.9,0.2,1.3,0.5c0.4,0.4,0.5,0.8,0.5,1.5v3.5l1.1,0.5v0.3h-3.3v-0.3l1-0.5v-3.2c0-1-0.5-1.4-1.6-1.4   c-0.4,0-0.8,0-1.1,0.1v4.6l1,0.5v0.3H36.2z"/>
	<path fill="#000066" d="M50,95.6V97h-0.8l-0.6-1.2c-0.1,0-0.2,0-0.3,0c-1.3,0-2.3,1.1-2.3,2.6c0,0.7,0.2,1.4,0.6,1.9   c0.4,0.5,1,0.7,1.8,0.7c0.4,0,0.6,0,1.3-0.1l0.1,0l0.1,0.4l-0.1,0l-0.7,0.2c-0.6,0.2-1.1,0.3-1.6,0.3c-1.6,0-2.7-1.3-2.7-3.1   c0-2,1.4-3.4,3.5-3.4C48.9,95.3,49.4,95.4,50,95.6z"/>
	<path fill="#000066" d="M52,101.6v-0.3l1.1-0.5v-4.5L52,96v-0.3l2.3-0.5v5.6l1.1,0.5v0.3H52z M52.9,93.2c0-0.4,0.3-0.7,0.8-0.7   c0.5,0,0.8,0.2,0.8,0.7c0,0.5-0.2,0.7-0.8,0.7C53.1,93.9,52.9,93.6,52.9,93.2z"/>
	<path fill="#000066" d="M58.3,98c0.1-1.4,0.6-2.1,1.5-2.1c0.8,0,1.2,0.5,1.2,1.8L58.3,98z M62.2,96.9c-0.3-1-1.2-1.6-2.3-1.6   c-1.7,0-3,1.4-3,3.4c0,1.8,1.2,3.1,2.9,3.1c0.6,0,1.7-0.2,2.4-0.5l-0.1-0.4c-0.5,0.1-1.1,0.2-1.5,0.2c-0.7,0-1.2-0.2-1.7-0.5   c-0.5-0.5-0.8-1.1-0.8-2.1h4.1C62.3,97.5,62.3,97.3,62.2,96.9z"/>
</g>
<path fill="#CC9900" d="M71.1,61.1c-5-1.3-8.8-5.6-9.5-9.8c-0.8,0-0.8-0.6-0.9-0.9c0,0-0.6,0.5-1-0.1c-0.4-0.5,0.3-1-0.5-1.7  c-0.8-0.7-1.2-0.8-1.2-0.8s0.2,0.5-0.2,0.8c0,0-0.2-0.9-1.1-1.3c-0.8-0.4-1.2-0.5-1.6-0.9c0,0-0.6,0.8-2.1,1.3c-1.5,0.5-2,1-2,1  s0.5,0,0.8,0c0.3,0,1.1,0,1.7,0.1c0.3,0.1,0.4,0.1,0.6,0.1c0.2,0.1,0.9,0.3,1.7,1.1c0.4,0.4,0.7,0.6,1,0.7c0.5,0.1,0.7-0.3,0.7-0.3  s0.5,1-0.5,1.3c0,0,0.6,0.2,0.6,1c0,0.6,0.9,0.8,0.9,0.8s-0.6,0.7-1.5,0.2c0,0,0.3,0.8,1.3,0.6c0,0-0.6,1-1.7,0.5c0,0,0.1,0.6,0.5,1  c0.4,0.4,0.7,0.7,1.2,1.1c0.5,0.5,1.2,1.4,1.9,1.7c0.7,0.3,1-0.1,1.5-0.2c0.5-0.1,1-0.1,1.3,0.3c0.2,0.3,0,0.4,0,0.4s1.1,0,0.8,1.1  c-0.2,0.8-1.2,0.5-1.5,0.5c-0.8-0.1-1.7,0.3-2.5-0.2c-0.8-0.5-1.3-0.6-1.3-0.6s0,0.5-0.6,0.7c0,0,0.1-0.9-0.6-1.2  c0,0,0.1,0.7-0.5,0.9c0,0,0.3-0.7-0.7-1.3c0,0,0.2,0.8-0.7,0.9c0,0,0.3-0.3,0-0.7c-0.2-0.4-0.6-0.4-1.2-0.6  c-0.6-0.2-0.9-0.8-0.7-1.4c0,0-0.5,0.3-1.1,0.1c-0.2-0.1-0.4-0.2-0.4-0.2s0.7,0,0.7-0.8c0-0.8-0.2-1.1-0.3-1.6  c-0.1-0.5,0.1-0.8,0-1.3c-0.1-0.5-0.4-1.4-3.5-1.4c0,0,0.3,0.9,0.1,2.2c-0.2,1.5-0.8,1.7-0.7,2.1c0.1,0.4,0.5,0.5,0.9,0.6  c0,0-0.7,0.6-1.3,0.1c0,0,0.2,0.4-0.4,0.8c-0.5,0.3-0.5,1-0.5,1s-0.7-0.3-0.4-1.3c0,0-0.7,0.6-0.6,1.6c0,0-0.6-0.5-0.6-1  c0-0.5,0.3-0.8,0.3-0.8s-1.1,0.3-1.9-0.2c-0.8-0.5-1.5-0.7-1.7,1.2c-0.1,0.6,0.3,1.4,0.8,1.8c0,0,1-0.7,1.6-0.1c0.2,0.2,0,0.5,0,0.5  s1.1,0,0.7,1.1c-0.3,0.9-1.2,0.7-1.9,0.6c-0.9-0.2-2.3,0.4-3-0.9c-0.3-0.6-0.6-1.9-0.6-1.9s-0.5,0.5-1.2-0.1c0,0,0.8-0.1,1-1.1  c0,0-0.7,0.3-1.1-0.1c0,0,0.9-0.3,1.1-1.2c0,0-0.5,0.3-0.9-0.2c0,0,0.6-0.2,0.8-0.8c0.3-0.8,0.2-1.7,0.5-2.2  c0.2-0.4,0.6-0.4,0.8-0.4c0.2,0,0.4,0,0.4,0s-0.4-0.2-0.2-0.7c0.1-0.5,0.7-0.6,0.7-0.6s-0.4,0.8,0.6,1c0.6,0.1,1.2-0.3,1.8,0.8  c0,0,0.1-0.9,0.3-1.5c0.1-0.2,0.2-0.4,0.2-0.4s-0.7,0.2-1.2-0.6c0,0,0.7,0.2,0.9-0.6c0.2-0.7,0.4-1.7,1.4-2.1c0,0-2.1,0.7-3.6,0.1  c-1.5-0.6-1.9-1.3-2.2-2.2c-0.5-1.8,0.6-2.9,0.3-3.9c-0.2-0.7-0.8-0.8-0.8-0.8s0.2-0.1,0.5-0.1c0.3,0,1.2-0.1,1.3,0.8  c0,0,0.4-0.3,0.8-0.4c1.1-0.3,2.5,0,3.4-1c0.1-0.1,0.1-0.1,0.2-0.2c0.1-0.1,0.3-0.4,0.3-1c0-0.6-0.5-2.1-2.9-1.7  c-2.6,0.4-4.2-0.5-4.2-3c0-0.9,0.2-1.6,0.2-1.6s0.1,2.1,1.8,2.5c0,0-0.4-0.3-0.4-1c0-0.5,0.2-0.9,0.2-0.9s0.3,0.6,0.9,0.7  c0.7,0.1,1.4-0.3,2.3,0.1c0.1,0.1,0.3,0.1,0.4,0.2c0.1,0.1,0.2,0.2,0.3,0.4c0.1,0.2,0.2,0.4,0.2,0.6c0,0.2,0,0.7-0.1,1.1  c0,0,1.1,0.1,1.8,1c0.8,1,1.1,3.4-1.2,4.2c0,0,1,0.9-0.2,2.2c0,0,0.3-1-0.4-1.4c-0.7-0.4-2.1-0.6-3,0.5c-0.7,0.9-0.5,2.2-0.1,2.7  c0.2,0.3,0.5,0.7,0.9,0.8c0.4,0.1,0.9,0.2,1.4,0.2c1-0.1,2.7-0.5,4.2-1.7c0.9-0.7,1.8-1.8,2.9-3.4c0,0-0.5,0.4-1.2,0  c0,0,0.4-0.6,0.3-1.1c-0.1-0.7-0.5-1.1-0.5-1.1s-0.6,0.3-1.6-0.4c0,0,1.2-0.2,1.3-1.5c0,0-0.5,0.7-2,0.1c0,0,1-0.5,1-1.8  c0,0-0.6,0.2-1.2-0.4c0,0,1-0.3,1.2-1.6c0,0-0.8,0.1-1.3-0.5c0,0,0.5-0.1,0.9-0.5c0.5-0.5,0.1-1.3,0.7-2.1c0.3-0.3,0.8-0.7,1.1-0.8  c0.3-0.1,0.6-0.2,0.6-0.2s-1.1,0.3-1.6-0.6c-0.1-0.2-0.1-0.6-0.1-0.6s0.8,0.3,1.5-0.2c0.6-0.3,1.3-0.3,1.8,0.3  c0.1,0.1,0.2,0.3,0.3,0.5c0,0,0.3-0.2,0.7-0.3c0.4-0.1,0.9-0.1,1.3,0.1c0.5,0.3,0.6,0.2,1,0.1c0.1,0,0.2,0,0.3,0c0.1,0,0.1,0,0.2,0  c0.7,0.1,0.7,0.3,0.6,0.5c-0.1,0.3,0.1,0.5,0,1c0,0.5-0.2,1.3-1.5,1.1c-1.2-0.2-1.8,0.1-1.7,1.3l0,0.2c0,0,0,0.1,0,0.1  c0.3,1.3,1.5,1.2,1.9,1c0.2-0.1,0.4,0,0.6,0c0.4,0.1,0.6,0.5,0.1,1.2c0,0-1-0.2-1.3,0c-0.4,0.3-0.2,1,0.5,1.3  c0.7,0.3,1.5-0.2,1.5-0.2s0.2,0.4,0.1,0.8c0,0,0.8-1,1.8-1.4c1-0.4,1.5-0.9,1.7-1.7c0.1-0.2,0.2-0.3,0.2-0.3s-0.4-0.6-0.2-1.4  c0.2-0.6,0.6-0.7,0.8-0.6c0.2,0,0.4,0.3,0.4,0.3s0.1-0.2,0.4-0.4v-2.5c0,0,2.5-0.5,6.8-0.8l0,0c0.7,0,1.4-0.1,2.2-0.1  c1.2,0,2.5-0.1,3.8-0.1h0v-28H31.7v85h42.6V61.5l-0.2,0C73.1,61.5,72,61.4,71.1,61.1z"/>
<path fill-rule="evenodd" clip-rule="evenodd" fill="#CC9900" d="M36.5,65.9c0.2-0.1,0.3-0.1,0.6-0.2l0,0l-0.7-2.7  c0.2,0.1,0.3,0.2,0.5,0.2l-0.1-0.6c-0.1-0.3,0.5-0.6,1.3-0.7c0.9-0.1,1.3-0.3,1.3-0.7l0-0.1c-0.2-0.6-1.7-0.4-2.5-0.2  c-0.5,0.1-1,0.2-1.4,0.3l-0.3,0.1l0.6,2.4l0.6,2.2L36.5,65.9z"/>
<path fill-rule="evenodd" clip-rule="evenodd" fill="#CC9900" d="M99.3,61.1c0,0.5-0.5,0.6-1.6,0.7c-1.3,0.1-1.5,0.6-1.4,0.8  l0.1,0.5c-0.1,0-0.3-0.1-0.5-0.1l0.5,2.1l0,0l0,0c-3.7-0.2-11.3,0.7-22.3,0.7c-11.2,0-17.6-1.1-21.4-0.8l0,0l0.1-0.6h0l0.3-1.2  c0.1-0.2-0.2-0.4-0.6-0.5l0.1-0.2c0.1-0.3-0.3-0.6-1.3-0.8c-0.8-0.1-1.4-0.1-1.6-0.7l0,0c0-0.4,0.4-0.6,1.1-0.7  c2.6-0.4,12.4,1,23.2,1c0.6,0,1.4,0,2,0c10.3-0.1,20.4-1.3,22.2-1C99.1,60.5,99.3,60.9,99.3,61.1L99.3,61.1z"/>
<path fill="#CC9900" d="M37.9,67.2c0.1,0.1,0.2,0.2,0.5,0.3c0.3,0.1,0.8,0.1,1.2,0c0.7-0.1,3.4-1,5.2-1c1.8,0,4.9,0.9,5.4,1  c0.5,0.1,1.3,0.1,1.5-0.4l0,0l1.1-4.4l0.1-0.2C52.6,63,52,63.1,51.2,63c-1.3-0.1-4-0.9-6.5-0.9s-5.5,0.7-6.3,0.9  c-0.8,0.1-1.5,0-1.7-0.3l0.1,0.6L37.9,67.2z"/>
<path fill-rule="evenodd" clip-rule="evenodd" fill="#CC9900" d="M97.5,67.2l-1-4l-0.1-0.5l0,0c0.2,0.4,0.8,0.4,1.5,0.3  c1.3-0.2,4-0.9,6.5-0.9c2.5,0,5.5,0.7,6.3,0.9c0.8,0.1,1.6-0.1,1.7-0.3l0,0.2l-1.1,4.4c-0.2,0.3-0.8,0.4-1.7,0.2  c-0.7-0.2-3.4-1-5.2-1c-1.8,0-4.9,0.9-5.4,1c-0.3,0.1-0.8,0.1-1.2-0.1C97.7,67.4,97.6,67.3,97.5,67.2"/>
<path fill="#CC9900" d="M109.8,61.3C109.8,61.3,109.8,61.3,109.8,61.3c0.2-0.6,1.7-0.4,2.5-0.3c0.5,0.1,1.1,0.3,1.5,0.4  c0.1,0,0.2,0.1,0.2,0.1l-0.1,0.4l0,0l-1,4.1l0,0c-0.2-0.1-0.4-0.2-0.7-0.2v0l0.6-2.4v0c0.1-0.2-0.1-0.3-0.4-0.5l0-0.2  c0.1-0.3-0.5-0.6-1.3-0.7C110.3,61.9,109.8,61.8,109.8,61.3L109.8,61.3L109.8,61.3z"/>
<g>
	<g>
		<path fill="#EEDFA7" d="M74.2,61.4c0.6,0,1.3,0,2,0c10.2-0.1,20.4-1.3,22.2-1c0,0-0.6,0-3.8,0.2c-1.9,0.1-8.4,0.9-20.2,1.2    c-7.1,0.1-19.4-1.2-22.8-1.2c-1.6,0-1.7,0.6-1.7,0.6c0-0.4,0.4-0.6,1.1-0.7C53.5,60,63.4,61.4,74.2,61.4z"/>
	</g>
	<path fill="#EEDFA7" d="M37.9,67.2l-1-3.9l-0.1-0.6c0.2,0.3,0.8,0.5,1.7,0.3c0.8-0.1,3.8-0.9,6.3-0.9s5.2,0.8,6.5,0.9   c0.7,0.1,1.3-0.1,1.6-0.4c0,0-0.2,0.9-2.1,0.5c-1.2-0.2-3-0.6-4.7-0.8c-2.5-0.2-5.3,0.3-6.7,0.8c-1.4,0.4-1.7,0.7-1.7,0.7   L37.9,67.2z"/>
	<path fill-rule="evenodd" clip-rule="evenodd" fill="#EEDFA7" d="M39.4,61.3L39.4,61.3c-0.2-0.6-1.7-0.4-2.5-0.3   c-0.5,0.1-1,0.2-1.4,0.3l-0.3,0.1l0.6,2.4l0.6,2.2l-0.5-4.3c0.9-0.4,2.6-0.6,3.1-0.6C39.2,61.1,39.4,61.3,39.4,61.3z"/>
	<path fill-rule="evenodd" clip-rule="evenodd" fill="#EEDFA7" d="M97.5,67.2l-1-4l-0.1-0.5l0,0c0.2,0.4,0.8,0.4,1.5,0.3   c1.3-0.2,4-0.9,6.5-0.9c2.5,0,5.5,0.7,6.3,0.9c0.8,0.1,1.6-0.1,1.7-0.3c0,0,0.1,0.9-2.1,0.4c-1.2-0.2-3-0.6-4.7-0.7   c-2.5-0.2-5.3,0.4-6.7,0.8c-0.9,0.2-1.6,0.5-1.6,0.5L97.5,67.2z"/>
	<path fill="#EEDFA7" d="M109.8,61.3C109.8,61.3,109.8,61.3,109.8,61.3c0,0.1,0.1-0.2,0.8-0.2c1.4,0,3.5,0.4,3.5,0.4   c-0.1,0-0.1,0-0.2-0.1c-0.4-0.1-1-0.3-1.5-0.4C111.4,60.9,109.9,60.7,109.8,61.3z"/>
</g>
<path fill="#CC9900" d="M61.5,47.2c-0.9-0.4-1.7-1.1-2-1.5c-0.4-0.4-0.7-0.7-0.9-0.9c-0.2-0.2-0.3-0.4-0.3-0.4  c0.5,0,0.7-0.3,0.7-0.3c-0.5-0.1-0.5-0.6-0.5-0.6c0.7,0,0.9-1,0.9-1c-0.6,0.3-0.8-0.1-0.8-0.1c0.7-0.4,1-1.4,1.3-2.1  c0.3-0.7,0.9-0.9,0.9-0.9c-0.4-0.3-0.8-0.2-0.8-0.2c0.5-1.3,1.4-1.9,1.6-2v3.5V47.2z"/>
<linearGradient id="SVGID_1_" gradientUnits="userSpaceOnUse" x1="11663.7324" y1="11523.6162" x2="11752.7227" y2="11641.7129" gradientTransform="matrix(0.25 0 0 0.25 -2851.97 -2852.8975)">
	<stop offset="0" style="stop-color:#EEDFA7"/>
	<stop offset="1" style="stop-color:#D5B40F"/>
</linearGradient>
<path fill="url(#SVGID_1_)" d="M74.3,29.4c2.7,0,5,0.1,6.9,0.3c3.8,0.3,6,0.8,6,0.8v10.2l0,6.5c-0.3-0.1-0.9-0.1-1.3,0.2  c-0.2,0.1-0.3,0.2-0.4,0.5c-0.2,0.9,0.6,0.9,0.6,0.9s-0.9,0.3-0.7,1c0,0.1,0.1,0.2,0.1,0.3c0.3,0.5,0.9,0.2,0.9,0.2s0,0.4,0.2,0.7  c0.1,0.1,0.2,0.2,0.4,0.2c-0.6,4.1-4.3,8.3-9.1,9.7c-0.1,0-0.3,0.1-0.4,0.1c-0.5,0.1-1,0.2-1.5,0.3c-0.5,0.1-1,0.1-1.5,0.1l-0.3,0  l0,0l-0.2,0c-1,0-2.1-0.2-3.1-0.4c-5-1.3-8.8-5.6-9.5-9.8c0.8,0,0.7-1,0.7-1c0.8,0.3,1.2-0.5,1-1c-0.2-0.4-0.6-0.6-0.6-0.6  c0.6-0.2,0.7-0.6,0.6-0.9c-0.1-0.2-0.2-0.4-0.4-0.5c-0.2-0.1-0.3-0.1-0.5-0.2c-0.3,0-0.9,0-0.9,0c0,0,0,0,0,0v-6.6V30.4  c0,0,2.5-0.5,6.8-0.8l0,0c0.7,0,1.4-0.1,2.2-0.1C71.6,29.4,72.9,29.4,74.3,29.4z"/>
<path fill="#990000" d="M81.3,29.7c-1.9-0.2-4.2-0.3-6.9-0.3c-1.4,0-2.7,0-3.8,0.1c-0.8,0-1.5,0.1-2.2,0.1c-0.6-0.1-1-0.2-1.4-0.3  c-1.2-0.3-1.7-0.6-1.7-0.6l0.3-0.2c0.7-0.4,3.1-1.3,8.8-1.3c5.6,0,8.1,1.1,8.8,1.5c0.2,0.1,0.4,0.2,0.4,0.2S82.8,29.3,81.3,29.7z"/>
<path fill="#990000" d="M87.4,51.3c-0.1,0-0.2,0-0.3,0h0c-0.2,0-0.3-0.1-0.4-0.2c-0.2-0.3-0.2-0.7-0.2-0.7s-0.6,0.2-0.9-0.2  c-0.1-0.1-0.1-0.2-0.1-0.3c-0.2-0.8,0.7-1,0.7-1s-0.8-0.1-0.6-0.9c0.1-0.2,0.2-0.3,0.4-0.5c0.4-0.2,0.9-0.2,1.3-0.2  c0.1,0,0.1,0,0.2,0c0,0,1.7-1,2.7-2.2c0.3-0.4,0.5-0.6,0.5-0.6s-0.3,0.3-0.8,0c0,0,0.7-0.1,0.8-0.9c0,0-0.9-0.1-1.2-0.9  c0,0,0.5,0,0.9-0.2c0,0-0.7-0.4-1-1.6c-0.3-1.1-0.7-1.4-1.1-1.6c0,0,0.4-0.2,0.8-0.2c0,0-0.2-1.1-1.6-2.1v-4.2  c0.2,0.1,0.3,0.3,0.4,0.5c0,0,0.4-0.5,0.8-0.2c0.1,0.1,0.2,0.3,0.3,0.5c0.1,0.4,0.1,1-0.2,1.5c0,0,0.1,0.3,0.3,0.7  c0.2,0.3,0.5,0.7,0.9,1c0.6,0.4,1.1,0.5,1.6,0.9c0.1,0.1,0.3,0.2,0.4,0.3c0.4,0.4,0.6,0.6,0.6,0.6s-0.2-0.4,0-0.8  c0,0,0.1,0.1,0.3,0.2c0.3,0.1,0.9,0.2,1.3,0c0.4-0.2,0.6-0.6,0.5-0.9c0-0.2-0.3-0.4-0.6-0.4c-0.2,0-0.4,0-0.6,0  c-0.2,0-0.4,0.1-0.4,0.1s-0.5-0.5-0.1-0.9c0.2-0.2,0.3-0.3,0.7-0.3c0.1,0,0.2,0,0.3,0c0.5,0,1.9,0,1.8-1.6c0-0.1,0-0.2,0-0.3  c0-0.1,0-0.2-0.1-0.3c-0.1-0.3-0.4-0.5-1.1-0.5c-0.3,0-0.6,0-0.9,0c-0.4,0-0.6-0.1-0.9-0.3c-0.1-0.1-0.2-0.3-0.3-0.5  c0-0.2,0-0.4,0-0.6c0.1-0.6,0-0.8,0-1.1C92.3,30.1,92.6,30,93,30c0.4,0.1,1,0.3,1.5,0c0.3-0.2,0.5-0.3,0.9-0.3  c0.1,0,0.3,0.1,0.5,0.1c0.2,0,0.4,0.1,0.6,0.2c0,0,0-0.8,0.9-1c0.9-0.1,1,0.4,2,0.5c0.2,0,0.5,0,0.8,0c0,0,0,0.3-0.2,0.6  c-0.2,0.4-0.7,0.8-1.8,0.4c0,0,1.3,0.4,1.3,1.7c0.1,1.5,0.4,1.9,0.8,2.1c0,0-0.3,0.4-0.8,0.2c0,0,0.1,1.4,1,1.7c0,0-0.4,0.6-1.1,0.2  c0,0-0.2,1.5,0.8,1.9c0,0-0.6,0.5-1.1,0c0,0,0.5,1-0.9,2.1c-0.9,0.8-0.9,1.6-0.9,1.6s-0.6-0.1-0.8-0.9c0,0-0.9,1-0.2,2.2  c0,0-0.8,0-1-0.9c0,0,0.1,0.6-0.4,0.9c-0.5,0.3-0.3,1-0.3,1s-0.8-0.2-0.7-1.1c0,0-0.8-0.2-1.1,1c0,0,0.2-0.5,0.8-0.4  c0,0,0.2,0.7,0.9,1c0.1,0,0.1,0.1,0.2,0.1c0.1,0,0.1,0,0.2,0c0.2,0,0.3,0,0.5,0c0,0-0.7-0.8-0.1-1.7c0,0,0.5,1,1.7,0.6  c0,0-0.5-0.4-0.5-1c0-0.4,0.1-0.8,0.1-0.8s0.2,0.3,0.6,0.6c0,0,0.2,0.4,0.6,1c0.3,0.4,0.6,0.9,1,1.4c0.5,0.6,1.1,1.2,1.7,1.6  c1.8,1.2,4.9,1.8,6.2,0.5c0.9-0.9,0.8-2.7,0-3.3c-1.2-0.9-2.6-0.8-3.1,0.2c-0.1,0.2-0.1,0.5-0.1,0.9c0,0-0.1-0.1-0.3-0.3  c-0.1-0.1-0.1-0.2-0.2-0.3c-0.1-0.2-0.2-0.4-0.1-0.7c0-0.3,0.1-0.5,0.4-0.8c0,0-0.5-0.2-1-0.7c-0.5-0.5-0.9-1.3-0.7-2.4  c0.2-1.2,1.1-1.7,1.8-2c0.4-0.1,0.6-0.2,0.6-0.2s-0.7-1.4,0.4-2.2c1-0.6,2.2,0.2,3-0.3c0.2-0.1,0.3-0.3,0.4-0.5c0,0,0.2,0.4,0.2,0.9  c0,0.3-0.1,0.6-0.3,0.9c0,0,0.5-0.1,0.9-0.5c0.4-0.4,0.7-1,0.9-2c0,0,0.2,0.6,0.3,1.4c0,0.7-0.1,1.6-0.8,2.4c-1.2,1.4-3,0.8-4,0.7  c-1.9-0.2-3.2,2-1.5,3.2c0.6,0.4,1.2,0.5,1.7,0.5c0.6,0.1,1.4,0.1,2.1,0.6c0,0-0.1-1.3,1.8-0.7c0,0-0.4,0-0.7,0.4  c-0.2,0.2-0.3,0.6-0.2,1.1c0.3,1.3,1,3.4-0.9,5c-1.7,1.4-4.5,0.4-4.5,0.4s0.7,0.4,0.9,1.6c0.1,0.8,0.4,0.9,0.7,1c0.2,0,0.3,0,0.3,0  s-0.1,0.1-0.2,0.3c-0.2,0.2-0.5,0.4-1,0.3c0,0,0.6,0.7,0.7,1.9c0,0,0.1-0.2,0.3-0.4c0.2-0.1,0.4-0.3,0.8-0.3c0.1,0,0.3,0,0.5,0  c0.8,0,1-0.5,0.8-1c0,0,0.4,0.1,0.7,0.4c0.1,0.2,0.2,0.5-0.1,0.8c0,0,0.3,0,0.7,0.2c0.1,0,0.2,0.1,0.3,0.2c0.1,0.1,0.1,0.1,0.2,0.2  c0.5,0.8-0.1,2.2,1,2.8c0.1,0,0.2,0.1,0.2,0.1c0,0,0,0.1-0.1,0.1c-0.2,0.1-0.5,0.3-0.9,0.1c0,0,0.2,0.8,0.9,1.1  c0.1,0,0.2,0.1,0.2,0.1c0,0-0.1,0-0.2,0.1c-0.2,0.1-0.6,0.2-1,0c0,0,0.1,0.7,0.7,1.1c0.1,0,0.2,0.1,0.3,0.1c0,0-0.1,0-0.1,0.1  c-0.2,0.1-0.7,0.3-1.1-0.1c0,0-0.2,1.3-1,2.2c-0.8,0.9-1.7,0.4-2.5,0.5c-0.5,0-1,0.1-1.4,0c-0.3-0.1-0.5-0.4-0.7-0.8  c-0.1-0.4,0.3-0.8,0.8-0.8c0,0-0.3-0.2,0-0.5c0.2-0.2,0.5-0.2,0.8-0.2c0.3,0,0.6,0.1,0.8,0.3c0,0,1.2-0.9,0.7-2.6  c0-0.1-0.1-0.2-0.1-0.3c-0.2-0.4-0.7-0.4-1.1-0.2c-0.5,0.2-1.3,0.7-2.2,0.4c0,0,0.5,0.5,0.2,1.2c-0.1,0.2-0.2,0.4-0.5,0.7  c0,0,0.1-0.6-0.2-1.1c-0.1-0.2-0.2-0.3-0.4-0.5c0,0,0.2,0.4,0,0.8c-0.1,0.2-0.2,0.3-0.5,0.5c0,0,0.3-0.5-0.2-0.8  c-0.3-0.2-0.8-0.3-0.7-1c0,0-0.5,0.5-1.3-0.2c0,0,0.3,0,0.6-0.2c0.1-0.1,0.2-0.1,0.3-0.3c0.3-0.4-0.2-0.8-0.5-1.8  c-0.3-1-0.2-1.7,0-2.3l0.1-0.3c0,0-0.7,0.2-1.1-0.4c-0.3-0.4-0.2-0.9-0.2-0.9s-0.6,0.6-0.1,1.3c0,0-0.7,0.1-1.4,0.4  c-0.6,0.3-0.8,0.6-0.6,1.4c0.2,0.8,0,1.1-0.2,1.8c-0.2,0.6-0.2,1.3,0.4,1.4c0.1,0,0.1,0,0.2,0c0,0-0.1,0.1-0.2,0.1  c-0.2,0.2-0.7,0.4-1.3,0c0,0,0.2,0.6-0.2,1.1c-0.5,0.6-2,0.3-1.7,1.6c0,0,0,0-0.1,0c-0.1,0-0.2-0.1-0.3-0.2  c-0.1-0.1-0.3-0.3-0.3-0.7c0,0-0.5,0.3-0.7,0.8c0,0.1,0,0.3,0,0.4c0,0-0.2,0-0.3-0.2c-0.1-0.1-0.3-0.3-0.2-0.7c0,0-0.4,0.2-0.5,0.6  c0,0.1-0.1,0.3-0.1,0.5c0,0-0.3,0-0.4-0.3C90.1,60.3,90,60.2,90,60c0,0-0.4,0.1-0.9,0.4c-0.6,0.4-1,0.5-2.2,0.4c-0.5,0-1,0.1-1.3,0  c-0.3,0-0.6-0.2-0.8-0.6c-0.4-0.9,0.8-1.1,0.8-1.1s-0.2-0.5,0.4-0.7c0.2-0.1,0.4-0.1,0.6,0c0.6,0.1,1.1,0.5,1.6,0.3  c1.3-0.5,1.5-1.2,2.4-2c0.4-0.3,0.7-0.6,0.9-0.8c0.3-0.3,0.5-0.7,0.5-1.1c0,0-0.5,0.6-1.5-0.1c0,0,1-0.2,1-0.8c0,0-0.9,0.4-1.5-0.3  c0,0,0.4,0,0.7-0.2c0.5-0.3,0.1-1.2,0.8-1.5c0,0-1-0.2-0.5-1.3c0,0,0.1,0.3,0.5,0.3c0.1,0,0.2,0,0.4,0c0.9-0.2,1.2-1.5,2.4-1.9  c0.4-0.1,0.8-0.2,1.2-0.2c0.6,0,1,0,1,0l-0.4-0.3c0,0,0.4-0.1,0.8,0c0,0-0.2-0.4-1-0.6c-0.6-0.2-1.6-0.8-1.5-2.8  c0,0-0.2,1.2-1.6,1.8c-1,0.4-1.5,0.7-1.8,1.1c-0.1,0.2-0.2,0.4-0.3,0.6c0,0-0.1-0.1-0.2-0.3c0-0.1,0-0.3,0-0.4c0,0-0.8,0.3-1.2,0.8  c-0.6,0.8-0.1,1.5-0.6,1.9c-0.2,0.1-0.4,0.1-0.5,0.1c-0.2,0-0.3-0.1-0.3-0.1S88,51.2,87.4,51.3z"/>
<path fill="#990000" d="M95.9,30.4c0,0,0,0.8,0.7,1.2c0,0-0.6,0.1-0.9-0.1c-0.4-0.1-0.1-0.4,0-0.5c0.1-0.1,0-0.4-0.4-0.2  C95.2,31,95,30.7,95,30.7S95.4,30.4,95.9,30.4z"/>
<path fill="#990000" d="M94.9,31.4c0,0,0.2,0.5,1.1,0.5c0,0-0.8,0.3-1.2,0C94.6,31.8,94.9,31.4,94.9,31.4z"/>
<path fill-rule="evenodd" clip-rule="evenodd" fill="#990000" d="M50.2,62.5c-1.4-0.3-3.5-0.7-5.4-0.7c-1.9,0-4.1,0.4-5.4,0.7  l0.1-1.1c0,0.4-0.5,0.6-1.3,0.7c-0.9,0.1-1.4,0.3-1.3,0.7c0.2,0.3,0.8,0.5,1.7,0.3c0.8-0.1,3.8-0.9,6.3-0.9s5.2,0.8,6.5,0.9  c0.7,0.1,1.3-0.1,1.6-0.4c0.1-0.3-0.3-0.6-1.3-0.8c-0.8-0.1-1.4-0.1-1.6-0.7L50.2,62.5z"/>
<path fill-rule="evenodd" clip-rule="evenodd" fill="#990000" d="M113.8,61.4l0.1-0.3c-0.3-0.1-1-0.3-1.6-0.4  c-0.9-0.1-2.5-0.4-2.5,0.3l0,0.3c0.2-0.6,1.7-0.4,2.5-0.2C112.8,61.1,113.4,61.3,113.8,61.4L113.8,61.4z"/>
<path fill-rule="evenodd" clip-rule="evenodd" fill="#990000" d="M39.4,61.3c0,0,0.1-0.2,0-0.3c-0.2-0.5-1.6-0.4-2.5-0.3  c-0.6,0.1-1.2,0.3-1.5,0.4l0.1,0.4c0.4-0.1,1-0.3,1.4-0.3C37.7,60.9,39.2,60.7,39.4,61.3z"/>
<path fill-rule="evenodd" clip-rule="evenodd" fill="#990000" d="M99.3,60.7c0-0.3-0.2-0.6-1-0.7c-1.7-0.3-10.8,0.7-20.3,1  c-0.1,0-0.3,0.1-0.4,0.1c-0.5,0.1-1,0.2-1.5,0.3c10.2-0.1,20.4-1.3,22.2-1l0,0c0.7,0.1,1,0.5,1,0.7C99.3,61.1,99.4,61,99.3,60.7z"/>
<path fill="#990000" d="M109.8,61.3L109.8,61.3c0.1,0.4,0.5,0.6,1.3,0.7c0.9,0.1,1.4,0.3,1.3,0.7c-0.1,0.3-0.8,0.5-1.7,0.3  c-0.8-0.1-3.8-0.9-6.3-0.9c-2.5,0-5.2,0.7-6.5,0.9c-0.8,0.1-1.3,0.1-1.5-0.3c-0.1-0.3,0.1-0.7,1.4-0.8c1-0.1,1.5-0.3,1.6-0.7  l-0.2,1.3c1.4-0.3,3.4-0.7,5.3-0.7c1.9,0,4.1,0.4,5.4,0.7L109.8,61.3z"/>
<path fill-rule="evenodd" clip-rule="evenodd" fill="#990000" d="M37,65.7l-0.7-2.7c0.2,0.1,0.3,0.2,0.5,0.2l1,3.9  c-0.3-0.1-0.5-0.2-0.6-0.4L37,65.7z"/>
<path fill-rule="evenodd" clip-rule="evenodd" fill="#990000" d="M97.5,67.2l-1-4c-0.1,0-0.3-0.1-0.5-0.1l1,4  c0.1,0.2,0.3,0.3,0.6,0.4C97.6,67.3,97.5,67.3,97.5,67.2z"/>
<path fill="#990000" d="M77.6,61.1c0.1,0,0.3-0.1,0.4-0.1c4.8-1.4,8.4-5.6,9.1-9.7l0,0l0,0c0.1-0.4,0.1-0.8,0.1-1.3c0,0,0,0,0,0  l0-9.4V30.4c0,0-2.2-0.5-6-0.8c-1.9-0.2-4.2-0.3-6.9-0.3h0v-28h42.5v85H74.3V65.9h-0.1c11,0,18.6-0.9,22.3-0.7l0,0L96,63  c0.2,0.1,0.3,0.1,0.5,0.1l1,4c0,0.1,0.2,0.2,0.3,0.3c0.3,0.2,0.9,0.1,1.2,0.1c0.5-0.1,3.6-1,5.4-1c1.8,0,4.4,0.8,5.2,1  c0.9,0.2,1.5,0,1.7-0.2l1.1-4.4c0.3,0.1,0.5,0.3,0.4,0.5v0l-0.6,2.4v0c0.3,0.1,0.5,0.1,0.7,0.2l1-4.1l0.1-0.4c-0.1,0-0.1,0-0.2-0.1  c-0.4-0.1-1-0.3-1.5-0.4c-0.9-0.1-2.4-0.3-2.5,0.2c0,0,0,0,0,0.1l0,0l0,0.1c0.1,0.4,0.5,0.5,1.3,0.6c0.9,0.1,1.4,0.3,1.3,0.7  c-0.1,0.3-0.8,0.5-1.7,0.3c-0.8-0.1-3.8-0.9-6.3-0.9c-2.5,0-5.2,0.7-6.5,0.9c-0.8,0.1-1.3,0.1-1.5-0.3c-0.1-0.3,0.1-0.7,1.4-0.8  c1-0.1,1.5-0.3,1.6-0.7l0,0c0-0.3-0.2-0.6-1-0.7c-1.8-0.3-12,0.9-22.2,1C76.6,61.3,77.1,61.2,77.6,61.1L77.6,61.1z"/>
<path fill-rule="evenodd" clip-rule="evenodd" fill="#990000" d="M71.1,61.1c-0.1,0-0.3-0.1-0.4-0.1c-9.4-0.2-17.4-1.3-19.7-1  c-0.7,0.1-1,0.3-1.1,0.7c-0.1,0.2,0,0.4,0,0.4c0-0.4,0.4-0.6,1.1-0.7c2.4-0.4,11.5,0.9,21.6,1C72.1,61.3,71.5,61.2,71.1,61.1z"/>
<g>
	<path fill="#D6A598" d="M96.5,30c0,0,0.2-0.9,1.1-0.8c0.4,0,0.5,0.1,1,0.3c0.5,0.1,0.8,0,0.8,0c-1-0.1-1.1-0.6-2-0.5   C96.5,29.2,96.5,30,96.5,30z"/>
	<path fill="#D6A598" d="M106.8,43.7c0.8,0.6,0.9,2.4,0,3.3c-1.2,1.3-4.4,0.7-6.2-0.5c-0.7-0.5-1.2-1-1.7-1.6c0,0,1,1.8,3.3,2.6   c2.3,0.8,3.9,0.6,4.7-0.1c0.6-0.6,0.7-1.2,0.8-1.8C107.7,44.3,106.8,43.7,106.8,43.7z"/>
	<path fill="#D6A598" d="M93.5,35.4c0.1,0,0.2,0,0.3,0c0.5,0,1.9,0,1.8-1.6c0,0,0.2,0.7-0.2,1.3c-0.2,0.3-0.8,0.4-1.3,0.4   C93.8,35.5,93.5,35.4,93.5,35.4z"/>
	<path fill="#D6A598" d="M95.4,29.7c-0.4,0-0.6,0.1-0.9,0.3c-0.5,0.3-1,0.1-1.5,0c-0.4-0.1-0.7,0.1-0.6,0.3c0.1,0.2,0.1,0.5,0,1.1   c0,0.2,0,0.4,0,0.6c0,0,0-0.5,0.2-0.8c0.1-0.3,0.1-0.5,0-0.7c-0.1-0.2,0-0.4,0.7-0.3c0.7,0.2,1,0.3,1.3-0.1   C95,29.7,95.4,29.7,95.4,29.7z"/>
	<path fill="#D6A598" d="M91.4,37.7c-0.5-0.3-1-0.4-1.6-0.9c-0.4-0.3-0.7-0.6-0.9-1c0,0,0,0.5,0.7,1.1c0.2,0.2,0.7,0.5,1,0.5   C90.9,37.5,91.4,37.7,91.4,37.7z"/>
	<path fill="#D6A598" d="M107.5,35c-0.8,0.5-2-0.3-3,0.3c-1.2,0.8-0.4,2.2-0.4,2.2s0.2,0,0.3,0.1c0,0-0.6-0.9-0.2-1.6   c0.4-0.8,1.2-0.8,2-0.6C107.2,35.6,107.5,35,107.5,35z"/>
	<path fill="#D6A598" d="M103.5,37.6c-0.6,0.2-1.5,0.8-1.8,2c-0.2,1.2,0.2,2,0.7,2.4c0,0-0.9-1.2-0.5-2.7   C102.4,38,103.5,37.6,103.5,37.6z"/>
	<path fill="#D6A598" d="M103.2,44.2c-0.1-0.2-0.2-0.4-0.1-0.7c0-0.3,0.1-0.5,0.4-0.8c0,0,0.1,0.1,0.2,0.1c0,0-0.2,0.2-0.4,0.6   C103.1,43.7,103.2,44.2,103.2,44.2z"/>
	<path fill="#D6A598" d="M109.1,41.9c-2-0.6-1.8,0.7-1.8,0.7c-0.7-0.5-1.5-0.5-2.1-0.6c0,0,1.7,0.2,2.3,1.1c0,0-0.2-0.8,0.3-1.1   C108.2,41.7,109.1,41.9,109.1,41.9z"/>
	<path fill="#D6A598" d="M106.7,52c0.2,0.5,0,1-0.8,1c0,0,0.7,0.1,0.9-0.3C107.1,52.4,106.7,52,106.7,52z"/>
	<path fill="#D6A598" d="M99.4,52.5c-0.1,0.6-0.3,1.3,0,2.3c0.3,1,0.8,1.4,0.5,1.8c-0.1,0.1-0.2,0.2-0.3,0.3c0,0,0.3-0.1,0.5-0.3   c0.3-0.4-0.2-0.9-0.6-1.9C99.2,53.5,99.4,52.5,99.4,52.5z"/>
	<path fill="#D6A598" d="M95.6,48.8c-0.4,0-0.8,0.1-1.2,0.2c-1.2,0.4-1.5,1.7-2.4,1.9c-0.1,0-0.3,0-0.4,0c0,0,0.5,0.3,1.1-0.3   c0.6-0.6,1-1.2,1.7-1.5C95.2,48.8,95.6,48.8,95.6,48.8z"/>
	<path fill="#D6A598" d="M91.6,51.9c-0.6,0.3-0.3,1.2-0.8,1.5c-0.3,0.2-0.7,0.2-0.7,0.2s0.8,0.1,1-0.3c0.1-0.3,0.1-0.6,0.2-0.9   S91.6,51.9,91.6,51.9z"/>
	<path fill="#D6A598" d="M91.6,55.9c-0.2,0.2-0.5,0.5-0.9,0.8c-0.9,0.8-1.1,1.5-2.4,2c-0.5,0.2-1-0.2-1.6-0.3c0,0,0.6,0.3,1,0.4   c0.4,0.1,0.7,0.2,1.4-0.3c0.7-0.5,0.9-1.1,1.6-1.6C91.3,56.4,91.6,55.9,91.6,55.9z"/>
	<path fill="#D6A598" d="M90.1,45c-1,1.2-2.7,2.2-2.7,2.2c0,0-0.1,0-0.1,0c-0.3-0.1-0.9,0-1.3,0.2c0,0,0.9-0.3,1.5,0.1   c0,0,0.6-0.2,1.3-0.8C89.4,46,90.1,45,90.1,45z"/>
	<path fill="#D6A598" d="M106.1,57.5c0.4,1.7-0.7,2.6-0.7,2.6c-0.2-0.2-0.5-0.3-0.8-0.3c0,0,0.5,0.2,0.8,0.5c0,0,0.4-0.3,0.7-1   C106.5,58.5,106.1,57.5,106.1,57.5z"/>
	<path fill="#D6A598" d="M109.6,33.8c-0.1,1-0.5,1.6-0.9,2c-0.5,0.4-0.9,0.5-0.9,0.5s-0.1,0.2-0.4,0.3c0,0,1.2-0.1,1.7-1.2   C109.6,34.4,109.6,33.8,109.6,33.8z"/>
	<path fill="#D6A598" d="M99,51.6c0,0-0.4-0.7,0.2-1.3c0,0-0.2-0.6-1.1-1c0,0,0.6,0.4,0.8,1C99,50.2,98.3,50.9,99,51.6z"/>
</g>
<g>
	<path fill="#B34946" d="M99.4,52.5c0,0-0.2,1,0.2,2.1c0.4,1,0.9,1.5,0.6,1.9c-0.2,0.3-0.5,0.3-0.5,0.3s0.6,0,0.8-0.5   c0.2-0.4,0.1-0.8-0.4-1.8c-0.5-0.9-0.4-1.3-0.3-2.1s0-1.3-0.1-1.7c0,0,0,0.9-0.1,1.4L99.4,52.5z"/>
	<path fill="#B34946" d="M109.1,41.9c0,0-0.9-0.2-1.4,0.1c-0.5,0.3-0.3,1.1-0.3,1.1c-0.6-0.9-2.3-1.1-2.3-1.1s1.4,0.1,2.5,1.7   c0,0-0.4-1.1,0.1-1.5C108.3,41.8,109.1,41.9,109.1,41.9z"/>
	<path fill="#B34946" d="M93.5,35.4c0,0,0.3,0.1,0.6,0.1c0.5,0.1,1.1-0.1,1.3-0.4c0.5-0.6,0.2-1.3,0.2-1.3c0-0.1,0-0.2,0-0.3   c0,0,0.4,0.8,0.1,1.6c-0.3,0.7-1.2,0.7-1.5,0.6C93.8,35.6,93.5,35.4,93.5,35.4z"/>
	<path fill="#B34946" d="M92.7,32.5c-0.1-0.1-0.2-0.3-0.3-0.5c0,0,0-0.5,0.2-0.8c0.1-0.3,0.1-0.5,0-0.7c-0.1-0.2,0-0.4,0.7-0.3   c0.7,0.2,1,0.3,1.3-0.1c0.4-0.5,0.8-0.4,0.8-0.4c0.1,0,0.3,0.1,0.5,0.1c0,0-0.7-0.1-1,0.3c-0.3,0.4-0.4,0.7-1.3,0.4   c-0.8-0.3-1-0.2-0.9,0.1c0.1,0.3,0,0.4-0.2,0.9C92.4,32.1,92.7,32.5,92.7,32.5z"/>
	<path fill="#B34946" d="M96.5,30c0,0,0.2-0.9,1.1-0.8c0.4,0,0.5,0.1,1,0.3c0.5,0.1,0.8,0,0.8,0c0.2,0,0.5,0,0.8,0   c0,0-0.9,0.6-1.8,0.1C97.1,29,96.5,30,96.5,30z"/>
	<path fill="#B34946" d="M88.6,35.2c0,0,0.1,0.3,0.3,0.7c0,0,0,0.5,0.7,1.1c0.2,0.2,0.7,0.5,1,0.5c0.3,0.1,0.7,0.2,0.7,0.2   c0.1,0.1,0.3,0.2,0.4,0.3c0,0-0.3-0.2-0.7-0.3c-0.4-0.1-1.4-0.3-1.9-1C88.5,36.1,88.6,35.2,88.6,35.2z"/>
	<path fill="#B34946" d="M107.5,35c0,0-0.4,0.6-1.3,0.4c-0.8-0.2-1.6-0.1-2,0.6c-0.4,0.8,0.2,1.6,0.2,1.6s0.1,0.1,0.3,0.2   c0,0-0.7-1-0.2-1.8c0.4-0.6,1.3-0.4,1.8-0.3C107.4,35.8,107.5,35,107.5,35z"/>
	<path fill="#B34946" d="M103.4,42.7c0,0-0.5-0.2-1-0.7c0,0-0.9-1.2-0.5-2.7c0.4-1.3,1.5-1.7,1.5-1.7c0.4-0.1,0.6-0.2,0.6-0.2   s-1.6,0.4-1.9,2.1C101.7,41.7,103.4,42.7,103.4,42.7z"/>
	<path fill="#B34946" d="M103.6,42.8c0,0-0.2,0.2-0.4,0.6c-0.2,0.4-0.1,0.9-0.1,0.9c0.1,0.1,0.1,0.2,0.2,0.3c0,0-0.2-0.5,0-1.1   c0.2-0.5,0.5-0.6,0.5-0.6S103.8,42.8,103.6,42.8z"/>
	<path fill="#B34946" d="M106.7,52c0,0,0.3,0.4,0.1,0.7c-0.2,0.4-0.9,0.3-0.9,0.3c-0.2,0-0.3,0-0.5,0c0,0,0.4,0,0.7,0.1   c0.3,0.1,0.7-0.1,0.8-0.4C107.1,52.4,106.7,52,106.7,52z"/>
	<path fill="#B34946" d="M106.8,43.7c0,0,0.8,0.6,0.8,1.8c0,0.7-0.1,1.2-0.8,1.8c-0.8,0.7-2.4,1-4.7,0.1c-2.3-0.8-3.3-2.6-3.3-2.6   c-0.4-0.5-0.8-1-1-1.4c0,0,0.7,1.9,2.3,3.1c2.3,1.8,5.4,1.9,6.6,1.2c1-0.7,1.1-1.8,1-2.6C107.7,44.3,106.8,43.7,106.8,43.7z"/>
	<path fill="#B34946" d="M91.6,50.9c0,0,0.5,0.3,1.1-0.3c0.6-0.6,1-1.2,1.7-1.5c0.7-0.3,1.1-0.3,1.1-0.3c0.6,0,1,0,1,0   s-0.9-0.1-1.9,0.3c-0.9,0.4-1.1,1-1.7,1.5C92.3,51.4,91.6,50.9,91.6,50.9z"/>
	<path fill="#B34946" d="M91.6,51.9c0,0-0.2,0.2-0.3,0.4s-0.1,0.6-0.2,0.9c-0.2,0.4-1,0.3-1,0.3s0.7,0.2,1.1-0.2   c0.2-0.2,0.2-0.7,0.2-0.9c0.1-0.4,0.3-0.5,0.3-0.5S91.7,51.9,91.6,51.9z"/>
	<path fill="#B34946" d="M90.7,54.7c0,0,1-0.2,1-0.8c0,0,0.1-0.1,0.2-0.1C91.8,53.8,92,54.6,90.7,54.7z"/>
	<path fill="#B34946" d="M92.1,54.9c0,0.4-0.2,0.7-0.5,1.1c0,0-0.2,0.5-0.9,1c-0.7,0.6-0.8,1.1-1.6,1.6c-0.7,0.5-1.1,0.4-1.4,0.3   c-0.4-0.1-1-0.4-1-0.4s0.7,0.4,1.1,0.7c0.3,0.2,0.9,0.3,1.7-0.4c0.8-0.7,1-1.4,1.7-1.8C92.4,56.1,92.1,54.9,92.1,54.9z"/>
	<path fill="#B34946" d="M90.1,45c0,0-0.7,1-1.3,1.6c-0.7,0.6-1.3,0.8-1.3,0.8c-0.6-0.4-1.5-0.1-1.5-0.1s0.8-0.3,1.4,0.6   c0,0,0.8-0.3,1.5-1C89.6,46.2,90.1,45,90.1,45z"/>
	<path fill="#B34946" d="M106.1,57.5c0,0,0.3,1.1,0,1.9c-0.3,0.7-0.7,1-0.7,1c-0.3-0.3-0.8-0.5-0.8-0.5s0.6,0.4,0.8,0.8   c0,0,0.5-0.4,0.8-1.1C106.6,58.6,106.1,57.5,106.1,57.5z"/>
	<path fill="#B34946" d="M109.6,33.8c0,0,0.1,0.6-0.4,1.6c-0.5,1-1.7,1.2-1.7,1.2c-0.1,0.1-0.3,0.2-0.4,0.3c0,0,1.3,0.2,2-0.8   C109.7,35,109.6,33.8,109.6,33.8z"/>
	<path fill="#B34946" d="M98.2,49.2c0,0,0.9,0,1.4,1.1c0,0-0.8,0.4-0.5,1.3c0,0-0.4-0.7,0.2-1.3C99.2,50.2,99.1,49.6,98.2,49.2z"/>
	<path fill="#B34946" d="M95,38.2c0,0,0.2,0.7-0.4,1c-0.6,0.3-0.8,0.7-0.8,0.7s0.3-0.2,0.9-0.4C95.2,39.2,95.3,38.7,95,38.2z"/>
	<path fill="#B34946" d="M94.2,40.3c0,0,0.2,1.1-0.7,1.2c-0.9,0.2-1.1,0.5-1.1,0.5s0.8-0.2,1.2-0.2C94.3,41.9,94.5,41.2,94.2,40.3z"/>
	<path fill="#B34946" d="M96.6,35.8c0,0,0.6,0.4,0.2,1.2c-0.3,0.7-0.4,1.1-0.4,1.1s0.3-0.4,0.5-0.8C97.4,36.7,97.3,36.1,96.6,35.8z"/>
	<path fill="#B34946" d="M97.6,36.8c0,0,0.6,1,0,1.6c-0.5,0.5-0.5,1.1-0.5,1.1s0.3-0.6,0.8-1.1C98.3,38.1,98.3,37.3,97.6,36.8z"/>
	<path fill="#B34946" d="M96.1,38.3c0,0,0.4,0.7-0.4,1.3c-0.7,0.5-0.6,0.9-0.6,0.9s0.2-0.4,0.8-0.7C96.4,39.5,96.5,38.9,96.1,38.3z"/>
	<path fill="#B34946" d="M97.6,33.8c0,0,0.5,0.4,0.4,1.1c-0.1,0.7,0.1,1.1,0.1,1.1s0-0.4,0.1-1C98.4,34.3,98,33.9,97.6,33.8z"/>
	<path fill="#B34946" d="M97.8,31.9c0,0,0.6,0.1,0.5,0.6c0,0.5,0.2,0.7,0.2,0.7s-0.1-0.3,0-0.7C98.6,32.2,98.4,31.9,97.8,31.9z"/>
</g>
<g>
	<path fill="#990000" d="M55,63.7c-0.3-0.7-0.5-1.4-0.7-2.1c-0.1,0-0.2-0.1-0.3-0.1c0,0,0-0.1,0-0.1c0.3,0,0.6,0,0.8,0.1   c0,0,0,0.1,0,0.1c-0.1,0-0.2,0.1-0.2,0.1c0.2,0.5,0.3,0.9,0.5,1.4c0,0.1,0,0.2,0.1,0.2c0,0,0,0.1,0,0.1c0.2-0.6,0.4-1.1,0.6-1.6   c-0.1,0-0.2-0.1-0.2-0.1c0,0,0-0.1,0-0.1c0.2,0,0.5,0,0.7,0.1c0,0,0,0.1,0,0.1c-0.1,0-0.2,0.1-0.2,0.1c-0.3,0.7-0.5,1.3-0.8,2   C55.1,63.8,55.1,63.8,55,63.7z"/>
	<path fill="#990000" d="M56.3,63.8C56.3,63.8,56.3,63.8,56.3,63.8c0.1-0.1,0.2-0.1,0.2-0.2c0-0.4,0-0.9,0-1.3   c-0.1,0-0.2-0.1-0.2-0.1c0,0,0,0,0-0.1c0.3,0,0.5,0,0.8,0.1c0,0,0,0,0,0.1c-0.1,0-0.2,0.1-0.2,0.1c0,0.4,0,0.9,0,1.3   c0.1,0,0.2,0.1,0.2,0.1c0,0,0,0.1,0,0.1C56.8,63.8,56.5,63.8,56.3,63.8z"/>
	<path fill="#990000" d="M58.9,63.5c0,0.2,0,0.3,0,0.5c-0.2,0-0.4,0.1-0.6,0.1c-0.3,0-0.5-0.1-0.6-0.3c-0.1-0.2-0.2-0.4-0.2-0.6   c0-0.4,0.2-0.7,0.6-0.8c0.1,0,0.2,0,0.4,0c0.2,0,0.4,0,0.5,0.1c0,0.1,0,0.2,0,0.4c0,0-0.1,0-0.1,0c0-0.1-0.1-0.2-0.1-0.3   c-0.1,0-0.1,0-0.2,0c-0.3,0-0.4,0-0.5,0.1c-0.1,0.1-0.2,0.3-0.2,0.5c0,0.4,0.2,0.7,0.6,0.7c0.1,0,0.2,0,0.2,0c0-0.1,0-0.2,0-0.4   c-0.1,0-0.2-0.1-0.2-0.1c0,0,0-0.1,0-0.1c0.2,0,0.5,0,0.7,0c0,0,0,0.1,0,0.1C59,63.4,59,63.4,58.9,63.5z"/>
	<path fill="#990000" d="M59.4,64C59.4,64,59.4,64,59.4,64c0.1-0.1,0.2-0.1,0.2-0.2c0-0.5,0-0.9,0-1.3c-0.1,0-0.2-0.1-0.2-0.1   c0,0,0,0,0-0.1c0.3,0,0.5,0,0.8,0c0,0,0,0,0,0.1c-0.1,0-0.2,0.1-0.2,0.1c0,0.4,0,0.9,0,1.3c0.1,0,0.2,0.1,0.2,0.1c0,0,0,0.1,0,0.1   C59.9,64.1,59.6,64,59.4,64z"/>
	<path fill="#990000" d="M60.5,64.1C60.5,64.1,60.5,64,60.5,64.1c0.1-0.1,0.2-0.1,0.2-0.2c0-0.5,0-0.9,0-1.3c-0.1,0-0.2-0.1-0.2-0.1   c0,0,0,0,0-0.1c0.3,0,0.5,0,0.8,0c0,0,0,0,0,0.1c-0.1,0-0.2,0.1-0.2,0.1c0,0.5,0,0.9,0,1.4c0.1,0,0.3,0,0.4,0   c0.1-0.1,0.1-0.2,0.2-0.3c0,0,0.1,0,0.1,0c0,0.2,0,0.3,0,0.5C61.3,64.2,60.9,64.1,60.5,64.1z"/>
	<path fill="#990000" d="M62.8,62.8C62.8,62.8,62.8,62.9,62.8,62.8c0,0.1,0.1,0.2,0.1,0.2c0,0.1,0.1,0.3,0.1,0.4c-0.1,0-0.3,0-0.4,0   C62.7,63.2,62.7,63,62.8,62.8z M63.1,63.5c0.1,0.2,0.1,0.3,0.2,0.5c-0.1,0-0.1,0.1-0.2,0.1c0,0,0,0.1,0,0.1c0.3,0,0.5,0,0.7,0   c0,0,0-0.1,0-0.1c-0.1,0-0.1-0.1-0.2-0.1c-0.2-0.6-0.4-1.1-0.6-1.6c-0.1,0-0.1,0-0.2,0c-0.2,0.5-0.4,1-0.6,1.5   c-0.1,0-0.1,0.1-0.2,0.1c0,0,0,0.1,0,0.1c0.2,0,0.4,0,0.6,0c0,0,0-0.1,0-0.1c-0.1,0-0.1-0.1-0.2-0.1c0.1-0.2,0.1-0.3,0.2-0.5   C62.7,63.5,62.9,63.5,63.1,63.5z"/>
	<path fill="#990000" d="M64.4,64.1c0-0.5,0-1,0-1.4c-0.1,0-0.2,0-0.4,0c0,0.1-0.1,0.2-0.1,0.3c0,0-0.1,0-0.1,0c0-0.1,0-0.3,0-0.4   c0.5,0,1,0,1.5,0.1c0,0.1,0,0.3,0,0.4c0,0-0.1,0-0.1,0c0-0.1-0.1-0.2-0.1-0.3c-0.1,0-0.2,0-0.4,0c0,0.5,0,0.9,0,1.4   c0.1,0,0.2,0.1,0.3,0.1c0,0,0,0.1,0,0.1c-0.3,0-0.5,0-0.8,0c0,0,0-0.1,0-0.1C64.3,64.2,64.3,64.2,64.4,64.1z"/>
	<path fill="#990000" d="M66.1,63.5c0,0.2,0,0.5,0,0.7c0.2,0,0.4,0,0.5,0c0-0.1,0.1-0.2,0.2-0.3c0,0,0.1,0,0.1,0c0,0.1,0,0.3,0,0.4   c-0.4,0-0.9,0-1.3-0.1c0,0,0-0.1,0-0.1c0.1,0,0.2-0.1,0.2-0.1c0-0.5,0-0.9,0-1.4c-0.1,0-0.2-0.1-0.2-0.1c0,0,0,0,0-0.1   c0.4,0,0.9,0,1.3,0c0,0.1,0,0.2,0,0.4c0,0-0.1,0-0.1,0c0-0.1-0.1-0.2-0.1-0.3c-0.2,0-0.3,0-0.5,0c0,0.2,0,0.4,0,0.6   c0.1,0,0.3,0,0.4,0c0-0.1,0.1-0.1,0.1-0.2c0,0,0.1,0,0.1,0c0,0.2,0,0.4,0,0.6c0,0-0.1,0-0.1,0c0-0.1-0.1-0.2-0.1-0.2   C66.4,63.5,66.2,63.5,66.1,63.5z"/>
	<path fill="#990000" d="M68.7,62.9c0.1,0,0.2,0,0.3,0c0.2,0,0.3,0.1,0.5,0.2c0.1,0.1,0.1,0.3,0.1,0.5c0,0.3-0.1,0.4-0.2,0.6   c-0.1,0.1-0.2,0.2-0.4,0.2c-0.1,0-0.2,0-0.2,0C68.7,63.8,68.7,63.3,68.7,62.9z M69,64.5c0.3,0,0.4,0,0.6-0.2   c0.2-0.2,0.3-0.5,0.3-0.8c0-0.3-0.1-0.4-0.2-0.6c-0.2-0.2-0.3-0.2-0.7-0.2c-0.3,0-0.5,0-0.8,0c0,0,0,0,0,0.1c0.1,0,0.2,0.1,0.2,0.1   c0,0.4,0,0.9,0,1.4c-0.1,0-0.2,0.1-0.2,0.1c0,0,0,0.1,0,0.1C68.4,64.5,68.7,64.5,69,64.5z"/>
	<path fill="#990000" d="M70.8,63.7c0,0.2,0,0.5,0,0.7c0.2,0,0.4,0,0.5,0c0-0.1,0.1-0.2,0.2-0.3c0,0,0.1,0,0.1,0c0,0.1,0,0.3,0,0.4   c-0.4,0-0.9,0-1.3,0c0,0,0-0.1,0-0.1c0.1,0,0.2-0.1,0.2-0.1c0-0.5,0-1,0-1.4c-0.1,0-0.2-0.1-0.2-0.1c0,0,0,0,0-0.1   c0.4,0,0.9,0,1.3,0c0,0.1,0,0.2,0,0.4c0,0-0.1,0-0.1,0c0-0.1-0.1-0.2-0.1-0.3c-0.2,0-0.3,0-0.5,0c0,0.2,0,0.4,0,0.7   c0.1,0,0.3,0,0.4,0c0-0.1,0.1-0.1,0.1-0.2c0,0,0.1,0,0.1,0c0,0.2,0,0.4,0,0.6c0,0-0.1,0-0.1,0c0-0.1-0.1-0.2-0.1-0.2   C71.1,63.7,70.9,63.7,70.8,63.7z"/>
	<path fill="#990000" d="M72.8,62.9c0.3,0,0.5,0.2,0.5,0.7c0,0.5-0.2,0.8-0.5,0.8c-0.3,0-0.5-0.3-0.5-0.8   C72.3,63.1,72.5,62.9,72.8,62.9z M72.8,64.6c0.5,0,0.8-0.4,0.8-1c0-0.6-0.3-0.8-0.8-0.8c-0.5,0-0.8,0.3-0.8,0.9   C72,64.2,72.3,64.6,72.8,64.6z"/>
	<path fill="#990000" d="M76.1,64.4c0-0.1,0.1-0.2,0.2-0.3c0,0,0.1,0,0.1,0c0,0.1,0,0.3,0,0.4c-0.2,0.1-0.4,0.1-0.5,0.1   c-0.3,0-0.5-0.1-0.7-0.3c-0.1-0.2-0.2-0.4-0.2-0.7c0-0.6,0.3-0.9,1-0.9c0.2,0,0.3,0,0.5,0c0,0.1,0,0.3,0,0.4c0,0-0.1,0-0.1,0   c0-0.1-0.1-0.2-0.1-0.3c-0.1,0-0.1,0-0.2,0c-0.3,0-0.4,0.1-0.5,0.2c-0.1,0.1-0.2,0.3-0.2,0.6c0,0.5,0.2,0.8,0.6,0.8   C75.9,64.4,76,64.4,76.1,64.4z"/>
	<path fill="#990000" d="M77.5,62.9c0.3,0,0.5,0.2,0.5,0.7c0,0.5-0.2,0.8-0.5,0.8c-0.3,0-0.5-0.3-0.5-0.8   C77,63.1,77.2,62.9,77.5,62.9z M77.5,64.6c0.5,0,0.8-0.5,0.8-1.1c0-0.6-0.3-0.8-0.8-0.8c-0.5,0-0.8,0.3-0.8,0.9   C76.7,64.2,77,64.6,77.5,64.6z"/>
	<path fill="#990000" d="M78.7,64.5C78.7,64.5,78.7,64.5,78.7,64.5c0.1-0.1,0.2-0.2,0.2-0.2c0-0.5,0-1,0-1.4c-0.1,0-0.2-0.1-0.2-0.1   c0,0,0,0,0-0.1c0.2,0,0.3,0,0.5,0c0.3,0.4,0.6,0.8,0.9,1.2c0-0.4,0-0.7,0-1.1c-0.1,0-0.2-0.1-0.2-0.1c0,0,0,0,0-0.1   c0.2,0,0.4,0,0.7,0c0,0,0,0,0,0.1c-0.1,0-0.2,0.1-0.2,0.1c0,0.5,0,1.1,0,1.7c0,0-0.1,0-0.1,0c-0.4-0.6-0.7-1-1-1.5   c0,0.4,0,0.8,0,1.3c0.1,0,0.2,0.1,0.2,0.1c0,0,0,0.1,0,0.1C79.1,64.5,78.9,64.5,78.7,64.5z"/>
	<path fill="#990000" d="M81.4,63.6c0,0.2,0,0.5,0,0.7c0.1,0,0.2,0.1,0.3,0.1c0,0,0,0.1,0,0.1c-0.3,0-0.5,0-0.8,0c0,0,0-0.1,0-0.1   c0.1,0,0.2-0.1,0.2-0.1c0-0.5,0-1,0-1.4c-0.1,0-0.2-0.1-0.2-0.1c0,0,0,0,0-0.1c0.4,0,0.8,0,1.2,0c0,0.1,0,0.2,0,0.4   c0,0-0.1,0-0.1,0c0-0.1-0.1-0.2-0.1-0.2c-0.2,0-0.3,0-0.5,0c0,0.2,0,0.4,0,0.7c0.1,0,0.2,0,0.4,0c0-0.1,0.1-0.2,0.1-0.2   c0,0,0.1,0,0.1,0c0,0.2,0,0.4,0,0.6c0,0-0.1,0-0.1,0c0-0.1-0.1-0.2-0.1-0.2C81.6,63.6,81.5,63.6,81.4,63.6z"/>
	<path fill="#990000" d="M82.4,64.4C82.4,64.4,82.4,64.4,82.4,64.4c0.1-0.1,0.2-0.2,0.2-0.2c0-0.5,0-1,0-1.4c-0.1,0-0.2-0.1-0.2-0.1   c0,0,0,0,0-0.1c0.3,0,0.5,0,0.8,0c0,0,0,0,0,0.1c-0.1,0-0.2,0.1-0.2,0.1c0,0.5,0,0.9,0,1.4c0.1,0,0.2,0.1,0.2,0.1c0,0,0,0.1,0,0.1   C82.9,64.4,82.6,64.4,82.4,64.4z"/>
	<path fill="#990000" d="M84.1,62.7c0.1,0,0.2,0,0.3,0c0.2,0,0.3,0,0.5,0.2c0.1,0.1,0.1,0.3,0.1,0.5c0,0.3-0.1,0.4-0.2,0.6   c-0.1,0.1-0.2,0.2-0.4,0.2c-0.1,0-0.2,0-0.2,0C84.1,63.7,84.1,63.2,84.1,62.7z M84.3,64.3c0.3,0,0.4-0.1,0.6-0.2   c0.2-0.2,0.3-0.5,0.3-0.8c0-0.3-0.1-0.4-0.2-0.6c-0.2-0.2-0.3-0.2-0.7-0.2c-0.3,0-0.6,0-0.8,0c0,0,0,0,0,0.1c0.1,0,0.2,0.1,0.2,0.1   c0,0.5,0,0.9,0,1.4c-0.1,0-0.2,0.1-0.2,0.1c0,0,0,0.1,0,0.1C83.8,64.4,84.1,64.4,84.3,64.3z"/>
	<path fill="#990000" d="M86.2,63.4c0,0.2,0,0.5,0,0.7c0.2,0,0.4,0,0.5,0c0-0.1,0.1-0.2,0.2-0.3c0,0,0.1,0,0.1,0c0,0.1,0,0.3,0,0.4   c-0.4,0-0.9,0.1-1.3,0.1c0,0,0-0.1,0-0.1c0.1,0,0.2-0.1,0.2-0.1c0-0.5,0-0.9,0-1.4c-0.1,0-0.2-0.1-0.2-0.1c0,0,0,0,0-0.1   c0.4,0,0.9,0,1.3-0.1c0,0.1,0,0.2,0,0.4c0,0-0.1,0-0.1,0c0-0.1-0.1-0.2-0.1-0.3c-0.2,0-0.3,0-0.5,0c0,0.2,0,0.4,0,0.6   c0.1,0,0.3,0,0.4,0c0-0.1,0.1-0.1,0.1-0.2c0,0,0.1,0,0.1,0c0,0.2,0,0.4,0,0.6c0,0-0.1,0-0.1,0c0-0.1-0.1-0.2-0.1-0.2   C86.4,63.4,86.3,63.4,86.2,63.4z"/>
	<path fill="#990000" d="M87.3,64.2C87.3,64.1,87.3,64.1,87.3,64.2c0.1-0.1,0.2-0.2,0.2-0.2c0-0.5,0-0.9,0-1.4   c-0.1,0-0.2-0.1-0.2-0.1c0,0,0,0,0-0.1c0.2,0,0.3,0,0.5,0c0.3,0.4,0.6,0.7,0.9,1.2c0-0.4,0-0.7,0-1c-0.1,0-0.2-0.1-0.2-0.1   c0,0,0,0,0-0.1c0.2,0,0.4,0,0.7,0c0,0,0,0,0,0.1c-0.1,0-0.2,0.1-0.2,0.1c0,0.5,0,1,0,1.6c0,0-0.1,0-0.1,0c-0.4-0.5-0.7-0.9-1-1.4   c0,0.4,0,0.8,0,1.2c0.1,0,0.2,0.1,0.2,0.1c0,0,0,0.1,0,0.1C87.7,64.1,87.5,64.1,87.3,64.2z"/>
	<path fill="#990000" d="M89.9,63.8c0-0.5,0-0.9,0-1.4c-0.1,0-0.2,0-0.4,0c0,0.1-0.1,0.2-0.1,0.3c0,0-0.1,0-0.1,0c0-0.1,0-0.3,0-0.4   c0.5,0,1-0.1,1.5-0.1c0,0.1,0,0.3,0,0.4c0,0-0.1,0-0.1,0c0-0.1-0.1-0.2-0.1-0.3c-0.1,0-0.2,0-0.4,0c0,0.5,0,0.9,0,1.4   c0.1,0,0.2,0.1,0.3,0.1c0,0,0,0.1,0,0.1c-0.3,0-0.5,0-0.8,0.1c0,0,0-0.1,0-0.1C89.8,63.9,89.9,63.8,89.9,63.8z"/>
	<path fill="#990000" d="M91.6,63c0,0.2,0,0.4,0,0.7c0.2,0,0.4,0,0.5,0c0.1-0.1,0.1-0.2,0.2-0.3c0,0,0.1,0,0.1,0c0,0.1,0,0.3,0,0.4   c-0.4,0-0.9,0.1-1.3,0.1c0,0,0-0.1,0-0.1c0.1,0,0.2-0.1,0.2-0.1c0-0.5,0-0.9,0-1.3c-0.1,0-0.2-0.1-0.2-0.1c0,0,0,0,0-0.1   c0.4,0,0.8-0.1,1.3-0.1c0,0.1,0,0.2,0,0.4c0,0-0.1,0-0.1,0c0-0.1-0.1-0.2-0.1-0.3c-0.2,0-0.3,0-0.5,0c0,0.2,0,0.4,0,0.6   c0.1,0,0.3,0,0.4,0c0-0.1,0.1-0.1,0.1-0.2c0,0,0.1,0,0.1,0c0,0.2,0,0.4,0,0.5c0,0-0.1,0-0.1,0c0-0.1-0.1-0.1-0.1-0.2   C91.9,63,91.8,63,91.6,63z"/>
	<path fill="#990000" d="M92.9,63.7c0-0.1,0-0.3,0-0.4c0,0,0.1,0,0.1,0c0,0.1,0.1,0.2,0.1,0.3c0.1,0,0.1,0,0.2,0   c0.2,0,0.3-0.1,0.3-0.3c0-0.1,0-0.2-0.2-0.3c-0.1,0-0.2-0.1-0.3-0.1c-0.2-0.1-0.3-0.2-0.3-0.4c0-0.3,0.2-0.5,0.5-0.5   c0.1,0,0.3,0,0.4,0c0,0,0,0,0,0c0,0.1,0,0.3,0,0.4c0,0-0.1,0-0.1,0c0-0.1-0.1-0.2-0.1-0.3c-0.1,0-0.1,0-0.2,0   c-0.2,0-0.3,0.1-0.3,0.3c0,0.1,0,0.1,0.2,0.2c0.1,0.1,0.2,0.1,0.3,0.2c0.3,0.2,0.3,0.2,0.3,0.4c0,0.3-0.2,0.5-0.6,0.5   C93.3,63.7,93.1,63.7,92.9,63.7C92.9,63.7,92.9,63.7,92.9,63.7z"/>
</g>
<g>
	<path fill="#CC9900" d="M74.2,27.1c-5.7,0-8.1,1-8.8,1.3l-0.3,0.2c0,0-0.1-0.4-0.3-1.1l-0.7-0.7l0.3-1c-0.2-0.6-0.3-1.1-0.5-1.6   c-0.4-1.2-1-1.4-1.4-1.7l0,0c0,0,0.1-0.1,0.2-0.1c-0.7-0.7-1.5-1.3-1.5-1.3c0.2,0.1,0.5,0.1,0.9-0.1c0.4-0.2,0.9,0,0.9,0.3   c0.1-0.1,0.3-0.1,0.4-0.1c0.3,0,0.5,0.1,0.6,0.4c0.5,0.9-0.3,1.5-0.3,1.5c0.3,0.2,0.9,0.3,1-0.2c0.2-0.5,0.1-0.9,0.1-1.2   c0,0,0.1,0,0.1,0c0.4,0.5,0.9,0.7,1.2,0.8c0.5,0.1,0.9-0.2,1-0.7l0,0c-1,0.1-1.4-0.1-1.7-0.7c-0.2-0.4-0.2-1.2,0.4-1.3l0,0   c-0.4-0.2-0.5-1-0.1-1.4c0.5-0.4,0.3-1.3,0.3-1.3c0.3,0.3,0.6,0.6,1.2,0.7c0.9,0.2,1.1,0.7,0.8,1.2c0.7-0.1,1.1,0.4,1.1,1.1   c0,0,0.1,1-1.2,1.5c0.1,0.1,0.2,0.3,0.4,0.4c1.2,0.7,1.8-0.8,2-1.4l0.2,0c0,0,0,0,0,0c0.3,0.4,1.2,1.5,2.1,1.2   c0.4-0.1,0.6-0.3,0.7-0.6c-0.6-0.1-1.1-0.2-1.5-0.7c-0.7-0.9-0.3-2.1,0.6-2.1c-0.6-0.6-0.1-1.4,0.4-1.6c0.7-0.3,1.2-1.2,1.2-1.2   s0,0.9,1,1.2c0.9,0.3,1.2,1.2,0.4,1.6c1,0.1,1.3,1,0.9,1.6c-0.4,1-1.7,1.1-1.7,1.1c0.1,0.2,0.3,0.4,0.4,0.5c0.4,0.3,1,0.3,1.5-0.2   c0.3-0.3,0.5-0.6,0.6-0.8l0.2,0c0.2,0.6,0.7,1.8,1.7,1.3c0.1-0.1,0.3-0.2,0.4-0.4c-0.4-0.2-0.7-0.4-0.9-0.7c0,0,0-0.1-0.1-0.2   c-0.4-0.8,0.2-1.8,1-1.7c-0.3-0.3-0.2-1,0.6-1c0.3,0,0.9-0.2,1.3-0.6c0,0,0,0.7,0.4,1.1c0.6,0.5,0.4,1.2-0.1,1.4   c0.8,0.3,0.6,1.7-0.9,1.9c-0.1,0-0.5,0-0.5,0c0.1,0.8,0.6,1,1.1,0.9c0.4-0.1,0.8-0.4,1-0.6l0.1,0c0,0.2,0,0.6,0.2,1   c0.2,0.4,0.8,0.6,1.2,0.2c-0.1,0-0.2-0.1-0.2-0.1c-0.8-0.6,0-2.3,0.8-1.7c0-0.3,0.3-0.4,0.6-0.4c0.2,0,0.3,0.1,0.4,0.1   c0.6,0.3,1,0.1,1,0.1s-0.6,0.4-1.3,1.4v0c0.1,0.1,0.2,0.1,0.2,0.1c-0.3,0.1-0.7,0.4-0.9,0.9c-0.3,0.6-0.6,1.4-0.9,2.2l0.2,0.7   l-0.5,0.6c-0.1,0.6-0.2,1.1-0.3,1.8c0,0-0.1-0.1-0.4-0.2c0,0,0,0,0,0C82.4,28.3,79.8,27.1,74.2,27.1"/>
</g>
<g>
	<path fill="#EEDFA7" d="M77.7,20.5c0.2,0.6,0.7,1.8,1.7,1.3c0.1-0.1,0.3-0.2,0.4-0.4c0,0-0.3,0.8-1,0.8   C77.7,22.2,77.7,20.5,77.7,20.5z"/>
	<path fill-rule="evenodd" clip-rule="evenodd" fill="#EEDFA7" d="M70.7,20.5c0.3,0.4,1.2,1.5,2.1,1.2c0.4-0.1,0.6-0.3,0.7-0.6   c0,0-0.2,1-1.1,1C70.9,22.1,70.7,20.5,70.7,20.5z"/>
	<path fill="#EEDFA7" d="M84.2,23c-0.8-0.6,0-2.3,0.8-1.7c0-0.3,0.3-0.4,0.6-0.4c0.2,0,0.3,0.1,0.4,0.1c0.6,0.3,1,0.1,1,0.1   s-0.3,0.2-0.9,0.1c-0.3-0.1-0.8-0.2-0.9,0.4C84.6,21,83.9,22.3,84.2,23z"/>
	<path fill-rule="evenodd" clip-rule="evenodd" fill="#EEDFA7" d="M74.3,15.4c0,0-0.4,0.9-1.2,1.2c-0.6,0.2-1,1.1-0.4,1.6   c-0.8,0-1.2,1.3-0.6,2.1c0.4,0.5,0.9,0.6,1.5,0.7c0,0,0.5-1.3-0.6-2.4c0,0,0.6,0.1,1,0.3c0.2-1,0.3-2.4,0.3-3.1   C74.3,15.6,74.3,15.4,74.3,15.4z"/>
	<path fill="#EEDFA7" d="M66,26.3L64.9,26l-0.1-0.4c0-0.1-0.1-0.3-0.1-0.4c0.3-0.1,4.9-1.6,9.5-1.6c5.6,0,9.5,1.2,9.5,1.2   c-2.1-0.9-5.5-1.7-9.4-1.7c-3.8,0-7,0.7-9.7,1.5c0-0.1,0-0.1-0.1-0.2c-0.2-0.8-0.5-1.2-0.8-1.5c-0.5-0.5-1-0.3-1-0.3   c0.4,0.2,1,0.5,1.4,1.7c0.2,0.5,0.3,1,0.5,1.6l-0.3,1l0.7,0.7c0.2,0.8,0.3,1.1,0.3,1.1l0.3-0.2c0-0.2-0.1-0.5-0.1-0.9   c0.4-0.5,0.8-0.9,1.2-1.4L66,26.3z"/>
	<g>
		<path fill-rule="evenodd" clip-rule="evenodd" fill="#EEDFA7" d="M70.7,25.4c-0.1,0-0.2-0.1-0.3-0.1c0,0,0,0,0,0.1    c0,0.4-0.3,0.8-0.9,0.9c-0.6,0.1-1-0.2-1.1-0.6c0-0.1,0-0.1,0-0.2c-0.1,0-0.2,0-0.2,0.1c0,0.1,0,0.1,0,0.2    c0.1,0.6,0.7,0.9,1.5,0.8C70.3,26.5,70.8,26,70.7,25.4z"/>
	</g>
	<path fill="#EEDFA7" d="M75.8,25.1C75.8,25.1,75.8,25.1,75.8,25.1c-0.5,0.3-1,0.6-1.5,0.8c-0.5-0.3-1-0.5-1.5-0.8c0,0,0,0,0,0   l-0.5,0.1c0.2,0.1,1.4,0.8,2.1,1.2c0.7-0.4,1.9-1.1,2.1-1.2L75.8,25.1z"/>
	<path fill-rule="evenodd" clip-rule="evenodd" fill="#EEDFA7" d="M78.2,25.5c-0.1,0.6,0.4,1,1.1,1.1c0.7,0.1,1.3-0.2,1.4-0.8   c0,0,0-0.1,0-0.1c-0.1-0.1-0.2-0.2-0.3-0.3c0,0.1,0,0.2,0,0.3c-0.1,0.4-0.5,0.7-1.1,0.6c-0.5-0.1-0.9-0.5-0.9-0.9c0,0,0-0.1,0-0.1   C78.4,25.4,78.3,25.4,78.2,25.5z"/>
	<path fill="#EEDFA7" d="M84.4,23.1c0.2-0.2,0.4-0.6,0.4-1.3c0,0,0.3,0.3,0.3,0.6C84.9,22.6,84.7,22.9,84.4,23.1   c-0.2,0.5-0.8,0.6-1.3,0.2c-0.5-0.4-0.1-1.4-0.1-1.4c0,0.2,0,0.6,0.2,1C83.4,23.3,83.9,23.5,84.4,23.1z"/>
	<path fill-rule="evenodd" clip-rule="evenodd" fill="#EEDFA7" d="M67.3,21.8c-0.1,0.5-0.5,0.9-1,0.7c-0.3-0.1-0.8-0.3-1.2-0.8   c0,0,0.2,1.1,1.2,1.2C67.2,23,67.3,22.1,67.3,21.8z"/>
	<path fill-rule="evenodd" clip-rule="evenodd" fill="#EEDFA7" d="M65.9,18.4c-0.5,0.4-0.3,1.2,0.1,1.4c-0.6,0.1-0.6,0.9-0.4,1.3   c0.3,0.6,0.8,0.8,1.7,0.7c0,0,0.2-1.5-0.9-1.7c0,0,0.3-0.2,0.8,0c-0.2-1.3-0.6-2.2-0.8-2.7c-0.1-0.2-0.1-0.3-0.1-0.3   S66.4,17.9,65.9,18.4z"/>
	<path fill="#EEDFA7" d="M82.8,27.3c-0.1-0.2-0.3-0.4-0.4-0.6c-0.2-0.3-0.4-0.7-0.6-0.9l0.7,0.2l0.5,0.8L82.8,27.3z"/>
	<path fill="#EEDFA7" d="M79.8,21.4c0.6-1.1,0.1-2,0.1-2c0.3,0.1,0.6,0.3,0.8,0.5c0.4-1.1,1.2-2.7,1.2-2.7c-0.5,0.4-1,0.5-1.3,0.6   c-0.8,0.1-0.9,0.8-0.6,1c-0.9-0.1-1.4,0.9-1,1.7c0,0.1,0,0.1,0.1,0.2C79.1,21.1,79.4,21.3,79.8,21.4z"/>
	<path fill="#EEDFA7" d="M61.5,21.3c0,0,0.7,0.5,1.5,1.1c-0.1,0-0.2,0-0.3,0.1c-0.7-0.7-1.5-1.3-1.5-1.3L61.5,21.3z"/>
</g>
<g>
	<path fill="#63212C" d="M46.2,40c0-0.6-0.5-2.1-2.9-1.7c-2.6,0.4-4.2-0.5-4.2-3c0,0,0.2,2.7,3,2.6c1.8-0.1,3-0.6,3.9,0.8   C46.1,38.9,46.2,40,46.2,40z"/>
	<path fill="#63212C" d="M44.9,36.3c0,0.2,0,0.7-0.1,1.1c0,0-0.5,0-0.9,0c0,0,0.5-0.1,0.7-0.4C44.8,36.7,44.9,36.3,44.9,36.3z"/>
	<path fill="#63212C" d="M43.5,37.2c0,0,0-0.2-0.2-0.4c-0.2-0.2-0.5-0.4-0.5-0.4s-0.4-0.2-0.9-0.2s-0.9,0-0.9,0s-0.4-0.3-0.4-1   c0,0,0.1,0.6,0.9,0.6c0.7,0,1.3,0,1.7,0.4C43.7,36.7,43.5,37.2,43.5,37.2z"/>
	<path fill="#63212C" d="M41.7,46.6c-0.3-0.5-0.6-1.9,0.1-2.7c0.9-1.1,2.3-0.9,3-0.5c0.7,0.4,0.4,1.4,0.4,1.4   c1.2-1.3,0.2-2.2,0.2-2.2c2.3-0.8,2.1-3.2,1.2-4.2c0,0,0.8,1.6,0.1,2.7c-0.7,1.1-1.6,1.2-2,1.3c0,0,0.5,0.2,0.3,0.8   c0,0-0.2-0.6-1.2-0.6c-1.1,0-2.3,0.2-2.7,1.6C40.7,45.5,41.7,46.6,41.7,46.6z"/>
	<path fill="#63212C" d="M41.5,42.6c-0.1-1-1-0.9-1.3-0.8c0,0,0.6,0,0.8,0.4c0.2,0.4,0.1,0.9,0.1,0.9C41.3,42.7,41.5,42.6,41.5,42.6   z"/>
	<path fill="#63212C" d="M46.1,48.7c0,0-2.1,0.7-3.6,0.1c-1.5-0.6-1.9-1.3-2.2-2.2c0,0,0.6,1.5,2.3,1.9c1.7,0.4,3,0.1,4.5-0.5   c0,0-0.2,0.2-0.4,0.4C46.4,48.5,46.1,48.7,46.1,48.7z"/>
	<path fill="#63212C" d="M45,51.9c0,0-0.7,0.2-1.2-0.6c0,0,1,0.9,1.9-0.3C45.7,51.1,45.6,51.8,45,51.9z"/>
	<path fill="#63212C" d="M42.7,53c-1-0.2-0.6-1-0.6-1s-0.4,0.2-0.3,0.7C41.8,53.1,42.7,53,42.7,53z"/>
	<path fill="#63212C" d="M40.3,56.6c0,0.1-0.1,0.1-0.1,0.2c0,0-0.1,0.1-0.2,0.1c0,0-0.5,0.3-0.9-0.2c0,0,0.8,0.4,1.4-0.4   C40.4,56.2,40.4,56.4,40.3,56.6z"/>
	<path fill="#63212C" d="M40.3,57.9c0,0.1-0.1,0.1-0.1,0.2c0,0-0.1,0.1-0.1,0.1c0,0-0.7,0.3-1.1-0.1c0,0,0.9,0.3,1.6-0.7   C40.5,57.4,40.5,57.7,40.3,57.9z"/>
	<path fill="#63212C" d="M40.2,59.4c0,0-0.5,0.5-1.2-0.1c0,0,1,0.4,1.6-0.8C40.6,58.5,40.6,59.2,40.2,59.4z"/>
	<path fill="#63212C" d="M44.9,60c0.2,0.2,0,0.5,0,0.5s1.1,0,0.7,1.1c-0.3,0.9-1.2,0.7-1.9,0.6c-0.9-0.2-2.3,0.4-3-0.9   c0,0,0.9,0.8,1.9,0.5c0,0,0.4-0.6-0.2-1.1c0,0,0.9,0.1,0.9,0.9c0,0,1,0.5,1.5,0.2c0.6-0.3,0.6-1.1-0.4-1.3c0,0,0.2-0.1,0.3-0.3   C44.9,60.1,44.9,60,44.9,60z"/>
	<path fill="#63212C" d="M63.2,58.8c0.2,0.3,0,0.4,0,0.4s1.1,0,0.8,1.1c-0.2,0.8-1.2,0.5-1.5,0.5c-0.8-0.1-1.7,0.3-2.5-0.2   c-0.8-0.5-1.3-0.6-1.3-0.6s0,0.5-0.6,0.7c0,0,0.1-0.9-0.6-1.2c0,0,0.1,0.7-0.5,0.9c0,0,0.3-0.7-0.7-1.3c0,0,0.2,0.8-0.7,0.9   c0,0,0.3-0.3,0-0.7c-0.2-0.4-0.6-0.4-1.2-0.6c-0.6-0.2-0.9-0.8-0.7-1.4c0,0-0.5,0.3-1.1,0.1c0,0,0.9,0.1,1.3-1c0,0-0.3,1.4,0.8,1.7   c0.8,0.2,1.1,0.4,1.3,0.9c0,0,0.3-0.3,0.1-0.9c0,0,1,0.4,1,1.1c0,0,0.4-0.3,0.3-0.8c0,0,1,0.7,0.8,1.4c0,0,0.4-0.3,0.4-0.8   c0,0,0.8,0.1,1.3,0.9c0.4,0.6,1.1,0.8,1.4,0.4c0.3-0.4-0.2-0.8-0.2-0.8s0.9,0,1,0.9c0,0,1,0.3,1.3-0.2c0.2-0.5-0.3-0.8-1-0.9   c0,0,0.4,0,0.5-0.2C63.2,58.9,63.2,58.8,63.2,58.8z"/>
	<path fill="#63212C" d="M58.5,57c-0.5-0.5-0.8-0.7-1.2-1.1c-0.4-0.4-0.5-1-0.5-1c1.1,0.6,1.7-0.5,1.7-0.5c-1,0.2-1.3-0.6-1.3-0.6   c1,0.5,1.5-0.2,1.5-0.2s-0.8-0.1-0.9-0.8c-0.1-0.8-0.6-1-0.6-1c1-0.3,0.5-1.3,0.5-1.3s0.1,0.8-0.6,1c-0.7,0.2-1.2-0.3-1.2-0.3   s0.2,0.7,1.1,0.6c0,0,0.5,0.2,0.5,0.8c0,0.8,0.3,1,0.3,1s-0.9,0-1.2-1c0,0,0,0.7,0.3,0.9c0,0-0.2,0.8,0.6,1.1c0,0-1,0.3-1.3-0.9   c0,0-0.9,1,0.1,1.7c0.6,0.5,1,0.7,1.4,0.9C57.9,56.6,58.5,57,58.5,57z"/>
	<path fill="#63212C" d="M50.5,30.6c0,0-1.1,0.3-1.6-0.6c0,0,0.3,0.5,1.2,0.2c0.9-0.3,1.5,0,1.7,0.3C51.8,30.5,51.2,30.4,50.5,30.6z   "/>
	<path fill="#63212C" d="M53.3,34.4c0,0,0-0.1,0-0.1c0-0.1,0-0.1,0-0.2c-0.1-1.1,0.5-1.5,1.7-1.3c1.3,0.2,1.5-0.6,1.5-1.1   c0-0.5-0.1-0.7,0-1c0,0-0.3,0.2-0.6,0.1c0,0,0.6,0.6,0.1,1.5c0,0-0.6-0.3-1.1,0.2c0,0-1.4-0.3-1.7,0.4c-0.3,0.6-0.4,1.9,0.3,2.5   c0.8,0.7,1.8,0.1,1.8,0.1C54.7,35.5,53.5,35.7,53.3,34.4z"/>
	<path fill="#63212C" d="M48.5,34.7c0,0-0.8,0.1-1.3-0.5c0,0,1,0.6,2.1-0.3C49.3,33.9,49.1,34.7,48.5,34.7z"/>
	<path fill="#63212C" d="M48.5,36.6c0,0-0.6,0.2-1.2-0.4c0,0,1.1,0.6,2.1-0.7C49.4,35.6,49.4,36.4,48.5,36.6z"/>
	<path fill="#63212C" d="M49.4,38.3c0,0-0.5,0.7-2,0.1c0,0,1.5,0.3,2.2-1C49.7,37.4,49.7,38,49.4,38.3z"/>
	<path fill="#63212C" d="M49.7,40.2c0,0-0.6,0.3-1.6-0.4c0,0,1.5,0.7,2.3-0.7C50.5,39.1,50.3,40,49.7,40.2z"/>
	<path fill="#63212C" d="M51.1,42.4c0,0-0.5,0.4-1.2,0c0,0,1.3,0,1.8-1.2C51.6,41.2,51.6,42.1,51.1,42.4z"/>
	<path fill="#63212C" d="M60.8,33.1c0.2,0,0.4,0.3,0.4,0.3s-0.1,0.3-0.1,1c0,0-0.3-0.3-0.2-0.7C61,33.3,60.8,33.1,60.8,33.1z"/>
	<path fill="#63212C" d="M63.2,47.8c0.1,0.3,0,0.6-0.6,0.9c0,0-0.4-0.1-0.7-0.1c0,0,0.4-0.2,0.8-0.3C63.1,48.2,63.2,47.8,63.2,47.8   L63.2,47.8z"/>
	<path fill="#63212C" d="M50.3,35.4c0,0,0.2-0.5,0.1-0.8c-0.2-0.3-0.6-0.5-0.3-1.1c0,0-0.5,0.5-0.1,1.1   C50.2,34.9,50.3,35.1,50.3,35.4z"/>
	<path fill="#63212C" d="M51.9,38c0,0,0.1-0.5-0.2-0.7c-0.3-0.2-0.7-0.3-0.8-1.1c0,0-0.2,0.5,0.2,0.9C51.5,37.5,51.7,37.5,51.9,38z"/>
	<path fill="#63212C" d="M52.8,40.7c0,0,0.1-0.7-0.5-1c-0.6-0.3-1-0.5-1-1.5c0,0-0.3,0.6,0,1.1c0.3,0.5,0.6,0.4,1,0.7   C52.7,40.3,52.8,40.7,52.8,40.7z"/>
	<path fill="#63212C" d="M56.4,41.9c0,0-0.7,0.3-1.1-0.6c-0.5-1-1.3-0.8-1.3-0.8s0.5,0.1,0.8,0.5c0.3,0.4,0.3,0.6,0.6,0.9   C55.9,42.3,56.4,41.9,56.4,41.9z"/>
	<path fill="#63212C" d="M53.7,42.9c0,0,0.1-0.5-0.4-0.7c-0.5-0.3-1.1-0.2-0.9-1.1c0,0-0.4,0.8,0.2,1.1c0.3,0.2,0.6,0.1,0.8,0.3   C53.5,42.6,53.7,42.9,53.7,42.9z"/>
	<path fill="#63212C" d="M52.8,38.1c0,0,0.1,0.3,0.5,0.7c0.4,0.3,1.1,0.4,1.1,0.4S53.5,39.5,53,39C52.6,38.5,52.8,38.1,52.8,38.1z"/>
	<path fill="#63212C" d="M93.2,31.1c0,0,0.4-0.4,0.8-0.4c0,0-0.5-0.1-0.7,0C93,30.9,93.2,31.1,93.2,31.1z"/>
	<path fill="#63212C" d="M91.6,51.9c0,0-1-0.2-0.5-1.3c0,0,0,1.4,1.5,0.9C92.6,51.4,92.4,52,91.6,51.9z"/>
	<path fill="#63212C" d="M91.7,53.9c0,0-0.9,0.4-1.5-0.3c0,0,0.8,0.4,1.3,0.1c0.6-0.4,0.6-0.9,0.6-0.9S92.3,53.6,91.7,53.9z"/>
	<path fill="#63212C" d="M85.6,47.8c-0.2,0.9,0.6,0.9,0.6,0.9s0.3-0.1,0.6-0.1c0,0-0.4,0-0.8-0.2C85.6,48.2,85.6,47.8,85.6,47.8z"/>
	<path fill="#63212C" d="M85.5,49.8c0,0.1,0.1,0.2,0.1,0.3c0.3,0.5,0.9,0.2,0.9,0.2s0.5-0.4,0.5-1.1c0,0-0.3,0.9-1,0.8   C85.5,49.9,85.5,49.8,85.5,49.8z"/>
	<path fill="#63212C" d="M90.3,42.5c0,0-0.7-0.4-1-1.6c-0.3-1.1-0.7-1.4-1.1-1.6c0,0,0.4-0.2,0.8-0.2c0,0-0.2-1.1-1.6-2.1v-0.5   c0,0,0.4-0.1,0.5-0.3c0,0,0.2,0.4-0.2,0.8c0,0,1.6,0.2,2.1,2.7c0,0-0.3-0.2-0.7-0.3c0,0,0.3,0.1,0.6,1c0.3,0.9,0.6,1.4,1.3,1.5   C90.9,42,90.7,42.3,90.3,42.5z"/>
	<path fill="#63212C" d="M100.2,29.5c0,0,0,0.3-0.2,0.6c-0.2,0.4-0.7,0.8-1.8,0.4c0,0,1.3,0.4,1.3,1.7c0.1,1.5,0.4,1.9,0.8,2.1   c0,0-0.3,0.4-0.8,0.2c0,0,0.1,1.4,1,1.7c0,0-0.4,0.6-1.1,0.2c0,0-0.2,1.5,0.8,1.9c0,0-0.6,0.5-1.1,0c0,0,0.5,1-0.9,2.1   c-0.9,0.8-0.9,1.6-0.9,1.6s-0.6-0.1-0.8-0.9c0,0-0.9,1-0.2,2.2c0,0-0.8,0-1-0.9c0,0,0.1,0.6-0.4,0.9c-0.5,0.3-0.3,1-0.3,1   s-0.8-0.2-0.7-1.1c0,0-0.8-0.2-1.1,1c0,0-0.1-0.3,0-0.6c0.1-0.2,0.2-0.3,0.2-0.3c-1.3-0.4-2.4,1.2-2.4,1.2s-0.3,0.3-0.8,0   c0,0,0.7-0.1,0.8-0.9c0,0-0.9-0.1-1.2-0.9c0,0,0.9,0.7,1.8-0.1c0,0,0,0.2-0.1,0.5c0,0,0.7-0.7,1.4-0.5c0.8,0.2,1.4,0.1,1.7-0.3   c0,0-0.2,0.6,0.2,0.9c0,0,0-0.4,0.2-0.6c0.3-0.3,0.6-0.7,0.4-1.2c0,0,0.3,0.1,0.5,0.4c0,0,0-1.6,1.2-1.9c0,0-0.2,0.6,0.2,0.9   c0,0-0.2-0.6,0.6-1.1c0.8-0.5,1.5-1.2,0.9-2.5c0,0,0.4,0.5,1,0.3c0,0-0.8-0.5-0.6-2.1c0,0,0.3,0.5,0.9,0.2c0,0-0.8-0.3-0.8-2.1   c0,0,0.3,0.3,0.7,0.2c0,0-0.6-0.6-0.6-1.9c-0.1-1.2-1.2-1.6-1.7-1.7c0,0,0.4-0.6,1.4-0.3C99.7,30.4,100.2,29.5,100.2,29.5z"/>
	<path fill="#63212C" d="M88.5,33.3c-0.4-0.3-0.8,0.2-0.8,0.2s0.1,0.4,0.1,1c0,0,0.4-0.2,0.3-0.8C87.8,33.1,88.5,33.3,88.5,33.3z"/>
	<path fill="#63212C" d="M107.8,36.2c0.3-0.3,0.3-0.6,0.3-0.9c0-0.5-0.2-0.9-0.2-0.9s0.3,2.2-2.5,2.3c0,0,0-0.6,0.8-0.6   c0,0-0.6-0.4-1.1,0c-0.5,0.4-0.3,1.3,0.1,1.9c0,0-1.2-0.4-2.3,0.6c-0.6,0.5-0.6,1.1-0.4,1.9c0.2,0.7,1,1,1,1   c-1.7-1.2-0.4-3.5,1.5-3.2c1,0.1,2.8,0.7,4-0.7c0.7-0.8,0.8-1.7,0.8-2.4c0-0.8-0.3-1.4-0.3-1.4s0.4,1.7-0.7,2.9   c-1.3,1.4-3.3,0.6-3.3,0.6c0.6,0,1.1-0.2,1.5-0.4c0.2-0.1,0.3-0.2,0.4-0.3C107.7,36.4,107.8,36.2,107.8,36.2z"/>
	<path fill="#63212C" d="M106.7,52c0,0,0.4,0.1,0.7,0.4c0.1,0.2,0.2,0.5-0.1,0.8c0,0-0.1,0.2-0.5,0.2c0,0,0.5-0.1,0.5-0.6   C107.4,52.3,106.7,52,106.7,52z"/>
	<path fill="#63212C" d="M103.6,51.9c0.4,0.1,0.8-0.1,1-0.3c0.1-0.1,0.2-0.3,0.2-0.3s-0.1,0-0.3,0c-0.3,0-0.6-0.2-0.7-1   c-0.1-1.2-0.9-1.6-0.9-1.6s2.9,1,4.5-0.4c1.9-1.6,1.1-3.6,0.9-5c-0.1-0.6,0-0.9,0.2-1.1c0.3-0.3,0.7-0.4,0.7-0.4s-1.5-0.1-1.1,1.5   c0.4,1.7,0.8,3.2-0.7,4.5c-1.6,1.3-4.9,0.6-5.7-0.1c0,0,1.3,0.7,1.6,1.7c0.3,0.9-0.4,1.7,0.7,2c0,0-0.6,0.3-1.1-0.2   c0,0,1.1,0.9,0.9,2.5c0,0,0-0.8-0.8-1.4c0,0,0.6,0.8,0.4,1.7c0,0-0.1-0.5-0.5-0.8c0,0,0.5,0.5,0.2,2c0,0,0.6-0.3,1-0.7   c0.3-0.3,0.4-0.7,0.4-0.7C104.2,52.6,103.6,51.9,103.6,51.9z"/>
	<path fill="#63212C" d="M87.1,51.2c-0.2,0-0.3-0.1-0.4-0.2c0,0,0.3,0.3,0.8-0.1c0.5-0.4,0.4-1.3,0.4-1.3c0.3,0.4,0.2,0.7,0.2,0.7   s0.5,0.2,0.7-0.3c0.2-0.6-0.3-0.9,0.2-1.6c0.5-0.7,2-1.2,2-1.2c-0.2,0.3-0.3,0.7-0.3,0.7s-0.8,0.3-1.2,0.8   c-0.6,0.8-0.1,1.5-0.6,1.9c-0.2,0.1-0.4,0.1-0.5,0.1c-0.2,0-0.3-0.1-0.3-0.1s-0.1,0.7-0.7,0.7C87.3,51.3,87.2,51.3,87.1,51.2   L87.1,51.2z"/>
	<path fill="#63212C" d="M103,61.2c0.1,0.5,0.4,0.7,0.7,0.8c0.4,0.2,1,0.1,1.4,0c0.8,0,1.7,0.4,2.5-0.5c0.8-0.9,1-2.2,1-2.2   c0.4,0.4,0.9,0.2,1.1,0.1c0.1-0.1,0.1-0.1,0.1-0.1c-0.1,0-0.2-0.1-0.3-0.1c-0.7-0.3-0.7-1.1-0.7-1.1c0.4,0.3,0.7,0.1,1,0   c0.1,0,0.2-0.1,0.2-0.1c-0.1,0-0.2,0-0.2-0.1c-0.7-0.3-0.9-1.1-0.9-1.1c0.4,0.3,0.7,0.1,0.9-0.1c0.1-0.1,0.1-0.1,0.1-0.1   c-0.1,0-0.2-0.1-0.2-0.1c-1.1-0.6-0.5-2-1-2.8c-0.1-0.1-0.1-0.1-0.2-0.2c0,0,0.4,0.3,0.1,1.5c-0.2,1.2,0.4,1.5,0.4,1.5   c-0.5,0-0.7-0.4-0.7-0.4c0.2,1,0.7,1.4,0.7,1.4c-0.6,0.2-0.9-0.2-0.9-0.2c0.2,1.1,0.8,1.4,0.8,1.4c-0.6,0.2-0.9-0.2-0.9-0.2   s0,1.3-0.4,2.3c-0.4,1-1.4,0.7-1.4,0.7c-0.4-0.7,0-1,0-1c-0.7,0.1-0.9,1-0.9,1c-0.5,0-1.5,0.1-1.7-0.5c-0.2-0.6,0.7-0.6,0.7-0.6   c-0.4-0.3-0.4-0.6-0.4-0.6c-0.3,0.3,0,0.5,0,0.5C103.3,60.4,102.9,60.8,103,61.2z"/>
	<path fill="#63212C" d="M103.8,43.9c0.4-1,1.8-1.1,3.1-0.2c0,0-1.2-1.6-2.7-0.8c-1,0.5-0.5,1.9-0.5,1.9   C103.6,44.5,103.7,44.2,103.8,43.9z"/>
	<path fill="#63212C" d="M92.1,54.9c0,0-0.5,0.6-1.5-0.1c0,0,0.8,0.3,1.3-0.1c0.5-0.4,0.5-0.8,0.6-1C92.6,53.6,92.6,54.5,92.1,54.9z   "/>
	<path fill="#63212C" d="M100.4,57.1c-0.1,0.7,0.4,0.8,0.7,1c0.5,0.3,0.2,0.8,0.2,0.8c0.2-0.1,0.4-0.3,0.5-0.5c0.2-0.4,0-0.8,0-0.8   c0.2,0.1,0.3,0.3,0.4,0.5c0.3,0.5,0.2,1.1,0.2,1.1c0.3-0.2,0.4-0.5,0.5-0.7c0.2-0.7-0.2-1.2-0.2-1.2c0.9,0.3,1.7-0.2,2.2-0.4   c0.4-0.2,0.9-0.2,1.1,0.2c0.1,0.1,0.1,0.2,0.1,0.3c0,0-0.2-1.2-0.9-0.9c-0.4,0.1-0.9,0.5-1.6,0.5c-0.7,0.1-1.7-0.2-1.7-0.2   c0.4,0.4,0.4,0.7,0.4,0.7s-0.1-0.3-0.5-0.3c-0.5,0-0.5-0.5-0.5-0.5c-0.4,0.4-0.2,0.9-0.2,0.9c-0.6-0.1-0.4-1-0.4-1   c-0.5,0.8-1.6,0.3-1.6,0.3C99.9,57.6,100.4,57.1,100.4,57.1z"/>
	<path fill="#63212C" d="M95,38.2c0,0,0,0.6-0.6,0.8c-0.6,0.2-0.6,0.9-0.6,0.9s0.2-0.3,0.8-0.7C95.2,38.9,95,38.2,95,38.2z"/>
	<path fill="#63212C" d="M95.7,39.6c0.8-0.5,0.4-1.3,0.4-1.3s0.1,0.5-0.6,1c-0.7,0.5-0.4,1.2-0.4,1.2S95,40.1,95.7,39.6z"/>
	<path fill="#63212C" d="M93.3,41.3c-0.7,0.2-1,0.8-1,0.8s0.3-0.3,1.1-0.5c0.9-0.2,0.7-1.2,0.7-1.2S94,41.1,93.3,41.3z"/>
	<path fill="#63212C" d="M96.5,38.2c0,0,0-0.4,0.4-1.1c0.4-0.8-0.2-1.2-0.2-1.2s0.2,0.5,0,0.9C96.1,37.5,96.5,38.2,96.5,38.2z"/>
	<path fill="#63212C" d="M97.1,39.5c0,0,0-0.7,0.5-1.1c0.7-0.6,0-1.6,0-1.6s0.2,0.8-0.3,1.3C96.6,38.7,97.1,39.5,97.1,39.5z"/>
	<path fill="#63212C" d="M97.6,33.8c0,0,0.3,0.3,0.1,0.9c-0.2,0.9,0.4,1.2,0.4,1.2s-0.2-0.4-0.1-1.1C98.1,34.2,97.6,33.8,97.6,33.8z   "/>
	<path fill="#63212C" d="M97.8,31.9c0,0,0.4,0.2,0.3,0.7c-0.1,0.5,0.4,0.7,0.4,0.7s-0.3-0.2-0.2-0.7C98.4,32,97.8,31.9,97.8,31.9z"/>
	<path fill="#63212C" d="M91.5,39.9c0.9,0.5,1.4-0.2,1.4-0.2c-1.8,0.2-1.8-1.3-1.8-1.3S90.8,39.5,91.5,39.9z"/>
	<path fill="#63212C" d="M91.9,41.1c0,0-1,0.2-1.3-0.7c0,0-0.3,0.6,0.3,0.9C91.3,41.5,91.9,41.1,91.9,41.1z"/>
	<path fill="#63212C" d="M92.4,38.6c0,0-0.2-0.4,0-0.8c0,0,0,1,1,1.2C93.4,39,92.7,39.2,92.4,38.6z"/>
	<path fill="#63212C" d="M94.6,37c0-0.2-0.3-0.4-0.6-0.4c-0.2,0-0.4,0-0.6,0c-0.2,0-0.4,0.1-0.4,0.1s0.1-0.3,0.8-0.3   C94.5,36.4,94.6,37,94.6,37z"/>
	<path fill="#63212C" d="M50.3,51c0.2-0.7-0.3-1.1-0.3-1.1c0.3-1.3,1-1.7,1-1.7c-1,0-1.5,0.4-2,1.2c-0.5,0.8,0.1,2.4,0.1,2.4   S50.1,51.9,50.3,51z M55.7,35.4c0.4,0.1,0.6,0.5,0.1,1.2c0,0-1-0.2-1.3,0c-0.4,0.3-0.2,1,0.5,1.3c0.7,0.3,1.5-0.2,1.5-0.2   s0.2,0.4,0.1,0.8c0,0-0.1,0.1-0.1,0.3c0,0,0.6-0.2,1,0.4c0.4,0.6,0.9,0.6,1.3,0.3c0,0,0.2,0.9-0.7,1.2c0,0,0.3,0.4,0.9,0.2   c0,0,0.2-1.3,1.2-1.5c0,0-0.4-0.4-1,0c0,0,0.2-1.8,2.2-2.4c0,0-0.2-0.4-0.1-0.8c0,0,0.2,0.2,0.4,0.3v0.6c-0.2,0.1-1.1,0.7-1.6,2   c0,0,0.5-0.1,0.8,0.2c0,0-0.6,0.2-0.9,0.9c-0.3,0.7-0.6,1.7-1.3,2.1c0,0,0.2,0.4,0.8,0.1c0,0-0.2,0.9-0.9,1c0,0,0,0.5,0.5,0.6   c0,0-0.2,0.3-0.7,0.3c0,0-0.7-0.9-1.9-0.7c0,0,0.5,0.5,0,1.1c0,0,0-0.7-0.6-0.5c-0.8,0.2-1-0.2-1-0.2s-0.2,1.5,1.4,2.2   c1.3,0.6,1.4,1.3,1.4,1.3s0.4-0.2,0.3-0.7c0,0,1.2,0.5,1.9,1.3c0.7,0.8,0,1.5,0.5,1.8c0.2,0.2,0.5,0,0.5,0s0-0.3,0.2-0.5   c0,0-0.1,1,0.7,1.2c0.6,0.1,0.7-0.4,0.7-0.4s-0.4-0.2-0.5-1.1c0,0,0.4,0.7,1,0.6c0.6-0.1,0.6-0.5,0.6-0.5c0.2,0.5-0.2,1.3-1,1   c0,0,0.2,0.9-0.7,1c-0.8,0-0.8-0.6-0.9-0.9c0,0-0.6,0.5-1-0.1c-0.4-0.5,0.3-1-0.5-1.7c-0.8-0.7-1.2-0.8-1.2-0.8s0.2,0.5-0.2,0.8   c0,0-0.2-0.9-1.1-1.3c-0.8-0.4-1.2-0.5-1.6-0.9c0,0-0.6,0.8-2.1,1.3c-1.5,0.5-2,1-2,1s0.5,0,0.8,0c0,0-1.1,0.7-1.4,1.6   c0,0,0.6-0.5,1.3-0.6c0,0-0.5,0.4-0.8,1.1c0,0,0.6-0.6,1.4-0.8c0,0-0.6,0.5-0.9,1c0,0,0.8-0.6,1.4-0.7c0,0-0.6,0.5-0.9,1.1   c0,0,0.8-0.6,1.4-0.8c0,0-0.6,0.5-0.8,1.1c0,0,0.5-0.5,1.2-0.6c0,0-0.3,0.5-0.6,1.1s-0.4,1.1-0.4,1.1c-0.1-0.5-0.4-1.4-3.5-1.4   c0,0,0.3,0.9,0.1,2.2c-0.2,1.5-0.8,1.7-0.7,2.1c0.1,0.4,0.5,0.5,0.9,0.6c0,0-0.7,0.6-1.3,0.1c0,0,0.2,0.4-0.4,0.8   c-0.5,0.3-0.5,1-0.5,1s-0.7-0.3-0.4-1.3c0,0-0.7,0.6-0.6,1.6c0,0-0.6-0.5-0.6-1c0-0.5,0.3-0.8,0.3-0.8s-1.1,0.3-1.9-0.2   c-0.8-0.5-1.5-0.7-1.7,1.2c0,0-0.1-0.7,0-1.1c0,0-0.2,0.4-0.3,0.9c0,0,0-0.7,0.1-1.2c0,0-0.3,0.4-0.4,1c0,0,0-1.1,0.3-1.6   c0.3-0.5,0.5-0.8,1.2-0.1c0.8,0.7,1.7,1.1,3.2,0.4c0,0,0.2,0.4-0.1,0.8c0,0,0.6-0.2,0.6-0.9c0,0,0.5,0.3,0.3,1c0,0,0.7-0.3,0.4-1.1   c0,0,0.2,0.2,0.6,0.2c0,0-0.6-0.6-0.2-1.2c0.4-0.7,0.7-1.2,0.3-3.5c-0.4-2,0.7-2.9,1.4-3.5c0.7-0.5,1.1-1.1,1.2-2.1   c0,0,0.3,0.8,0.2,1.3c0,0,0.3-1,0.5-1.7c0,0,0.2,1,0.1,1.5c0,0,0.6-1.1,0.8-2c0,0,0.2,1.1-0.1,1.8c0,0,1-0.4,1.4-1.5   c0,0-0.3,0.2-0.7,0.1c0,0,0.3-0.1,0.3-0.3c0.1-0.2,0-0.4-0.2-0.5c-0.3-0.1-0.2-0.6-0.2-0.6s-0.3,0.3-0.8,0c0,0,0.6,0.1,0.8-0.7   c0,0,0,0.5,0.4,0.8c0.4,0.2,0.3,0.6,0.3,0.6s0.6-0.6,0.4-1.6c0,0,0.3,0.6,0.9,0.6c0.6-0.1,0.8,0.3,0.8,0.3s0.3-0.8-0.5-1.2   c0,0,0.6-0.2,1.2,0.2c0.6,0.5,1.3,0.2,1.6-0.4c0,0-0.9,0.3-1.4-0.9c0,0,1,0.4,1.2-0.7c0,0-1,0.4-1.4-0.7c0,0,0.8,0.5,1.2-0.4   c0,0-0.5,0.2-0.8-0.4c-0.4-0.7-1.1-0.5-1.1-0.5s0.4-0.4,0.1-1c0,0-0.8,0.5-1.6,0c-0.9-0.5-0.6-1.5-0.6-1.5s-0.3,0.1-0.5,0.2   c0,0,0.3-0.7,1.3-0.8c0.5,0,1,0.1,1,0.1C56,36,55.7,35.4,55.7,35.4z"/>
	<path fill="#63212C" d="M84.8,60.4c0.2,0.4,0.5,0.6,0.8,0.6c0.4,0,0.8-0.1,1.3,0c1.2,0.1,1.6,0,2.2-0.4C89.6,60.1,90,60,90,60   c0,0.2,0.1,0.3,0.2,0.4c0.2,0.2,0.4,0.3,0.4,0.3c0-0.2,0-0.3,0.1-0.5c0.2-0.5,0.5-0.6,0.5-0.6c0,0.3,0.1,0.6,0.2,0.7   c0.1,0.1,0.3,0.2,0.3,0.2c0-0.2,0-0.3,0-0.4c0.1-0.5,0.7-0.8,0.7-0.8c0,0.3,0.1,0.6,0.3,0.7c0.1,0.1,0.2,0.2,0.3,0.2   c0.1,0,0.1,0,0.1,0c-0.3-1.3,1.1-1,1.7-1.6c0.5-0.5,0.2-1.1,0.2-1.1c0.6,0.4,1.1,0.1,1.3,0c0.1-0.1,0.2-0.1,0.2-0.1   c-0.1,0-0.1,0-0.2,0c-0.6-0.1-0.6-0.8-0.4-1.4c0.2-0.7,0.4-1,0.2-1.8c-0.2-0.8,0-1.1,0.6-1.4c0.6-0.3,1.4-0.4,1.4-0.4   c-0.4-0.8,0.1-1.3,0.1-1.3s0,0.5,0.2,0.9c0.4,0.6,1.1,0.4,1.1,0.4c0.1-0.4,0.1-1.4,0.1-1.4c-0.2,0.8-0.4,1.1-0.4,1.1   s-0.5,0-0.7-0.6c-0.3-0.7,0.2-1.1,0.2-1.1c-0.4-0.7-1.4-1.3-1.4-1.3c1.3-0.4,2.3,0.7,2.3,0.7c0-0.8-0.7-1.3-1.6-2   c-0.9-0.6-0.9-1.4-0.9-1.4c-0.1,0.4,0,1,0,1c-0.5-0.6-0.8-1.5-0.8-1.5c-0.1,0.6,0.1,1.3,0.1,1.3c-0.7-0.7-1-1.8-1-1.8   c-0.1,0.7,0.2,1.5,0.2,1.5c-0.8-0.7-0.7-1.8-0.7-1.8c-0.1,0-0.1,0-0.2,0c-0.1,0-0.1,0-0.2-0.1c0,0-0.1,0.9-2.1,1.9   c-1.7,0.8-1.5,2-1.5,2c0.1-0.2,0.2-0.4,0.3-0.6c0.3-0.4,0.8-0.7,1.8-1.1c1.4-0.6,1.6-1.8,1.6-1.8c-0.1,2,0.9,2.6,1.5,2.8   c0.8,0.3,1,0.6,1,0.6c-0.4-0.1-0.8,0-0.8,0l0.4,0.3c0.6,0.4,1.5,1.4,1.5,1.4c-0.6-0.4-1-0.4-1-0.4c0.6,0.4,0.9,1.1,0.9,1.1   c-0.8-0.7-1.4-0.8-1.4-0.8c0.6,0.4,1,1.1,1,1.1c-0.8-0.8-1.5-0.9-1.5-0.9c0.8,0.6,1,1.2,1,1.2c-0.6-0.7-1.5-1-1.5-1   c0.7,0.5,0.9,1.2,0.9,1.2C95.9,51.3,95,51,95,51c0.8,0.5,0.9,1.1,0.9,1.1c-0.6-0.2-0.8,0.4-0.4,1.2c0.4,0.9,0.2,1.5-0.3,2.1   c-0.5,0.6-0.1,1.2-0.1,1.2c-0.5,0.1-0.8-0.5-0.8-0.5c0.7,1.6-0.1,1.8-0.9,1.8c-0.7,0-0.8,0.7-0.8,0.7c-0.4-0.3-0.1-0.7-0.1-0.7   c-1,0.3-1,1-1,1c-0.3-0.3-0.2-0.6-0.2-0.6c-0.9,0.4-0.9,1.3-0.9,1.3c-0.5-0.3-0.2-0.7-0.2-0.7c-0.5,0.1-1,0.4-1.5,1   c-0.4,0.6-1.2,0.3-1.2,0.3c-0.4-0.6-0.1-1-0.1-1c-0.9,0-1,1-1,1s-1.2,0.1-1.2-0.6c-0.1-0.7,0.9-0.7,0.9-0.7   c-0.5-0.3-0.2-0.7-0.2-0.7c-0.6,0.2-0.4,0.7-0.4,0.7S84.3,59.4,84.8,60.4z"/>
</g>
<g>
	<path fill="#B09022" d="M81.7,22.9c0.9-0.1,1.2-1,1.2-1c-0.2,0.2-0.6,0.5-1,0.6c-0.5,0.1-1-0.1-1.1-0.9   C80.8,21.6,80.6,23,81.7,22.9z"/>
	<path fill="#B09022" d="M76.3,22c1.1-0.3,1.2-1.5,1.2-1.5c-0.1,0.2-0.3,0.5-0.6,0.8c-0.6,0.5-1.1,0.5-1.5,0.2   c-0.1-0.1-0.3-0.2-0.4-0.5C74.9,21,75,22.3,76.3,22z"/>
	<path fill="#B09022" d="M69.7,22.3c1-0.5,0.8-1.8,0.8-1.8c-0.2,0.6-0.7,2.1-2,1.4c-0.2-0.1-0.3-0.2-0.4-0.4   C68.2,21.5,68.6,22.8,69.7,22.3z"/>
	<path fill="#B09022" d="M65.1,23.3c0.5-0.4-0.1-1.6-0.1-1.6c0,0.3,0.1,0.7-0.1,1.2c-0.1,0.5-0.7,0.4-1,0.2   C64,23.1,64.5,23.8,65.1,23.3z"/>
	<path fill-rule="evenodd" clip-rule="evenodd" fill="#B09022" d="M64,23.1c0,0,0.7-0.5,0.3-1.5c-0.1-0.3-0.4-0.4-0.6-0.4   c-0.1,0-0.3,0-0.4,0.1c-0.1-0.4-0.5-0.5-0.9-0.3c-0.5,0.2-0.7,0.2-0.9,0.1c0,0,0.4,0.3,1.1,0.1c0.7-0.2,0.6,0.4,0.6,0.4   s0.9-0.5,1.1,0.3C64.3,22.7,64,23.1,64,23.1z"/>
	<path fill="#B09022" d="M82.1,19.7c0.5-0.2,0.7-0.9,0.1-1.4c-0.4-0.3-0.4-1.1-0.4-1.1s-0.4,0.4,0.2,1.2c0.6,0.7-0.4,1-0.4,1   s1,0.6,0.3,1.5c-0.4,0.6-1.2,0.6-1.2,0.6s0.3,0,0.5,0C82.7,21.4,82.9,20,82.1,19.7z"/>
	<path fill-rule="evenodd" clip-rule="evenodd" fill="#B09022" d="M69.4,20.1c0-0.7-0.4-1.2-1.1-1.1c0.3-0.4,0-1-0.8-1.2   c-0.6-0.1-0.9-0.5-1.2-0.7c0,0,0,0.1,0.1,0.3c0.1,0.2,0.5,0.6,1.1,0.8c1,0.3,0.3,1,0.3,1s1.3-0.2,1.2,1c-0.1,1-0.8,1.4-0.8,1.4   C69.4,21.1,69.4,20.1,69.4,20.1z"/>
	<path fill="#B09022" d="M75.2,16.9c0.9,0.3,0.5,1.2,0,1.4c0,0,1.3,0,1,1.2c-0.2,1.1-1.3,1.5-1.3,1.5s1.3-0.1,1.7-1.1   c0.3-0.6,0.1-1.5-0.9-1.6c0.8-0.4,0.6-1.3-0.4-1.6c-1-0.3-1-1.2-1-1.2S74.2,16.6,75.2,16.9z"/>
	<path fill="#B09022" d="M66.5,26.2c-0.2-0.1-0.5-0.2-0.8-0.3c-0.3-0.1-0.6-0.2-0.8-0.3l0.1,0.4l1.1,0.3L66.5,26.2z"/>
	<path fill-rule="evenodd" clip-rule="evenodd" fill="#B09022" d="M80.7,25.7c0-0.5-0.4-1-1.1-1.1c-0.7-0.1-1.3,0.3-1.4,0.8   c0,0,0,0,0,0c0.1-0.1,0.2-0.1,0.3-0.2c0.1-0.4,0.5-0.6,1.1-0.5c0.5,0.1,0.8,0.4,0.8,0.7C80.5,25.5,80.6,25.6,80.7,25.7z"/>
	<path fill-rule="evenodd" clip-rule="evenodd" fill="#B09022" d="M75.8,25.1l0.7,0.1c-0.7-0.5-1.4-0.9-2.1-1.3   c-0.7,0.4-1.4,0.9-2.1,1.3l0.5-0.1c0.5-0.3,1-0.6,1.6-0.9C74.8,24.6,75.3,24.8,75.8,25.1z"/>
	<g>
		<path fill-rule="evenodd" clip-rule="evenodd" fill="#B09022" d="M69.3,24.6c-0.7,0.1-1.1,0.5-1.1,1c0.1,0,0.2,0,0.2-0.1    c0-0.4,0.4-0.7,0.9-0.8c0.6-0.1,1,0.2,1.1,0.6c0.1,0,0.2,0,0.3,0.1C70.6,24.9,70,24.5,69.3,24.6z"/>
	</g>
	<path fill="#B09022" d="M82.4,26l0.5,0.8l-0.1,0.5c-0.1,0.3-0.1,0.5-0.2,0.7c-1-0.4-3.5-1.1-8.4-1.1c-6.4,0-8.9,1.7-9,1.8l0,0   l0.3-0.2c0.7-0.4,3.1-1.3,8.8-1.3c5.6,0,8.1,1.1,8.8,1.5l0.3-1.7l0.6-0.5l-0.2-0.7c0.2-0.7,0.4-1.3,0.8-2c0.1-0.2,0.1-0.3,0.3-0.5   c0.5-0.7,1.1-0.5,1.1-0.5s-0.1-0.1-0.2-0.1c-0.1,0-0.2-0.1-0.3-0.1c0.9-1.1,1.6-1.3,1.6-1.3s-1,0.4-1.8,1.2   c-0.2,0.2-0.4,0.5-0.6,0.8c-0.1,0.1-0.2,0.3-0.3,0.5c-0.1,0.2-0.2,0.4-0.3,0.6c-1-0.4-5-1.7-9.6-1.6c-6.5,0.1-9.8,2-9.8,2   c2.7-0.8,5.9-1.5,9.7-1.5c3.9,0,7.3,0.7,9.4,1.7l0,0c-0.1,0.2-0.2,0.4-0.2,0.6c-0.5,0.1-1.4,0.4-1.7,0.4L82.4,26z"/>
</g>
<g>
	<path fill="#63212C" d="M85.3,22.5c0.1,0,0.2,0,0.3,0.1c0.7-1,1.3-1.4,1.3-1.4S86.2,21.4,85.3,22.5z"/>
	<path fill="#63212C" d="M84.8,23.2c-0.1,0.2-0.2,0.3-0.3,0.5c-0.3,0.6-0.6,1.3-0.8,2l0.2,0.7l-0.6,0.5l-0.3,1.7   c-0.7-0.4-3.3-1.6-8.8-1.5c-5.7,0-8.1,1-8.8,1.3l-0.3,0.2c0,0,0.5,0.3,1.7,0.6c0.4,0.1,0.9,0.2,1.4,0.3c0.7,0,1.4-0.1,2.2-0.1   c-2.8-0.3-4-0.8-4-0.8s3-1.3,8.8-1l-1.9,0.3l1.9,0.2l-2,0.2l2.1,0.3l-2,0.2l2,0.3l-2,0.1l0.5,0.1c0.2,0,0.3,0,0.5,0   c2.7,0,5,0.1,6.9,0.3c1.5-0.4,2.2-0.8,2.2-0.8c0.1-0.7,0.1-1.2,0.3-1.8l0.5-0.6L84,25.7c0.2-0.8,0.6-1.5,0.9-2.2   c0.3-0.5,0.7-0.8,0.9-0.9C85.8,22.7,85.2,22.5,84.8,23.2z"/>
</g>
<g>
	<path fill="#4A232E" d="M52.8,30.4c0,0,0,0.8-0.7,1.2c0,0,0.6,0.1,0.9-0.1c0.4-0.1,0.1-0.4,0-0.5c-0.1-0.1,0-0.4,0.4-0.2   c0.2,0.1,0.3-0.1,0.3-0.1S53.3,30.4,52.8,30.4z"/>
	<path fill="#4A232E" d="M53.8,31.4c0,0-0.2,0.5-1.1,0.5c0,0,0.8,0.3,1.2,0C54.2,31.8,53.8,31.4,53.8,31.4z"/>
	<path fill="#4A232E" d="M108.7,35.7c-0.5,0.4-0.9,0.5-0.9,0.5c0.3-0.3,0.3-0.6,0.3-0.9c0,0,0.2-0.2,0.4-0.5c0,0,0.1,0.3,0.1,0.5   C108.7,35.5,108.7,35.7,108.7,35.7z"/>
	<path fill="#4A232E" d="M93.5,32.8c0.3,0,0.6,0,0.9,0c0.6,0,0.9,0.2,1.1,0.5c0,0-0.7-0.3-1.4-0.1c-0.5,0.1-0.6-0.1-0.6-0.1   L93.5,32.8z"/>
	<path fill="#4A232E" d="M94.6,37c0-0.2-0.3-0.4-0.6-0.4c-0.2,0-0.4,0-0.6,0c0,0,0,0.3,0.2,0.4c0,0,0.3-0.1,0.5-0.1   C94.4,37,94.6,37,94.6,37z"/>
	<path fill="#4A232E" d="M89.8,36.8c-0.4-0.3-0.7-0.6-0.9-1c-0.2-0.4-0.3-0.7-0.3-0.7c0.3-0.4,0.3-1,0.2-1.5c0,0,0.6,0.1,0.5,0.9   c-0.1,0.5-0.3,0.8-0.3,0.8s0.2,0.4,0.4,0.7C89.5,36.5,89.8,36.8,89.8,36.8z"/>
	<path fill="#4A232E" d="M109.8,35.2c0,0.7-0.1,1.6-0.8,2.4c-1.2,1.4-3,0.8-4,0.7c-1.9-0.2-3.2,2-1.5,3.2c0,0-0.6-0.8-0.1-1.8   c0.4-0.8,1.3-1.2,2.9-0.9c1.6,0.2,3.1,0,3.7-1.4c0.6-1.4,0.1-3.3,0.1-3.3C110,34.7,109.8,35.2,109.8,35.2z"/>
	<path fill="#4A232E" d="M106.8,43.7c-1.2-0.9-2.6-0.8-3.1,0.2c0,0,0,0.6,0.4,0.9c0,0-0.1-0.8,0.6-1.1   C105.6,43.3,106.8,43.7,106.8,43.7z"/>
	<path fill="#4A232E" d="M108.5,42.3c-0.2,0.2-0.3,0.6-0.2,1.1c0.3,1.3,1,3.4-0.9,5c-1.7,1.4-4.5,0.4-4.5,0.4s0.7,0.4,0.9,1.6   c0.1,0.8,0.4,0.9,0.7,1c0,0-0.2-0.4-0.3-0.9c0-0.5-0.4-1-0.7-1.3c0,0,2.9,1.1,4.6-0.5c1.7-1.6,1.2-3.6,0.8-4.8   c-0.2-0.6,0.2-1.3,0.8-1.5c0,0-0.3-0.1-0.6-0.2C108.8,42.2,108.5,42.3,108.5,42.3z"/>
	<path fill="#4A232E" d="M104.6,53.4c-0.3,0.2-0.3,0.4-0.3,0.4c-0.1-1.2-0.7-1.9-0.7-1.9c0.4,0.1,0.8-0.1,1-0.3c0,0,0.2,0.2,0.8,0.2   c0,0-0.6,0.7-1.2,0.5c0,0,0.3,0.4,0.4,0.7C104.6,53.3,104.6,53.4,104.6,53.4z"/>
	<path fill="#4A232E" d="M108,53.5c-0.4-0.2-0.7-0.2-0.7-0.2c0.3-0.4,0.2-0.6,0.1-0.8c0,0,0.4,0.1,0.6,0.4   C108.2,53.2,108,53.5,108,53.5z"/>
	<path fill="#4A232E" d="M103.6,62.1c0.4,0.2,1,0.1,1.4,0c0.8,0,1.7,0.4,2.5-0.5c0.8-0.9,1-2.2,1-2.2c0.4,0.4,0.9,0.2,1.1,0.1   c0,0,0.3,0.3,0.7,0.3c0,0-0.5,0.5-1.2,0.1c0,0-0.4,1.4-0.9,2c-0.5,0.6-1.1,0.7-1.8,0.6c-0.5-0.1-1.1-0.2-1.7-0.1   C104,62.3,103.6,62.1,103.6,62.1z"/>
	<path fill="#4A232E" d="M109.5,59.3c-0.7-0.3-0.7-1.1-0.7-1.1c0.4,0.3,0.7,0.1,1,0c0,0,0.3,0.2,0.7,0.3c0,0-0.5,0.4-1.1,0.1   c0,0,0,0.1,0.1,0.3C109.4,59.1,109.5,59.3,109.5,59.3z"/>
	<path fill="#4A232E" d="M109.7,58.1c-0.7-0.3-0.9-1.1-0.9-1.1c0.4,0.3,0.7,0.1,0.9-0.1c0,0,0.3,0.3,0.7,0.3c0,0-0.5,0.5-1,0.1   c0,0,0,0.1,0.1,0.4C109.5,57.9,109.7,58.1,109.7,58.1z"/>
	<path fill="#4A232E" d="M109.5,56.6c-1.1-0.6-0.5-2-1-2.8c0,0,0.7,0.3,0.7,1.5C109.2,56.3,109.5,56.6,109.5,56.6z"/>
	<path fill="#4A232E" d="M106,57.1c-0.2-0.4-0.7-0.4-1.1-0.2c-0.5,0.2-1.3,0.7-2.2,0.4c0,0,0.5,0.5,0.2,1.2c0,0,0.1,0.2,0.1,0.4   c0,0,0.6-0.5,0.3-1.1c0,0,1.2,0.2,1.7-0.2C105.6,57.1,106,57.1,106,57.1z"/>
	<path fill="#4A232E" d="M102.2,58.1c-0.1-0.2-0.2-0.3-0.4-0.5c0,0,0.2,0.4,0,0.8c0,0,0.1,0.1,0.1,0.3c0,0,0.2-0.1,0.3-0.3   C102.2,58.3,102.2,58.1,102.2,58.1z"/>
	<path fill="#4A232E" d="M96.3,57.3c-0.2,0.2-0.7,0.4-1.3,0c0,0,0.2,0.6-0.2,1.1c-0.5,0.6-2,0.3-1.7,1.6c0,0,0,0-0.1,0   c0,0,0.1,0.4,0.5,0.5c0,0-0.3-0.7,0.5-1.1c0.8-0.4,1.5-0.2,1.7-1.1c0.1-0.3-0.1-0.6-0.1-0.6c0.8,0.4,1.5-0.1,1.5-0.1   C96.6,57.5,96.3,57.3,96.3,57.3z"/>
	<path fill="#4A232E" d="M90.2,60.4C90.1,60.3,90,60.2,90,60c0,0-0.4,0.1-0.9,0.4c-0.6,0.4-1,0.5-2.2,0.4c-0.5,0-1,0.1-1.3,0   c0,0,0.6,0.1,0.9,0.1c0.4,0,1,0.1,1.6,0c0.6,0,1.1-0.1,1.5-0.3C89.9,60.5,90.2,60.4,90.2,60.4z"/>
	<path fill="#4A232E" d="M91.4,60.3c-0.1-0.1-0.3-0.3-0.2-0.7c0,0-0.4,0.2-0.5,0.6c0,0,0,0.5,0.5,0.8c0,0,0-0.2,0.1-0.4   C91.3,60.4,91.4,60.3,91.4,60.3z"/>
	<path fill="#4A232E" d="M92.6,59.9c-0.1-0.1-0.3-0.3-0.3-0.7c0,0-0.5,0.3-0.7,0.8c0,0,0.1-0.1,0.3-0.1c0,0-0.2,0.5,0.4,0.8   c0,0,0-0.3,0.1-0.5C92.5,60,92.6,59.9,92.6,59.9z"/>
	<path fill="#4A232E" d="M96.3,57.2c-0.6-0.1-0.6-0.8-0.4-1.4c0.2-0.7,0.4-1,0.2-1.8c-0.2-0.8,0-1.1,0.6-1.4   c0.6-0.3,1.4-0.4,1.4-0.4c-0.4-0.8,0.1-1.3,0.1-1.3s0,0.5,0.2,0.9c0.4,0.6,1.1,0.4,1.1,0.4l-0.1,0.3c0,0-1.4,0-2.4,0.6   c-0.6,0.3-0.5,0.6-0.5,1.1c0.1,0.5,0.1,0.8-0.2,1.7C96.1,56.8,96.3,57.2,96.3,57.2z"/>
	<path fill="#4A232E" d="M97.1,48.5c0,0-0.2-0.4-1-0.6c-0.6-0.2-1.6-0.8-1.5-2.8c0,0-0.2,1.2-1.6,1.8c-1,0.4-1.5,0.7-1.8,1.1   c0,0-0.2,0.7,0.2,1.1c0,0,0-0.9,1.2-1.3c1.2-0.4,1.4-0.8,1.4-0.8s0.3,0.9,1.4,1.1C96.4,48.1,97.1,48.5,97.1,48.5z"/>
	<path fill="#4A232E" d="M89,50.5c0.5-0.4,0-1.1,0.6-1.9c0.4-0.5,1.2-0.8,1.2-0.8c0,0.2,0,0.3,0,0.4c0,0-0.8,0.4-1,0.9   c-0.2,0.5-0.1,1-0.2,1.3c-0.1,0.4-0.6,0.3-0.6,0.3L89,50.5z"/>
	<path fill="#4A232E" d="M88.4,50.6c-0.2,0-0.3-0.1-0.3-0.1s-0.1,0.7-0.7,0.7c0,0,0.5,0.2,0.8-0.1C88.4,50.9,88.4,50.6,88.4,50.6z"/>
	<path fill-rule="evenodd" clip-rule="evenodd" fill="#4A232E" d="M101.3,36.5c-1.2-0.4-1.2-1.5-1.2-1.7c0,0,0,0,0,0   c0.7,0.1,0.8-0.3,0.8-0.3s-0.8-0.4-0.9-1.7c0-1.3-0.8-1.8-0.8-1.8c1.2,0.1,1.1-1,1.1-1c-0.2,0.1-0.3,0.1-0.3,0.1   c-0.2,0.4-0.7,0.8-1.8,0.4c0,0,1.3,0.4,1.3,1.7c0.1,1.5,0.4,1.9,0.8,2.1c0,0-0.3,0.4-0.8,0.2c0,0,0.1,1.4,1,1.7   c0,0-0.4,0.6-1.1,0.2c0,0-0.2,1.5,0.8,1.9c0,0-0.6,0.5-1.1,0c0,0,0.5,1-0.9,2.1c-0.9,0.8-0.9,1.6-0.9,1.6s-0.6-0.1-0.8-0.9   c0,0-0.9,1-0.2,2.2c0,0-0.8,0-1-0.9c0,0,0.1,0.6-0.4,0.9c-0.5,0.3-0.3,1-0.3,1s-0.8-0.2-0.7-1.1c0,0-0.8-0.2-1.1,1   c0,0,0.2-0.5,0.8-0.4c0,0,0.2,0.7,0.9,1c0.1,0,0.1,0.1,0.2,0.1c0.1,0,0.1,0,0.2,0c0.2,0,0.3,0,0.5,0c0,0-0.7-0.8-0.1-1.7   c0,0,0.5,1,1.7,0.6c0,0-0.5-0.4-0.5-1c0-0.4,0.1-0.8,0.1-0.8s0.2,0.3,0.6,0.6c0,0,0.2,0.4,0.6,1c0.3,0.4,0.6,0.9,1,1.4   c0.5,0.6,1.1,1.2,1.7,1.6c0,0-1.1-1.1-1.8-1.9c-0.6-0.8-1.2-1.9-1.2-1.9c0.5,0.2,1,0,1,0c-0.3-0.2-0.9-1.2,0.3-2.2   c1.2-1,0.6-1.9,0.6-1.9c0.7,0.6,1.3,0,1.3,0c-1.1-0.6-0.8-1.8-0.8-1.8C101.1,37,101.3,36.5,101.3,36.5z"/>
	<path fill="#4A232E" d="M95.9,30.4c0,0,0,0.8,0.7,1.2c0,0-0.6,0.1-0.9-0.1c-0.4-0.1-0.1-0.4,0-0.5c0.1-0.1,0-0.4-0.4-0.2   C95.2,31,95,30.7,95,30.7S95.4,30.4,95.9,30.4z"/>
	<path fill="#4A232E" d="M94.9,31.4c0,0,0.2,0.5,1.1,0.5c0,0-0.8,0.3-1.2,0C94.6,31.8,94.9,31.4,94.9,31.4z"/>
</g>
<path fill-rule="evenodd" clip-rule="evenodd" fill="#990000" d="M76.2,57.7c0,0-0.1-0.2,0-0.4c0.1-0.5,0.9-0.5,0.9-0.5  c-0.2-0.2-0.2-0.5-0.1-0.7c0.1-0.1,0.4-0.3,0.4-0.3c0.5-0.1,0.8,0.3,0.8,0.3c0.6-1.1,0.9-1.9,1.2-2.4c0.3-0.5-1.3-0.8-1.3-0.8  c0.3,0.4,0.1,0.7,0.1,0.7c-0.1-0.5-0.9-0.5-0.9-0.5c0.3,0.3,0.1,0.6,0.1,0.6c-0.2-0.3-0.1-0.2-0.6-0.4c-0.3-0.1-0.3-0.6-0.3-0.6  c-0.5,0.4-1.1,0.1-1.1,0.1s1.1-0.3,0.6-1.3c-0.2-0.5-0.3-1.2,0-1.9c0.1-0.4,0.2-0.5,0.3-0.7c-0.5,0.3-1.1,0.4-1.5,0.5  c-0.9,0.2-1.3,0.3-1,1c0.4,0.7-0.4,0.9,0.4,1.6c0,0-0.4,0.2-0.7,0c0.1,0.5,1,1.5,0,1.9c-0.6,0.2-1.2,0.8-1,1.4c0,0-0.4-0.1-0.5-0.6  c0,0-0.5,0.4-0.5,1c0,0-0.4-0.1-0.3-0.6c0,0-0.7,0.3-0.7,1c0,0-0.3-0.2-0.3-0.6c0,0-0.5-0.1-0.7,0.2c0,0,0.5,0.2,0.1,0.8  c-0.1,0.1-0.2,0.2-0.3,0.3c-0.4,0.2-0.8-0.2-0.8-0.2s-0.1,0.8-0.8,0.6c-0.1,0-0.2-0.1-0.3-0.2c-0.3-0.3,0-0.8,0-0.8  s-0.6,0.1-0.7-0.3c-0.1-0.1-0.1-0.3,0-0.4c0.1-0.6,0.7-0.6,0.7-0.6s-0.3-0.4-0.3-0.7c0-0.1,0.1-0.2,0.3-0.3c0.6-0.2,1.2,0.6,1.2,0.6  s1.8-1.3,2.4-1.8c0.4-0.3,0-1.5,0-1.9c0,0-0.3,0.1-0.7,0.1c0,0,0.6-0.5,0.6-1.2c0,0-0.2,0.6-0.8,0.6c0,0,0.3-0.2,0.2-0.7  c-0.1-0.5,0.2-0.8,0.2-0.8s-0.6-0.1-0.5-0.8c0,0,0.7,0.5,1,0c0.2-0.4,0.8-1,1.7-1.2c0.6-0.2,1.6-0.3,2-0.3c-0.5-0.8-1.5-1.1-1.9-2.1  c-0.6,0.6-1.5,0.8-1.9,0.9c-0.8,0.2-1.1,0.8-1.1,0.8c-0.2-0.2,0-0.6,0-0.6s-0.6,0.2-0.8,0.4c-0.9,0.8-0.2,1.2-0.7,1.7  c-0.1,0.1-0.3,0.2-0.5,0.2c-0.3,0-0.4-0.3-0.4-0.3s-0.1,0.9-0.9,0.6c-0.2-0.1-0.3-0.2-0.4-0.3c-0.2-0.3,0.1-0.7,0.1-0.7  s-0.8,0.3-1-0.4c0-0.1,0-0.3,0-0.4c0.1-0.6,0.9-0.6,0.9-0.6c-0.6-0.2-0.7-1,0-1.3c0.6-0.2,1.2,0.3,1.2,0.3c1.7-0.6,3-1.8,3-1.8  c-0.3,0-0.5-0.2-0.5-0.2s0.7-0.4,0.9-0.9c-0.5-0.1-0.8-0.4-0.8-0.4c0.2,0,0.4-0.2,0.6-0.3c-0.6-0.4-1.1-1.2-1.4-1.5  c-0.4-0.6-1.2-0.7-1.2-0.7c0.2-0.4,0.6-0.5,0.6-0.5c-0.5-0.8-1.5-1.4-1.5-1.4s-0.5,0.6-1,0.3c0,0-0.2-0.1-0.3-0.3  c-0.1-0.3,0-0.6,0-0.6s-0.9,0-1-0.6c0-0.2,0-0.3,0.1-0.4c0.2-0.5,0.8-0.3,0.8-0.3c-0.3-0.2-0.4-0.8-0.2-1.1c0.1-0.1,0.2-0.2,0.4-0.3  c0.5-0.1,1,0.6,1,0.6c0-0.2,0.2-0.6,0.4-0.6c0.2,0,0.3,0.1,0.4,0.2c0.5,0.6-0.1,1.5-0.1,1.5c0.5,0.5,0.9,0.7,2.3,1.4  c0.8,0.4,1.6,1.1,2.2,1.7c0.5,0.1,0.7,0.1,0.7,0.1c-0.5-0.3-0.3-0.7-0.3-0.7c1.6,0.8,1.8-0.6,1.8-0.6c-0.5-0.2-1.2,0-1.2,0  c-0.5-0.9,0.3-1.1,0.3-1.1c0-0.1,0.1-0.3,0.2-0.5c0,0,0,0.2,0.1,0.5h0c0,0,1.1,0.3,1.6-0.8c0-0.1,0.1-0.1,0.1-0.2c0,0,0,0,0,0  c0.3-1-0.8-1.1-1.1-1c-0.5,0.1-0.7,0.1-0.7,0.1c-0.1,0.3-0.2,0.5-0.2,0.5c-0.2-0.2-0.2-0.5-0.2-0.5c-0.9-0.4-0.6-1.7-0.6-1.7  s-0.1-0.4,0-0.5c0.2-0.1,1-0.2,1.5-0.1c0.5,0.1,0.9-0.4,1.7-0.2c0.5,0.1,0.9,0.4,0.9,0.4c0.1-0.3,0.8-1.2,1.7-0.6  c0.7,0.4,1.4,0.2,1.4,0.2c-0.2,1.7-1.8,1.1-1.8,1.1c0.5,0.2,0.7,0.5,0.7,1.4c0,0.8,0.7,1.1,0.7,1.1c-0.3,0.4-0.7,0.2-0.7,0.2  c0.1,1.4,0.8,1.5,0.8,1.5c-0.4,0.5-0.9,0.1-0.9,0.1c0,1.2,0.6,1.4,0.6,1.4c-0.6,0.5-1,0-1,0c0.2,0.3,0.2,0.6,0.1,1.1  c-0.1,0.6,0.3,0.7,0.3,0.7c-0.4,0.3-0.8,0.1-0.9,0c-0.5,0.6-0.1,1.5-0.1,1.5c-0.8,0.1-0.8-0.7-0.8-0.7s-0.4,1-0.1,2.2  c0.2,1.2,0.9,2.2,2,2.7c1.3,0.7,3.9,0.9,4.5-0.5c0.5-1.2,0.2-2.5-1.1-2.5c-1.3,0-1.4,1.1-1.4,1.1c-0.4-0.6-0.1-1.2,0.1-1.4  c-0.7-0.2-1.3-0.9-1.3-1.8c0.1-1.8,1.8-2,1.8-2c-0.4-1.7,0.8-2.1,1.8-1.9c1,0.2,1.3-0.5,1.3-0.5c0.4,0.8-0.2,1.4-0.2,1.4  c1.2-0.2,1.5-2,1.5-2c0.5,2.9-1.1,4-3,3.6c-1.7-0.3-2.3,0.5-2.3,1.3c-0.1,0.9,0.7,1.4,1.8,1.5c1.1,0.1,1.4,0.4,1.4,0.4  c0.4-0.7,1.2-0.5,1.2-0.5s-0.6,0.8-0.5,1.4c0.1,0.5,0.9,2.3-1.3,3.6c-0.8,0.5-1.8,0.6-2.7,0.4c0.5,1.3-1.2,2.3,0,2.9  c0,0-0.5,0.3-0.8,0l-0.1,0.5c0,0,0.7-0.1,1.4,0.2c1.3,0.7,1.8,0.1,1.8,0.1c0,0.6-0.4,0.9-0.4,0.9c1.5,0.2,1.2,0.9,0.5,1.7  c-0.6,0.7-0.7,1.4-0.4,1.7c0,0-0.4,0-0.5-0.5c0,0-0.6,0.6-0.2,1.1c0,0-0.3,0-0.5-0.4c0,0-0.6,0.6-0.2,1c0,0-0.4,0-0.5-0.3  c0,0-0.2,0.2-0.3,0.5c0,0,0.5,0.2,0.4,0.6c-0.1,0.4-0.7,0.5-1.2,0.2c0,0-0.2,0.8-0.8,0.8c-0.2,0-0.3,0-0.5-0.2  c-0.2-0.2-0.1-0.4-0.1-0.4S76.5,58.3,76.2,57.7z M74.7,33.4c-0.3-0.1-0.1-0.4-0.1-0.4s0.2,0.4,1.1,0.2  C75.7,33.3,75.1,33.6,74.7,33.4z M75.3,33.1c-0.4,0-0.2-0.3-0.1-0.4c0.1-0.1-0.1-0.3-0.4-0.1c-0.1,0.1-0.3-0.1-0.3-0.1  s0.3-0.3,0.8-0.4c0,0,0.3,0.7,0.9,0.9C76.1,33,75.7,33.1,75.3,33.1z"/>
<g>
	<path fill="#990000" d="M68.2,19.6c0,0-0.6,0.1-0.8,0.5l0.5,1.1C67.9,21.2,67.6,20.1,68.2,19.6z"/>
	<path fill="#990000" d="M80.8,20.2c0,0,0.2-0.3,0.9-0.1c0,0-0.7,0.2-0.8,1.1L80.8,20.2z"/>
	<path fill="#990000" d="M75.5,18.8c0,0-0.6-0.2-1.1,0.2l0.2,1.5C74.6,20.5,74.7,19.1,75.5,18.8z"/>
	<path fill="#990000" d="M63.6,22.9c-0.3-0.6-0.2-1.2-0.2-1.2c-0.4,0.3-0.4,0.6-0.4,0.6C63.3,22.5,63.5,22.8,63.6,22.9z"/>
	<path fill-rule="evenodd" clip-rule="evenodd" fill="#990000" d="M74.3,24.3c-0.5,0.3-1,0.6-1.6,0.9c0,0,0,0,0,0   c0.5,0.3,1,0.5,1.5,0.8c0.5-0.3,0.9-0.6,1.5-0.8c0,0,0,0,0,0C75.3,24.8,74.8,24.6,74.3,24.3z"/>
	<g>
		<g>
			<path fill="#FFFFFF" d="M74.3,25.1c0-0.2,0-0.3,0-0.5c-0.3,0.2-0.6,0.3-0.8,0.5C73.8,25.1,74,25.1,74.3,25.1z"/>
		</g>
	</g>
	<path fill="#990000" d="M64.5,26.7l0.6,0.5c0.3-0.3,0.5-0.6,0.8-0.9c-0.4-0.1-0.7-0.2-1.1-0.3L64.5,26.7z"/>
	<path fill="#990000" d="M83,26.8l0.7-0.4l-0.3-0.7c0,0-0.6,0.2-1,0.3L83,26.8z"/>
</g>
<g>
	<g>
		<g>
			<path fill-rule="evenodd" clip-rule="evenodd" fill="#000066" d="M75,35c-0.4-0.3-1-0.6-2-0.2c-1.5,0.6-1.8,0.3-1.9-0.4     c0,0-0.6,0.8-0.1,1.3c0.8,0.8,1.7-0.2,2.4-0.5c0.5-0.2,1-0.1,1.5,0.1C74.9,35.2,74.9,35.1,75,35L75,35z"/>
			<path fill="#000066" d="M67.5,54.1c-0.2-0.3-0.6-0.3-0.9-0.1c-0.2,0.1-0.2,0.3-0.2,0.5c0-0.1,0.1-0.1,0.1-0.2     c0.3-0.3,0.6,0,0.6,0C67.4,54.4,67.5,54.1,67.5,54.1z"/>
			<path fill="#000066" d="M66.8,55.5c-0.3,0-0.6,0.2-0.7,0.5c0,0.2,0.1,0.4,0.2,0.5c0-0.1,0-0.1,0-0.2c0-0.4,0.4-0.4,0.4-0.4     C66.9,55.8,66.8,55.5,66.8,55.5z"/>
			<path fill="#000066" d="M67.5,56.8c-0.3,0.2-0.4,0.6-0.2,0.8c0.1,0.2,0.3,0.3,0.5,0.3c-0.1,0-0.1-0.1-0.1-0.1     c-0.2-0.3,0.1-0.6,0.1-0.6C67.8,56.9,67.5,56.8,67.5,56.8z"/>
			<path fill="#000066" d="M69.4,56.3c0.3,0.2,0.4,0.5,0.2,0.8c-0.1,0.2-0.3,0.3-0.5,0.3c0.1,0,0.1-0.1,0.1-0.2     c0.2-0.4-0.1-0.6-0.1-0.6C69.1,56.5,69.4,56.3,69.4,56.3z"/>
			<path fill="#000066" d="M77.4,55.9c-0.2-0.3-0.6-0.4-0.9-0.2c-0.2,0.1-0.3,0.3-0.3,0.5c0-0.1,0.1-0.1,0.1-0.2     c0.3-0.2,0.6,0,0.6,0C77.3,56.1,77.4,55.9,77.4,55.9z"/>
			<path fill="#000066" d="M76.6,57.2c-0.3-0.1-0.7,0.2-0.7,0.5c0,0.2,0,0.4,0.2,0.6c0-0.1,0-0.1,0-0.2c0.1-0.3,0.4-0.4,0.4-0.4     C76.5,57.5,76.6,57.2,76.6,57.2z"/>
			<path fill="#000066" d="M77.7,57.9c-0.3,0.2-0.4,0.6-0.2,0.9c0.1,0.2,0.3,0.3,0.5,0.3c-0.1,0-0.1-0.1-0.2-0.1     c-0.2-0.3,0-0.6,0-0.6C78,58.1,77.7,57.9,77.7,57.9z"/>
			<path fill="#000066" d="M79.6,57.3c0.3,0.2,0.4,0.6,0.2,0.9c-0.1,0.2-0.3,0.3-0.5,0.3c0.1,0,0.1-0.1,0.2-0.2c0.2-0.3,0-0.6,0-0.6     C79.4,57.4,79.6,57.3,79.6,57.3z"/>
			<path fill="#000066" d="M67.2,34.1c0.2-0.3,0.1-0.7-0.3-0.9c-0.2-0.1-0.4-0.1-0.6,0c0.1,0,0.1,0,0.2,0.1c0.4,0.2,0.2,0.5,0.2,0.5     C66.9,34.2,67.2,34.1,67.2,34.1z"/>
			<path fill="#000066" d="M65.5,34c-0.1-0.3-0.4-0.5-0.8-0.4c-0.2,0.1-0.4,0.2-0.4,0.4c0.1,0,0.1-0.1,0.2-0.1     c0.4-0.1,0.6,0.2,0.6,0.2C65.4,34.2,65.5,34,65.5,34z"/>
			<path fill="#000066" d="M64.7,35.5c-0.3-0.2-0.7-0.2-0.9,0.1c-0.1,0.2-0.2,0.4-0.1,0.6c0-0.1,0-0.1,0.1-0.2     c0.3-0.3,0.6-0.1,0.6-0.1C64.7,35.8,64.7,35.5,64.7,35.5z"/>
			<path fill="#000066" d="M65.8,37c-0.2,0.3-0.6,0.5-0.9,0.3c-0.2-0.1-0.3-0.3-0.3-0.5c0,0.1,0.1,0.1,0.2,0.1     c0.4,0.2,0.6-0.1,0.6-0.1C65.6,36.8,65.8,37,65.8,37z"/>
			<path fill="#000066" d="M65.7,44.8c-0.2-0.3-0.6-0.4-0.9-0.2c-0.2,0.1-0.3,0.3-0.3,0.5c0-0.1,0.1-0.1,0.2-0.1     c0.4-0.2,0.7,0.1,0.7,0.1C65.7,45,65.7,44.8,65.7,44.8z"/>
			<path fill="#000066" d="M65.1,46.3c-0.3-0.1-0.7,0.1-0.8,0.4c-0.1,0.2,0,0.4,0.1,0.6c0-0.1,0-0.1,0-0.2c0.1-0.4,0.5-0.4,0.5-0.4     C65.1,46.5,65.1,46.3,65.1,46.3z"/>
			<path fill="#000066" d="M66.1,47.5c-0.3,0.1-0.5,0.5-0.3,0.8c0.1,0.2,0.3,0.3,0.4,0.4c-0.1,0-0.1-0.1-0.1-0.2     c-0.1-0.4,0.1-0.6,0.1-0.6C66.3,47.6,66.1,47.5,66.1,47.5z"/>
			<path fill="#000066" d="M67.9,47.3c0.2,0.3,0.1,0.7-0.1,0.9c-0.2,0.1-0.4,0.2-0.6,0.1c0.5-0.1,0.4-0.7,0.4-0.7     C67.6,47.4,67.9,47.3,67.9,47.3z"/>
			<path fill="#000066" d="M88.5,33.7c0.2-0.4,0.1-1-0.2-1.2c-0.2-0.2-0.4-0.2-0.7-0.1c0.1,0,0.2,0,0.2,0.1c0.4,0.3,0.2,0.8,0.2,0.8     C88.1,33.6,88.5,33.7,88.5,33.7z"/>
			<path fill="#000066" d="M87.2,60.1c-0.4-0.3-1-0.2-1.3,0.2c-0.2,0.2-0.2,0.5-0.1,0.8c0-0.1,0.1-0.2,0.1-0.3     c0.3-0.4,0.8-0.2,0.8-0.2C87.3,60.5,87.2,60.1,87.2,60.1z"/>
			<path fill="#000066" d="M85.6,59.7c-0.5-0.2-1,0.1-1.2,0.5c-0.1,0.3-0.1,0.6,0.1,0.8c0-0.1,0-0.3,0-0.3c0.2-0.4,0.7-0.3,0.7-0.3     C85.7,60.1,85.6,59.7,85.6,59.7z"/>
			<path fill="#000066" d="M86.1,58.7c-0.3-0.3-0.9-0.3-1.2,0c-0.2,0.2-0.2,0.4-0.2,0.6c0-0.1,0.1-0.2,0.2-0.3c0.4-0.3,0.8,0,0.8,0     C86,59,86.1,58.7,86.1,58.7z"/>
			<path fill="#000066" d="M104.1,59.9c-0.3-0.2-0.8-0.3-1.1,0c-0.2,0.2-0.2,0.5-0.1,0.6c0,0,0-0.1,0.1-0.2c0.3-0.3,0.7,0.1,0.7,0.1     C104.1,60.2,104.1,59.9,104.1,59.9z"/>
			<path fill="#000066" d="M88.5,50.5c0,0,0.2,0.3,0,0.7c-0.1,0.1-0.1,0.2-0.2,0.2c0.3,0,0.5-0.2,0.6-0.4c0.1-0.3,0.1-0.7-0.2-1.2     C88.6,50,88.5,50.3,88.5,50.5z"/>
			<path fill="#000066" d="M87.1,51c0,0,0.2,0.5-0.2,0.7c-0.1,0.1-0.2,0.1-0.2,0.1c0.2,0.1,0.5,0.1,0.7-0.1c0.2-0.2,0.4-0.6,0.2-1.3     C87.2,50.7,87.2,50.8,87.1,51z"/>
			<path fill="#000066" d="M85.8,50.2c0.1-0.2,0.2-0.4,0.1-0.7c-0.5,0.2-0.8,0.7-0.7,1c0,0.3,0.2,0.5,0.5,0.6     c-0.1-0.1-0.1-0.2-0.1-0.3C85.4,50.3,85.8,50.2,85.8,50.2z"/>
			<path fill="#000066" d="M86,47.6c-0.6-0.2-1.1,0.2-1.2,0.5c-0.1,0.3,0,0.5,0.1,0.8c0-0.1,0-0.2,0-0.3c0.1-0.3,0.6-0.4,0.6-0.4     C85.9,48.1,86.1,47.9,86,47.6z"/>
			<path fill="#000066" d="M93,32.6c0,0,0,0.5,0.3,0.9c0,0,0.1-0.2,0.2-0.5c0-0.1,0.1-0.2,0.1-0.3c0-0.1,0.1-0.2,0.1-0.3     C93.7,32.4,93.2,32.3,93,32.6z"/>
			<path fill="#000066" d="M93.2,35.8c0-0.2,0.1-0.5,0.3-0.8c0,0,0,0.2,0.1,0.5c0,0.1,0.1,0.4,0.1,0.4C93.5,36,93.2,35.8,93.2,35.8z     "/>
			<path fill="#000066" d="M105.6,61.1c-0.5-0.2-1,0-1.1,0.4c-0.1,0.2,0,0.5,0.2,0.8c0-0.1,0-0.2,0-0.3c0.1-0.4,0.7-0.2,0.7-0.2     C105.7,61.6,105.6,61.1,105.6,61.1z"/>
			<path fill="#000066" d="M103.8,61c0,0-1-0.4-1.3,0.4c-0.1,0.3,0,0.6,0.2,0.8c0-0.1,0-0.3,0-0.4c0.1-0.3,0.5-0.3,0.8-0.2     C103.5,61.6,103.9,61.4,103.8,61z"/>
			<path fill="#000066" d="M95.6,34.3c0-0.1,0-0.2,0-0.3c-0.4-0.3-1.2-0.5-2.3,0c-0.9,0.4-1.6,0.7-1.9,0.1c0,0,0.6-0.4,0.4-1.1     c-0.3-0.8-1.2-0.6-1.5,0c-0.5,1.1,0.2,2.4,1.6,2.2c0.9-0.1,1.5-1,2.6-1C94.9,34.2,95.3,34.2,95.6,34.3z"/>
			<path fill="#000066" d="M60.2,33.7c-0.2-0.4-0.1-1,0.2-1.2c0.2-0.2,0.4-0.2,0.7-0.1c-0.1,0-0.2,0.1-0.2,0.1     c-0.3,0.2-0.4,0.4-0.2,0.8C60.7,33.6,60.2,33.7,60.2,33.7z"/>
			<path fill="#000066" d="M60.1,50.6c0,0.2,0,0.4,0.2,0.6c0.1,0.1,0.1,0.1,0.2,0.2c-0.3,0-0.5-0.1-0.7-0.3c-0.2-0.2-0.3-0.6,0-1.2     C60,50.1,60.2,50.3,60.1,50.6z"/>
			<path fill="#000066" d="M61.5,51.3c0,0.3,0.2,0.5,0.4,0.6c0.1,0,0.2,0.1,0.3,0.1c-0.2,0.1-0.5,0.2-0.7,0     c-0.3-0.1-0.6-0.6-0.5-1.3C61.3,50.9,61.5,51.1,61.5,51.3z"/>
			<path fill="#000066" d="M63,50.2c-0.2-0.2-0.2-0.4-0.1-0.7c0.5,0.2,0.8,0.7,0.7,1c0,0.3-0.2,0.5-0.5,0.6c0.1-0.1,0.1-0.2,0.1-0.3     C63.3,50.6,63.2,50.3,63,50.2z"/>
			<path fill="#000066" d="M62.6,47.6c0.6-0.2,1.1,0.2,1.2,0.5c0.1,0.3,0,0.5-0.1,0.8c0-0.1,0-0.2,0-0.3c-0.1-0.2-0.3-0.4-0.5-0.4     C62.8,48,62.6,47.9,62.6,47.6z"/>
			<path fill="#000066" d="M44.3,60c0.4-0.3,1-0.4,1.3-0.1c0.2,0.2,0.2,0.4,0.1,0.7c0-0.1-0.1-0.1-0.1-0.2c-0.3-0.4-0.9-0.1-0.9-0.1     C44.4,60.2,44.3,60,44.3,60z"/>
			<path fill="#000066" d="M44.5,61.1c0.6-0.2,1.2-0.1,1.3,0.4c0.1,0.3,0,0.6-0.2,0.8c0-0.1,0-0.2,0-0.3c-0.2-0.5-0.8-0.3-0.8-0.3     C44.4,61.5,44.5,61.1,44.5,61.1z"/>
			<path fill="#000066" d="M42.8,61.3c0.5-0.2,1,0,1.1,0.4c0.1,0.3,0,0.5-0.2,0.8c0,0,0-0.2,0-0.3c-0.2-0.5-0.6-0.3-0.6-0.3     C42.8,61.6,42.8,61.3,42.8,61.3z"/>
			<path fill="#000066" d="M61.7,60.1c0,0,0.7-0.4,1.3,0.2c0.2,0.2,0.2,0.5,0.1,0.8c-0.1-0.5-0.6-0.7-1-0.5     C62.1,60.6,61.7,60.6,61.7,60.1z"/>
			<path fill="#000066" d="M63,59.6c0,0,0.9-0.2,1.2,0.5c0.1,0.3,0,0.7-0.1,0.8c0.1-0.6-0.4-0.8-0.8-0.7     C63.3,60.2,62.9,60.1,63,59.6z"/>
			<path fill="#000066" d="M62.7,58.7c0,0,0.7-0.4,1.2,0.1c0.2,0.2,0.2,0.4,0.1,0.7c-0.1-0.4-0.6-0.5-1-0.3     C63,59.1,62.7,59.1,62.7,58.7z"/>
			<path fill="#000066" d="M55.5,35.7c0-0.2-0.1-0.5-0.3-0.8c0,0,0,0.2-0.1,0.5c0,0.1-0.1,0.4-0.1,0.4C55.2,36,55.5,35.7,55.5,35.7z     "/>
			<path fill="#000066" d="M55.7,32.6c0,0,0,0.5-0.3,0.9c0,0-0.1-0.2-0.2-0.5c-0.1-0.2-0.2-0.4-0.3-0.6C55,32.4,55.5,32.2,55.7,32.6     z"/>
			<path fill="#000066" d="M53.2,34.2c0-0.1,0-0.1,0-0.2c0.5-0.3,1.4-0.6,2.4-0.1c0.9,0.4,1.6,0.7,1.9,0.1c0,0-0.6-0.4-0.4-1.1     c0.3-0.8,1.2-0.6,1.5,0c0.5,1.1-0.2,2.4-1.6,2.2c-0.9-0.1-1.5-1-2.6-1C54,34.1,53.5,34.2,53.2,34.2z"/>
			<path fill-rule="evenodd" clip-rule="evenodd" fill="#000066" d="M79.5,24.8c-0.5-0.1-0.9,0.2-1.1,0.5c0,0,0,0.1,0,0.1     c0,0.4,0.3,0.8,0.9,0.9c0.5,0.1,1-0.2,1.1-0.6c0-0.1,0-0.2,0-0.3C80.3,25.1,80,24.9,79.5,24.8z"/>
			<path fill-rule="evenodd" clip-rule="evenodd" fill="#000066" d="M69.3,24.8c-0.5,0.1-0.9,0.4-0.9,0.8c0,0.1,0,0.1,0,0.2     c0.1,0.4,0.6,0.7,1.1,0.6c0.6-0.1,0.9-0.5,0.9-0.9c0,0,0,0,0-0.1C70.3,25,69.8,24.7,69.3,24.8z"/>
		</g>
		<path fill="#FFFFFF" d="M68.8,25.4c0-0.1,0.1-0.3,0.3-0.3c0.2,0,0.4,0.1,0.4,0.2c0,0.1-0.1,0.3-0.3,0.3    C69,25.6,68.8,25.5,68.8,25.4z"/>
		<path fill="#FFFFFF" d="M79.2,25.5c-0.2,0-0.3-0.2-0.3-0.3c0-0.1,0.2-0.2,0.4-0.2c0.2,0,0.3,0.2,0.3,0.3    C79.5,25.5,79.4,25.6,79.2,25.5z"/>
	</g>
	<g>
		<g>
			<path fill="#FFFFFF" d="M83,21.9c0.2,0,0.5-0.2,0.6-0.6c0.2-0.4,0.1-0.8-0.1-0.9c-0.2-0.1-0.5,0.1-0.7,0.6     c-0.2,0.4-0.1,0.8,0,0.9L83,21.9z"/>
			<path fill="#FFFFFF" d="M77.7,20.5c0.3-0.1,0.6-0.4,0.7-0.9c0.1-0.6-0.1-1.1-0.4-1.2c-0.4-0.1-0.7,0.3-0.9,0.9     c-0.1,0.6,0.1,1,0.4,1.1L77.7,20.5z"/>
			<path fill="#FFFFFF" d="M70.7,20.5c0.3-0.1,0.5-0.6,0.4-1.2c-0.1-0.6-0.5-1-0.9-0.9c-0.4,0.1-0.5,0.6-0.4,1.2     c0.1,0.5,0.4,0.8,0.7,0.9L70.7,20.5z"/>
			<path fill="#FFFFFF" d="M65.1,21.7c0.2-0.1,0.2-0.5,0-0.9c-0.2-0.4-0.5-0.6-0.8-0.5c-0.2,0.1-0.2,0.5,0,0.9     c0.2,0.4,0.5,0.6,0.7,0.6L65.1,21.7z"/>
		</g>
		<g>
			<path fill="#9C9FC7" d="M83.2,21.3c-0.1,0-0.1-0.1-0.1-0.1c0,0,0,0,0,0c-0.1,0.2-0.1,0.4,0,0.4c0.1,0,0.3-0.1,0.4-0.3     c0-0.1,0-0.1,0.1-0.2C83.4,21.3,83.3,21.3,83.2,21.3z"/>
			<path fill="#9C9FC7" d="M65.1,21c0-0.1-0.1-0.2-0.1-0.2c0.1,0.2,0,0.4-0.1,0.5c-0.1,0-0.1,0-0.2,0c0.1,0.2,0.2,0.3,0.4,0.2     C65.1,21.4,65.1,21.2,65.1,21z"/>
			<path fill="#9C9FC7" d="M70.9,19.6c0-0.2-0.1-0.4-0.2-0.5c0,0.1,0,0.1,0,0.2c0,0.3-0.2,0.5-0.4,0.5c0,0-0.1,0-0.1,0     c0.1,0.2,0.2,0.4,0.4,0.4C70.7,20.1,70.9,19.9,70.9,19.6z"/>
			<path fill="#B3913F" d="M78,19.2C78,19.3,78,19.3,78,19.2c-0.1,0.3-0.3,0.5-0.5,0.5c0,0-0.1,0-0.1,0c0,0.2,0,0.4,0.2,0.5     c0.2,0,0.4-0.1,0.5-0.4C78.1,19.5,78.1,19.3,78,19.2z"/>
		</g>
	</g>
</g>
<g>
	<path fill="#63212C" d="M113.9,61.9l-1,4.1c-0.2-0.1-0.4-0.2-0.7-0.2l0.6-2.4v0c0.1-0.2-0.1-0.3-0.4-0.5l-1.1,4.4   c-0.2,0.3-0.8,0.4-1.7,0.2c-0.7-0.2-3.4-1-5.2-1c-1.8,0-4.9,0.9-5.4,1c-0.3,0.1-0.8,0.1-1.2-0.1l0.1,0.4c0.2,0.4,1,0.5,1.5,0.4   c0.5-0.1,3.6-1,5.4-1c1.8,0,4.4,0.8,5.2,1c0.7,0.2,1.6,0,1.7-0.3l0.4-1.7c0.6,0.2,1.2,0.4,1.2,0.4l1.1-4.5   C114.3,62,114.1,62,113.9,61.9z"/>
	<path fill="#63212C" d="M38.4,67.5c0.3,0.1,0.8,0.1,1.2,0c0.7-0.1,3.4-1,5.2-1c1.8,0,4.9,0.9,5.4,1c0.5,0.1,1.3,0.1,1.5-0.4   l1.1-4.4c0.4,0.1,0.7,0.3,0.6,0.5l-0.3,1.2h0l-0.1,0.6c3.8-0.3,10.1,0.8,21.4,0.8c11,0,18.6-0.9,22.3-0.7l0.2,0.6   c-4.2-0.2-11.6,0.8-22.5,0.8c-11.8,0-18.3-1.2-21.5-0.7l-0.5,2.1c-0.2,0.4-1,0.5-1.5,0.4c-0.5-0.1-3.6-1-5.4-1   c-1.8,0-4.4,0.8-5.2,1c-0.7,0.1-1.6,0-1.7-0.3L38.4,67.5z"/>
</g>
</svg>