<?xml version="1.0" encoding="UTF-8" standalone="no"?>
<!-- Created with Inkscape (http://www.inkscape.org/) -->
<svg xmlns:dc="http://purl.org/dc/elements/1.1/" xmlns:cc="http://creativecommons.org/ns#" xmlns:rdf="http://www.w3.org/1999/02/22-rdf-syntax-ns#" xmlns:svg="http://www.w3.org/2000/svg" xmlns="http://www.w3.org/2000/svg" xmlns:sodipodi="http://sodipodi.sourceforge.net/DTD/sodipodi-0.dtd" xmlns:inkscape="http://www.inkscape.org/namespaces/inkscape" id="svg2985" version="1.1" inkscape:version="0.48.5 r10040" width="1000" height="236.94414" xml:space="preserve" sodipodi:docname="Coalitieakkoord-2015-2019.pdf"><metadata id="metadata2991"><rdf:RDF><cc:Work rdf:about=""><dc:format>image/svg+xml</dc:format><dc:type rdf:resource="http://purl.org/dc/dcmitype/StillImage"/><dc:title/></cc:Work></rdf:RDF></metadata><defs id="defs2989"><clipPath clipPathUnits="userSpaceOnUse" id="clipPath2999"><path d="m 34.016,764.271 175.748,0 0,44.618 -175.748,0 0,-44.618 z" id="path3001" inkscape:connector-curvature="0"/></clipPath><clipPath clipPathUnits="userSpaceOnUse" id="clipPath3089"><path d="m 0,0 595.276,0 0,841.89 L 0,841.89 0,0 z" id="path3091" inkscape:connector-curvature="0"/></clipPath><clipPath clipPathUnits="userSpaceOnUse" id="clipPath3097"><path d="m 69.8661,708.386 455.5429,0 0,-636.7482 -455.5429,0 0,636.7482 z" id="path3099" inkscape:connector-curvature="0"/></clipPath><clipPath clipPathUnits="userSpaceOnUse" id="clipPath3165"><path d="m 465.181,713.68 113.387,0 0,101.616 -113.387,0 0,-101.616 z" id="path3167" inkscape:connector-curvature="0"/></clipPath><clipPath clipPathUnits="userSpaceOnUse" id="clipPath3173"><path d="m 473.309,804.238 101.932,0 0,-81.229 -101.932,0 0,81.229 z" id="path3175" inkscape:connector-curvature="0"/></clipPath><clipPath clipPathUnits="userSpaceOnUse" id="clipPath3177"><path d="m 473.309,723.009 101.932,0 0,81.229 -101.932,0 0,-81.229 z" id="path3179" inkscape:connector-curvature="0"/></clipPath><clipPath clipPathUnits="userSpaceOnUse" id="clipPath3225"><path d="m 465.181,713.68 113.387,0 0,101.616 -113.387,0 0,-101.616 z" id="path3227" inkscape:connector-curvature="0"/></clipPath><clipPath clipPathUnits="userSpaceOnUse" id="clipPath3249"><path d="m 0,0 595.276,0 0,841.89 L 0,841.89 0,0 z" id="path3251" inkscape:connector-curvature="0"/></clipPath><clipPath clipPathUnits="userSpaceOnUse" id="clipPath3257"><path d="m 69.8661,689.999 376.0859,0 0,-474.243 -376.0859,0 0,474.243 z" id="path3259" inkscape:connector-curvature="0"/></clipPath><clipPath clipPathUnits="userSpaceOnUse" id="clipPath3261"><path d="m 70.866,216.756 337.26,0 0,472.243 -337.26,0 0,-472.243 z" id="path3263" inkscape:connector-curvature="0"/></clipPath></defs><sodipodi:namedview pagecolor="#ffffff" bordercolor="#666666" borderopacity="1" objecttolerance="10" gridtolerance="10" guidetolerance="10" inkscape:pageopacity="0" inkscape:pageshadow="2" inkscape:window-width="1058" inkscape:window-height="1039" id="namedview2987" showgrid="false" fit-margin-left="0.5" fit-margin-bottom="0.5" fit-margin-top="0.5" fit-margin-right="0.5" inkscape:zoom="0.52155936" inkscape:cx="568.79682" inkscape:cy="-122.82787" inkscape:window-x="854" inkscape:window-y="-18" inkscape:window-maximized="0" inkscape:current-layer="g2993"/><g id="g2993" inkscape:groupmode="layer" inkscape:label="Coalitieakkoord-2015-2019" transform="matrix(1.25,0,0,-1.25,-44.749256,1194.4171)"><g id="g2995" transform="matrix(4.6532372,0,0,4.6532372,-132.24499,-2799.7621)"><g id="g2997" clip-path="url(#clipPath2999)"><g id="g3003" transform="translate(72.6955,806.0397)"><path d="m 0,0 c -0.297,0 -0.535,0 -0.761,-0.012 l 0,-3.163 c 0.202,-0.036 0.428,-0.047 0.654,-0.047 1.189,0.011 1.95,0.653 1.95,1.664 C 1.843,-0.558 1.26,0 0,0 m -0.119,-4.127 c -0.202,0 -0.428,0 -0.642,0.024 l 0,-3.068 -1.094,0 0,8.027 c 0.595,0.024 1.248,0.047 1.974,0.047 1.843,0 2.865,-0.927 2.865,-2.354 0,-1.57 -1.284,-2.676 -3.103,-2.676" style="fill:#231f20;fill-opacity:1;fill-rule:nonzero;stroke:none" id="path3005" inkscape:connector-curvature="0"/></g><g id="g3007" transform="translate(80.31,804.2561)"><path d="m 0,0 c -0.262,0 -0.44,-0.013 -0.619,-0.036 l 0,-1.938 c 0.191,-0.012 0.429,-0.025 0.655,-0.025 0.749,0 1.236,0.417 1.236,1.059 C 1.272,-0.31 0.785,0 0,0 m -0.571,-2.736 -0.048,0 0,-2.652 -1.081,0 0,6.185 c 0.404,0.023 1.105,0.035 1.843,0.035 1.438,0 2.271,-0.57 2.271,-1.665 0,-1.047 -0.785,-1.665 -1.856,-1.772 0.156,-0.166 0.333,-0.403 0.537,-0.653 l 1.675,-2.13 -1.355,0 -1.986,2.652 z" style="fill:#231f20;fill-opacity:1;fill-rule:nonzero;stroke:none" id="path3009" inkscape:connector-curvature="0"/></g><g id="g3011" transform="translate(88.555,804.2202)"><path d="m 0,0 c -1.011,0 -1.903,-0.772 -1.903,-2.224 0,-1.261 0.512,-2.284 1.867,-2.284 1.082,0 1.939,0.738 1.939,2.214 C 1.903,-0.797 1.165,0 0,0 m -0.107,-5.446 c -2.01,0 -2.95,1.295 -2.95,3.127 0,2.045 1.452,3.247 3.14,3.247 1.82,0 2.985,-1.083 2.985,-3.128 0,-2.07 -1.427,-3.246 -3.175,-3.246" style="fill:#231f20;fill-opacity:1;fill-rule:nonzero;stroke:none" id="path3013" inkscape:connector-curvature="0"/></g><g id="g3015" transform="translate(96.1227,801.6039)"><path d="m 0,0 c 0.202,-0.512 0.381,-1.047 0.524,-1.581 l 0.011,0 c 0.167,0.523 0.333,1.069 0.523,1.545 l 1.368,3.486 1.13,0 -2.426,-6.186 -1.237,0 -2.402,6.186 1.201,0 L 0,0 z" style="fill:#231f20;fill-opacity:1;fill-rule:nonzero;stroke:none" id="path3017" inkscape:connector-curvature="0"/></g><path d="m 102.263,805.053 1.083,0 0,-6.184 -1.083,0 0,6.184 z" style="fill:#231f20;fill-opacity:1;fill-rule:nonzero;stroke:none" id="path3019" inkscape:connector-curvature="0"/><g id="g3021" transform="translate(111.0779,798.8685)"><path d="M 0,0 -2.331,3.627 C -2.581,4.008 -2.83,4.46 -3.009,4.841 l -0.011,0 c 0.024,-0.394 0.046,-0.809 0.046,-1.475 l 0,-3.366 -1.046,0 0,6.184 1.427,0 2.296,-3.567 C -0.036,2.224 0.214,1.797 0.428,1.38 l 0.011,0 C 0.405,1.784 0.393,2.45 0.393,3.366 l -0.012,2.818 1.058,0 L 1.439,0 0,0 z" style="fill:#231f20;fill-opacity:1;fill-rule:nonzero;stroke:none" id="path3023" inkscape:connector-curvature="0"/></g><g id="g3025" transform="translate(118.6697,798.7853)"><path d="m 0,0 c -1.986,0 -3.02,1.154 -3.02,3.044 0,1.772 0.998,3.306 3.282,3.306 0.44,0 0.951,-0.059 1.379,-0.178 L 1.534,5.208 C 1.071,5.351 0.607,5.435 0.155,5.435 c -1.344,0 -2.022,-0.988 -2.022,-2.283 0,-1.428 0.75,-2.2 2.093,-2.2 0.488,0 0.999,0.119 1.379,0.297 L 1.7,0.297 C 1.201,0.107 0.619,0 0,0" style="fill:#231f20;fill-opacity:1;fill-rule:nonzero;stroke:none" id="path3027" inkscape:connector-curvature="0"/></g><path d="m 123.453,805.053 1.083,0 0,-6.184 -1.083,0 0,6.184 z" style="fill:#231f20;fill-opacity:1;fill-rule:nonzero;stroke:none" id="path3029" inkscape:connector-curvature="0"/><g id="g3031" transform="translate(129.2953,799.737)"><path d="m 0,0 2.414,0 0,-0.869 -3.497,0 0,6.185 3.497,0 0,-0.844 -2.414,0 0,-1.749 2.294,0 0,-0.82 L 0,1.903 0,0 z" style="fill:#231f20;fill-opacity:1;fill-rule:nonzero;stroke:none" id="path3033" inkscape:connector-curvature="0"/></g><g id="g3035" transform="translate(144.0607,805.9922)"><path d="m 0,0 0,-2.605 2.842,0 0,-0.88 -2.842,0 0,-3.639 -1.095,0 0,8.027 4.091,0 L 2.996,0 0,0 z" style="fill:#231f20;fill-opacity:1;fill-rule:nonzero;stroke:none" id="path3037" inkscape:connector-curvature="0"/></g><g id="g3039" transform="translate(151.163,799.7961)"><path d="m 0,0 2.212,0 0,-0.928 -3.294,0 0,6.185 L 0,5.257 0,0 z" style="fill:#231f20;fill-opacity:1;fill-rule:nonzero;stroke:none" id="path3041" inkscape:connector-curvature="0"/></g><g id="g3043" transform="translate(156.1971,798.8685)"><path d="m 0,0 0,6.184 3.495,0 0,-0.844 -2.413,0 0,-1.749 2.295,0 0,-0.82 -2.295,0 0,-1.902 2.413,0 L 3.495,0 0,0 z" style="fill:#231f20;fill-opacity:1;fill-rule:nonzero;stroke:none" id="path3045" inkscape:connector-curvature="0"/></g><g id="g3047" transform="translate(164.5486,801.6039)"><path d="m 0,0 c 0.202,-0.512 0.381,-1.047 0.524,-1.581 l 0.011,0 c 0.167,0.523 0.334,1.069 0.523,1.545 l 1.368,3.486 1.13,0 -2.426,-6.186 -1.236,0 -2.403,6.186 1.201,0 L 0,0 z" style="fill:#231f20;fill-opacity:1;fill-rule:nonzero;stroke:none" id="path3049" inkscape:connector-curvature="0"/></g><g id="g3051" transform="translate(173.1393,804.2202)"><path d="m 0,0 c -1.011,0 -1.903,-0.772 -1.903,-2.224 0,-1.261 0.512,-2.284 1.867,-2.284 1.083,0 1.939,0.738 1.939,2.214 C 1.903,-0.797 1.166,0 0,0 m -0.107,-5.446 c -2.01,0 -2.949,1.295 -2.949,3.127 0,2.045 1.451,3.247 3.139,3.247 1.82,0 2.985,-1.083 2.985,-3.128 0,-2.07 -1.427,-3.246 -3.175,-3.246" style="fill:#231f20;fill-opacity:1;fill-rule:nonzero;stroke:none" id="path3053" inkscape:connector-curvature="0"/></g><g id="g3055" transform="translate(179.2918,798.8685)"><path d="m 0,0 0,6.184 1.082,0 0,-5.256 2.212,0 L 3.294,0 0,0 z" style="fill:#231f20;fill-opacity:1;fill-rule:nonzero;stroke:none" id="path3057" inkscape:connector-curvature="0"/></g><g id="g3059" transform="translate(187.8447,802.9005)"><path d="m 0,0 c -0.131,0.345 -0.25,0.725 -0.345,1.022 l -0.011,0 C -0.428,0.713 -0.547,0.356 -0.678,0.012 l -0.761,-1.95 2.189,0 L 0,0 z m 1.51,-4.031 -0.487,1.295 -2.746,0 -0.488,-1.295 -1.095,0 2.403,6.184 1.236,0 2.379,-6.184 -1.202,0 z" style="fill:#231f20;fill-opacity:1;fill-rule:nonzero;stroke:none" id="path3061" inkscape:connector-curvature="0"/></g><g id="g3063" transform="translate(197.3861,798.8685)"><path d="M 0,0 -2.331,3.627 C -2.581,4.008 -2.83,4.46 -3.008,4.841 l -0.013,0 c 0.025,-0.394 0.047,-0.809 0.047,-1.475 l 0,-3.366 -1.046,0 0,6.184 1.427,0 2.296,-3.567 C -0.036,2.224 0.214,1.797 0.428,1.38 l 0.011,0 C 0.404,1.784 0.393,2.45 0.393,3.366 l -0.012,2.818 1.058,0 L 1.439,0 0,0 z" style="fill:#231f20;fill-opacity:1;fill-rule:nonzero;stroke:none" id="path3065" inkscape:connector-curvature="0"/></g><g id="g3067" transform="translate(204.4788,804.2086)"><path d="m 0,0 c -0.262,0 -0.606,-0.013 -0.88,-0.024 l 0,-4.412 c 0.191,-0.024 0.56,-0.036 0.832,-0.036 1.403,0 2.379,0.701 2.379,2.248 C 2.331,-0.75 1.547,0 0,0 m -0.167,-5.376 c -0.736,0 -1.296,0.025 -1.795,0.036 l 0,6.185 c 0.523,0 1.415,0.023 2.117,0.023 2.033,0 3.317,-0.892 3.317,-3.034 0,-2.199 -1.557,-3.21 -3.639,-3.21" style="fill:#231f20;fill-opacity:1;fill-rule:nonzero;stroke:none" id="path3069" inkscape:connector-curvature="0"/></g><path d="m 46.208,798.869 17.327,0 0,2.762 -17.327,0 0,-2.762 z" style="fill:#fbbf16;fill-opacity:1;fill-rule:nonzero;stroke:none" id="path3071" inkscape:connector-curvature="0"/><g id="g3073" transform="translate(36.3024,771.1634)"><path d="m 0,0 c 3.874,-2.995 8.319,-4.785 13.553,-4.785 5.167,0 9.744,1.824 13.591,4.748 l 0,4.099 C 23.603,0.458 19.015,-1.422 13.553,-1.422 7.985,-1.422 4.124,0.465 0,4.076 L 0,0" style="fill:#6ec72e;fill-opacity:1;fill-rule:nonzero;stroke:none" id="path3075" inkscape:connector-curvature="0"/></g><g id="g3077" transform="translate(36.8141,778.2875)"><path d="m 0,0 6.358,6.052 c 0,0 -3.637,1.638 -5.969,2.515 -0.609,0.288 -1.001,0.865 -1.001,1.534 l 0,3.253 c 0,-0.661 0.378,-1.138 1.007,-1.437 C 5.143,9.671 10.498,6.85 10.498,6.85 L 2.684,-2.069 C 1.779,-1.476 0.902,-0.763 0,0" style="fill:#1a66ba;fill-opacity:1;fill-rule:nonzero;stroke:none" id="path3079" inkscape:connector-curvature="0"/></g><g id="g3081" transform="translate(47.6904,773.0501)"><path d="m 0,0 c -1.41,0.266 -2.396,0.6 -3.54,0.954 l 2.941,5.278 c 0,0 3.368,6.494 10.47,6.418 0.67,-0.008 2.504,-0.137 2.504,-0.137 0,0 0.44,3.143 -6.35,3.461 -5.686,0.266 -8.161,3.725 -9.564,5.096 -1.636,1.6 -6.305,3.649 -6.836,3.865 -0.645,0.238 -1.116,0.938 -1.116,1.657 l 0,3.979 c 0,-0.721 0.407,-1.186 1.119,-1.492 0.442,-0.218 6.524,-3.569 8.243,-5.098 1.571,-1.396 4.388,-5.209 8.593,-5.206 l 0.341,0 c 1.95,0.004 6.061,1.529 8.005,2.53 0.299,0.137 0.865,0.397 1.025,0.966 l 0.003,-2.558 c 0,-0.678 -0.429,-0.761 -1.016,-1.025 -1.097,-0.563 -3.625,-1.697 -3.625,-1.697 0.245,-0.087 0.365,-0.138 0.549,-0.22 3.062,-1.51 3.335,-4.323 3.335,-4.323 l 0.165,-2.437 c 0,0 -2.633,0.551 -4.763,0.551 -5.861,0 -8.53,-5.95 -8.53,-5.95 L 0,0" style="fill:#1a66ba;fill-opacity:1;fill-rule:nonzero;stroke:none" id="path3083" inkscape:connector-curvature="0"/></g></g></g></g></svg>