<?xml version="1.0" encoding="UTF-8"?>
<!-- Generator: Adobe Illustrator 16.0.0, SVG Export Plug-In . SVG Version: 6.00 Build 0)  -->
<!DOCTYPE svg PUBLIC "-//W3C//DTD SVG 1.1//EN" "http://www.w3.org/Graphics/SVG/1.1/DTD/svg11.dtd">
<svg version="1.1" xmlns="http://www.w3.org/2000/svg" xmlns:xlink="http://www.w3.org/1999/xlink" x="0px" y="0px" width="1183.254px" height="231.165px" viewBox="0 0 1183.254 231.165" enable-background="new 0 0 1183.254 231.165" xml:space="preserve">
<g id="Guides">
</g>
<g id="Foreground">
	<path fill="#FCAF17" d="M173.264,35.303c0,0-9.65-8.362-10.479-13.093c-0.946-5.407,4.34-14.531,9.866-22.128   c8.481,6.333,17.112,15.239,18.059,20.646c0.827,4.73-5.992,14.575-5.992,14.575h23.18c-0.089-0.082-9.324-9.173-9.324-13.903   c0-5.407,7.427-14.228,14.962-21.399c7.536,7.172,14.961,15.992,14.961,21.399c0,4.73-9.235,13.822-9.324,13.903h23.18   c0,0-6.819-9.845-5.992-14.575c0.946-5.407,9.577-14.313,18.058-20.646c5.526,7.597,10.812,16.721,9.866,22.128   c-0.828,4.73-10.479,13.093-10.479,13.093h22.012c-1.378-3.066-5.932-9.453-3.105-15.862c3.438-7.793,19.779-20.628,25.504-19.264   c-9.459,13.344-13.695,23.788-17.588,35.126c2.278,3.806,2.102,10.587-0.027,14.239H146.469   c-2.129-3.651-2.305-10.433-0.027-14.239c-3.893-11.338-8.129-21.783-17.588-35.126c5.725-1.363,22.066,11.471,25.504,19.264   c2.827,6.409-1.728,12.796-3.105,15.862H173.264z"/>
	<polygon fill-rule="evenodd" clip-rule="evenodd" fill="#FCAF17" points="0,229.965 72.425,229.963 72.425,139.729    120.568,229.963 213.562,229.963 213.562,59.266 128.869,59.266 128.869,152.296 79.391,59.266 0,59.269  "/>
	<polygon fill-rule="evenodd" clip-rule="evenodd" fill="#0099DA" points="213.562,229.963 298.257,229.963 298.257,174.888    347.839,174.888 347.839,229.963 422.295,229.965 422.295,59.269 347.839,59.266 347.839,115.078 298.257,115.078 298.257,59.266    213.562,59.266  "/>
	<path fill="#ED1B2F" d="M185.883,206.827l-0.422-0.316c-2.271,1.477-4.225,1.373-6.494-0.58c0.475-6.971,4.282-7.431,10.137-6.179   c0.978,0.209,2.009,0.58,3.01,0.634c1.866,0.1,3.058-1.424,2.682-3.891c-0.566-3.715-0.845-5.994-0.889-8.183   c-4.7,0.979-10.085-1.149-14.328,2.185l-0.418,0.329c-5.952-8.788-6.747-25.076,2.43-32.765c-0.589-1.577-2.58-3.651-5.001-6.156   c-2.252-2.329-4.652-4.802-6.433-7.58c1.111-6.342,8.908-11.248,16.504-16.838c-2.416,7.315-1.223,11.959,2.474,18.906   c1.46,2.744,3.088,5.208,4.315,7.402c1.189,2.126,1.574,4.24,1.483,6.037c1.075,1.826,4.13,5.801,6.463,5.801   c1.671,0,2.616-1.283,2.616-3.039c0-9.706-14.348-16.28-14.348-28.624c0-8.655,5.402-12.658,10.465-12.658   c4.882,0,6.801,3.671,5.849,6.949c3.471,1.451,2.58,5.223,1.797,8.408c-1.178,4.793-1.06,7.612,1.266,13.603   c-1.972-0.212-6.538-6.385-8.675-11.272c-2.043-4.671-2.837-10.296,1.977-10.738c0.403-1.466-1.014-2.831-2.382-2.831   c-3.647,0-5.902,3.165-5.902,8.396c0,10.477,15.018,16.999,15.018,28.893c0,5.481-4.137,8.596-7.788,8.596   c-2.874,0-5.226-1.551-6.897-3.691c-0.54,7.811,5.162,10.264,12.299,9.575c-1.627,6.808-1.21,17.784,0.824,24.602   c-2.59,0.726-5.767,3.15-6.359,6.001c1.416,2.283,1.873,5.02,0.091,7.456c-3.305,0.816-6.069-2.832-7.389-5.948l-0.739-0.158   c-2.098,2.37-4.455,6.29-7.922,5.45C184.668,213.851,183.506,208.833,185.883,206.827z"/>
	<path fill-rule="evenodd" clip-rule="evenodd" fill="#0099DA" d="M174.926,208.871c-0.397-1.086,2.209-6.056,5.044-6.056   c1.689,0,2.22,4.045,1.443,4.545C181.027,207.608,177.815,207.143,174.926,208.871z"/>
	<path fill-rule="evenodd" clip-rule="evenodd" fill="#0099DA" d="M185.422,219.614c-1.162-0.514-3.039-6.625-0.877-8.906   c1.439-1.521,4.835,2.707,3.941,3.282C186.215,215.451,185.747,219.313,185.422,219.614z"/>
	<path fill-rule="evenodd" clip-rule="evenodd" fill="#0099DA" d="M200.522,221.122c0.987-0.082,3.614-4.101,1.707-7.911   c-0.698-1.396-5.652,0.05-4.776,1.097C198.801,215.919,200.859,218.491,200.522,221.122z"/>
	<path fill="#ED1B2F" d="M156.857,117.407c-1.64-5.054-2.62-11.994-7.447-13.355c2.537-2.957-0.216-7.413-0.688-7.095   c-2.457,1.657-5.796,2.711-8.003,0.403c-0.454-3.453,2.363-5.402,5.16-6.328l-0.02-0.394c-2.561-1.497-4.552-4.808-3.674-8.02   c2.274-1.543,5.146-0.785,6.786,0.77l0.258-0.256c-1.243-2.501-2.989-6.468-0.729-8.424c1.82-1.326,9.098-1.269,6.842,7.059   c-1.007,3.714-1.018,5.981,0.923,8.879c1.381,2.061,7.782,10.498,10.643,13.286c-0.381,0.243-0.761,0.495-1.138,0.755   C161.613,107.557,157.749,111.538,156.857,117.407z"/>
	<path fill-rule="evenodd" clip-rule="evenodd" fill="#0099DA" d="M144.167,71.84c3.095-0.67,7.876,1.417,7.601,3.495   c-0.233,1.757-4.257,2.102-4.342,1.592C147.126,75.123,144.479,73.664,144.167,71.84z"/>
	<path fill-rule="evenodd" clip-rule="evenodd" fill="#0099DA" d="M137.148,83.684c1.097-1.477,6.228-3.453,8.101-1.054   c1.304,1.671-2.316,5.063-2.644,4.407C141.371,84.564,138.624,84.971,137.148,83.684z"/>
	<path fill-rule="evenodd" clip-rule="evenodd" fill="#0099DA" d="M136.789,95.706c-0.422,0.38-0.292,4.342,6.236,2.911   c1.422-0.312,0.146-5.412-1.503-4.692C140.984,94.16,138.477,96.909,136.789,95.706z"/>
	<path fill="#0099DA" d="M184.344,94.761c-1.602-1.615-3.954-2-6.319-2c-3.63,0-6.267,1.822-9.454,1.976   c-3.025,0.146-5.001-1.1-6.003-2.926c-1.221-2.227-0.542-5.948,2.068-6.722c-0.702,2.576,0.186,6.429,5.063,6.429   c2.924,0,4.754-0.753,8.139-0.753c3.174,0,5.93,1.418,7.139,2.857L184.344,94.761z"/>
	<path fill="#ED1B2F" d="M174.688,95.461l0.249-0.486c6.479,3.356,11.31,0.091,9.252-6.5c-2.875-2.165-7.926-0.2-9.864,0.599   c-1.29-2.197-2.229-5.649-2.299-8.153c3.465-4.99,23.333-11.041,27.699-12.599c0.38,1.614-0.352,4.414-1.083,5.976   c2.262-0.864,5.287-1.396,7.488-0.808c0.166,3.435-0.399,6.6-3.065,10.191c1.846,1.48,3.439,5.497,3.439,10.324   c0,7.146-3.281,12.347-5.12,18.806c-0.618,2.174-0.759,3.703-0.572,5.926c-2.405-1.288-3.759-3.554-4.737-6.002   c-1.496,3.724-5.792,7.914-10.421,11.346c-8.388,6.223-18.501,12.6-18.227,19.831c-2.01-1.802-3.291-4.423-4.102-6.697   c-5.251,4.062-5.166,3.197-7.072,10.51c-0.517-1.005-2.039-3.016-3.502-2.9c-1.092,2.326-3.006,4.7-5.994,4.246   c-2.357-2.695-0.921-7.056,1.232-8.663L147.786,140c-2.647,0.356-6.907-0.909-7.774-3.896c0.403-2.727,4.131-3.559,6.113-3.502   v-0.474c-2.584-0.875-5.234-4.229-5.9-6.415c2.914-5.884,7.496-3.521,10.004,0.85c1.581,2.755,2.309,3.259,4.16,3.037   c1.68-0.202,3.537-2.251,5.246-3.894c-1.692-9.441,3.283-15.163,8.771-18.95c5.142-3.549,14.763-5.462,14.455-7.21   c-2.78,0.411-6.055,0.175-7.507-0.796C173.842,97.74,174.018,96.77,174.688,95.461z"/>
	<path fill-rule="evenodd" clip-rule="evenodd" fill="#FCAF17" d="M188.03,76.545c-2.624,0.873-5.721,1.959-8.23,3.25   c2.155,1.022,4.465,1.74,5.682,1.443C186.975,80.874,187.167,78.2,188.03,76.545z"/>
	<path fill-rule="evenodd" clip-rule="evenodd" fill="#0099DA" d="M135.596,125.738c0.74-1.273,5.874-4.113,7.935-1.91   c1.436,1.535-1.564,5.12-2.019,4.376C140.082,125.867,137.227,126.4,135.596,125.738z"/>
	<path fill-rule="evenodd" clip-rule="evenodd" fill="#0099DA" d="M141.562,148.67c-0.164,0.765,2.647,3.831,7.263,0.249   c1.356-1.054-2.021-5.207-3.169-3.802C145.02,145.894,144.366,148.268,141.562,148.67z"/>
	<path fill-rule="evenodd" clip-rule="evenodd" fill="#0099DA" d="M135.951,140.334c0.015-1.717,3.701-6.987,6.232-6.079   c1.974,0.709,1.452,5.265,0.469,4.774C140.207,137.812,137.479,140.371,135.951,140.334z"/>
	<path fill="#ED1B2F" d="M152.729,160.45c4.471-7.59,13.911-9.459,23.09-5.846c1.093,1.233,1.845,2.161,2.187,3.074   c-6.887,5.77-8.099,16.535-5.789,25.187c-3.944,2.708-7.475,4.942-10.305,9.113c-2.195-2.116-3.664-0.857-5.032-0.112   c-0.015,2.834-1.459,7.262-4.892,6.918c-3.085-2.204-2.742-7.49-1.631-9.979l-0.446-0.455c-2.753,1.084-6.756,0.85-8.838-1.835   c0.678-2.94,3.253-4.715,5.398-5.115l0.047-0.408c-2.622-0.564-3.337-3.34-3.984-5.433c1.163-1.278,2.629-1.993,4.596-1.993   c3.62,0,5.31,2.092,6.554,4.214c0.477,0.813,1.536,3.702,2.69,3.702c3.264,0,4.784-3.219,5.563-4.875   C157.796,173.229,152.805,165.932,152.729,160.45z"/>
	<path fill-rule="evenodd" clip-rule="evenodd" fill="#0099DA" d="M137.751,176.107c0.239-0.966,5.494-3.148,7.728-1.368   c1.331,1.061-0.411,4-1.695,4.106C143.329,178.884,140.44,176.421,137.751,176.107z"/>
	<path fill-rule="evenodd" clip-rule="evenodd" fill="#0099DA" d="M138.025,191.1c-0.593-0.96,1.518-6.856,4.466-7.018   c2.076-0.113,2.468,4.505,1.56,4.477C141.367,188.476,138.75,190.902,138.025,191.1z"/>
	<path fill-rule="evenodd" clip-rule="evenodd" fill="#0099DA" d="M147.288,202.061c0.523,0.358,6.991,0.014,7.258-4.45   c0.137-2.292-4.68-3.769-4.598-1.837C150.037,197.891,149.291,200.531,147.288,202.061z"/>
	<g>
		<polygon fill="#FCAF17" points="223.562,68.41 241.833,68.41 241.833,75.079 223.562,75.079 223.562,68.41   "/>
		<path fill="#FCAF17" d="M232.698,71.744"/>
	</g>
	<g>
		<polygon fill="#FCAF17" points="263.877,68.41 282.147,68.41 282.147,75.079 263.877,75.079 263.877,68.41   "/>
		<path fill="#FCAF17" d="M273.012,71.744"/>
	</g>
	<g>
		<polygon fill="#FCAF17" points="223.562,141.123 241.833,141.123 241.833,147.791 223.562,147.791 223.562,141.123   "/>
		<path fill="#FCAF17" d="M232.698,144.457"/>
	</g>
	<g>
		<polygon fill="#FCAF17" points="263.877,141.123 282.147,141.123 282.147,147.791 263.877,147.791 263.877,141.123   "/>
		<path fill="#FCAF17" d="M273.012,144.457"/>
	</g>
	<g>
		<polygon fill="#FCAF17" points="221.021,214.454 239.292,214.454 239.292,221.122 221.021,221.122 221.021,214.454   "/>
		<path fill="#FCAF17" d="M230.156,217.788"/>
	</g>
	<path fill="#FCAF17" d="M228.994,107.758c-1.116-1.151-1.246-2.197-1.604-3.921c-0.358-1.73-0.894-3.887-3.084-6.697   c-2.06,1.031-3.423,0.907-5.319,0.061c1.809-1.729,2.961-3.305,3.413-4.196c-1.471-0.538-3.272-1.354-4.366-2.218   c1.104-1.712,2.793-2.422,4.713-2.916c-1.32-1.355-2.347-3.147-3.101-4.562c5.422-2.13,7.93,1.133,8.243,6.559   c0.098,1.083,0.916,2.05,1.535,2.852c0.609,0.79,1.812,2.014,2.733,3.111l-0.271,2.276   C231.473,101.476,230.862,105.446,228.994,107.758z"/>
	<path fill="#FCAF17" d="M233.188,114.857c-3.438,1.558-6.481,1.072-7.807-1.455c7.09-1.186,8.658-7.821,9.389-13.777   c0.441-3.595,0.773-6.827,1.057-9.684c0.239-2.403,0.506-4.575,1.042-5.891c-1.538-1.743-1.009-4.696-1.112-6.355   c2.056,0.096,4.469,1.055,6.012,2.57c1.78-0.538,4.714-0.575,6.757,0.019c1.727-1.862,4.665-2.515,6.962-2.17   c-1.15,1.808-0.957,4.107-2.134,5.497c1.602,3.691,1.816,12.532,2.271,16.835c-0.762,6.766-6.81,12.625-11.713,16.267   c0.036,1.049,0.353,2.038,0.333,3.1c-1.59,2.537-3.184,3.372-5.413,5.111c-1.832,1.429-3.993,3.345-5.95,7.399   c1.053,2.956-0.194,4.953-3.126,6.166c-0.154-1.369-0.401-3.79-1.759-4.571c-1.077,1.438-2.82,2.667-4.741,2.774   c-0.659-1.551-0.597-3.546,0.03-4.986c-1.629,0.411-3.291,0.72-4.869-0.052c0.933-5.587,4.338-5.528,8.546-5.63   c0.391-0.009,1.359-0.018,1.66-0.344C230.58,123.823,233.188,114.857,233.188,114.857z"/>
	<path fill="#FCAF17" d="M265.315,130.301c-2.444,1.962-4.948,3.077-7.655,4.286c-0.243,1.365-0.778,2.922-2.144,3.413   c-0.68-0.996-1.765-3.093-2.718-3.773c-0.425,2.082-1.785,3.861-3.305,5.161c-1.552-0.922-2.132-3.183-2.032-4.75   c-1.303,1.002-2.858,1.815-4.318,2.31c-1.326-6.877,5.055-9.052,10.108-7.722c1.312-0.562,2.618-1.311,3.644-1.891   c-1.172-1.441-2.251-3.772-1.814-5.576c2.731-0.764,6.773-5.26,9.86-5.978c0.184,1.867,1.289,4.215,2.356,5.859   C264.086,123.53,264.252,127.869,265.315,130.301z"/>
	<path fill-rule="evenodd" clip-rule="evenodd" fill="#0099DA" d="M251.034,84.402c0.447,1.098-3.194,3.482-3.906,4.012   c-0.176-1.217-0.331-2.678-0.111-2.944C247.283,85.1,250.142,84.639,251.034,84.402z"/>
	<path fill="#0099DA" d="M243.219,97.039c-1.929-0.561-1.936-2.557-1.919-4.047c0.845-0.243,1.942,0.333,2.925,0.275   c-0.117-1.402-1.045-2.067-1.9-2.682c0.099-0.347,0.222-0.671,0.338-0.919c1.853,0.273,2.687,0.312,4.554,0.171   c0.139,0.275,0.244,0.689,0.275,0.941c-0.896,0.552-2.165,1.134-2.33,2.488c1.19,0.082,2.413-0.334,3.114-0.025   c-0.085,1.488-0.139,3.346-2.068,3.852c0.69,3.251-0.814,5.812-1.699,6.216C243.537,102.724,242.422,100.236,243.219,97.039z"/>
	<path fill="#FCAF17" d="M233.463,188.541c-3.439,1.557-6.66,0.885-8.082-1.81c10.914-1.824,8.622-16.319,10.729-24.493   c0.602-2.335,1.197-4.438,1.927-5.651c-1.204-1.736-0.248-5.338-0.139-6.527c2.016,0.426,4.262,1.831,5.555,3.576   c1.841-0.246,4.744,0.188,6.671,1.104c1.989-1.562,5.052-1.863,7.268-1.154c-1.412,1.602-1.861,4.291-3.002,5.211   c1.22,4.273,0.749,10.391,1.234,14.979c-0.762,6.767-6.81,12.625-11.713,16.267c0.036,1.049,0.353,2.038,0.333,3.1   c-1.588,2.536-3.183,3.371-5.413,5.111c-1.832,1.429-3.904,3.261-5.909,7.186c0.855,3.205-0.235,5.167-3.167,6.381   c-0.154-1.37-0.382-3.788-1.74-4.569c-1.292,1.431-2.839,2.665-4.76,2.771c-0.659-1.551-0.555-3.463,0.064-4.976   c-1.656,0.411-3.325,0.709-4.902-0.062c0.933-5.587,4.338-5.527,8.546-5.63c0.391-0.009,1.359-0.018,1.66-0.343   C230.58,197.151,233.463,188.541,233.463,188.541z"/>
	<path fill="#FCAF17" d="M262.578,203.919c-2.28,1.831-3.228,2.511-5.76,3.981c-0.094,1.353-0.636,3.396-2.081,3.916   c-0.614-1.174-1.887-3.481-2.882-4.268c-0.473,2.085-1.827,3.873-3.341,5.168c-1.552-0.922-2.046-2.989-2.064-4.775   c-1.274,0.945-2.825,1.841-4.285,2.335c-1.471-6.076,4.846-8.631,9.899-7.301c1.149-0.279,2.03-1.007,2.97-1.681   c-1.527-1.861-2.1-4.092-1.506-6.449c3.456-1.421,6.896-5.376,10.37-5.614c-0.259,1.887-0.268,4.619,0.243,5.938   C262.578,196.545,260.842,200.987,262.578,203.919z"/>
	<path fill="#FCAF17" d="M228.872,180.959c-0.964-1.092-1.139-2.143-1.481-3.793c-0.358-1.729-0.894-3.887-3.084-6.697   c-2.06,1.031-3.423,0.906-5.319,0.061c0.815-0.861,2.857-3.325,3.448-4.324c-1.465-0.393-3.029-1.176-4.4-2.09   c1.104-1.711,2.932-2.442,4.852-2.937c-1.129-1.35-2.5-2.975-3.436-4.467c4.999-2.492,8.147,1.321,8.542,6.784   c0.071,0.781,0.462,1.368,0.925,1.953l0.51,0.64c0.641,0.831,1.729,1.887,2.652,2.975   C231.631,173.416,230.984,178.225,228.872,180.959z"/>
	<path fill-rule="evenodd" clip-rule="evenodd" fill="#0099DA" d="M239.172,84.504c-0.447,1.099,3.077,3.431,3.789,3.96   c0.176-1.217,0.33-2.678,0.11-2.944C242.807,85.15,240.065,84.74,239.172,84.504z"/>
	<path fill="#FCAF17" d="M267.403,185.474c-6.724,0.461-13.322,8.002-20.15,5.662c4.793-3.644,10.464-9.314,11.243-15.834   c2.477,0.733,3.685,0.206,6.496-0.243c3.046-0.485,6.683-0.971,10.207,1.454c3.913,0.639,7.156-1.639,7.156-3.898   c0-2.531-1.687-3.094-3.75-3.094c-4.414,0-8.141,2.156-12.559,2.156c-4.405,0-8.014-2.964-8.014-8.951   c0-6.258,5.593-9.446,10.688-7.872c1.946-4.046,6.296,0.079,11.804,0.075c2.611-0.003,4.713-0.816,7.142-3.024   c0.723,2.482-2.119,5.696-6.62,7.669c-5.885,2.58-13.645,3.21-13.266-1.156c-2.721-1.107-5.652,1.139-5.652,4.197   c0,2.531,1.583,4.607,4.021,4.607c4.17,0,8.043-2.039,12.886-2.039c3.507,0,7.891,1.585,7.891,7.322   c0,6.277-6.339,8.467-9.54,8.591c0.422,4.806,2.23,6.07,6.406,6.509c0.22,4.411-1.532,9.398-3.207,13.37   c0.855,1.643,1.221,2.849,1.049,5.143c-1.374-0.321-2.888-0.922-3.961-1.688c-0.564,2.017-2.086,4.345-4.093,5.379   c-1.35-0.405-1.905-1.949-2.38-3.194c-1.11,1.047-3.069,2.18-4.697,2.027c-1.744-5.138,2.167-8.434,6.663-8.613   c0.825-1.461,2.072-4.021,1.802-5.771c-2.541,0.673-4.123,1.847-5.887,3.832c-1.744-1.747-2.12-4.51-2.121-6.936   C266.96,189.282,267.246,187.273,267.403,185.474z"/>
	<path fill-rule="evenodd" clip-rule="evenodd" fill="#0099DA" d="M251.796,159.467c0.274,1.157-3.685,2.928-4.47,3.336   c0.012-1.229,0.082-2.698,0.34-2.926C247.984,159.554,250.878,159.558,251.796,159.467z"/>
	<path fill="#0099DA" d="M242.085,170.79c-1.819-0.863-1.514-2.731-1.271-4.201c0.872-0.104,1.825,0.673,2.904,0.766   c0.22-1.297-0.781-2.339-1.533-3.083c0.151-0.326,0.321-0.626,0.475-0.854c1.788,0.567,2.605,0.739,4.471,0.9   c0.096,0.294,0.137,0.72,0.129,0.974c-0.969,0.401-2.274,0.85-2.662,2.175c1.291,0.293,2.423,0.071,3.068,0.489   c-0.311,1.456-0.669,3.352-2.725,3.352c-1.24,2.773,0.09,4.622-0.643,5.964C242.428,176.379,240.745,173.892,242.085,170.79z"/>
	<path fill-rule="evenodd" clip-rule="evenodd" fill="#0099DA" d="M240.065,157.663c-0.609,1.014,2.516,3.883,3.139,4.521   c0.359-1.174,0.734-2.592,0.558-2.89C243.557,158.886,240.911,158.041,240.065,157.663z"/>
	<path fill="#FCAF17" d="M267.428,112.142c-6.605,0.436-13.312,7.925-20.011,5.719c4.761-3.666,10.285-9.29,11.011-15.736   l-0.021-0.18c2.539,0.772,3.732,0.239,6.585-0.216c3.046-0.486,6.393-0.922,10.149,1.33c3.913,0.639,7.156-1.64,7.156-3.899   c0-2.531-1.688-3.093-3.75-3.093c-4.414,0-8.141,2.156-12.559,2.156c-4.405,0-8.014-2.964-8.014-8.951   c0-6.258,5.593-9.446,10.688-7.873c1.946-4.045,6.353-0.003,11.861-0.008c2.611-0.002,4.713-0.816,7.142-3.024   c0.723,2.482-2.119,5.696-6.62,7.669c-5.885,2.58-13.702,3.293-13.322-1.073c-2.721-1.107-5.653,1.139-5.653,4.198   c0,2.531,1.583,4.607,4.022,4.607c4.169,0,8.043-2.04,12.885-2.04c3.508,0,7.892,1.585,7.892,7.323c0,5.812-5.435,8.12-8.781,8.528   c-0.222,0.076-0.487,0.124-0.796,0.136c0.724,4.958,7.238,5.852,11.033,6.25c0.227,4.555-1.902,9.743-3.656,13.754   c0.89,1.747,1.031,3.115,0.885,5.068c-1.374-0.321-2.714-0.901-3.942-1.726c-0.626,2.136-2.24,4.456-4.113,5.417   c-1.35-0.405-2.025-1.996-2.376-3.204c-1.379,1.105-2.933,2.294-4.702,2.036c-1.745-5.139,2.446-8.645,6.705-8.619   c0.628-1.056,2.826-4.643,2.395-6.018c-1.91,0.222-4.163,1.174-5.998,3.447l-0.479,0.683   C270.274,122.027,267.423,116.325,267.428,112.142z"/>
	<g>
		<g>
			<polygon fill-rule="evenodd" clip-rule="evenodd" fill="#002157" points="472.972,229.965 483.671,229.965 483.671,179.565      483.271,171.666 516.171,229.965 531.172,229.965 531.172,159.266 520.271,159.266 520.271,209.966 520.67,218.565      487.071,159.266 472.972,159.266    "/>
			<path fill-rule="evenodd" clip-rule="evenodd" fill="#002157" d="M572.77,231.165c15,0,26.101-9.499,26.101-28.499     c0-18.101-8.2-28.7-25.4-28.7c-15.3,0-26.1,10.6-26.1,29.3C547.371,220.864,556.77,231.165,572.77,231.165z M573.37,222.665     c-11.701,0-15.399-9.1-15.399-19.9c0-9.9,3.2-20.399,15.199-20.399c12.2,0,15.1,10.601,15.1,20.301     C588.27,213.064,585.27,222.665,573.37,222.665z"/>
			<path fill-rule="evenodd" clip-rule="evenodd" fill="#002157" d="M635.269,231.165c14.999,0,26.1-9.499,26.1-28.499     c0-18.101-8.2-28.7-25.399-28.7c-15.3,0-26.101,10.6-26.101,29.3C609.869,220.864,619.268,231.165,635.269,231.165z      M635.869,222.665c-11.7,0-15.399-9.1-15.399-19.9c0-9.9,3.199-20.399,15.199-20.399c12.199,0,15.1,10.601,15.1,20.301     C650.768,213.064,647.769,222.665,635.869,222.665z"/>
			<path fill-rule="evenodd" clip-rule="evenodd" fill="#002157" d="M675.967,229.965h10.4v-39.199c2.499-3.6,7.5-7.601,13.6-7.601     c3.1,0,4.6,0.199,6.7,0.7l1.6-8.8c-1.3-0.399-3.501-0.9-6.7-0.9c-7.3,0-12.6,4.601-15.199,8.499v-7.3h-10.4V229.965z"/>
			<path fill-rule="evenodd" clip-rule="evenodd" fill="#002157" d="M737.266,230.865c6.199,0,10.501-3.101,13.4-5.8v4.899h10.4     v-75.399h-10.4v20.6c-3.199-0.9-5.299-1.199-9.799-1.199c-14.802,0-27.001,9.599-27.001,28.6     C713.867,226.565,727.067,230.865,737.266,230.865z M738.667,222.165c-8.199,0-14.301-5.4-14.301-19.3     c0-10.901,4.602-20.5,16.601-20.5c4.7,0,7.4,0.8,9.7,1.5v33.4C748.367,218.766,743.266,222.165,738.667,222.165z"/>
			<rect x="773.965" y="196.965" fill-rule="evenodd" clip-rule="evenodd" fill="#002157" width="29.799" height="8.701"/>
			<polygon fill-rule="evenodd" clip-rule="evenodd" fill="#002157" points="818.364,229.965 829.063,229.965 829.063,198.766      865.364,198.766 865.364,229.965 876.063,229.965 876.063,159.266 865.364,159.266 865.364,190.166 829.063,190.166      829.063,159.266 818.364,159.266    "/>
			<path fill-rule="evenodd" clip-rule="evenodd" fill="#002157" d="M917.662,231.165c14.999,0,26.101-9.499,26.101-28.499     c0-18.101-8.2-28.7-25.4-28.7c-15.3,0-26.1,10.6-26.1,29.3C892.262,220.864,901.661,231.165,917.662,231.165z M918.261,222.665     c-11.7,0-15.399-9.1-15.399-19.9c0-9.9,3.2-20.399,15.199-20.399c12.199,0,15.101,10.601,15.101,20.301     C933.162,213.064,930.162,222.665,918.261,222.665z"/>
			<rect x="958.36" y="154.565" fill-rule="evenodd" clip-rule="evenodd" fill="#002157" width="10.4" height="75.399"/>
			<rect x="987.059" y="154.565" fill-rule="evenodd" clip-rule="evenodd" fill="#002157" width="10.4" height="75.399"/>
			<path fill-rule="evenodd" clip-rule="evenodd" fill="#002157" d="M1027.756,230.765c9.401,0,15.002-4.699,18.002-6.799     c0.899,4.8,6.599,6.599,11.699,6.599c0.801,0,1.5,0,2.199-0.099l0.5-8.102c-2.6-0.199-5-0.9-5-4.3v-28.599     c0-11.2-7.199-15.401-20.699-15.401c-8.3,0-15.301,2.102-18.799,3.602l2.1,7.899c3.199-0.8,9.199-2.5,14.399-2.5     c8.8,0,12.8,1.6,12.8,9.2v6.101l-12,0.199c-9.5,0.1-21.7,3-21.7,16.5C1011.257,225.364,1017.358,230.765,1027.756,230.765z      M1030.258,222.466c-5.201,0-8.801-2.1-8.801-8.301c0-4.999,4.301-8.4,11.801-8.601l11.699-0.499v12.6     C1042.857,218.565,1036.057,222.466,1030.258,222.466z"/>
			<path fill-rule="evenodd" clip-rule="evenodd" fill="#002157" d="M1075.456,229.965h10.4v-41.2c3.9-2.299,9.7-5.699,15.6-5.699     c8.801,0,10.2,4.6,10.2,13.5v33.399h10.3v-34.899c0-10.3-1-21.1-17.399-21.1c-7.801,0-14.101,4.199-18.7,7.4v-6.002h-10.4     V229.965z"/>
			<path fill-rule="evenodd" clip-rule="evenodd" fill="#002157" d="M1159.454,230.865c6.2,0,10.502-3.101,13.4-5.8v4.899h10.4     v-75.399h-10.4v20.6c-3.199-0.9-5.299-1.199-9.799-1.199c-14.801,0-27,9.599-27,28.6     C1136.055,226.565,1149.254,230.865,1159.454,230.865z M1160.855,222.165c-8.2,0-14.301-5.4-14.301-19.3     c0-10.901,4.601-20.5,16.601-20.5c4.699,0,7.4,0.8,9.699,1.5v33.4C1170.555,218.766,1165.454,222.165,1160.855,222.165z"/>
		</g>
		<g>
			<path fill-rule="evenodd" clip-rule="evenodd" fill="#002157" d="M472.972,129.965h10.8v-62.1h11.299     c10.6,0,15.201,5.1,15.201,14.799c0,9.901-6.601,14.701-17.601,14.701h-4.399v8.7h3.8c19.9,0,29.4-10.8,29.4-23.8     c0-14.8-9.601-23-24.2-23h-24.3V129.965z"/>
			<path fill-rule="evenodd" clip-rule="evenodd" fill="#002157" d="M532.969,129.965h10.4v-39.2c2.5-3.6,7.5-7.601,13.6-7.601     c3.099,0,4.599,0.2,6.7,0.701l1.599-8.8c-1.3-0.4-3.5-0.9-6.7-0.9c-7.3,0-12.599,4.601-15.199,8.499v-7.3h-10.4V129.965z"/>
			<path fill-rule="evenodd" clip-rule="evenodd" fill="#002157" d="M596.269,131.165c14.999,0,26.1-9.499,26.1-28.5     c0-18.1-8.2-28.7-25.399-28.7c-15.3,0-26.1,10.6-26.1,29.3C570.869,120.864,580.269,131.165,596.269,131.165z M596.869,122.665     c-11.701,0-15.399-9.1-15.399-19.9c0-9.9,3.2-20.399,15.199-20.399c12.199,0,15.1,10.6,15.1,20.3     C611.768,113.064,608.769,122.665,596.869,122.665z"/>
			<polygon fill-rule="evenodd" clip-rule="evenodd" fill="#002157" points="648.167,129.965 661.868,129.965 681.868,75.364      671.067,75.364 658.967,110.365 655.267,121.965 651.966,110.565 641.168,75.364 629.868,75.364    "/>
			<path fill-rule="evenodd" clip-rule="evenodd" fill="#002157" d="M693.066,129.965h10.499V75.364h-10.499V129.965z      M698.166,66.365l8-8l-8-7.899l-7.799,7.899L698.166,66.365z"/>
			<path fill-rule="evenodd" clip-rule="evenodd" fill="#002157" d="M721.764,129.965h10.4v-41.2c3.9-2.299,9.701-5.699,15.6-5.699     c8.801,0,10.2,4.599,10.2,13.5v33.4h10.3v-34.9c0-10.299-0.999-21.1-17.399-21.1c-7.801,0-14.101,4.199-18.7,7.4v-6.001h-10.4     V129.965z"/>
			<path fill-rule="evenodd" clip-rule="evenodd" fill="#002157" d="M811.363,130.964c5.701,0,10.1-1.1,13.2-1.899l-1.601-8.2     c-2.8,0.4-6.299,1.401-10.798,1.401c-15.002,0-19.102-6.301-19.102-19.901c0-13.299,6.9-19.701,16.2-19.701     c6,0,9.301,1.201,12.601,2.6l3-7.999c-3.3-1.701-8-3.3-15.601-3.3c-16.499,0-26.899,11-26.899,28.5     C782.364,122.564,790.863,130.964,811.363,130.964z"/>
			<path fill-rule="evenodd" clip-rule="evenodd" fill="#002157" d="M837.862,129.965h10.499V75.364h-10.499V129.965z      M842.96,66.365l8-8l-8-7.899l-7.798,7.899L842.96,66.365z"/>
			<path fill-rule="evenodd" clip-rule="evenodd" fill="#002157" d="M889.86,131.165c8.3,0,15.199-1.6,18.201-2.601l-1.701-8.299     c-3.4,0.799-10.199,2.2-14.1,2.2c-10.6,0-18.601-2.401-18.801-17.301h35.901v-3.7c0-17.7-6.3-27.5-20.901-27.5     c-14.499,0-25.499,7.5-25.499,29.599C862.96,124.765,873.459,131.165,889.86,131.165z M873.66,97.865     c0.8-10.7,6.101-16.3,13.601-16.3c7.699,0,11.301,6.6,11.199,16.3H873.66z"/>
		</g>
	</g>
</g>
</svg>