<?xml version="1.0" encoding="UTF-8"?>
<!-- Generator: Adobe Illustrator 15.1.0, SVG Export Plug-In . SVG Version: 6.00 Build 0)  -->
<!DOCTYPE svg PUBLIC "-//W3C//DTD SVG 1.1//EN" "http://www.w3.org/Graphics/SVG/1.1/DTD/svg11.dtd">
<svg version="1.1" id="Layer_1" xmlns="http://www.w3.org/2000/svg" xmlns:xlink="http://www.w3.org/1999/xlink" x="0px" y="0px" width="394px" height="77.512px" viewBox="0 0 394 77.512" enable-background="new 0 0 394 77.512" xml:space="preserve">
<g>
	<defs>
		<rect id="SVGID_1_" width="394" height="77.512"/>
	</defs>
	<clipPath id="SVGID_2_">
		<use xlink:href="#SVGID_1_" overflow="visible"/>
	</clipPath>
	<path clip-path="url(#SVGID_2_)" d="M0,19.962h2.31v3.902H2.39c1.154-2.788,4.021-4.5,7.326-4.5c6.25,0,9.238,5.057,9.238,10.87   c0,5.813-2.987,10.869-9.238,10.869c-3.066,0-6.052-1.552-7.126-4.498H2.508v11.506H0V19.962z M9.715,21.475   c-5.534,0-7.208,4.1-7.208,8.759c0,4.261,1.873,8.759,7.208,8.759c4.777,0,6.729-4.499,6.729-8.759   C16.445,25.974,14.492,21.475,9.715,21.475"/>
	<path clip-path="url(#SVGID_2_)" d="M25.083,19.962h2.309v4.817h0.081c1.274-3.304,4.061-5.255,7.764-5.096v2.508   c-4.539-0.239-7.645,3.106-7.645,7.367v10.948h-2.508V19.962z"/>
	<path clip-path="url(#SVGID_2_)" d="M57.505,30.234c0,5.892-3.424,10.869-9.714,10.869s-9.715-4.977-9.715-10.869   c0-5.893,3.424-10.87,9.715-10.87S57.505,24.342,57.505,30.234 M40.583,30.234c0,4.38,2.389,8.759,7.208,8.759   c4.817,0,7.206-4.379,7.206-8.759c0-4.379-2.389-8.759-7.206-8.759C42.972,21.475,40.583,25.855,40.583,30.234"/>
	<polygon clip-path="url(#SVGID_2_)" points="61.127,19.962 63.915,19.962 70.365,37.998 70.445,37.998 76.816,19.962    79.403,19.962 71.718,40.506 69.052,40.506  "/>
	<path clip-path="url(#SVGID_2_)" d="M84.101,12.079h2.508V16.1h-2.508V12.079z M84.101,19.963h2.508v20.544h-2.508V19.963z"/>
	<path clip-path="url(#SVGID_2_)" d="M93.577,19.962h2.508v3.543h0.08c0.916-2.469,3.663-4.141,6.57-4.141   c5.774,0,7.524,3.027,7.524,7.923v13.219h-2.508v-12.82c0-3.543-1.154-6.211-5.216-6.211c-3.981,0-6.37,3.025-6.45,7.046v11.985   h-2.508V19.962z"/>
	<path clip-path="url(#SVGID_2_)" d="M131.68,26.412c-0.676-3.066-2.548-4.937-5.813-4.937c-4.817,0-7.206,4.378-7.206,8.759   c0,4.378,2.389,8.759,7.206,8.759c3.106,0,5.655-2.429,5.973-5.853h2.508c-0.676,4.936-3.901,7.963-8.481,7.963   c-6.291,0-9.714-4.978-9.714-10.869c0-5.893,3.423-10.87,9.714-10.87c4.381,0,7.764,2.349,8.322,7.047H131.68z"/>
	<path clip-path="url(#SVGID_2_)" d="M140.081,12.079h2.507V16.1h-2.507V12.079z M140.081,19.963h2.507v20.544h-2.507V19.963z"/>
	<path clip-path="url(#SVGID_2_)" d="M151.07,30.912c0.04,3.663,1.951,8.082,6.769,8.082c3.663,0,5.653-2.151,6.45-5.255h2.509   c-1.075,4.658-3.782,7.365-8.958,7.365c-6.53,0-9.277-5.017-9.277-10.869c0-5.415,2.747-10.87,9.277-10.87   c6.609,0,9.237,5.773,9.038,11.547H151.07z M164.368,28.801c-0.119-3.782-2.469-7.326-6.529-7.326   c-4.102,0-6.371,3.583-6.769,7.326H164.368z"/>
	<rect x="186.994" y="12.079" clip-path="url(#SVGID_2_)" width="2.508" height="28.429"/>
	<path clip-path="url(#SVGID_2_)" d="M196.55,12.079h2.509V16.1h-2.509V12.079z M196.55,19.963h2.509v20.544h-2.509V19.963z"/>
	<path clip-path="url(#SVGID_2_)" d="M206.066,19.962h2.309v3.464h0.12c1.313-2.468,3.463-4.062,6.729-4.062   c2.708,0,5.136,1.314,5.893,4.022c1.235-2.708,3.822-4.022,6.531-4.022c4.497,0,6.808,2.349,6.808,7.206v13.936h-2.509V26.69   c0-3.383-1.275-5.215-4.858-5.215c-4.338,0-5.572,3.583-5.572,7.405v11.626h-2.509V26.571c0.04-2.787-1.116-5.095-4.301-5.095   c-4.34,0-6.092,3.264-6.133,7.564v11.466h-2.507V19.962z"/>
	<path clip-path="url(#SVGID_2_)" d="M241.422,12.079h2.509v11.786h0.078c1.075-2.947,4.062-4.5,7.128-4.5   c6.25,0,9.238,5.057,9.238,10.87c0,5.813-2.988,10.869-9.238,10.869c-3.305,0-6.172-1.712-7.326-4.498h-0.081v3.902h-2.308V12.079z    M251.137,21.475c-5.335,0-7.206,4.499-7.206,8.759c0,4.261,1.871,8.759,7.206,8.759c4.776,0,6.729-4.499,6.729-8.759   C257.866,25.974,255.913,21.475,251.137,21.475"/>
	<path clip-path="url(#SVGID_2_)" d="M283.107,40.507h-2.309v-3.703h-0.08c-1.313,2.747-4.022,4.3-7.086,4.3   c-5.178,0-7.206-3.026-7.206-7.804V19.963h2.507V33.34c0.119,3.703,1.513,5.654,5.495,5.654c4.301,0,6.17-4.062,6.17-8.242V19.963   h2.509V40.507z"/>
	<path clip-path="url(#SVGID_2_)" d="M290.034,19.962h2.31v4.817h0.08c1.273-3.304,4.062-5.255,7.764-5.096v2.508   c-4.537-0.239-7.645,3.106-7.645,7.367v10.948h-2.509V19.962z"/>
	<path clip-path="url(#SVGID_2_)" d="M322.126,38.834c-0.039,6.131-2.389,9.874-9.117,9.874c-4.102,0-8.162-1.832-8.521-6.212h2.508   c0.558,3.027,3.225,4.103,6.013,4.103c4.616,0,6.608-2.748,6.608-7.765v-2.787h-0.078c-1.155,2.507-3.584,4.221-6.53,4.221   c-6.569,0-9.276-4.699-9.276-10.552c0-5.653,3.343-10.352,9.276-10.352c2.986,0,5.534,1.872,6.53,4.141h0.078v-3.542h2.509V38.834z    M319.617,29.996c0-4.022-1.871-8.521-6.608-8.521c-4.779,0-6.768,4.261-6.768,8.521c0,4.141,2.149,8.162,6.768,8.162   C317.35,38.158,319.617,34.177,319.617,29.996"/>
	<path clip-path="url(#SVGID_2_)" fill-rule="evenodd" clip-rule="evenodd" fill="#FFFFFF" d="M374.626,0h-3.538l0.284,0.787   l-0.766-0.174v3.259l0.634-0.13c0,0-0.875,0.716-0.787,1.527c0.086,0.808,0.372,1.531,0.372,1.531h-0.089   c0,0-0.087-0.699-0.46-0.831c-0.372-0.13-1.005,0.065-1.005,0.065s-0.195-0.394-0.504-0.481c-0.305-0.087-0.984,0.109-0.984,0.109   s-0.452-0.457-0.827-0.393c-0.371,0.065-0.785,0.438-0.785,0.438s-0.569-0.503-1.095-0.198c-0.526,0.308-0.504,0.72-0.504,0.72   s-0.744-0.174-0.985,0.286c-0.239,0.461-0.131,1.072-0.131,1.072s-0.738,0.28-0.628,0.914c0.106,0.634,0.321,0.766,0.321,0.766   s-0.409,0.307-0.345,0.699c0.065,0.396,0.586,0.854,0.586,0.854s-0.175,0.657,0.021,0.92c0.199,0.262,0.504,0.48,0.504,0.48   s-0.097,1.435,0.079,2.374c0.176,0.944,0.484,1.938,0.904,2.407c0.341,0.383,0.681,0.569,0.681,0.569v1.445h-13.879v45.015   c0,0-0.067,3.767,2.014,5.661c1.992,1.812,4.587,1.881,4.587,1.881h6.903c0,0,2.323-0.146,4.351,1.506   c2.538,2.064,3.233,4.434,3.233,4.434s1.22-3.43,3.516-4.479c2.298-1.052,3.568-1.314,5.729-1.271c2.158,0.045,4.675,0,4.675,0   s2.978,0.161,5.291-2.029c2.312-2.187,1.986-4.742,1.986-5.573V52.953V18.84h-13.746v-1.117c0,0,0.973-1.012,1.352-2.014   c0.39-1.017,0.242-3.356,0.242-3.356s0.726-0.767,0.571-1.137l-0.153-0.372c0,0,0.57-0.481,0.547-0.942   c-0.021-0.459-0.263-0.634-0.263-0.634s0.417-0.552,0.329-0.939c-0.087-0.389-0.547-0.741-0.547-0.741s0.109-0.788-0.109-1.027   c-0.218-0.241-1.072-0.33-1.072-0.33s0-0.349-0.242-0.568c-0.24-0.218-0.648-0.372-0.933-0.239c-0.287,0.13-0.395,0.26-0.395,0.26   s-0.175-0.349-0.351-0.414c-0.178-0.064-0.745-0.178-0.963,0.087c-0.22,0.263-0.242,0.284-0.242,0.284s-0.59-0.326-0.917-0.174   c-0.329,0.153-0.636,0.503-0.636,0.503s-0.245-0.194-0.611-0.13c-0.368,0.064-0.805,0.48-0.805,0.787v0.216l-0.329,0.069   c0,0,0.613-0.789,0.57-1.401c-0.044-0.612-0.96-1.768-0.96-1.768l-0.136-0.154l0.811,0.39V0.588l-0.834,0.354L374.626,0z"/>
	<rect x="372.653" y="19.765" clip-path="url(#SVGID_2_)" fill="#F0B700" width="20.261" height="25.052"/>
	<rect x="352.38" y="19.765" clip-path="url(#SVGID_2_)" fill="#BEBDC2" width="20.271" height="25.052"/>
	<path clip-path="url(#SVGID_2_)" fill="#F0B700" d="M372.655,74.685c-0.325-0.552-0.78-1.103-1.343-1.613   c-0.203-0.191-0.421-0.371-0.655-0.546c-1.638-1.241-3.635-1.955-5.485-1.955h-6.721c-2.503,0-6.071-1.918-6.071-6.496V44.817   h20.271L372.655,74.685z"/>
	<path clip-path="url(#SVGID_2_)" fill="#005AA1" d="M372.655,74.685c0.438-0.752,1.117-1.498,1.991-2.159   c1.636-1.241,3.636-1.955,5.484-1.955h6.723c2.499,0,6.061-1.918,6.061-6.496V44.817h-20.263L372.655,74.685z"/>
	<path clip-path="url(#SVGID_2_)" d="M388.141,29.468c0.013-0.159,0.032-0.356,0.062-0.591c0.548-0.136,1.086-0.541,1.307-1.24   c0.022-0.07,0.041-0.14,0.061-0.208c0.017-0.051,0.027-0.115,0.046-0.172l0.544,0.27l0.202-0.644   c0.45-1.451,0.216-2.361-0.249-2.833l-0.411,0.403c0.328,0.333,0.489,1.044,0.111,2.259c-0.645-0.319-0.699,0.267-0.851,0.754   c-0.227,0.716-0.864,0.931-1.267,0.892c-0.289,2.047-0.074,2.029-0.074,2.029L388.141,29.468z"/>
	<path clip-path="url(#SVGID_2_)" fill="#FFFFFF" d="M389.682,29.835c0,0-1.342-0.069-2.061,0.551l0.519-0.918   c0.727-0.238,1.462-0.211,1.57-0.204l0.233,0.022l0.274,0.027L389.682,29.835z"/>
	<path clip-path="url(#SVGID_2_)" fill="#FFFFFF" d="M388.306,23.938c0.363-0.285,0.855-0.376,1.312-0.207   c0.179,0.066,0.347,0.17,0.494,0.319l-0.41,0.403c-0.41-0.416-1.091-0.237-1.314,0.292L388.306,23.938z"/>
	<path clip-path="url(#SVGID_2_)" fill="#FFFFFF" d="M376.172,23.887l-0.125,0.625c-0.041,0.198-0.34,1.773,0.009,2.987   l-0.033,0.026l-0.352,0.253l0.69,0.215l0.387-0.278c-0.544-1.091-0.141-3.087-0.141-3.087L376.172,23.887z"/>
	<path clip-path="url(#SVGID_2_)" d="M379.109,28.048c0,0-1.327-0.698-1.398-1.117c-0.144-0.867,0.574-1.773-1.103-2.305   l-0.436-0.74l0.61,0.195c1.672,0.529,1.571,1.541,1.506,2.212c-0.016,0.176-0.031,0.34-0.019,0.484l-0.001,0.001   c0.09,0.119,0.388,0.337,0.728,0.546L379.109,28.048z"/>
	<path clip-path="url(#SVGID_2_)" fill="#FFFFFF" d="M380.901,26.802c-0.615-0.001-1.355,0.084-1.902,0.527l-0.002-0.005   l0.111,0.725c0.697-1.019,2.559-0.553,2.881-0.643c0.542-0.153,0.652-1.172,0.053-1.118c-0.072,0.006-0.392,0.127-0.684,0.084   L380.901,26.802z"/>
	<path clip-path="url(#SVGID_2_)" fill="#FFFFFF" d="M360.772,26.802c-0.617-0.001-1.355,0.084-1.903,0.527l-0.001-0.005l0.11,0.725   c0.696-1.019,2.557-0.553,2.88-0.643c0.542-0.153,0.652-1.172,0.055-1.118c-0.071,0.006-0.394,0.127-0.685,0.084L360.772,26.802z"/>
	<path clip-path="url(#SVGID_2_)" d="M377.824,30.021c-1.566-0.727-1.963-1.719-2.006-1.835l-0.147-0.409l0.69,0.215   c0,0,0.351,0.992,2.035,1.649L377.824,30.021z"/>
	
		<line clip-path="url(#SVGID_2_)" fill="none" stroke="#000000" stroke-width="0.016" x1="365.688" y1="17.308" x2="372.651" y2="17.308"/>
	<path clip-path="url(#SVGID_2_)" fill="#BEBDC2" d="M361.286,52.146c0.041-0.271,0.062-0.587,0.059-0.959l0.805-0.002   c0.022,0.345,0.021,0.666-0.001,0.961H361.286z"/>
	<path clip-path="url(#SVGID_2_)" fill="#DB2F36" d="M362.148,52.146c-0.184,2.334-1.694,3.099-2.737,3.082   c-0.977-0.015-2.632-0.312-2.906-2.75h1.763c0.166,0.768,0.713,1.186,1.442,1.13c0.813-0.059,1.391-0.326,1.575-1.462H362.148z"/>
	<path clip-path="url(#SVGID_2_)" fill="#DB2F36" d="M361.345,51.185c-0.368-0.301-0.324-0.981-0.003-1.181h0.797   c0.333,0.189,0.385,0.875,0.011,1.181H361.345z"/>
	<rect x="361.341" y="49.043" clip-path="url(#SVGID_2_)" fill="#BEBDC2" width="0.799" height="0.962"/>
	<path clip-path="url(#SVGID_2_)" fill="#DB2F36" d="M361.341,49.042c-0.228-0.352-0.396-1.027-0.305-1.595h1.42   c0.094,0.57-0.092,1.245-0.317,1.597L361.341,49.042z"/>
	<path clip-path="url(#SVGID_2_)" fill="#FFFFFF" d="M365.656,13.549c0.516-0.571,1.505-1.298,1.91-1.479v-0.575   c-0.405,0.183-1.395,0.91-1.91,1.482V13.549z"/>
	<path clip-path="url(#SVGID_2_)" fill="#C6C7C8" d="M363.951,12.851c0.083,0,1.229,0.225,1.705,0.698v-0.572   c-0.477-0.474-1.622-0.7-1.705-0.7V12.851z"/>
	<path clip-path="url(#SVGID_2_)" fill="#FFFFFF" d="M370.584,13.788c0.28-0.322,1.229-1.646,2.083-1.969v-0.574   c-0.854,0.321-1.803,1.647-2.083,1.969V13.788z"/>
	<path clip-path="url(#SVGID_2_)" fill="#C6C7C8" d="M367.567,12.07c1.076,0.194,2.709,1.423,3.017,1.718v-0.575   c-0.308-0.294-1.94-1.522-3.017-1.718V12.07z"/>
	<path clip-path="url(#SVGID_2_)" fill="#FFFFFF" d="M374.718,13.788c0.307-0.294,1.943-1.523,3.018-1.719v-0.574   c-1.074,0.195-2.711,1.423-3.018,1.72V13.788z"/>
	<path clip-path="url(#SVGID_2_)" fill="#C6C7C8" d="M372.668,11.819c0.849,0.322,1.771,1.646,2.05,1.969v-0.574   c-0.279-0.321-1.201-1.647-2.05-1.969V11.819z"/>
	<path clip-path="url(#SVGID_2_)" fill="#FFFFFF" d="M379.65,13.549c0.473-0.474,1.618-0.698,1.702-0.698v-0.574   c-0.084,0-1.229,0.226-1.702,0.7V13.549z"/>
	<path clip-path="url(#SVGID_2_)" fill="#C6C7C8" d="M377.735,12.07c0.407,0.18,1.396,0.908,1.914,1.479v-0.572   c-0.518-0.572-1.507-1.299-1.914-1.482V12.07z"/>
	<path clip-path="url(#SVGID_2_)" fill="#DB2F36" d="M371.422,12.218c-0.384,0.415-0.697,0.833-0.838,0.997   c-0.307-0.296-1.941-1.525-3.018-1.72c-0.248,0.113-0.718,0.431-1.165,0.789c-0.445-0.588-1.928-3.469-1.096-4.291   c0.765-0.757,2.83-0.055,4.488,0.509c0.371,0.128,0.727,0.246,1.066,0.352L371.422,12.218z"/>
	<path clip-path="url(#SVGID_2_)" fill="#DB2F36" d="M373.893,12.218c0.377,0.416,0.685,0.833,0.826,0.997   c0.308-0.296,1.941-1.525,3.015-1.72c0.251,0.113,0.729,0.429,1.177,0.789c0.451-0.589,1.919-3.467,1.09-4.291   c-0.768-0.757-2.832-0.055-4.491,0.509c-0.376,0.129-0.728,0.245-1.068,0.352L373.893,12.218z"/>
	<path clip-path="url(#SVGID_2_)" fill="#DB2F36" d="M364.729,42.489c-0.007-0.601,0.135-0.886,0.384-1.021v1.021H364.729z"/>
	<polygon clip-path="url(#SVGID_2_)" fill="#8D2223" points="365.112,42.489 364.729,42.489 364.16,43.063 364.539,43.063  "/>
	<path clip-path="url(#SVGID_2_)" fill="#8D2223" d="M380.717,25.088c0,0-1.538,0.433-1.914-0.839L378.01,23.6l0.242,0.813   c0.353,1.189,1.427,1.391,2.195,1.306L380.717,25.088z"/>
	<path clip-path="url(#SVGID_2_)" d="M380.447,25.719h0.005c-0.012,0.06-0.017,0.125-0.015,0.189c0.007,0.33,0.17,0.697,0.465,0.894   l0.456-0.43c-0.332-0.047-0.489-0.672-0.182-0.725c0.246-0.045,0.518,0.012,0.696-0.029c0.264-0.058,0.21-0.571,0.127-0.698   c-0.209-0.314-0.823-0.113-1.145-0.236l-0.233,0.232c0.029,0.054,0.061,0.109,0.095,0.172L380.447,25.719z"/>
	<path clip-path="url(#SVGID_2_)" fill="#8D2223" d="M360.493,24.917c0.027,0.053,0.06,0.108,0.092,0.172   c0,0-1.537,0.432-1.912-0.841l-0.793-0.649l0.241,0.815c0.354,1.189,1.427,1.391,2.195,1.306h0.005   c-0.013,0.059-0.017,0.125-0.017,0.188c0.007,0.331,0.171,0.696,0.468,0.894l0.456-0.43c-0.334-0.046-0.49-0.671-0.184-0.725   c0.25-0.045,0.517,0.013,0.699-0.029c0.261-0.059,0.21-0.571,0.127-0.697c-0.209-0.314-0.826-0.113-1.146-0.237L360.493,24.917z"/>
	<path clip-path="url(#SVGID_2_)" fill="#FFFFFF" d="M382.892,21.928h-0.047l-0.04,0.006c-0.564,0.084-0.965,0.605-1.256,0.989   c-0.056,0.072-0.104,0.149-0.146,0.202c-0.041,0.051-0.245,0.057-0.345,0.073c-0.289,0.039-0.727,0.1-0.845,0.53   c-0.007,0.026-0.018,0.048-0.024,0.076c-0.214-0.063-0.365-0.089-0.734-0.089c-0.17-0.001-0.366-0.016-0.6-0.038l-0.844-0.078   l0.791,0.649c1.125,0.106,1.38-0.094,1.821,0.669l0.231-0.234c-0.194-0.076-0.156-0.551-0.089-0.801   c0.044-0.157,0.818-0.074,1.028-0.346c0.26-0.289,0.654-0.968,1.095-1.036l2.297,0.009l0.927-0.566L382.892,21.928z"/>
	<path clip-path="url(#SVGID_2_)" fill="#DB2F36" d="M380.717,25.088c0,0-1.538,0.433-1.914-0.839   c1.125,0.106,1.379-0.095,1.819,0.667C380.651,24.97,380.683,25.024,380.717,25.088"/>
	<path clip-path="url(#SVGID_2_)" fill="#DB2F36" d="M360.584,25.088c0,0-1.536,0.433-1.911-0.839   c1.124,0.106,1.38-0.095,1.818,0.667C360.521,24.97,360.553,25.024,360.584,25.088"/>
	<path clip-path="url(#SVGID_2_)" fill="#FFFFFF" d="M387.375,55.649c0.335-0.224,0.915-0.335,0.915-0.335   c0.355-1.268,0.41-1.846,0.41-1.846l-0.614,0.158c-0.005,0.045-0.078,0.192-0.192,1.379L387.375,55.649z"/>
	<path clip-path="url(#SVGID_2_)" fill="#AD8500" d="M387.375,55.649c0,0-0.21,0.017,0.074-2.03c0,0,0.591,0,0.618-0.894   c0.223,0.447,0.281,0.468,0.633,0.743l-0.614,0.158c-0.005,0.045-0.078,0.192-0.192,1.379L387.375,55.649z"/>
	<path clip-path="url(#SVGID_2_)" fill="#F0B700" d="M388.067,52.725c0.223,0.447,0.281,0.468,0.634,0.743   c0,0-0.056,0.578-0.411,1.846c0,0-0.579,0.111-0.916,0.335c0,0-0.209,0.017,0.075-2.03   C387.449,53.619,388.04,53.619,388.067,52.725 M377.531,54.356h-0.427c0.272,0.19,0.615,0.379,1.048,0.547l0.014,1.286h1.075   c0,0-0.298,1.618-1.299,1.618c-1.223,0-0.992-0.982-1.731-1.088c-0.392-0.057-0.433,0.027-1.021,0.224c0,0,1.496,2.166,2.125,2.233   l0.015,0.419c0,0,1.714-0.111,2.849-1.451c0,0,1.423,1.089,2.656,1.789c-4.934,0.596-5.233-0.057-4.916,5.399   c0.028,0.484,0.035,1.102-0.541,1.209c-1.751,0.336-2.829-0.482-2.812,1.212l0.575-0.573l0.575,0.573l0.573-0.573l0.574,0.573   l0.573-0.573l0.573,0.573h0.393c0.484-0.092,0.65-0.393,0.577-0.781h0.951l-0.019-2.887c0.167-1.824,2.121-1.993,3.127-1.92   c0,0-0.445,2.775,1.66,2.591h0.873h1.724c0.085,0,0.299,0.019,0.478,0.195c0.104,0.101,0.169,0.236,0.188,0.381   c0.027,0.484,0.033,1.102-0.537,1.209c-1.751,0.336-2.832-0.482-2.812,1.212l0.57-0.573l0.573,0.573l0.575-0.573l0.575,0.573   l0.575-0.573l0.573,0.573h0.392c0.485-0.092,0.653-0.393,0.578-0.781h0.947c0.02-0.748,0.08-1.192-0.155-1.893   c-0.228-0.671-1.993-0.75-2.58-1.169c-0.543-0.386-0.396-1.637-0.415-2.569l0.016-0.208c1.64-0.755,1.377-2.505,1.377-2.505   c1.473-0.354,1.22-3.528,1.22-3.528c-0.34-0.033-0.473,0.103-0.473,0.103c0.26-0.877,0.296-1.808,0.296-1.808   c1.062-0.39,0.627-2.064,0.636-2.682c0.008-0.791,0.241-1.414,0.241-1.414c-1.322-0.169-1.994,0.707-1.994,0.707   c-0.315-0.577-1.73-0.467-1.73-0.467c0.178,0.771,0.102,1.983,0.08,2.627c-0.029,0.797,0.377,1.256,0.377,1.256   c-0.196,0.838-0.102,0.773-0.17,1.285c-0.305,2.376,0.728,2.444,0.756,3.715c0.013,0.562-0.028,1.173-0.782,1.824   c0,0-0.294-0.819-1.773-1.559c-1.362-0.679-1.091-2.598-1.115-2.687h1.564c0,0,0.166-0.609-0.223-2.343l0.389-0.01   c0,0-0.11-1.721-0.5-2.71h0.403c0,0-0.072-1.956-0.699-2.72l0.224-0.445l-0.436-0.286c0,0-0.473,0.697-0.768,0.476   c-0.35-0.268,0.055-0.782,0.165-0.881l-0.604-0.428l-0.609,0.44c0,0,0.53,0.688,0.091,0.938c-0.34,0.192-0.621-0.277-0.708-0.521   l-0.64,0.368l0.327,0.407c0,0-0.25,0.084-0.651,0.638c-0.154,0.21-0.465,0.059-0.587,0.221c-0.101,0.238-0.109,0.726,0.087,0.801   c0.319,0.124,0.936-0.075,1.146,0.239c0.084,0.126,0.14,0.635-0.126,0.699c-0.182,0.042-0.449-0.021-0.7,0.025   c-0.304,0.057-0.149,0.678,0.186,0.727c0.291,0.042,0.611-0.078,0.684-0.086c0.598-0.055,0.49,0.964-0.056,1.12   c-0.204,0.057-1.011-0.108-1.76,0.019C379.519,53.827,378.388,54.356,377.531,54.356"/>
	<path clip-path="url(#SVGID_2_)" fill="#FFFFFF" d="M392.914,19.765h-40.536v44.31c0,2.095,0.749,3.633,1.8,4.686l-0.402,0.407   c-1.289-1.288-1.97-3.049-1.97-5.093v-44.31v-0.576h0.572h40.536h0.573L392.914,19.765z"/>
	<path clip-path="url(#SVGID_2_)" fill="#002F5C" d="M392.914,44.817v19.258c0,4.578-3.562,6.496-6.062,6.496h-6.722   c-1.848,0-3.849,0.714-5.485,1.955c-0.873,0.661-1.551,1.407-1.993,2.159l-0.002,1.859c0.013-2.298,3.739-5.4,7.48-5.4h6.722   c1.524,0,3.146-0.626,4.345-1.674c1.047-0.914,2.291-2.589,2.291-5.396V44.817H392.914z"/>
	<polygon clip-path="url(#SVGID_2_)" fill="#AD8500" points="393.489,44.817 393.489,19.765 393.489,19.189 392.914,19.765    392.914,44.817  "/>
	<path clip-path="url(#SVGID_2_)" fill="#8D2223" d="M359.052,52.826c-0.2-0.212-0.291-0.596-0.257-1.062   c0.24-0.23,0.401-0.541,0.444-0.88c0.045-0.367-0.051-0.729-0.259-1.028c0.025-0.636,0.2-1.226,0.842-2.038l0.726-0.931   l-1.18,0.575c-0.744,0.95-0.967,1.676-0.967,2.588c0.446,0.445,0.314,1.137-0.149,1.414c-0.118,0.789,0.043,1.391,0.383,1.758   L359.052,52.826z"/>
	<path clip-path="url(#SVGID_2_)" fill="#8D2223" d="M362.946,46.889l0.077,0.465c0.11,0.679-0.065,1.385-0.294,1.834v0.579   c0.144,0.191,0.232,0.441,0.25,0.714c0.021,0.339-0.062,0.664-0.244,0.916c0.064,1.854-0.535,2.899-1.065,3.455   c-0.585,0.615-1.454,0.962-2.269,0.949c-1.066-0.017-1.914-0.347-2.514-0.974l0.406-0.406c0.637,0.679,1.509,0.796,2.119,0.807   c1.172,0.02,2.94-0.953,2.736-4.043c0.373-0.306,0.321-1-0.012-1.188l0.002-0.952c0.226-0.352,0.41-1.026,0.317-1.596   L362.946,46.889z"/>
	<path clip-path="url(#SVGID_2_)" fill="#FFFFFF" d="M360.548,46.887l-0.077,0.467c-0.11,0.679,0.065,1.385,0.295,1.834v0.579   c-0.146,0.191-0.235,0.441-0.251,0.714c-0.021,0.339,0.068,0.664,0.251,0.916c-0.019,1.564-0.536,1.596-1.1,1.639   c-0.261,0.019-0.468-0.052-0.614-0.21l-0.416,0.396c0.263,0.279,0.637,0.417,1.075,0.386c1.004-0.077,1.653-0.468,1.633-2.421   c-0.367-0.301-0.323-0.983-0.002-1.183l-0.002-0.962c-0.227-0.352-0.396-1.027-0.305-1.595h1.421l0.489-0.559h-2.397"/>
	<path clip-path="url(#SVGID_2_)" fill="#FFFFFF" d="M355.352,47.462h4.016l1.181-0.575h-6.376l0.728,0.931   c0.64,0.811,0.813,1.403,0.841,2.039c-0.208,0.298-0.304,0.657-0.259,1.027c0.042,0.322,0.188,0.62,0.408,0.847   c0,1.359,0.334,2.401,0.999,3.098l0.406-0.407c-0.515-0.544-0.876-1.452-0.824-2.957c-0.467-0.277-0.597-0.969-0.149-1.414   C356.321,49.14,356.095,48.413,355.352,47.462"/>
	<path clip-path="url(#SVGID_2_)" fill="#BEBDC2" d="M361.103,64.917c-0.032-0.302-0.046-0.638-0.033-1.014h1.783   c-0.06,0.384-0.05,0.727,0.015,1.014H361.103z"/>
	<path clip-path="url(#SVGID_2_)" fill="#BEBDC2" d="M365.883,64.584c0.042-0.267,0.064-0.586,0.062-0.959l0.807-0.002   c0.021,0.348,0.02,0.667-0.002,0.961H365.883z"/>
	<path clip-path="url(#SVGID_2_)" fill="#DB2F36" d="M366.749,64.584c-0.185,2.335-1.694,3.1-2.738,3.085   c-0.976-0.015-2.631-0.314-2.909-2.752h1.766c0.165,0.766,0.712,1.185,1.441,1.129c0.812-0.062,1.392-0.326,1.573-1.462H366.749z"/>
	<path clip-path="url(#SVGID_2_)" fill="#DB2F36" d="M365.944,63.624c-0.369-0.301-0.323-0.981-0.002-1.182h0.796   c0.334,0.188,0.386,0.876,0.013,1.182H365.944z"/>
	<rect x="365.94" y="61.484" clip-path="url(#SVGID_2_)" fill="#BEBDC2" width="0.8" height="0.958"/>
	<path clip-path="url(#SVGID_2_)" fill="#DB2F36" d="M365.938,61.484c-0.226-0.353-0.393-1.029-0.3-1.597h1.418   c0.09,0.57-0.095,1.246-0.318,1.597H365.938z"/>
	<path clip-path="url(#SVGID_2_)" fill="#DB2F36" d="M360.919,62.49c-0.447,0.447-0.317,1.136,0.15,1.414h1.783   c0.465-0.278,0.595-0.967,0.147-1.414H360.919z"/>
	<path clip-path="url(#SVGID_2_)" fill="#DB2F36" d="M360.798,61.477c-0.135-0.501-0.395-1.001-0.846-1.573h4.015   c-0.451,0.574-0.71,1.072-0.845,1.573H360.798z"/>
	<path clip-path="url(#SVGID_2_)" fill="#BEBDC2" d="M363.123,61.477C363.035,61.804,363,62.13,363,62.49h-2.081   c0-0.359-0.034-0.684-0.121-1.013H363.123z"/>
	<path clip-path="url(#SVGID_2_)" fill="#8D2223" d="M363.653,65.267c-0.202-0.217-0.293-0.596-0.261-1.063   c0.241-0.23,0.404-0.542,0.446-0.881c0.044-0.363-0.052-0.729-0.26-1.025c0.027-0.637,0.2-1.226,0.841-2.041l0.728-0.929   l-1.18,0.576C363.225,60.852,363,61.576,363,62.49c0.447,0.447,0.317,1.136-0.147,1.414c-0.117,0.791,0.041,1.391,0.383,1.756   L363.653,65.267z"/>
	<path clip-path="url(#SVGID_2_)" fill="#8D2223" d="M367.546,59.328l0.076,0.465c0.109,0.68-0.064,1.385-0.295,1.836v0.579   c0.146,0.19,0.234,0.439,0.251,0.713c0.023,0.339-0.061,0.663-0.242,0.916c0.065,1.853-0.536,2.899-1.066,3.455   c-0.585,0.615-1.456,0.962-2.268,0.951c-1.069-0.019-1.914-0.349-2.515-0.976l0.406-0.408c0.64,0.68,1.51,0.801,2.118,0.811   c1.173,0.017,2.94-0.955,2.739-4.046c0.372-0.306,0.32-1-0.012-1.19v-0.949c0.224-0.351,0.408-1.026,0.318-1.596L367.546,59.328z"/>
	<path clip-path="url(#SVGID_2_)" fill="#FFFFFF" d="M365.147,59.328l-0.076,0.465c-0.11,0.68,0.062,1.385,0.295,1.836v0.579   c-0.148,0.19-0.237,0.439-0.253,0.713c-0.022,0.339,0.07,0.663,0.253,0.916c-0.02,1.564-0.538,1.598-1.099,1.638   c-0.262,0.019-0.47-0.051-0.616-0.207l-0.415,0.393c0.263,0.281,0.634,0.419,1.073,0.387c1.006-0.074,1.653-0.465,1.634-2.421   c-0.368-0.301-0.322-0.983-0.002-1.184l-0.003-0.958c-0.226-0.353-0.394-1.029-0.301-1.596h1.419l0.488-0.561H365.147"/>
	<path clip-path="url(#SVGID_2_)" fill="#FFFFFF" d="M359.952,59.904h4.015l1.181-0.576h-6.376l0.729,0.929   c0.638,0.813,0.812,1.405,0.84,2.041c-0.209,0.296-0.304,0.659-0.259,1.025c0.04,0.319,0.186,0.621,0.408,0.849   c0,1.359,0.335,2.399,0.999,3.096l0.406-0.408c-0.515-0.544-0.876-1.45-0.827-2.955c-0.466-0.278-0.596-0.967-0.148-1.414   C360.919,61.576,360.697,60.852,359.952,59.904"/>
	<rect x="366.262" y="17.881" clip-path="url(#SVGID_2_)" fill="#DB2F36" width="12.78" height="0.735"/>
	<path clip-path="url(#SVGID_2_)" fill="#C6C7C8" d="M364.219,11.957c-0.179-0.385-0.366-0.847-0.517-1.339l0.001-0.004   c-0.217,0.125-0.361,0.36-0.361,0.631c0,0.399,0.326,0.727,0.728,0.727c0.051,0,0.099-0.006,0.146-0.016L364.219,11.957z"/>
	<path clip-path="url(#SVGID_2_)" fill="#C6C7C8" d="M381.598,10.612c-0.154,0.492-0.337,0.958-0.516,1.343h0.002   c0.046,0.01,0.099,0.015,0.15,0.015c0.401,0,0.729-0.328,0.729-0.727C381.963,10.973,381.814,10.736,381.598,10.612"/>
	<path clip-path="url(#SVGID_2_)" fill="#FFFFFF" d="M372.37,7.023l-0.834,0.828c-1.97-0.616-4.848-1.956-6.595-0.978   c-2.277,1.276,0.101,5.546,0.322,5.824c-0.269-0.144-0.586-0.251-0.841-0.322c-0.502-0.981-1.257-2.821-0.972-4.289   c0.15-0.764,0.567-1.354,1.209-1.712c1.667-0.934,4.042-0.106,5.952,0.56c0.265,0.092,0.518,0.18,0.756,0.261L372.37,7.023z"/>
	<path clip-path="url(#SVGID_2_)" fill="#AD8500" d="M381.17,6.769c0.346,0.343,0.577,0.791,0.682,1.318   c0.286,1.471-0.471,3.312-0.974,4.292c-0.256,0.072-0.57,0.177-0.842,0.323l0.003-0.001c0.207-0.259,2.286-3.988,0.725-5.526   L381.17,6.769z"/>
	<path clip-path="url(#SVGID_2_)" fill="#FFFFFF" d="M380.377,7.561c0.008,0.007,0.018,0.017,0.023,0.025   c1.289,1.271-0.832,4.805-1.057,5.084c-0.134-0.125-0.284-0.252-0.434-0.377c0.451-0.589,1.92-3.477,1.089-4.3   c-0.009-0.01-0.017-0.018-0.027-0.028L380.377,7.561z"/>
	<path clip-path="url(#SVGID_2_)" fill="#AD8500" d="M379.972,7.965c-0.787-0.713-2.824-0.021-4.463,0.537   c-0.376,0.129-0.727,0.245-1.068,0.352l-0.547,3.359h0.001c-0.158-0.173-0.326-0.347-0.502-0.503v0.003l0.545-3.304   c2.077-0.597,5.143-2.071,6.439-0.848L379.972,7.965z"/>
	<path clip-path="url(#SVGID_2_)" fill="#FFFFFF" d="M371.367,8.409l0.558,3.314c-0.177,0.154-0.345,0.324-0.502,0.492l-0.001,0.002   l-0.562-3.364L371.367,8.409z"/>
	<path clip-path="url(#SVGID_2_)" fill="#AD8500" d="M370.86,8.854c-0.339-0.105-0.695-0.223-1.065-0.352   c-1.658-0.564-3.724-1.267-4.49-0.509c-0.83,0.821,0.652,3.702,1.098,4.29l-0.002,0.001c-0.151,0.129-0.303,0.258-0.442,0.386   l0.004-0.008c-0.225-0.279-2.345-3.805-1.062-5.076c1.282-1.267,4.372,0.222,6.468,0.823L370.86,8.854z"/>
	<polygon clip-path="url(#SVGID_2_)" fill="#8D2223" points="366.262,18.616 365.688,19.19 379.617,19.19 379.617,17.308    379.042,17.88 379.042,18.616  "/>
	<polygon clip-path="url(#SVGID_2_)" fill="#FFFFFF" points="379.042,17.88 379.616,17.308 365.687,17.308 365.687,19.19    366.261,18.616 366.261,17.88  "/>
	<path clip-path="url(#SVGID_2_)" fill="#FFFFFF" d="M360.726,24.683c-0.198-0.076-0.188-0.562-0.089-0.801   c0.121-0.163,0.433-0.011,0.588-0.221c0.399-0.545,0.688-0.587,0.688-0.587l-0.364-0.458l0.639-0.369l-0.427-0.416l-0.496,0.287   l-0.573,0.331l0.388,0.499l0.003,0.002c-0.101,0.104-0.178,0.198-0.227,0.26c-0.04,0.074-0.119,0.072-0.119,0.072   c-0.479-0.061-0.569,0.235-0.612,0.343c-0.02,0.052-0.044,0.11-0.06,0.178c-0.214-0.063-0.374-0.089-0.74-0.089   c-0.173-0.001-0.366-0.016-0.599-0.038l-0.843-0.078l0.791,0.649c1.124,0.106,1.38-0.095,1.82,0.668L360.726,24.683z"/>
	<path clip-path="url(#SVGID_2_)" fill="#8D2223" d="M370.332,54.958c-0.581,0.549-1.394,0.856-2.157,0.844   c-1.068-0.016-1.914-0.347-2.514-0.974l0.467-0.463c0.64,0.729,1.541,0.853,2.167,0.863c0.591,0.011,1.334-0.231,1.898-0.872   L370.332,54.958z"/>
	<path clip-path="url(#SVGID_2_)" fill="#7C7C82" d="M370.193,54.356h-2.421c-0.678,0-1.38-0.297-1.872-0.788l0.389-0.423   c0.433,0.438,1.012,0.638,1.483,0.638h2.309c0.914,0,1.823,0.534,2.277,1.129l-0.779,0.777c-0.361-0.362-0.788-0.633-1.246-0.731   L370.193,54.356z"/>
	<path clip-path="url(#SVGID_2_)" fill="#FFFFFF" d="M377.599,56.764l-0.008-0.567l-0.013-0.914   c-0.244-0.113-0.46-0.229-0.655-0.354l0.181-0.572c0.274,0.191,0.615,0.379,1.05,0.548l0.012,1.285L377.599,56.764z"/>
	<polygon clip-path="url(#SVGID_2_)" fill="#AD8500" points="379.241,56.189 378.166,56.189 377.599,56.764 378.166,56.764    378.464,56.764  "/>
	<path clip-path="url(#SVGID_2_)" fill="#FFFFFF" d="M374.283,56.64l0.728-0.24c0.138-0.05,0.242-0.088,0.333-0.121   c0.338-0.124,0.53-0.187,0.947-0.128c0.557,0.08,0.819,0.428,0.996,0.659c0.175,0.234,0.28,0.43,0.727,0.43   c0.174,0,0.327-0.202,0.452-0.476l0.774-0.575c0,0-0.296,1.618-1.299,1.618c-1.221,0-0.992-0.982-1.729-1.088   c-0.392-0.057-0.433,0.027-1.021,0.224L374.283,56.64z"/>
	<path clip-path="url(#SVGID_2_)" fill="#AD8500" d="M377.314,59.176c-0.629-0.066-2.124-2.233-2.124-2.233l-0.906-0.303l0.434,0.63   c0.018,0.022,0.395,0.564,0.857,1.127c0.523,0.643,0.897,0.979,1.175,1.154L377.314,59.176z"/>
	<polygon clip-path="url(#SVGID_2_)" fill="#FFFFFF" points="376.774,60.207 376.755,59.615 376.75,59.551 377.315,59.176    377.33,59.595  "/>
	<path clip-path="url(#SVGID_2_)" fill="#AD8500" d="M382.835,59.933c-1.232-0.7-2.658-1.789-2.658-1.789   c-1.132,1.34-2.847,1.452-2.847,1.452l-0.557,0.61l0.591-0.038c0.073-0.006,1.636-0.117,2.877-1.262   c0.229,0.168,0.544,0.394,0.896,0.632L382.835,59.933z"/>
	<path clip-path="url(#SVGID_2_)" fill="#FFFFFF" d="M373.999,68.329l-0.008-0.568c-0.003-0.394,0.037-0.963,0.413-1.332   c0.399-0.396,0.947-0.384,1.528-0.374c0.392,0.011,0.983,0,1.208-0.062c0.224-0.063,0.232-0.175,0.206-0.628   c-0.152-2.622-0.162-3.857,0.396-4.662c0.586-0.847,1.595-0.974,3.392-1.163h0.003l1.697,0.395   c-4.934,0.596-5.232-0.057-4.916,5.399c0.028,0.484,0.035,1.102-0.54,1.209c-1.752,0.336-2.83-0.482-2.812,1.212L373.999,68.329z"/>
	<path clip-path="url(#SVGID_2_)" fill="#AD8500" d="M383.04,62.166c-1.006-0.073-2.96,0.096-3.127,1.92l0.019,2.887h-0.951   c0.073,0.389-0.093,0.689-0.577,0.781h-3.837l-0.567,0.575h0.567h3.837h0.054l0.053-0.013c0.509-0.097,0.859-0.38,0.996-0.771   h-0.005h0.431h0.576l-0.004-0.577l-0.019-2.884l-0.003,0.053c0.104-1.11,1.151-1.373,1.942-1.407L383.04,62.166z"/>
	<path clip-path="url(#SVGID_2_)" fill="#FFFFFF" d="M383.065,64.754c-0.542-0.581-0.646-1.437-0.641-2.027l-0.002,0.002   l0.617-0.563c0,0-0.231,1.443,0.426,2.179L383.065,64.754z"/>
	<path clip-path="url(#SVGID_2_)" fill="#FFFFFF" d="M363.177,39.49c-0.538-0.578-0.641-1.435-0.638-2.026v0.001l0.615-0.561   c0,0-0.231,1.442,0.427,2.177L363.177,39.49z"/>
	<path clip-path="url(#SVGID_2_)" fill="#AD8500" d="M387.775,64.952c-0.179-0.177-0.393-0.195-0.479-0.195h-1.724H384.7   c-0.59,0.05-0.979-0.128-1.234-0.412l-0.401,0.41c0.283,0.302,0.803,0.65,1.685,0.574l-0.049,0.002h0.873h1.724   c0,0,0.044,0,0.07,0.027L387.775,64.952z"/>
	<path clip-path="url(#SVGID_2_)" fill="#8D2223" d="M365.109,39.492h-0.298c-0.586,0.053-0.976-0.126-1.231-0.411l-0.403,0.409   c0.247,0.265,0.674,0.562,1.359,0.584L365.109,39.492z"/>
	<path clip-path="url(#SVGID_2_)" fill="#FFFFFF" d="M384.047,68.329l-0.007-0.568c-0.005-0.394,0.032-0.963,0.409-1.332   c0.398-0.396,0.952-0.384,1.531-0.374c0.392,0.011,0.981-0.008,1.207-0.062c0.309-0.078,0.206-0.461,0.206-0.562   c0-0.034-0.01-0.058-0.025-0.072l0.407-0.406c0.102,0.101,0.169,0.236,0.188,0.381c0.027,0.484,0.033,1.102-0.537,1.209   c-1.751,0.336-2.832-0.482-2.814,1.212L384.047,68.329z"/>
	<path clip-path="url(#SVGID_2_)" fill="#AD8500" d="M389.818,65.08c0.236,0.7,0.173,1.145,0.156,1.893h-0.947   c0.073,0.389-0.093,0.689-0.578,0.781h-3.837l-0.565,0.575h0.565h3.837h0.054l0.053-0.013c0.508-0.097,0.856-0.38,0.996-0.771   h-0.005h0.428h0.579l0.004-0.861c0.021-0.586,0.039-1.091-0.195-1.786c-0.031-0.088-0.071-0.168-0.119-0.242L389.818,65.08z"/>
	<path clip-path="url(#SVGID_2_)" fill="#FFFFFF" d="M387.571,63.445c0.15,0.105,0.492,0.191,0.84,0.287   c0.735,0.201,1.493,0.41,1.831,0.921l-0.424,0.428c-0.228-0.671-1.993-0.751-2.58-1.17c-0.028-0.02-0.05-0.039-0.073-0.062   L387.571,63.445z"/>
	<path clip-path="url(#SVGID_2_)" fill="#AD8500" d="M389.437,55.1c0,0,0.251,3.174-1.221,3.528c0,0,0.262,1.751-1.376,2.505   l-0.017,0.208c0.019,0.888-0.114,2.064,0.343,2.508l0.405-0.404c-0.194-0.14-0.183-1.205-0.176-1.658l0.014-0.308   c1.066-0.65,1.377-1.727,1.398-2.481c1.403-0.829,1.227-3.602,1.197-3.941l-0.036-0.479L389.437,55.1z"/>
	<path clip-path="url(#SVGID_2_)" fill="#FFFFFF" d="M389.7,54.548l0.27,0.029l-0.533,0.522c-0.341-0.033-0.475,0.103-0.475,0.103   L389.7,54.548z"/>
	<path clip-path="url(#SVGID_2_)" fill="#AD8500" d="M390.136,49.299c0,0-0.234,0.623-0.242,1.414   c-0.007,0.617,0.428,2.292-0.634,2.683c0,0-0.038,0.93-0.298,1.807l0.738-0.654c0.057-0.311,0.089-0.587,0.106-0.791   c0.889-0.596,0.761-1.894,0.689-2.627c-0.017-0.162-0.03-0.318-0.029-0.409c0.007-0.675,0.204-1.218,0.206-1.223l0.249-0.677   L390.136,49.299z"/>
	<path clip-path="url(#SVGID_2_)" fill="#FFFFFF" d="M388.129,49.241c0.41-0.302,1.106-0.636,2.079-0.513l0.715,0.094l-0.788,0.478   c-1.32-0.169-1.992,0.707-1.992,0.707L388.129,49.241z"/>
	<path clip-path="url(#SVGID_2_)" fill="#FFFFFF" d="M387.107,48.973c-0.315-0.027-0.592-0.018-0.741-0.005l-0.663,0.053   c0.238,0.85,0.28,1.751,0.286,1.896l0.021,0.593h-0.227c0.229,0.973,0.3,2.043,0.303,2.1l0.038,0.596l-0.306,0.007l0.002-0.002   c0.225,1.29,0.172,1.833,0.14,1.94l-0.055,0.426c0.164,0.501,0.667,0.63,0.955,1.86c0.075,0.31,0.013,0.592-0.139,0.872   c-0.286-0.316-0.727-0.688-1.397-1.046l-0.426,0.425c1.479,0.739,1.773,1.559,1.773,1.559c0.755-0.651,0.796-1.262,0.782-1.824   c-0.027-1.271-1.06-1.339-0.756-3.715c0.068-0.512-0.026-0.447,0.169-1.285c0,0-0.406-0.459-0.376-1.256   c0.021-0.644,0.098-1.855-0.08-2.627c0,0,0.33-0.025,0.708,0.013L387.107,48.973z"/>
	<path clip-path="url(#SVGID_2_)" fill="#FFFFFF" d="M367.222,23.708c-0.315-0.025-0.592-0.015-0.74-0.003l-0.665,0.052   c0.24,0.85,0.281,1.75,0.287,1.897l0.021,0.594l-0.227-0.002c0.229,0.972,0.299,2.043,0.303,2.099l0.039,0.599l-0.305,0.007   l0.002-0.001c0.224,1.287,0.169,1.83,0.14,1.937l-0.057,0.427c0.164,0.5,0.664,0.63,0.955,1.859   c0.076,0.309,0.011,0.592-0.138,0.873c-0.285-0.316-0.729-0.69-1.398-1.047l-0.427,0.427c1.481,0.737,1.775,1.56,1.775,1.56   c0.753-0.651,0.791-1.264,0.779-1.824c-0.026-1.271-1.057-1.341-0.752-3.715c0.065-0.512-0.027-0.448,0.166-1.284   c0,0-0.404-0.461-0.376-1.258c0.021-0.643,0.098-1.856-0.078-2.626c0,0,0.328-0.027,0.707,0.012L367.222,23.708z"/>
	<path clip-path="url(#SVGID_2_)" fill="#AD8500" d="M387.119,49.552c0.403,0.042,0.859,0.157,1.022,0.454l-0.014-0.766   c-0.311-0.165-0.686-0.238-1.021-0.268L387.119,49.552z"/>
	<path clip-path="url(#SVGID_2_)" fill="#8D2223" d="M367.233,24.289c0.403,0.04,0.861,0.156,1.021,0.455l-0.015-0.764   c-0.31-0.167-0.685-0.243-1.02-0.272L367.233,24.289z"/>
	<path clip-path="url(#SVGID_2_)" fill="#AD8500" d="M384.94,47.774l-0.223,0.445c0.625,0.764,0.698,2.72,0.698,2.72h-0.403   c0.392,0.989,0.499,2.71,0.499,2.71l-0.386,0.01c0.386,1.733,0.223,2.343,0.223,2.343h-1.564c0.022,0.089-0.249,2.008,1.115,2.687   l0.424-0.425c-0.055-0.029-0.111-0.059-0.171-0.088c-0.49-0.243-0.758-0.782-0.797-1.601l-0.001,0.002h0.994h0.556l0.055-0.426   c0.033-0.107,0.085-0.65-0.14-1.94l-0.002,0.002l0.307-0.007l-0.039-0.596c-0.003-0.057-0.073-1.127-0.303-2.1h0.228l-0.021-0.593   c-0.007-0.196-0.08-1.769-0.614-2.739l0.078-0.15l0.228-0.455L384.94,47.774z"/>
	<polygon clip-path="url(#SVGID_2_)" fill="#FFFFFF" points="378.397,29.641 378.411,30.924 377.843,31.499 377.837,30.931    377.825,30.021  "/>
	<polygon clip-path="url(#SVGID_2_)" points="379.486,30.924 378.41,30.924 377.844,31.499 378.41,31.499 378.712,31.498  "/>
	<path clip-path="url(#SVGID_2_)" fill="#FFFFFF" d="M374.53,31.378l0.726-0.243c0.138-0.046,0.241-0.085,0.334-0.119   c0.336-0.125,0.53-0.187,0.946-0.128c0.557,0.08,0.821,0.428,0.996,0.656c0.176,0.235,0.281,0.433,0.728,0.433   c0.172,0,0.328-0.202,0.453-0.479l0.772-0.574c0,0-0.295,1.623-1.298,1.623c-1.222,0-0.993-0.985-1.729-1.091   c-0.394-0.055-0.438,0.029-1.022,0.225L374.53,31.378z"/>
	<path clip-path="url(#SVGID_2_)" d="M377.559,33.915c-0.627-0.07-2.124-2.234-2.124-2.234l-0.904-0.302l0.434,0.626   c0.018,0.024,0.391,0.567,0.855,1.131c0.527,0.64,0.897,0.977,1.176,1.155L377.559,33.915z"/>
	<polygon clip-path="url(#SVGID_2_)" fill="#FFFFFF" points="377.021,34.944 376.999,34.352 376.995,34.292 377.558,33.914    377.573,34.334  "/>
	<path clip-path="url(#SVGID_2_)" d="M383.081,34.667c-1.235-0.696-2.659-1.785-2.659-1.785c-1.13,1.339-2.849,1.452-2.849,1.452   l-0.554,0.61l0.591-0.036c0.072-0.005,1.634-0.122,2.875-1.264c0.232,0.17,0.546,0.394,0.896,0.634L383.081,34.667z"/>
	<path clip-path="url(#SVGID_2_)" fill="#8D2223" d="M362.951,34.667c-1.235-0.696-2.661-1.785-2.661-1.785   c-1.129,1.339-2.848,1.452-2.848,1.452l-0.554,0.61l0.591-0.036c0.072-0.005,1.634-0.122,2.875-1.264   c0.231,0.17,0.544,0.394,0.899,0.634L362.951,34.667z"/>
	<path clip-path="url(#SVGID_2_)" fill="#FFFFFF" d="M354.112,43.063l-0.005-0.567c-0.006-0.394,0.032-0.959,0.411-1.332   c0.398-0.396,0.947-0.384,1.529-0.372c0.392,0.011,0.983,0,1.207-0.064c0.225-0.062,0.232-0.177,0.205-0.625   c-0.151-2.625-0.159-3.856,0.399-4.664c0.587-0.845,1.592-0.975,3.39-1.161h0.005l1.697,0.389   c-4.935,0.598-5.233-0.053-4.918,5.401c0.029,0.483,0.036,1.101-0.539,1.211c-1.75,0.336-2.83-0.485-2.812,1.21L354.112,43.063z"/>
	<path clip-path="url(#SVGID_2_)" fill="#8D2223" d="M363.155,36.903c-1.007-0.076-2.961,0.092-3.129,1.918l0.019,2.887h-0.95   c0.074,0.39-0.093,0.688-0.577,0.78h-3.836l-0.568,0.574h0.568h3.836h0.055l0.055-0.009c0.507-0.099,0.854-0.381,0.993-0.772   h-0.005h0.43h0.578l-0.005-0.577l-0.02-2.887l-0.002,0.056c0.104-1.113,1.15-1.371,1.943-1.409L363.155,36.903z"/>
	<path clip-path="url(#SVGID_2_)" fill="#FFFFFF" d="M383.88,39.49c-0.537-0.578-0.641-1.435-0.637-2.026v0.001l0.615-0.561   c0,0-0.231,1.442,0.428,2.177L383.88,39.49z"/>
	<path clip-path="url(#SVGID_2_)" d="M388.021,39.689c-0.178-0.177-0.394-0.198-0.478-0.198h-1.152h-0.873   c-0.587,0.053-0.978-0.126-1.232-0.41l-0.406,0.408c0.287,0.306,0.81,0.653,1.688,0.575l-0.049,0.001h0.873h1.152   c0,0,0.041,0,0.069,0.029L388.021,39.689z"/>
	<path clip-path="url(#SVGID_2_)" fill="#FFFFFF" d="M384.292,43.063l-0.008-0.567c-0.005-0.394,0.033-0.959,0.41-1.332   c0.399-0.396,0.947-0.384,1.528-0.372c0.394,0.011,0.983-0.009,1.21-0.064c0.31-0.074,0.207-0.46,0.207-0.561   c0-0.033-0.012-0.058-0.026-0.072l0.407-0.403c0.1,0.101,0.167,0.232,0.189,0.377c0.028,0.483,0.034,1.101-0.54,1.211   c-1.749,0.336-2.829-0.485-2.812,1.21L384.292,43.063z"/>
	<path clip-path="url(#SVGID_2_)" d="M390.064,39.819c0.235,0.696,0.176,1.144,0.156,1.89h-0.948c0.071,0.39-0.093,0.688-0.579,0.78   h-3.836l-0.565,0.574h0.565h3.836h0.053l0.057-0.009c0.507-0.099,0.855-0.381,0.995-0.772h-0.006h0.429h0.578l0.005-0.863   c0.022-0.585,0.04-1.088-0.2-1.786c-0.028-0.088-0.068-0.169-0.117-0.242L390.064,39.819z"/>
	<path clip-path="url(#SVGID_2_)" fill="#FFFFFF" d="M387.818,38.182c0.146,0.105,0.493,0.192,0.836,0.288   c0.735,0.201,1.496,0.407,1.831,0.92l-0.421,0.429c-0.23-0.672-1.997-0.751-2.582-1.17c-0.025-0.019-0.048-0.04-0.073-0.062   L387.818,38.182z"/>
	<path clip-path="url(#SVGID_2_)" d="M389.682,29.835c0,0,0.25,3.176-1.22,3.532c0,0,0.259,1.747-1.378,2.503l-0.016,0.207   c0.019,0.886-0.113,2.063,0.342,2.51l0.408-0.405c-0.195-0.14-0.185-1.206-0.178-1.659l0.014-0.308   c1.064-0.648,1.377-1.725,1.398-2.48c1.403-0.832,1.229-3.604,1.201-3.944l-0.036-0.477L389.682,29.835z"/>
	<path clip-path="url(#SVGID_2_)" fill="#FFFFFF" d="M385.948,23.757c0.238,0.851,0.278,1.75,0.284,1.896l0.021,0.595l-0.224-0.002   c0.225,0.972,0.298,2.043,0.3,2.099l0.041,0.599l-0.306,0.007l0.002-0.001c0.222,1.286,0.168,1.83,0.139,1.937l-0.056,0.427   c0.165,0.5,0.664,0.63,0.956,1.859c0.074,0.308,0.014,0.592-0.14,0.871c-0.284-0.315-0.729-0.689-1.396-1.045l-0.429,0.427   c1.484,0.736,1.776,1.558,1.776,1.558c0.753-0.65,0.794-1.263,0.782-1.823c-0.029-1.271-1.059-1.341-0.753-3.715   c0.062-0.512-0.029-0.449,0.165-1.284c0,0-0.407-0.462-0.379-1.258c0.025-0.643,0.101-1.857-0.076-2.626L385.948,23.757z"/>
	<path clip-path="url(#SVGID_2_)" d="M386.657,24.278c0,0,1.412-0.112,1.73,0.466l-0.083-0.806   c-0.628-0.289-1.385-0.257-1.693-0.233l-0.662,0.053L386.657,24.278z"/>
	<path clip-path="url(#SVGID_2_)" d="M385.186,22.509l-0.224,0.447c0.628,0.762,0.695,2.718,0.695,2.718h-0.4   c0.388,0.992,0.498,2.709,0.498,2.709l-0.384,0.009c0.384,1.735,0.224,2.346,0.224,2.346h-1.562   c0.021,0.089-0.255,2.006,1.109,2.688l0.428-0.428c-0.054-0.03-0.11-0.057-0.168-0.088c-0.492-0.243-0.762-0.781-0.798-1.6   l-0.003,0.002h0.994h0.555l0.056-0.427c0.029-0.107,0.083-0.65-0.139-1.937l-0.002,0.001l0.306-0.008l-0.042-0.598   c-0.001-0.056-0.074-1.128-0.299-2.098l0.224,0.001l-0.021-0.594c-0.008-0.197-0.08-1.768-0.613-2.737l0.493-0.975L385.186,22.509z   "/>
	<polygon clip-path="url(#SVGID_2_)" fill="#FFFFFF" points="384.506,47.488 384.94,47.774 385.683,47.572 385.253,47.293    384.918,47.07  "/>
	<polygon clip-path="url(#SVGID_2_)" fill="#F0B700" points="382.69,47.095 383.3,46.655 383.903,47.083 384.317,46.667    384.237,46.615 383.633,46.185 383.296,45.949 382.965,46.189 382.354,46.631 382.277,46.681  "/>
	<path clip-path="url(#SVGID_2_)" fill="#AD8500" d="M382.69,47.095c0,0,0.529,0.688,0.091,0.938   c-0.339,0.192-0.621-0.277-0.708-0.521l-0.429-0.416l0.142-0.082l0.491-0.332L382.69,47.095z"/>
	<path clip-path="url(#SVGID_2_)" fill="#AD8500" d="M383.903,47.083c-0.11,0.099-0.515,0.613-0.164,0.881   c0.293,0.222,0.768-0.476,0.768-0.476l0.41-0.418l-0.096-0.062l-0.504-0.341L383.903,47.083z"/>
	<path clip-path="url(#SVGID_2_)" fill="#FFFFFF" d="M367.492,30.386c0.333-0.224,0.913-0.335,0.913-0.335   c0.354-1.266,0.409-1.842,0.409-1.842l-0.612,0.156c-0.006,0.042-0.08,0.19-0.193,1.375L367.492,30.386z"/>
	<path clip-path="url(#SVGID_2_)" fill="#8D2223" d="M367.492,30.386c0,0-0.214,0.018,0.069-2.029c0,0,0.592,0,0.621-0.897   c0.223,0.448,0.279,0.467,0.632,0.75l-0.612,0.156c-0.006,0.042-0.08,0.19-0.193,1.375L367.492,30.386z"/>
	<path clip-path="url(#SVGID_2_)" fill="#8D2223" d="M368.533,35.176c0.274-0.493,0.379-1.019,0.389-1.44   c1.404-0.833,1.229-3.604,1.2-3.946l-0.037-0.477l-0.533,0.522c0,0,0.251,3.176-1.22,3.532c0,0,0.236,1.583-1.154,2.387   L368.533,35.176z"/>
	<path clip-path="url(#SVGID_2_)" fill="#FFFFFF" d="M369.813,29.286l0.272,0.027l-0.533,0.522   c-0.344-0.036-0.476,0.104-0.476,0.104L369.813,29.286z"/>
	<path clip-path="url(#SVGID_2_)" fill="#8D2223" d="M370.252,24.035c0,0-0.235,0.626-0.246,1.416   c-0.005,0.616,0.431,2.292-0.632,2.68c0,0-0.039,0.933-0.297,1.809l0.736-0.653c0.057-0.311,0.089-0.59,0.107-0.792   c0.89-0.595,0.761-1.896,0.691-2.625c-0.017-0.166-0.032-0.32-0.031-0.412c0.006-0.673,0.202-1.219,0.207-1.224l0.246-0.676   L370.252,24.035z"/>
	<path clip-path="url(#SVGID_2_)" fill="#FFFFFF" d="M368.24,23.979c0.415-0.304,1.109-0.636,2.083-0.513   c0,0,0.713,0.09,0.712,0.091l-0.784,0.478c-1.322-0.168-1.995,0.708-1.995,0.708L368.24,23.979z"/>
	<path clip-path="url(#SVGID_2_)" fill="#8D2223" d="M365.056,22.507l-0.226,0.448c0.63,0.762,0.698,2.719,0.698,2.719h-0.4   c0.387,0.992,0.499,2.709,0.499,2.709l-0.387,0.009c0.387,1.735,0.226,2.346,0.226,2.346h-1.566   c0.023,0.089-0.252,2.006,1.113,2.688l0.425-0.428c-0.053-0.03-0.109-0.058-0.17-0.088c-0.489-0.243-0.759-0.781-0.796-1.6   l-0.002,0.002h0.996h0.553l0.057-0.427c0.03-0.107,0.084-0.65-0.14-1.937l-0.002,0.001l0.306-0.008l-0.04-0.598   c-0.003-0.056-0.073-1.128-0.303-2.099l0.228,0.002l-0.021-0.594c-0.006-0.197-0.08-1.768-0.614-2.737l0.079-0.151l0.226-0.458   L365.056,22.507z"/>
	<polygon clip-path="url(#SVGID_2_)" fill="#FFFFFF" points="364.622,22.225 365.055,22.507 365.795,22.309 365.369,22.029    365.031,21.807  "/>
	<polygon clip-path="url(#SVGID_2_)" fill="#AD8500" points="362.805,21.833 363.415,21.391 364.021,21.819 364.432,21.404    364.35,21.353 363.746,20.923 363.41,20.685 363.08,20.927 362.469,21.369 362.392,21.419  "/>
	<path clip-path="url(#SVGID_2_)" fill="#F0B700" d="M362.805,21.833c0,0,0.531,0.684,0.089,0.937   c-0.335,0.191-0.617-0.281-0.706-0.522l-0.429-0.416l0.142-0.08l0.491-0.333L362.805,21.833z"/>
	<path clip-path="url(#SVGID_2_)" fill="#F0B700" d="M364.021,21.82c-0.112,0.095-0.518,0.615-0.168,0.879   c0.293,0.224,0.769-0.475,0.769-0.475l0.408-0.418l-0.095-0.06l-0.504-0.342L364.021,21.82z"/>
	<path clip-path="url(#SVGID_2_)" fill="#FFFFFF" d="M381.755,50.185c0.083,0.126,0.14,0.635-0.125,0.699   c-0.183,0.042-0.45-0.021-0.701,0.025c-0.305,0.058-0.148,0.678,0.185,0.727l-0.449,0.427c-0.21-0.143-0.406-0.325-0.477-0.562   L381.755,50.185z"/>
	<path clip-path="url(#SVGID_2_)" d="M380.189,41.708h0.571l-0.003-2.887c0.168-1.825,2.107-1.995,3.112-1.918l-0.614,0.561v0.001   c-0.792,0.037-1.84,0.295-1.939,1.407l0.002-0.056l0.017,2.887l0.004,0.785h-0.578L380.189,41.708z"/>
	<path clip-path="url(#SVGID_2_)" fill="#FFFFFF" d="M381.478,48.492c-0.101,0.097-0.224,0.234-0.368,0.433   c-0.154,0.21-0.464,0.059-0.587,0.221c-0.1,0.238-0.109,0.726,0.087,0.802l-0.422,0.609v-2.072c0.124-0.013,0.262-0.014,0.35-0.133   l0.225-0.752l0.386-0.218l0.497-0.286l0.429,0.416l-0.64,0.368l0.327,0.407C381.761,48.287,381.658,48.322,381.478,48.492"/>
	<path clip-path="url(#SVGID_2_)" fill="#AD8500" d="M380.609,49.946c0.32,0.124,0.936-0.075,1.145,0.239l-0.622,0.514   c-0.182-0.187-0.621-0.092-0.945-0.143L380.609,49.946z"/>
	<path clip-path="url(#SVGID_2_)" fill="#DB2F36" d="M380.188,50.556c0.324,0.051,0.764-0.044,0.946,0.143l-0.946,0.802V50.556z"/>
	<path clip-path="url(#SVGID_2_)" fill="#AD8500" d="M380.645,52.075l0.469-0.438c0.293,0.042,0.613-0.078,0.684-0.086   c0.312-0.027,0.433,0.233,0.398,0.513L380.645,52.075z"/>
	<path clip-path="url(#SVGID_2_)" fill="#FFFFFF" d="M382.196,52.063c-0.033,0.258-0.192,0.534-0.455,0.607   c-0.201,0.057-1.01-0.108-1.759,0.019l0.662-0.614L382.196,52.063z"/>
	<path clip-path="url(#SVGID_2_)" fill="#FFFFFF" d="M372.651,55.636c-0.002-0.229-0.109-0.479-0.293-0.725l-0.778,0.777   c0.642,0.638,1.067,1.551,1.071,2.214V55.636z"/>
	<path clip-path="url(#SVGID_2_)" fill="#FFFFFF" d="M366.289,53.145c-0.352-0.361-0.603-0.885-0.603-1.597V36.326h13.927   l0.574-0.574h-1.722c0.572-0.81,1.884-0.755,4.614-1.085l-1.702-0.389c-1.591,0.166-2.564,0.287-3.171,0.902h-9.679l-1.359,0.573   h-2.057v3.744l-0.574,0.577v1.091c-0.375,0.373-0.388,0.938-0.384,1.332l0.007,0.567l0.567-0.574   c-0.007-0.601,0.135-0.886,0.384-1.021l-0.002,1.019l-0.572,0.576v3.824h-1.592l0.728,0.931c0.637,0.811,0.812,1.403,0.84,2.038   c-0.209,0.299-0.305,0.658-0.259,1.028c0.04,0.322,0.186,0.62,0.405,0.847c0,1.359,0.339,2.401,1.001,3.097l0.467-0.463   c-0.287-0.324-0.52-0.77-0.654-1.372c0.119,0.213,0.252,0.399,0.427,0.576L366.289,53.145z"/>
	<path clip-path="url(#SVGID_2_)" fill="#DB2F36" d="M370.193,54.356h-2.421c-0.678,0-1.38-0.297-1.872-0.788   c-0.175-0.176-0.308-0.362-0.427-0.575c0.135,0.603,0.367,1.048,0.654,1.372c0.64,0.729,1.541,0.853,2.166,0.863   C368.886,55.239,369.629,54.997,370.193,54.356"/>
	<path clip-path="url(#SVGID_2_)" fill="#646567" d="M378.467,35.752c0.571-0.81,1.884-0.756,4.614-1.085   c-1.235-0.696-2.659-1.785-2.659-1.785c-1.13,1.34-2.849,1.453-2.849,1.453l-0.016-0.419c-0.627-0.071-2.122-2.234-2.122-2.234   c0.585-0.196,0.629-0.28,1.022-0.225c0.735,0.105,0.508,1.091,1.729,1.091c1.003,0,1.298-1.623,1.298-1.623h-1.075l-0.013-1.283   c-1.687-0.657-2.037-1.648-2.037-1.648l0.388-0.279c-0.543-1.09-0.141-3.087-0.141-3.087c1.678,0.531,0.96,1.438,1.104,2.305   c0.069,0.419,1.397,1.117,1.397,1.117c0.696-1.019,2.558-0.552,2.878-0.642c0.543-0.153,0.655-1.173,0.054-1.119   c-0.07,0.007-0.39,0.127-0.685,0.084c-0.329-0.046-0.488-0.671-0.181-0.725c0.248-0.045,0.52,0.013,0.698-0.028   c0.263-0.06,0.209-0.572,0.126-0.698c-0.209-0.314-0.824-0.113-1.145-0.237c-0.196-0.077-0.159-0.551-0.089-0.8   c0.044-0.157,0.817-0.074,1.027-0.347c0.26-0.289,0.653-0.969,1.095-1.037l2.297,0.009l-0.224,0.447   c0.628,0.762,0.695,2.719,0.695,2.719h-0.4c0.388,0.99,0.498,2.709,0.498,2.709l-0.384,0.007c0.384,1.737,0.224,2.346,0.224,2.346   h-1.562c0.021,0.089-0.255,2.008,1.109,2.688c1.483,0.736,1.775,1.559,1.775,1.559c0.752-0.65,0.794-1.263,0.782-1.823   c-0.03-1.271-1.06-1.341-0.753-3.715c0.062-0.512-0.029-0.45,0.166-1.285c0,0-0.408-0.462-0.38-1.258   c0.025-0.644,0.101-1.857-0.076-2.625c0,0,1.414-0.113,1.731,0.465c0.404-0.949,2.277-0.769,1.425,1.968   c-0.645-0.319-0.699,0.267-0.851,0.755c-0.227,0.714-0.864,0.931-1.267,0.891c-0.289,2.047-0.074,2.029-0.074,2.029   c0.719-0.619,2.061-0.55,2.061-0.55s0.251,3.176-1.219,3.532c0,0,0.258,1.747-1.379,2.503l-0.015,0.208   c0.019,0.932-0.127,2.183,0.415,2.571c0.585,0.419,2.349,0.498,2.579,1.169c0.236,0.697,0.177,1.146,0.158,1.891h-0.949   c0.071,0.39-0.093,0.688-0.579,0.78h-0.391l-0.574-0.573l-0.574,0.573l-0.575-0.573l-0.572,0.573l-0.574-0.573l-0.575,0.573   c-0.017-1.695,1.063-0.874,2.812-1.209c0.575-0.112,0.569-0.729,0.539-1.21c-0.02-0.146-0.088-0.278-0.188-0.381   c-0.178-0.177-0.395-0.198-0.479-0.198h-1.726h-0.287c-2.106,0.188-1.661-2.587-1.661-2.587c-1.002-0.077-2.943,0.093-3.109,1.918   l0.003,2.887h-0.572l-0.002-5.957H378.467z"/>
	<path clip-path="url(#SVGID_2_)" fill="#DB2F36" d="M365.113,35.752v3.744l-0.577,0.003c-0.402-0.016-0.696-0.158-0.905-0.366   c-0.72-0.719-0.477-2.229-0.477-2.229c-1.005-0.075-2.96,0.093-3.129,1.919l0.021,2.886h-0.952   c0.075,0.391-0.093,0.689-0.576,0.781h-0.396l-0.574-0.573l-0.574,0.573l-0.575-0.573l-0.571,0.573l-0.574-0.573l-0.57,0.573   c-0.02-1.695,1.062-0.874,2.812-1.209c0.575-0.112,0.567-0.729,0.54-1.21c-0.315-5.457-0.019-4.806,4.917-5.404   c-1.235-0.696-2.661-1.785-2.661-1.785c-1.129,1.34-2.848,1.453-2.848,1.453l-0.014-0.419c-0.629-0.071-2.124-2.234-2.124-2.234   c0.588-0.197,0.63-0.28,1.022-0.225c0.735,0.105,0.509,1.091,1.73,1.091c1.002,0,1.297-1.624,1.297-1.624h-1.075l-0.012-1.283   c-1.688-0.657-2.041-1.649-2.041-1.649l0.393-0.278c-0.545-1.09-0.141-3.087-0.141-3.087c1.676,0.531,0.96,1.438,1.104,2.305   c0.067,0.419,1.397,1.117,1.397,1.117c0.695-1.02,2.556-0.552,2.878-0.642c0.542-0.154,0.654-1.173,0.055-1.119   c-0.069,0.007-0.392,0.128-0.685,0.085c-0.333-0.047-0.489-0.672-0.183-0.726c0.251-0.045,0.518,0.013,0.7-0.029   c0.26-0.059,0.209-0.571,0.126-0.697c-0.209-0.314-0.826-0.113-1.146-0.237c-0.198-0.077-0.188-0.562-0.089-0.8   c0.122-0.164,0.434-0.013,0.588-0.221c0.399-0.545,0.688-0.587,0.688-0.587l-0.365-0.459l0.64-0.369   c0.088,0.242,0.372,0.714,0.706,0.521c0.443-0.251-0.089-0.936-0.089-0.936l0.612-0.442l0.604,0.429   c-0.11,0.095-0.517,0.615-0.167,0.879c0.293,0.225,0.769-0.474,0.769-0.474l0.434,0.281l-0.226,0.449   c0.63,0.762,0.698,2.72,0.698,2.72h-0.4c0.387,0.99,0.499,2.709,0.499,2.709l-0.387,0.007c0.387,1.737,0.226,2.346,0.226,2.346   h-1.566c0.023,0.09-0.252,2.008,1.113,2.688c1.481,0.736,1.773,1.559,1.773,1.559c0.753-0.65,0.793-1.263,0.781-1.823   c-0.028-1.271-1.059-1.341-0.752-3.715c0.063-0.512-0.029-0.449,0.166-1.284c0,0-0.404-0.462-0.378-1.258   c0.023-0.643,0.098-1.857-0.078-2.626c0,0,1.416-0.113,1.729,0.465c0,0,0.673-0.875,1.997-0.708c0,0-0.235,0.626-0.246,1.416   c-0.005,0.615,0.431,2.291-0.632,2.68c0,0-0.039,0.933-0.297,1.809c0,0,0.131-0.14,0.476-0.104c0,0,0.25,3.176-1.221,3.531   c0,0,0.233,1.583-1.162,2.385H365.113z M368.814,28.208c-0.352-0.282-0.41-0.299-0.633-0.748c-0.027,0.896-0.62,0.896-0.62,0.896   c-0.284,2.047-0.069,2.029-0.069,2.029c0.332-0.224,0.912-0.335,0.912-0.335C368.759,28.785,368.814,28.208,368.814,28.208"/>
	<path clip-path="url(#SVGID_2_)" fill="#BEBDC2" d="M365.688,51.548V36.326h13.926v15.223h0.003c0,1.575-1.229,2.234-2.086,2.234   h-2.309c-1.287,0-2.566,1.065-2.571,1.854c-0.003-0.788-1.285-1.854-2.57-1.854h-2.309   C366.914,53.783,365.688,53.124,365.688,51.548"/>
	<path clip-path="url(#SVGID_2_)" fill="#8D2223" d="M371.038,40.102c0.02,0.036,0.04,0.074,0.064,0.117c0,0-1.05,0.295-1.308-0.572   l-0.539-0.441l0.163,0.552c0.244,0.813,0.977,0.95,1.502,0.894h0.003c-0.006,0.041-0.01,0.083-0.009,0.127   c0.004,0.228,0.113,0.478,0.314,0.612l0.312-0.293c-0.229-0.034-0.336-0.458-0.124-0.498c0.17-0.031,0.353,0.012,0.477-0.018   c0.179-0.042,0.143-0.392,0.085-0.477c-0.144-0.215-0.562-0.076-0.783-0.164L371.038,40.102z"/>
	<path clip-path="url(#SVGID_2_)" fill="#DB2F36" d="M371.103,40.219c0,0-1.051,0.295-1.309-0.573   c0.77,0.073,0.941-0.065,1.242,0.456C371.058,40.138,371.079,40.176,371.103,40.219"/>
	<path clip-path="url(#SVGID_2_)" fill="#FFFFFF" d="M375.817,43.833c0.227-0.151,0.623-0.225,0.623-0.225   c0.243-0.866,0.28-1.261,0.28-1.261l-0.42,0.106c-0.003,0.03-0.056,0.131-0.131,0.941L375.817,43.833z"/>
	<path clip-path="url(#SVGID_2_)" fill="#8D2223" d="M375.817,43.833c0,0-0.146,0.014,0.048-1.385c0,0,0.403,0,0.422-0.607   c0.153,0.303,0.19,0.316,0.434,0.507l-0.42,0.106c-0.003,0.03-0.056,0.131-0.131,0.941L375.817,43.833z"/>
	<polygon clip-path="url(#SVGID_2_)" fill="#FFFFFF" points="368.581,46.948 368.564,46.543 368.562,46.501 368.949,46.244    368.958,46.531  "/>
	<path clip-path="url(#SVGID_2_)" fill="#FFFFFF" d="M368.002,39.401l-0.087,0.425c-0.027,0.135-0.231,1.21,0.006,2.04l-0.022,0.019   l-0.238,0.17l0.467,0.148l0.266-0.191c-0.369-0.743-0.093-2.107-0.093-2.107L368.002,39.401z"/>
	<path clip-path="url(#SVGID_2_)" fill="#8D2223" d="M370.006,42.24c0,0-0.905-0.478-0.953-0.763   c-0.099-0.59,0.392-1.213-0.752-1.573l-0.299-0.503l0.415,0.131c1.143,0.36,1.074,1.052,1.029,1.511   c-0.012,0.119-0.021,0.231-0.012,0.33l-0.002,0.001c0.062,0.079,0.267,0.231,0.497,0.372L370.006,42.24z"/>
	<path clip-path="url(#SVGID_2_)" fill="#FFFFFF" d="M371.229,41.39c-0.42-0.002-0.921,0.057-1.297,0.358l-0.003-0.004l0.076,0.496   c0.478-0.695,1.744-0.377,1.964-0.438c0.372-0.106,0.448-0.801,0.04-0.764c-0.049,0.006-0.268,0.087-0.468,0.06L371.229,41.39z"/>
	<path clip-path="url(#SVGID_2_)" fill="#8D2223" d="M369.13,43.587c-1.072-0.495-1.344-1.171-1.372-1.254l-0.098-0.279l0.467,0.148   c0,0,0.243,0.678,1.392,1.126L369.13,43.587z"/>
	<path clip-path="url(#SVGID_2_)" fill="#FFFFFF" d="M371.196,39.941c-0.134-0.051-0.126-0.383-0.06-0.543   c0.084-0.112,0.298-0.009,0.401-0.15c0.272-0.374,0.471-0.402,0.471-0.402l-0.249-0.314l0.436-0.25l-0.292-0.284l-0.338,0.196   l-0.395,0.226l0.27,0.34l0.001,0.002c-0.07,0.069-0.124,0.137-0.155,0.177c-0.029,0.051-0.083,0.049-0.083,0.049   c-0.325-0.043-0.386,0.161-0.419,0.235c-0.013,0.037-0.026,0.075-0.04,0.118c-0.146-0.041-0.251-0.057-0.504-0.059   c-0.118-0.001-0.249-0.01-0.408-0.023l-0.577-0.053l0.539,0.44c0.769,0.071,0.942-0.065,1.244,0.457L371.196,39.941z"/>
	<polygon clip-path="url(#SVGID_2_)" fill="#FFFFFF" points="369.52,43.329 369.53,44.205 369.143,44.596 369.139,44.21    369.13,43.587  "/>
	<polygon clip-path="url(#SVGID_2_)" fill="#8D2223" points="370.264,44.205 369.529,44.205 369.143,44.596 369.529,44.596    369.735,44.596  "/>
	<path clip-path="url(#SVGID_2_)" fill="#FFFFFF" d="M366.879,44.514l0.497-0.166c0.093-0.031,0.163-0.06,0.228-0.083   c0.228-0.084,0.362-0.128,0.646-0.084c0.379,0.053,0.561,0.289,0.679,0.446c0.122,0.161,0.193,0.294,0.496,0.294   c0.12,0,0.225-0.138,0.311-0.325l0.528-0.392c0,0-0.201,1.106-0.888,1.106c-0.832,0-0.679-0.673-1.182-0.744   c-0.266-0.038-0.295,0.019-0.694,0.152L366.879,44.514z"/>
	<path clip-path="url(#SVGID_2_)" fill="#8D2223" d="M368.949,46.244c-0.43-0.046-1.45-1.524-1.45-1.524l-0.62-0.205l0.298,0.429   c0.009,0.015,0.269,0.388,0.582,0.768c0.36,0.439,0.614,0.669,0.804,0.791L368.949,46.244z"/>
	<path clip-path="url(#SVGID_2_)" fill="#8D2223" d="M372.715,46.761c-0.839-0.479-1.812-1.223-1.812-1.223   c-0.772,0.916-1.945,0.992-1.945,0.992l-0.379,0.417l0.402-0.026c0.049-0.003,1.115-0.08,1.965-0.86   c0.158,0.113,0.369,0.268,0.612,0.432L372.715,46.761z"/>
	<path clip-path="url(#SVGID_2_)" fill="#FFFFFF" d="M366.686,52.491l-0.006-0.387c-0.002-0.271,0.024-0.656,0.279-0.91   c0.274-0.268,0.647-0.262,1.047-0.253c0.269,0.006,0.67,0,0.821-0.044c0.154-0.046,0.161-0.121,0.143-0.429   c-0.104-1.791-0.11-2.633,0.272-3.181c0.399-0.58,1.087-0.669,2.312-0.795h0.003l1.157,0.269c-3.367,0.405-3.57-0.041-3.354,3.685   c0.02,0.33,0.024,0.752-0.369,0.828c-1.194,0.229-1.931-0.331-1.919,0.825L366.686,52.491z"/>
	<path clip-path="url(#SVGID_2_)" fill="#8D2223" d="M372.857,48.285c-0.688-0.049-2.022,0.064-2.137,1.31l0.011,1.972h-0.646   c0.052,0.266-0.063,0.47-0.392,0.533h-2.621l-0.387,0.392h0.387h2.621h0.036l0.036-0.006c0.344-0.067,0.585-0.262,0.679-0.529   h-0.002h0.289h0.396l-0.002-0.395l-0.013-1.969l-0.001,0.037c0.067-0.758,0.784-0.935,1.322-0.961L372.857,48.285z"/>
	<path clip-path="url(#SVGID_2_)" fill="#FFFFFF" d="M372.872,50.05c-0.368-0.396-0.438-0.979-0.437-1.384v0.002l0.421-0.384   c0,0-0.158,0.985,0.292,1.489L372.872,50.05z"/>
	<path clip-path="url(#SVGID_2_)" fill="#8D2223" d="M376.087,50.187c-0.12-0.122-0.267-0.134-0.324-0.134h-1.178h-0.598   c-0.4,0.035-0.665-0.087-0.839-0.279l-0.276,0.276c0.191,0.21,0.55,0.443,1.149,0.393l-0.034,0.003h0.598h1.178   c0,0,0.03,0,0.049,0.019L376.087,50.187z"/>
	<path clip-path="url(#SVGID_2_)" fill="#FFFFFF" d="M373.542,52.491l-0.006-0.387c-0.003-0.271,0.024-0.656,0.283-0.91   c0.271-0.268,0.645-0.262,1.042-0.253c0.27,0.006,0.671-0.007,0.824-0.044c0.213-0.054,0.145-0.315,0.145-0.387   c0-0.022-0.01-0.038-0.019-0.046l0.274-0.277c0.071,0.071,0.119,0.162,0.131,0.259c0.021,0.33,0.024,0.752-0.368,0.828   c-1.195,0.229-1.93-0.331-1.92,0.825L373.542,52.491z"/>
	<path clip-path="url(#SVGID_2_)" fill="#8D2223" d="M377.483,50.278c0.161,0.473,0.119,0.778,0.107,1.288h-0.649   c0.053,0.266-0.062,0.47-0.393,0.533h-2.62l-0.387,0.392h0.387h2.62h0.037l0.033-0.006c0.349-0.067,0.586-0.262,0.681-0.528h-0.003   h0.294h0.394l0.006-0.589c0.011-0.396,0.023-0.744-0.137-1.22c-0.021-0.06-0.046-0.116-0.081-0.167L377.483,50.278z"/>
	<path clip-path="url(#SVGID_2_)" fill="#FFFFFF" d="M375.95,49.159c0.101,0.071,0.335,0.13,0.571,0.195   c0.504,0.141,1.02,0.28,1.25,0.627l-0.288,0.297c-0.157-0.46-1.362-0.515-1.762-0.801c-0.017-0.012-0.033-0.027-0.051-0.044   L375.95,49.159z"/>
	<path clip-path="url(#SVGID_2_)" fill="#8D2223" d="M377.224,43.461c0,0,0.169,2.167-0.832,2.408c0,0,0.176,1.194-0.943,1.71   l-0.01,0.143c0.012,0.606-0.078,1.408,0.233,1.711l0.277-0.274c-0.132-0.096-0.124-0.824-0.12-1.135l0.012-0.206   c0.726-0.444,0.938-1.181,0.951-1.695c0.959-0.569,0.841-2.46,0.822-2.69l-0.027-0.327L377.224,43.461z"/>
	<path clip-path="url(#SVGID_2_)" fill="#FFFFFF" d="M377.403,43.085l0.184,0.02l-0.363,0.356c-0.236-0.023-0.326,0.069-0.326,0.069   L377.403,43.085z"/>
	<path clip-path="url(#SVGID_2_)" fill="#8D2223" d="M377.699,39.5c0,0-0.158,0.426-0.164,0.967c-0.005,0.42,0.291,1.562-0.436,1.83   c0,0-0.023,0.635-0.201,1.233l0.505-0.445c0.038-0.213,0.059-0.401,0.072-0.54c0.606-0.407,0.52-1.292,0.471-1.792   c-0.01-0.113-0.021-0.22-0.021-0.282c0.007-0.459,0.141-0.83,0.141-0.834l0.17-0.463L377.699,39.5z"/>
	<path clip-path="url(#SVGID_2_)" fill="#FFFFFF" d="M376.328,39.46c0.28-0.204,0.756-0.433,1.421-0.348   c0,0,0.487,0.061,0.486,0.062l-0.537,0.325c-0.901-0.112-1.359,0.484-1.359,0.484L376.328,39.46z"/>
	<path clip-path="url(#SVGID_2_)" fill="#FFFFFF" d="M375.631,39.278c-0.214-0.018-0.401-0.01-0.505-0.002l-0.454,0.034   c0.164,0.581,0.19,1.195,0.194,1.297l0.016,0.405l-0.154-0.001c0.155,0.662,0.205,1.393,0.207,1.435l0.027,0.406l-0.209,0.004   h0.001c0.151,0.877,0.113,1.25,0.094,1.323l-0.037,0.289c0.113,0.346,0.457,0.433,0.653,1.27c0.049,0.211,0.008,0.405-0.095,0.598   c-0.195-0.216-0.501-0.473-0.954-0.715l-0.292,0.291c1.011,0.503,1.212,1.066,1.212,1.066c0.515-0.447,0.543-0.864,0.535-1.248   c-0.021-0.867-0.724-0.913-0.518-2.537c0.045-0.35-0.018-0.305,0.115-0.876c0,0-0.273-0.315-0.256-0.859   c0.015-0.438,0.067-1.268-0.056-1.79c0,0,0.226-0.021,0.482,0.008L375.631,39.278z"/>
	<path clip-path="url(#SVGID_2_)" fill="#8D2223" d="M375.639,39.675c0.277,0.026,0.589,0.105,0.699,0.309l-0.01-0.522   c-0.214-0.113-0.467-0.164-0.697-0.184L375.639,39.675z"/>
	<path clip-path="url(#SVGID_2_)" fill="#8D2223" d="M374.151,38.457l-0.152,0.307c0.431,0.523,0.479,1.856,0.479,1.856h-0.274   c0.264,0.677,0.339,1.85,0.339,1.85l-0.266,0.007c0.266,1.185,0.155,1.602,0.155,1.602h-1.067c0.015,0.06-0.172,1.371,0.759,1.835   l0.292-0.292c-0.037-0.021-0.073-0.04-0.115-0.061c-0.337-0.164-0.519-0.533-0.543-1.092h-0.001h0.676h0.379l0.037-0.289   c0.021-0.073,0.058-0.444-0.094-1.323h-0.001l0.209-0.004l-0.027-0.407c-0.002-0.042-0.052-0.771-0.207-1.434l0.154,0.001   l-0.015-0.405c-0.006-0.136-0.055-1.208-0.419-1.869l0.055-0.104l0.155-0.311L374.151,38.457z"/>
	<polygon clip-path="url(#SVGID_2_)" fill="#FFFFFF" points="373.858,38.265 374.15,38.457 374.657,38.323 374.368,38.13    374.136,37.979  "/>
	<polygon clip-path="url(#SVGID_2_)" fill="#AD8500" points="372.618,37.998 373.034,37.696 373.447,37.989 373.727,37.706    373.671,37.668 373.262,37.375 373.032,37.214 372.805,37.376 372.388,37.681 372.336,37.714  "/>
	<path clip-path="url(#SVGID_2_)" fill="#F0B700" d="M373.448,37.989c-0.076,0.066-0.353,0.419-0.114,0.6   c0.197,0.154,0.524-0.324,0.524-0.324l0.277-0.285l-0.064-0.043l-0.344-0.232L373.448,37.989z"/>
	<path clip-path="url(#SVGID_2_)" fill="#F0B700" d="M372.618,37.998c0,0,0.362,0.468,0.061,0.639   c-0.23,0.131-0.424-0.19-0.484-0.356l-0.29-0.284l0.097-0.056l0.335-0.227L372.618,37.998z"/>
	<path clip-path="url(#SVGID_2_)" fill="#DB2F36" d="M374.432,44.077c0,0,0.11-0.416-0.155-1.601l0.266-0.007   c0,0-0.076-1.173-0.339-1.85h0.274c0,0-0.048-1.334-0.477-1.856l0.149-0.307l-0.292-0.192c0,0-0.326,0.478-0.525,0.324   c-0.237-0.181,0.039-0.533,0.115-0.6l-0.415-0.292l-0.416,0.302c0,0,0.362,0.468,0.061,0.639c-0.23,0.131-0.422-0.191-0.482-0.357   l-0.435,0.25l0.247,0.315c0,0-0.197,0.028-0.469,0.402c-0.104,0.142-0.317,0.038-0.401,0.15c-0.067,0.161-0.075,0.492,0.059,0.543   c0.221,0.088,0.641-0.051,0.783,0.164c0.057,0.085,0.094,0.435-0.085,0.476c-0.125,0.03-0.308-0.013-0.478,0.02   c-0.21,0.039-0.104,0.463,0.124,0.498c0.2,0.027,0.418-0.054,0.467-0.06c0.41-0.037,0.334,0.657-0.038,0.764   c-0.22,0.062-1.488-0.257-1.964,0.438c0,0-0.904-0.477-0.952-0.764c-0.1-0.59,0.39-1.212-0.753-1.572c0,0-0.277,1.365,0.093,2.107   l-0.266,0.191c0,0,0.24,0.678,1.392,1.126l0.01,0.876h0.734c0,0-0.202,1.106-0.888,1.106c-0.834,0-0.679-0.673-1.184-0.744   c-0.266-0.038-0.293,0.019-0.692,0.152c0,0,1.02,1.479,1.448,1.524l0.009,0.287c0,0,1.174-0.076,1.947-0.992   c0,0,0.972,0.744,1.811,1.223c-3.368,0.405-3.569-0.04-3.354,3.685c0.02,0.33,0.024,0.752-0.369,0.828   c-1.194,0.229-1.931-0.331-1.919,0.825l0.391-0.392l0.394,0.392l0.392-0.392l0.393,0.392l0.394-0.392l0.396,0.392h0.263   c0.328-0.063,0.443-0.268,0.392-0.533h0.647l-0.012-1.972c0.114-1.245,1.448-1.358,2.136-1.31c0,0-0.306,1.896,1.131,1.769h0.598   h1.178c0.058,0,0.204,0.012,0.324,0.134c0.069,0.072,0.117,0.162,0.131,0.259c0.02,0.33,0.023,0.752-0.369,0.828   c-1.194,0.229-1.931-0.331-1.92,0.825l0.396-0.396l0.386,0.396l0.401-0.396l0.392,0.396l0.395-0.396l0.389,0.396h0.263   c0.33-0.063,0.445-0.268,0.394-0.533h0.647c0.013-0.51,0.055-0.814-0.106-1.288c-0.157-0.46-1.362-0.515-1.762-0.801   c-0.371-0.264-0.272-1.119-0.284-1.755l0.01-0.143c1.119-0.516,0.943-1.71,0.943-1.71c1.003-0.241,0.833-2.408,0.833-2.408   c-0.235-0.023-0.325,0.069-0.325,0.069c0.178-0.599,0.201-1.233,0.201-1.233c0.727-0.268,0.431-1.411,0.436-1.83   c0.006-0.541,0.164-0.968,0.164-0.968c-0.903-0.112-1.361,0.484-1.361,0.484c-0.217-0.395-1.182-0.316-1.182-0.316   c0.123,0.522,0.07,1.353,0.057,1.79c-0.019,0.544,0.255,0.859,0.255,0.859c-0.133,0.571-0.07,0.526-0.115,0.876   c-0.206,1.624,0.497,1.67,0.518,2.537c0.009,0.384-0.021,0.801-0.535,1.248c0,0-0.201-0.563-1.212-1.066   c-0.93-0.463-0.744-1.774-0.759-1.835H374.432z M375.817,43.833c0,0-0.146,0.014,0.048-1.385c0,0,0.403,0,0.422-0.607   c0.153,0.303,0.19,0.316,0.434,0.507c0,0-0.037,0.395-0.28,1.261C376.44,43.609,376.044,43.682,375.817,43.833"/>
	<path clip-path="url(#SVGID_2_)" fill="#DB2F36" d="M365.114,50.153c-0.263,0.345-0.233,0.794-0.004,1.098L365.114,50.153z"/>
	<path clip-path="url(#SVGID_2_)" fill="#DB2F36" d="M364.536,47.879c0.271,0.407,0.476,0.781,0.576,1.158v-1.575h-0.877   C364.346,47.605,364.447,47.745,364.536,47.879"/>
	<path clip-path="url(#SVGID_2_)" fill="#F0B700" d="M372.938,7.033c-0.089,0.015-0.183,0.025-0.275,0.025   c-0.099,0-0.194-0.007-0.287-0.025l-0.005-0.009l-0.835,0.828c-1.97-0.616-4.847-1.957-6.594-0.978   c-2.278,1.277,0.099,5.546,0.321,5.824c0.151,0.08,0.289,0.173,0.394,0.28c0.09-0.104,0.19-0.209,0.307-0.316   c-0.225-0.278-2.347-3.804-1.063-5.075c1.283-1.269,4.373,0.223,6.467,0.822l0.559,3.315c0.242-0.212,0.496-0.387,0.742-0.479   c0.242,0.091,0.487,0.261,0.726,0.469l0.545-3.305c2.093-0.6,5.185-2.091,6.463-0.822c1.289,1.271-0.832,4.804-1.056,5.083   c0.111,0.104,0.214,0.205,0.305,0.308c0.103-0.106,0.24-0.197,0.39-0.278c0.222-0.278,2.601-4.549,0.318-5.826   c-1.742-0.979-4.619,0.361-6.588,0.978l-0.837-0.828L372.938,7.033z"/>
	<path clip-path="url(#SVGID_2_)" fill="#ECEDED" d="M379.617,17.308c0.908-0.713,1.47-0.896,1.734-4.456   c-0.084,0-1.228,0.224-1.702,0.697c-0.518-0.57-1.507-1.298-1.916-1.48c-1.072,0.196-2.707,1.424-3.016,1.719   c-0.278-0.322-1.201-1.646-2.051-1.969c-0.854,0.322-1.804,1.646-2.083,1.969c-0.307-0.294-1.941-1.523-3.018-1.719   c-0.405,0.182-1.395,0.91-1.91,1.48c-0.478-0.474-1.621-0.697-1.705-0.697c0.266,3.561,0.828,3.743,1.735,4.456H379.617z"/>
	<polygon clip-path="url(#SVGID_2_)" fill="#DB2F36" points="384.858,42.489 385.433,41.916 386.006,42.489  "/>
	<polygon clip-path="url(#SVGID_2_)" fill="#DB2F36" points="386.007,42.489 386.578,41.916 387.152,42.489  "/>
	<polygon clip-path="url(#SVGID_2_)" fill="#DB2F36" points="387.154,42.489 387.729,41.916 388.303,42.489  "/>
	<polygon clip-path="url(#SVGID_2_)" fill="#F0B700" points="367.072,52.099 367.464,51.706 367.855,52.099  "/>
	<polygon clip-path="url(#SVGID_2_)" fill="#F0B700" points="367.856,52.099 368.249,51.704 368.644,52.099  "/>
	<polygon clip-path="url(#SVGID_2_)" fill="#F0B700" points="368.644,52.099 369.038,51.704 369.432,52.099  "/>
	<polygon clip-path="url(#SVGID_2_)" fill="#F0B700" points="373.931,52.099 374.324,51.704 374.716,52.099  "/>
	<polygon clip-path="url(#SVGID_2_)" fill="#F0B700" points="374.717,52.099 375.11,51.704 375.501,52.099  "/>
	<polygon clip-path="url(#SVGID_2_)" fill="#F0B700" points="375.504,52.099 375.897,51.704 376.29,52.099  "/>
	<path clip-path="url(#SVGID_2_)" fill="#DB2F36" d="M376.502,26.813l0.573,0.575l-0.327,0.325c-0.543-1.089-0.14-3.087-0.14-3.087   l0.467,0.464l-0.573,0.575l0.573,0.573L376.502,26.813z"/>
	<path clip-path="url(#SVGID_2_)" fill="#DB2F36" d="M375.436,31.681l0.804,0.117L376.12,32.6l0.812,0.047l-0.048,0.811l0.812,0.018   l-0.138,0.439C376.932,33.844,375.436,31.681,375.436,31.681"/>
	<path clip-path="url(#SVGID_2_)" fill="#AD8500" d="M375.191,56.943l0.801,0.118l-0.115,0.805l0.811,0.047l-0.051,0.809   l0.813,0.017l-0.135,0.438C376.687,59.109,375.191,56.943,375.191,56.943"/>
	<path clip-path="url(#SVGID_2_)" fill="#F0B700" d="M367.499,44.719l0.549,0.084l-0.081,0.547l0.553,0.031l-0.031,0.551   l0.554,0.013l-0.093,0.299C368.519,46.198,367.499,44.719,367.499,44.719"/>
	<path clip-path="url(#SVGID_2_)" fill="#F0B700" d="M368.226,41.394l0.391,0.39l-0.225,0.221c-0.368-0.739-0.092-2.101-0.092-2.101   l0.316,0.316l-0.391,0.392l0.391,0.392L368.226,41.394z"/>
	<path clip-path="url(#SVGID_2_)" fill="#7C7C82" d="M380.188,51.5c0.07,0.237,0.268,0.42,0.477,0.562l-0.681,0.626   c-0.465,1.138-1.597,1.667-2.453,1.667h-0.426l-0.181,0.572h-1.7c-1.288,0-2.567,2.184-2.572,2.975v-2.267   c0.005-0.788,1.284-1.854,2.572-1.854h2.307c0.858,0,2.087-0.659,2.087-2.234h-0.003V36.326l0.573-0.574l0.002,5.956l0.571,0.781   v5.11l-0.225,0.752c-0.088,0.118-0.226,0.12-0.349,0.133V51.5z"/>
	<path clip-path="url(#SVGID_2_)" fill="#FFFFFF" d="M356.044,23.887l-0.126,0.625c-0.041,0.198-0.343,1.773,0.008,2.987   l-0.032,0.026l-0.352,0.253l0.686,0.215l0.392-0.278c-0.546-1.091-0.14-3.087-0.14-3.087L356.044,23.887z"/>
	<path clip-path="url(#SVGID_2_)" fill="#8D2223" d="M356.044,23.887l0.607,0.194c1.673,0.528,1.571,1.541,1.509,2.212   c-0.02,0.175-0.035,0.34-0.021,0.485h-0.002c0.091,0.118,0.392,0.338,0.731,0.546l0.11,0.724c0,0-1.329-0.698-1.396-1.117   c-0.143-0.867,0.573-1.774-1.103-2.305"/>
	<path clip-path="url(#SVGID_2_)" fill="#8D2223" d="M357.694,30.021c-1.571-0.727-1.965-1.719-2.006-1.835l-0.146-0.409   l0.686,0.215c0,0,0.354,0.992,2.039,1.649L357.694,30.021z"/>
	<path clip-path="url(#SVGID_2_)" fill="#BEBDC2" d="M356.505,52.478c-0.034-0.303-0.048-0.64-0.034-1.014h1.781   c-0.059,0.384-0.051,0.726,0.016,1.014H356.505z"/>
	<path clip-path="url(#SVGID_2_)" fill="#DB2F36" d="M356.323,50.05c-0.449,0.445-0.319,1.137,0.147,1.414h1.781   c0.464-0.277,0.596-0.969,0.149-1.414H356.323z"/>
	<path clip-path="url(#SVGID_2_)" fill="#DB2F36" d="M356.196,49.038c-0.134-0.501-0.396-1.001-0.845-1.575h4.016   c-0.451,0.574-0.71,1.074-0.847,1.575H356.196z"/>
	<path clip-path="url(#SVGID_2_)" fill="#BEBDC2" d="M358.521,49.038c-0.087,0.327-0.12,0.654-0.12,1.013h-2.08   c0-0.358-0.037-0.684-0.125-1.013H358.521z"/>
	<path clip-path="url(#SVGID_2_)" fill="#AD8500" d="M371.312,73.072c-0.202-0.191-0.421-0.371-0.655-0.546   c-1.638-1.241-3.636-1.955-5.485-1.955h-6.722c-1.356,0-3.026-0.562-4.271-1.811l-0.402,0.407c1.236,1.239,2.984,1.977,4.674,1.977   h6.722c2.153,0,4.301,1.027,5.741,2.336L371.312,73.072z"/>
	<path clip-path="url(#SVGID_2_)" fill="#FFFFFF" d="M372.65,76.543c-0.005-0.976-0.681-2.098-1.738-3.063l0.399-0.407   c0.563,0.51,1.018,1.061,1.342,1.613L372.65,76.543z"/>
	<path clip-path="url(#SVGID_2_)" fill="#C6C7C8" d="M363.689,10.574c-0.14-0.455-0.244-0.938-0.285-1.41v0.001   c-0.279,0.102-0.48,0.372-0.48,0.687c0,0.401,0.327,0.727,0.729,0.727c0.014,0,0.023,0,0.038-0.001L363.689,10.574z"/>
	<path clip-path="url(#SVGID_2_)" fill="#C6C7C8" d="M363.401,9.111c-0.025-0.352-0.015-0.695,0.051-1.025   c0.025-0.143,0.063-0.278,0.109-0.408l-0.006-0.006c-0.402,0-0.727,0.324-0.727,0.727c0,0.348,0.24,0.638,0.563,0.71L363.401,9.111   z"/>
	<path clip-path="url(#SVGID_2_)" fill="#C6C7C8" d="M363.601,7.584c0.187-0.471,0.499-0.854,0.917-1.125l-0.003-0.003   c-0.122-0.093-0.271-0.146-0.435-0.146c-0.404,0-0.729,0.326-0.729,0.728c0,0.217,0.094,0.411,0.245,0.546H363.601z"/>
	<path clip-path="url(#SVGID_2_)" fill="#C6C7C8" d="M364.602,6.409c0.021-0.011,0.04-0.024,0.06-0.036   c0.405-0.228,0.85-0.35,1.318-0.396l0.001-0.004c-0.11-0.26-0.369-0.442-0.668-0.442c-0.403,0-0.729,0.326-0.729,0.727   c0,0.051,0.004,0.099,0.015,0.148L364.602,6.409z"/>
	<path clip-path="url(#SVGID_2_)" fill="#C6C7C8" d="M366.035,5.97c0.462-0.04,0.943-0.006,1.438,0.072l0.003,0.002   c-0.028-0.378-0.342-0.675-0.725-0.675C366.392,5.369,366.099,5.629,366.035,5.97L366.035,5.97z"/>
	<path clip-path="url(#SVGID_2_)" fill="#C6C7C8" d="M367.511,6.048c0.465,0.077,0.935,0.192,1.399,0.328h-0.002   c0.001-0.015,0.001-0.029,0.001-0.042c0-0.402-0.327-0.73-0.73-0.73C367.879,5.604,367.621,5.79,367.511,6.048L367.511,6.048z"/>
	<path clip-path="url(#SVGID_2_)" fill="#C6C7C8" d="M368.943,6.385c0.462,0.135,0.918,0.289,1.356,0.438   c0.003-0.027,0.005-0.055,0.005-0.085c0-0.402-0.326-0.728-0.728-0.728c-0.274,0-0.511,0.15-0.637,0.372L368.943,6.385z"/>
	<path clip-path="url(#SVGID_2_)" fill="#C6C7C8" d="M375.005,6.821c0.434-0.149,0.894-0.302,1.359-0.438   c-0.128-0.223-0.366-0.373-0.635-0.373c-0.404,0-0.729,0.325-0.729,0.727c0,0.03,0.002,0.057,0.005,0.085V6.821z"/>
	<path clip-path="url(#SVGID_2_)" fill="#C6C7C8" d="M376.396,6.375c0.46-0.134,0.933-0.251,1.392-0.328   c-0.112-0.256-0.365-0.442-0.664-0.442c-0.4,0-0.729,0.326-0.729,0.728C376.396,6.347,376.396,6.36,376.396,6.375"/>
	<path clip-path="url(#SVGID_2_)" fill="#C6C7C8" d="M377.828,6.043c0.491-0.078,0.979-0.114,1.443-0.074v0.001   c-0.063-0.341-0.361-0.601-0.718-0.601c-0.383,0-0.698,0.294-0.726,0.672V6.043z"/>
	<path clip-path="url(#SVGID_2_)" fill="#C6C7C8" d="M379.323,5.978c0.469,0.045,0.915,0.169,1.32,0.396   c0.02,0.012,0.038,0.024,0.06,0.037v0.003c0.012-0.052,0.018-0.104,0.018-0.156c0-0.401-0.328-0.728-0.729-0.728   C379.69,5.53,379.431,5.715,379.323,5.978"/>
	<path clip-path="url(#SVGID_2_)" fill="#C6C7C8" d="M380.782,6.46c0.423,0.271,0.731,0.652,0.92,1.122H381.7   c0.148-0.133,0.253-0.326,0.253-0.543c0-0.403-0.326-0.729-0.729-0.729c-0.166,0-0.321,0.053-0.442,0.148V6.46z"/>
	<path clip-path="url(#SVGID_2_)" fill="#C6C7C8" d="M381.735,7.671c0.049,0.133,0.088,0.269,0.115,0.415   c0.065,0.33,0.072,0.672,0.047,1.023h0.001c0.326-0.071,0.578-0.363,0.578-0.711C382.477,7.996,382.136,7.671,381.735,7.671   L381.735,7.671z"/>
	<path clip-path="url(#SVGID_2_)" fill="#C6C7C8" d="M381.896,9.164c-0.041,0.474-0.149,0.959-0.285,1.414h-0.003   c0.012,0.001,0.032,0.001,0.043,0.001c0.402,0,0.728-0.326,0.728-0.727C382.378,9.536,382.177,9.265,381.896,9.164"/>
	<polygon clip-path="url(#SVGID_2_)" fill="#FFFFFF" points="373.953,0.231 371.35,0.231 371.603,1.133 370.7,0.878 370.7,3.5    371.272,2.744 371.272,1.638 372.427,1.957 372.106,0.805 373.215,0.805  "/>
	<polygon clip-path="url(#SVGID_2_)" fill="#AD8500" points="370.7,3.5 371.271,2.744 372.427,2.422 371.603,3.246  "/>
	<polygon clip-path="url(#SVGID_2_)" fill="#AD8500" points="373.215,0.805 373.952,0.231 373.701,1.133 372.894,1.958  "/>
	<polygon clip-path="url(#SVGID_2_)" fill="#FFFFFF" points="374.604,0.878 373.701,1.133 372.894,1.957 374.048,1.638  "/>
	<polygon clip-path="url(#SVGID_2_)" fill="#AD8500" points="374.049,1.638 374.049,2.745 372.895,2.422 373.216,3.574    372.893,3.567 372.893,3.905 373.817,3.667 373.702,3.246 374.604,3.5 374.604,0.877  "/>
	<path clip-path="url(#SVGID_2_)" fill="#FFFFFF" d="M371.125,6.98c-0.388-0.39-0.619-0.925-0.619-1.504   c0-0.746,0.388-1.419,0.982-1.81l0.113-0.421l0.827-0.823l-0.323,1.152l0.325-0.006v0.337c-0.767,0.113-1.354,0.774-1.354,1.571   c0,0.43,0.17,0.816,0.453,1.1L371.125,6.98z"/>
	<path clip-path="url(#SVGID_2_)" fill="#002F5C" d="M372.37,7.023c-0.329-0.062-0.62-0.224-0.84-0.448l-0.405,0.405   c0.073,0.078,0.155,0.147,0.243,0.215L372.37,7.023z"/>
	<path clip-path="url(#SVGID_2_)" fill="#FFFFFF" d="M373.763,4.337c-0.235-0.226-0.535-0.38-0.871-0.432l0.927-0.24   c0.121,0.081,0.235,0.172,0.337,0.279L373.763,4.337z"/>
	<path clip-path="url(#SVGID_2_)" fill="#002F5C" d="M372.934,7.023c0.74-0.13,1.31-0.765,1.31-1.547c0-0.446-0.185-0.85-0.48-1.139   l0.394-0.393c0.398,0.393,0.643,0.939,0.643,1.532c0,0.694-0.337,1.322-0.864,1.719L372.934,7.023z"/>
	<path clip-path="url(#SVGID_2_)" fill="#FFFFFF" d="M380.765,7.174c-0.114-0.113-0.247-0.212-0.407-0.301   c-1.741-0.978-4.619,0.362-6.588,0.977l-0.836-0.828l1.001,0.173c0.238-0.082,0.493-0.169,0.757-0.262   c1.907-0.665,4.284-1.494,5.952-0.56c0.193,0.111,0.372,0.243,0.526,0.396L380.765,7.174z"/>
	<polygon clip-path="url(#SVGID_2_)" fill="#FFFFFF" points="358.268,29.641 358.28,30.924 357.714,31.499 357.707,30.931    357.695,30.021  "/>
	<polygon clip-path="url(#SVGID_2_)" fill="#8D2223" points="359.356,30.924 358.28,30.924 357.715,31.499 358.28,31.499    358.581,31.498  "/>
	<path clip-path="url(#SVGID_2_)" fill="#FFFFFF" d="M354.4,31.378l0.724-0.243c0.14-0.046,0.244-0.085,0.335-0.119   c0.335-0.125,0.53-0.187,0.946-0.128c0.557,0.08,0.821,0.428,0.996,0.656c0.176,0.235,0.28,0.433,0.726,0.433   c0.174,0,0.328-0.202,0.455-0.479l0.772-0.574c0,0-0.295,1.623-1.297,1.623c-1.222,0-0.994-0.985-1.73-1.091   c-0.393-0.055-0.435,0.029-1.022,0.225L354.4,31.378z"/>
	<path clip-path="url(#SVGID_2_)" fill="#8D2223" d="M357.43,33.915c-0.628-0.07-2.126-2.234-2.126-2.234l-0.903-0.302l0.432,0.626   c0.018,0.024,0.393,0.567,0.857,1.131c0.524,0.64,0.896,0.977,1.175,1.155L357.43,33.915z"/>
	<polygon clip-path="url(#SVGID_2_)" fill="#FFFFFF" points="356.889,34.944 356.867,34.352 356.864,34.292 357.43,33.914    357.442,34.334  "/>
	<path clip-path="url(#SVGID_2_)" fill="#005AA1" d="M372.938,7.033c0.741-0.13,1.311-0.766,1.311-1.545   c0-0.448-0.185-0.852-0.481-1.142c-0.234-0.225-0.535-0.378-0.869-0.43c-0.078-0.011-0.155-0.021-0.235-0.021   c-0.075,0-0.152,0.011-0.229,0.021c-0.766,0.112-1.351,0.773-1.351,1.571c0,0.428,0.171,0.814,0.45,1.098   c0.22,0.225,0.514,0.386,0.842,0.447c0.093,0.018,0.188,0.025,0.287,0.025C372.755,7.058,372.849,7.048,372.938,7.033"/>
	<path clip-path="url(#SVGID_2_)" fill="#F0B700" d="M372.431,3.905c0.073-0.011,0.15-0.021,0.229-0.021s0.155,0.008,0.233,0.021   V3.574h0.322l-0.32-1.152l1.154,0.322V1.638l-1.154,0.32l0.319-1.153h-1.107l0.32,1.153l-1.154-0.32v1.106l1.154-0.322   l-0.321,1.152l0.325-0.005V3.905z"/>
	<polygon clip-path="url(#SVGID_2_)" fill="#AD8500" points="374.568,67.753 375.142,67.18 375.716,67.753  "/>
	<polygon clip-path="url(#SVGID_2_)" fill="#AD8500" points="375.717,67.753 376.288,67.18 376.862,67.753  "/>
	<polygon clip-path="url(#SVGID_2_)" fill="#AD8500" points="376.864,67.753 377.438,67.18 378.011,67.753  "/>
	<polygon clip-path="url(#SVGID_2_)" fill="#AD8500" points="384.612,67.753 385.185,67.18 385.758,67.753  "/>
	<polygon clip-path="url(#SVGID_2_)" fill="#AD8500" points="385.759,67.753 386.333,67.18 386.906,67.753  "/>
	<polygon clip-path="url(#SVGID_2_)" fill="#AD8500" points="386.908,67.753 387.482,67.18 388.056,67.753  "/>
	<polygon clip-path="url(#SVGID_2_)" fill="#F0B700" points="354.677,42.489 355.252,41.916 355.827,42.489  "/>
	<polygon clip-path="url(#SVGID_2_)" fill="#F0B700" points="355.827,42.489 356.399,41.916 356.972,42.489  "/>
	<polygon clip-path="url(#SVGID_2_)" fill="#F0B700" points="356.975,42.489 357.547,41.916 358.12,42.489  "/>
	<path clip-path="url(#SVGID_2_)" fill="#F0B700" d="M356.371,26.813l0.573,0.575l-0.325,0.325   c-0.545-1.089-0.139-3.087-0.139-3.087l0.464,0.464l-0.573,0.575l0.573,0.573L356.371,26.813z"/>
	<path clip-path="url(#SVGID_2_)" fill="#F0B700" d="M355.305,31.681l0.803,0.117l-0.116,0.802l0.812,0.047l-0.05,0.811l0.812,0.018   l-0.136,0.439C356.802,33.844,355.305,31.681,355.305,31.681"/>
</g>
</svg>