<svg xmlns="http://www.w3.org/2000/svg" width="200" height="40" style=""><rect id="backgroundrect" width="100%" height="100%" x="0" y="0" fill="none" stroke="none"/><g class="currentLayer" style=""><title>Layer 1</title><g fill-rule="evenodd" clip-rule="evenodd" id="svg_1" class=""><path fill="#fff" fill-opacity="0.0" d="M3.6220016479492188,-76.37799835205078 h192.75599670410156 v192.75599670410156 H3.6220016479492188 V-76.37799835205078 z" id="svg_2"/><path fill="#ca3e37" d="M128.2740020751953,19.350997924804688 h2.677999973297119 v2.677000045776367 h-2.677999973297119 v-2.677000045776367 zM133.18301391601562,19.350997924804688 h2.7179999351501465 v2.677000045776367 h-2.7179999351501465 v-2.677000045776367 zM128.2740020751953,24.300003051757812 h2.677999973297119 v2.677000045776367 h-2.677999973297119 v-2.677000045776367 zM133.18301391601562,24.300003051757812 h2.7179999351501465 v2.677000045776367 h-2.7179999351501465 v-2.677000045776367 z" id="svg_3"/><path d="M9.134001731872559,19.230003356933594 h0.36500000953674316 v1.906000018119812 h0.4059999883174896 v0.4059999883174896 H7.998001575469971 v-0.4059999883174896 h1.1360000371932983 v-0.7699999809265137 h-0.7710000276565552 v-0.36500000953674316 h0.7710000276565552 v-0.7710000276565552 zM20.57400131225586,16.95800018310547 h0.36399999260902405 v0.36500000953674316 h-0.36399999260902405 v-0.36500000953674316 zM20.167001724243164,17.322998046875 h0.40700000524520874 v0.4059999883174896 h-0.40700000524520874 v-0.4059999883174896 zM17.125001907348633,31.805999755859375 h3.0420000553131104 v0.40400001406669617 h-3.0420000553131104 v-0.40400001406669617 zM20.57400131225586,21.136001586914062 h0.36399999260902405 v0.4059999883174896 h-0.36399999260902405 v-0.4059999883174896 zM20.57400131225586,21.907005310058594 h0.36399999260902405 v0.36500000953674316 h-0.36399999260902405 v-0.36500000953674316 zM27.429000854492188,31.805999755859375 h0.36500000953674316 v0.40400001406669617 h-0.36500000953674316 v-0.40400001406669617 zM21.303001403808594,29.897003173828125 h0.4059999883174896 v0.40700000524520874 h-0.4059999883174896 v-0.40700000524520874 zM20.93800163269043,29.12799835205078 h0.36500000953674316 v0.7689999938011169 h-0.36500000953674316 v-0.7689999938011169 zM25.887001037597656,24.584999084472656 h0.36500000953674316 v0.36500000953674316 h-0.36500000953674316 v-0.36500000953674316 zM20.57400131225586,28.76300048828125 h0.36399999260902405 v0.36500000953674316 h-0.36399999260902405 v-0.36500000953674316 zM21.709001541137695,30.304000854492188 h0.7710000276565552 v0.36500000953674316 h-0.7710000276565552 v-0.36500000953674316 zM26.658000946044922,31.03400421142578 h0.36500000953674316 v0.4059999883174896 h-0.36500000953674316 v-0.4059999883174896 zM27.023000717163086,31.44000244140625 h0.4059999883174896 v0.3659999966621399 h-0.4059999883174896 v-0.3659999966621399 zM23.981000900268555,9.331001281738281 h0.4050000011920929 v0.3659999966621399 h-0.4050000011920929 v-0.3659999966621399 zM22.48000144958496,13.915000915527344 h0.36500000953674316 v0.3659999966621399 h-0.36500000953674316 v-0.3659999966621399 zM23.21000099182129,10.873001098632812 h0.4059999883174896 v0.36500000953674316 h-0.4059999883174896 v-0.36500000953674316 zM22.07400131225586,13.510002136230469 h0.4059999883174896 v0.4050000011920929 h-0.4059999883174896 v-0.4050000011920929 zM24.751001358032227,8.561004638671875 h0.3659999966621399 v0.4050000011920929 h-0.3659999966621399 v-0.4050000011920929 zM23.21000099182129,8.561004638671875 h0.4059999883174896 v0.4050000011920929 h-0.4059999883174896 v-0.4050000011920929 zM34.650001525878906,17.322998046875 h0.4050000011920929 v0.4059999883174896 h-0.4050000011920929 v-0.4059999883174896 zM34.285003662109375,17.72900390625 h0.36500000953674316 v0.36500000953674316 h-0.36500000953674316 v-0.36500000953674316 zM34.650001525878906,22.272003173828125 h0.4050000011920929 v0.4050000011920929 h-0.4050000011920929 v-0.4050000011920929 zM34.285003662109375,21.136001586914062 h0.36500000953674316 v0.4059999883174896 h-0.36500000953674316 v-0.4059999883174896 zM34.285003662109375,21.907005310058594 h0.36500000953674316 v0.36500000953674316 h-0.36500000953674316 v-0.36500000953674316 z" id="svg_4"/><path d="M27.429000854492188,31.805999755859375 h0.36500000953674316 v0.40400001406669617 h-0.36500000953674316 v-0.40400001406669617 zM33.513999938964844,29.897003173828125 h0.36500000953674316 v0.40700000524520874 h-0.36500000953674316 v-0.40700000524520874 zM33.87900161743164,29.12799835205078 h0.4059999883174896 v0.7689999938011169 h-0.4059999883174896 v-0.7689999938011169 z" id="svg_5"/><path d="M33.87900161743164,29.12799835205078 h0.4059999883174896 v0.7689999938011169 h-0.4059999883174896 v-0.7689999938011169 zM34.285003662109375,28.76300048828125 h0.36500000953674316 v0.36500000953674316 h-0.36500000953674316 v-0.36500000953674316 zM32.743003845214844,30.304000854492188 h0.7710000276565552 v0.36500000953674316 h-0.7710000276565552 v-0.36500000953674316 zM28.15900230407715,31.03400421142578 h0.4059999883174896 v0.4059999883174896 h-0.4059999883174896 v-0.4059999883174896 zM27.794002532958984,31.44000244140625 h0.36500000953674316 v0.3659999966621399 h-0.36500000953674316 v-0.3659999966621399 zM30.47100257873535,13.915000915527344 h1.1360000371932983 v0.3659999966621399 h-1.1360000371932983 v-0.3659999966621399 zM30.836002349853516,9.331001281738281 h0.4059999883174896 v0.3659999966621399 h-0.4059999883174896 v-0.3659999966621399 zM32.37800216674805,13.915000915527344 h0.36500000953674316 v0.3659999966621399 h-0.36500000953674316 v-0.3659999966621399 zM31.60700225830078,10.873001098632812 h0.36500000953674316 v0.36500000953674316 h-0.36500000953674316 v-0.36500000953674316 zM32.743003845214844,13.510002136230469 h0.4059999883174896 v0.4050000011920929 h-0.4059999883174896 v-0.4050000011920929 zM30.066001892089844,8.561004638671875 h0.4050000011920929 v0.4050000011920929 h-0.4050000011920929 v-0.4050000011920929 zM31.60700225830078,8.561004638671875 h0.36500000953674316 v0.4050000011920929 h-0.36500000953674316 v-0.4050000011920929 zM34.650001525878906,18.09400177001953 h0.4050000011920929 v3.812999963760376 h-0.4050000011920929 v-3.812999963760376 zM20.57400131225586,22.677001953125 H25.522001266479492 v0.36500000953674316 h-4.947999954223633 v-0.36500000953674316 zM27.429000854492188,25.313003540039062 h0.36500000953674316 v6.126999855041504 h-0.36500000953674316 v-6.126999855041504 zM25.887001037597656,21.136001586914062 h0.36500000953674316 v0.4059999883174896 h-0.36500000953674316 v-0.4059999883174896 zM26.25200080871582,21.54199981689453 h0.4059999883174896 v0.36500000953674316 h-0.4059999883174896 v-0.36500000953674316 zM26.658000946044922,21.907005310058594 h0.36500000953674316 v0.36500000953674316 h-0.36500000953674316 v-0.36500000953674316 zM27.023000717163086,22.272003173828125 h0.4059999883174896 v0.4050000011920929 h-0.4059999883174896 v-0.4050000011920929 zM27.429000854492188,22.677001953125 h0.36500000953674316 v0.36500000953674316 h-0.36500000953674316 v-0.36500000953674316 zM28.15900230407715,23.447998046875 h0.4059999883174896 v0.36500000953674316 h-0.4059999883174896 v-0.36500000953674316 zM27.794002532958984,23.04199981689453 h0.36500000953674316 v0.4059999883174896 h-0.36500000953674316 v-0.4059999883174896 zM28.56500244140625,23.813003540039062 h0.36500000953674316 v0.3659999966621399 h-0.36500000953674316 v-0.3659999966621399 zM29.70100212097168,22.677001953125 h4.948999881744385 v0.36500000953674316 h-4.948999881744385 v-0.36500000953674316 zM24.751001358032227,13.510002136230469 h5.71999979019165 v0.4050000011920929 h-5.71999979019165 v-0.4050000011920929 zM26.658000946044922,12.374000549316406 h1.906999945640564 v0.36500000953674316 h-1.906999945640564 v-0.36500000953674316 zM30.066001892089844,11.603004455566406 h3.0829999446868896 v0.4059999883174896 h-3.0829999446868896 v-0.4059999883174896 zM31.972002029418945,11.237998962402344 h1.906999945640564 v0.36500000953674316 H31.972002029418945 v-0.36500000953674316 zM22.07400131225586,11.603004455566406 h3.0429999828338623 v0.4059999883174896 h-3.0429999828338623 v-0.4059999883174896 zM21.303001403808594,11.237998962402344 h1.906999945640564 v0.36500000953674316 h-1.906999945640564 v-0.36500000953674316 zM23.61600112915039,13.915000915527344 h1.1349999904632568 v0.3659999966621399 h-1.1349999904632568 v-0.3659999966621399 zM23.981000900268555,12.374000549316406 h0.4050000011920929 v0.36500000953674316 h0.7310000061988831 v0.4059999883174896 h-0.7310000061988831 v0.36500000953674316 h-0.4050000011920929 v-0.36500000953674316 h-0.36500000953674316 v-0.4059999883174896 h0.36500000953674316 v-0.36500000953674316 zM25.887001037597656,8.926002502441406 h0.4059999883174896 v1.5410000085830688 h-0.4059999883174896 v-1.5410000085830688 zM27.023000717163086,7.790000915527344 h1.1360000371932983 v0.4059999883174896 h-1.1360000371932983 v-0.4059999883174896 zM27.429000854492188,8.96600341796875 h0.36500000953674316 v0.36500000953674316 h0.36500000953674316 v0.3659999966621399 h-0.36500000953674316 v0.4050000011920929 h-0.36500000953674316 v-0.4050000011920929 h-0.4059999883174896 v-0.3659999966621399 h0.4059999883174896 v-0.36500000953674316 zM34.285003662109375,16.95800018310547 h0.36500000953674316 v0.36500000953674316 h-0.36500000953674316 v-0.36500000953674316 zM33.513999938964844,17.72900390625 h0.36500000953674316 v0.36500000953674316 h-0.36500000953674316 v-0.36500000953674316 zM33.14900207519531,17.322998046875 h0.36500000953674316 v0.4059999883174896 h-0.36500000953674316 v-0.4059999883174896 zM33.14900207519531,19.230003356933594 h0.36500000953674316 v0.4059999883174896 h-0.36500000953674316 v-0.4059999883174896 zM33.513999938964844,18.86499786376953 h0.36500000953674316 v0.36500000953674316 h-0.36500000953674316 v-0.36500000953674316 zM31.60700225830078,21.136001586914062 h0.36500000953674316 v0.4059999883174896 h-0.36500000953674316 v-0.4059999883174896 zM29.70100212097168,21.54199981689453 h1.1349999904632568 v0.36500000953674316 h-1.1349999904632568 v-0.36500000953674316 zM30.836002349853516,20.770004272460938 h0.4059999883174896 v0.7720000147819519 h-0.4059999883174896 v-0.7720000147819519 zM31.242002487182617,21.54199981689453 h1.906999945640564 v0.36500000953674316 H31.242002487182617 v-0.36500000953674316 zM33.14900207519531,20.366004943847656 h0.36500000953674316 v1.1759999990463257 h-0.36500000953674316 v-1.1759999990463257 zM31.60700225830078,20.000999450683594 h0.36500000953674316 v0.36500000953674316 h-0.36500000953674316 v-0.36500000953674316 zM31.242002487182617,20.366004943847656 h0.36500000953674316 v0.40400001406669617 h-0.36500000953674316 v-0.40400001406669617 zM31.972002029418945,20.366004943847656 h0.4059999883174896 v0.40400001406669617 h-0.4059999883174896 v-0.40400001406669617 zM32.37800216674805,20.770004272460938 h0.36500000953674316 v0.7720000147819519 h-0.36500000953674316 v-0.7720000147819519 zM32.743003845214844,19.230003356933594 h0.4059999883174896 v1.1360000371932983 h-0.4059999883174896 v-1.1360000371932983 zM31.972002029418945,19.230003356933594 h0.4059999883174896 v0.7710000276565552 h-0.4059999883174896 v-0.7710000276565552 zM31.242002487182617,19.230003356933594 h0.36500000953674316 v0.4059999883174896 h-0.36500000953674316 v-0.4059999883174896 zM32.37800216674805,17.322998046875 h0.36500000953674316 v1.906999945640564 h-0.36500000953674316 v-1.906999945640564 zM31.60700225830078,18.458999633789062 h0.36500000953674316 v0.7710000276565552 h-0.36500000953674316 v-0.7710000276565552 zM30.47100257873535,18.09400177001953 h1.1360000371932983 v0.36500000953674316 h-1.1360000371932983 v-0.36500000953674316 zM29.70100212097168,16.95800018310547 h0.36500000953674316 v1.1360000371932983 h-0.36500000953674316 v-1.1360000371932983 zM30.066001892089844,17.322998046875 h1.1759999990463257 v0.4059999883174896 h-1.1759999990463257 v-0.4059999883174896 zM30.47100257873535,16.18700408935547 h0.36500000953674316 v0.36500000953674316 h-0.36500000953674316 v-0.36500000953674316 zM31.60700225830078,16.18700408935547 h0.36500000953674316 v0.36500000953674316 h-0.36500000953674316 v-0.36500000953674316 zM31.242002487182617,15.821998596191406 h0.36500000953674316 v0.36500000953674316 h-0.36500000953674316 V15.821998596191406 zM31.972002029418945,15.821998596191406 h0.4059999883174896 v0.36500000953674316 h-0.4059999883174896 V15.821998596191406 zM31.60700225830078,15.416000366210938 h1.1360000371932983 v0.4059999883174896 h-1.1360000371932983 v-0.4059999883174896 zM32.743003845214844,15.821998596191406 h0.4059999883174896 v1.5010000467300415 h-0.4059999883174896 V15.821998596191406 zM33.14900207519531,18.09400177001953 h0.36500000953674316 v0.7710000276565552 h-0.36500000953674316 v-0.7710000276565552 zM30.47100257873535,19.636001586914062 h0.7710000276565552 v0.36500000953674316 h-0.7710000276565552 v-0.36500000953674316 zM30.066001892089844,20.000999450683594 h0.4050000011920929 v1.5410000085830688 h-0.4050000011920929 v-1.5410000085830688 zM33.513999938964844,15.821998596191406 h0.36500000953674316 v1.5010000467300415 h-0.36500000953674316 V15.821998596191406 zM26.25200080871582,25.720001220703125 h0.4059999883174896 v0.36500000953674316 h-0.4059999883174896 v-0.36500000953674316 zM25.887001037597656,25.313003540039062 h0.36500000953674316 v0.40700000524520874 h-0.36500000953674316 v-0.40700000524520874 zM26.25200080871582,26.856002807617188 h0.4059999883174896 v0.3659999966621399 h-0.4059999883174896 v-0.3659999966621399 zM24.386001586914062,29.12799835205078 h0.36500000953674316 v0.40400001406669617 h-0.36500000953674316 v-0.40400001406669617 zM23.61600112915039,28.76300048828125 h0.36500000953674316 v0.7689999938011169 h-0.36500000953674316 v-0.7689999938011169 zM23.981000900268555,29.532005310058594 h1.906000018119812 v0.36500000953674316 h-1.906000018119812 v-0.36500000953674316 zM25.887001037597656,28.397003173828125 h0.36500000953674316 v1.1349999904632568 h-0.36500000953674316 v-1.1349999904632568 zM24.386001586914062,27.991004943847656 h0.36500000953674316 v0.4059999883174896 h-0.36500000953674316 v-0.4059999883174896 zM23.981000900268555,28.397003173828125 h0.4050000011920929 v0.3659999966621399 h-0.4050000011920929 v-0.3659999966621399 zM24.751001358032227,28.397003173828125 h0.3659999966621399 v0.3659999966621399 h-0.3659999966621399 v-0.3659999966621399 z" id="svg_6"/><path d="M25.117002487182617,28.76300048828125 h0.4050000011920929 v0.7689999938011169 h-0.4050000011920929 v-0.7689999938011169 zM24.751001358032227,27.222000122070312 h0.3659999966621399 v0.7689999938011169 h-0.3659999966621399 v-0.7689999938011169 zM23.981000900268555,27.222000122070312 h0.4050000011920929 v0.40400001406669617 h-0.4050000011920929 v-0.40400001406669617 zM25.117002487182617,25.313003540039062 h0.4050000011920929 v1.909000039100647 h-0.4050000011920929 v-1.909000039100647 zM24.386001586914062,26.491004943847656 h0.36500000953674316 v0.7310000061988831 h-0.36500000953674316 v-0.7310000061988831 zM23.21000099182129,26.084999084472656 h1.1759999990463257 v0.4059999883174896 h-1.1759999990463257 v-0.4059999883174896 zM22.07400131225586,26.084999084472656 h0.4059999883174896 v0.4059999883174896 h-0.4059999883174896 v-0.4059999883174896 zM21.303001403808594,26.491004943847656 h1.906999945640564 v0.36500000953674316 h-1.906999945640564 v-0.36500000953674316 zM21.303001403808594,25.720001220703125 h0.4059999883174896 v0.7710000276565552 h-0.4059999883174896 v-0.7710000276565552 zM20.93800163269043,26.084999084472656 h0.36500000953674316 v0.4059999883174896 h-0.36500000953674316 v-0.4059999883174896 zM22.48000144958496,24.95000457763672 h0.36500000953674316 v1.1349999904632568 h-0.36500000953674316 v-1.1349999904632568 zM21.709001541137695,23.813003540039062 h0.36500000953674316 v0.3659999966621399 h-0.36500000953674316 v-0.3659999966621399 zM22.48000144958496,23.407005310058594 h0.36500000953674316 v0.4059999883174896 h-0.36500000953674316 v-0.4059999883174896 zM22.07400131225586,23.407005310058594 h0.4059999883174896 v1.5429999828338623 h-0.4059999883174896 v-1.5429999828338623 zM22.845001220703125,25.313003540039062 h1.1360000371932983 v0.40700000524520874 h-1.1360000371932983 v-0.40700000524520874 zM23.61600112915039,24.584999084472656 h0.36500000953674316 v0.36500000953674316 h-0.36500000953674316 v-0.36500000953674316 zM23.981000900268555,24.584999084472656 h0.4050000011920929 v0.7279999852180481 h-0.4050000011920929 v-0.7279999852180481 zM23.21000099182129,24.179000854492188 h0.4059999883174896 v0.4059999883174896 h-0.4059999883174896 v-0.4059999883174896 z" id="svg_7"/><path d="M24.386001586914062,24.179000854492188 h0.36500000953674316 v0.4059999883174896 h-0.36500000953674316 v-0.4059999883174896 zM23.981000900268555,23.813003540039062 h0.4050000011920929 v0.3659999966621399 h-0.4050000011920929 v-0.3659999966621399 zM24.751001358032227,23.813003540039062 h0.3659999966621399 v0.3659999966621399 h-0.3659999966621399 v-0.3659999966621399 zM24.386001586914062,23.447998046875 H25.522001266479492 v0.36500000953674316 h-1.1360000371932983 v-0.36500000953674316 zM25.887001037597656,26.084999084472656 h0.36500000953674316 v0.7710000276565552 h-0.36500000953674316 v-0.7710000276565552 zM23.21000099182129,27.625999450683594 h0.7710000276565552 v0.36500000953674316 h-0.7710000276565552 v-0.36500000953674316 zM22.845001220703125,27.991004943847656 h0.36500000953674316 v1.5410000085830688 h-0.36500000953674316 v-1.5410000085830688 zM25.522001266479492,27.222000122070312 h0.7300000190734863 v0.40400001406669617 h-0.7300000190734863 v-0.40400001406669617 zM25.522001266479492,27.625999450683594 h0.36500000953674316 v0.7710000276565552 H25.522001266479492 v-0.7710000276565552 zM21.709001541137695,29.532005310058594 h1.906999945640564 v0.36500000953674316 h-1.906999945640564 v-0.36500000953674316 zM22.07400131225586,29.12799835205078 h0.4059999883174896 v0.40400001406669617 h-0.4059999883174896 v-0.40400001406669617 zM22.48000144958496,30.66899871826172 h4.177999973297119 v0.36500000953674316 h-4.177999973297119 v-0.36500000953674316 zM28.56500244140625,30.66899871826172 h4.177999973297119 v0.36500000953674316 h-4.177999973297119 v-0.36500000953674316 zM20.167001724243164,23.04199981689453 h0.40700000524520874 v5.7210001945495605 h-0.40700000524520874 V23.04199981689453 zM34.650001525878906,23.04199981689453 h0.4050000011920929 v5.7210001945495605 h-0.4050000011920929 V23.04199981689453 zM26.25200080871582,24.95000457763672 h1.1770000457763672 v0.3630000054836273 H26.25200080871582 v-0.3630000054836273 zM27.794002532958984,24.95000457763672 h1.1360000371932983 v0.3630000054836273 h-1.1360000371932983 v-0.3630000054836273 zM20.167001724243164,18.458999633789062 h0.40700000524520874 v4.2179999351501465 h-0.40700000524520874 v-4.2179999351501465 zM30.066001892089844,12.738998413085938 h0.7699999809265137 v-0.36500000953674316 h0.4059999883174896 v0.36500000953674316 h0.36500000953674316 v0.4059999883174896 h-0.36500000953674316 v0.36500000953674316 h-0.4059999883174896 v-0.36500000953674316 h-0.7699999809265137 v-0.4059999883174896 zM32.743003845214844,12.738998413085938 h0.7710000276565552 v0.7710000276565552 h-0.36500000953674316 v-0.36500000953674316 h-0.4059999883174896 v-0.4059999883174896 zM33.14900207519531,12.009002685546875 h0.7300000190734863 v0.7300000190734863 h-0.36500000953674316 v-0.36500000953674316 h-0.36500000953674316 v-0.36500000953674316 zM13.31200122833252,15.051002502441406 h0.36500000953674316 v0.36500000953674316 H13.31200122833252 v-0.36500000953674316 zM15.584001541137695,15.051002502441406 h0.4059999883174896 v1.1360000371932983 h-0.4059999883174896 v-1.1360000371932983 zM15.584001541137695,16.552001953125 h0.4059999883174896 v0.4059999883174896 h-0.4059999883174896 v-0.4059999883174896 zM17.125001907348633,16.552001953125 h0.3659999966621399 v0.4059999883174896 h-0.3659999966621399 v-0.4059999883174896 zM16.76000213623047,16.95800018310547 h0.36500000953674316 v0.7710000276565552 h-0.36500000953674316 v-0.7710000276565552 zM17.49100112915039,18.458999633789062 h0.4050000011920929 v0.7710000276565552 h-0.4050000011920929 v-0.7710000276565552 zM18.261001586914062,18.458999633789062 h0.4059999883174896 v0.4059999883174896 h-0.4059999883174896 v-0.4059999883174896 zM18.667001724243164,18.09400177001953 h0.7300000190734863 v0.36500000953674316 h-0.7300000190734863 v-0.36500000953674316 zM19.397001266479492,16.95800018310547 h0.4059999883174896 v1.1360000371932983 h-0.4059999883174896 v-1.1360000371932983 zM15.219001770019531,13.915000915527344 v-0.4050000011920929 h-0.36500000953674316 v0.4050000011920929 h0.36500000953674316 zM15.990001678466797,12.374000549316406 h0.36500000953674316 v0.36500000953674316 h-0.36500000953674316 v-0.36500000953674316 zM13.677001953125,12.009002685546875 h0.7710000276565552 v0.36500000953674316 h-0.7710000276565552 v-0.36500000953674316 zM13.31200122833252,12.374000549316406 h0.36500000953674316 v0.36500000953674316 H13.31200122833252 v-0.36500000953674316 zM12.541001319885254,15.416000366210938 h0.4059999883174896 v0.4059999883174896 h-0.4059999883174896 v-0.4059999883174896 zM12.947001457214355,15.821998596191406 h0.36500000953674316 v1.1360000371932983 h-0.36500000953674316 V15.821998596191406 zM12.541001319885254,18.458999633789062 h0.4059999883174896 v0.7710000276565552 h-0.4059999883174896 v-0.7710000276565552 zM12.947001457214355,19.230003356933594 h0.36500000953674316 v1.1360000371932983 h-0.36500000953674316 v-1.1360000371932983 zM12.947001457214355,20.770004272460938 h0.36500000953674316 v1.1369999647140503 h-0.36500000953674316 v-1.1369999647140503 z" id="svg_8"/><path d="M12.541001319885254,20.366004943847656 h0.4059999883174896 v0.7699999809265137 h-0.4059999883174896 v-0.7699999809265137 zM12.541001319885254,21.907005310058594 h0.4059999883174896 v0.36500000953674316 h-0.4059999883174896 v-0.36500000953674316 zM12.541001319885254,23.447998046875 h0.4059999883174896 v0.36500000953674316 h-0.4059999883174896 v-0.36500000953674316 zM12.17600154876709,22.272003173828125 h0.36500000953674316 v0.4050000011920929 h-0.36500000953674316 v-0.4050000011920929 z" id="svg_9"/><path d="M12.947001457214355,22.677001953125 h0.36500000953674316 v0.7710000276565552 h-0.36500000953674316 v-0.7710000276565552 zM12.17600154876709,23.813003540039062 h0.36500000953674316 v0.3659999966621399 h-0.36500000953674316 v-0.3659999966621399 zM11.771001815795898,22.677001953125 h0.4050000011920929 v0.36500000953674316 h-0.4050000011920929 v-0.36500000953674316 zM11.406002044677734,23.04199981689453 h0.4050000011920929 v0.4059999883174896 h-0.4050000011920929 v-0.4059999883174896 zM11.04000186920166,23.447998046875 h0.3659999966621399 v0.36500000953674316 h-0.3659999966621399 v-0.36500000953674316 zM10.635002136230469,23.813003540039062 h0.4050000011920929 v0.3659999966621399 h-0.4050000011920929 v-0.3659999966621399 zM10.270001411437988,24.179000854492188 h0.36500000953674316 v0.4059999883174896 h-0.36500000953674316 v-0.4059999883174896 zM11.04000186920166,24.584999084472656 h0.3659999966621399 v0.36500000953674316 h-0.3659999966621399 v-0.36500000953674316 zM11.406002044677734,24.179000854492188 h0.7699999809265137 v0.4059999883174896 h-0.7699999809265137 v-0.4059999883174896 z" id="svg_10"/><path d="M9.905001640319824,24.584999084472656 h0.36500000953674316 v0.36500000953674316 h-0.36500000953674316 v-0.36500000953674316 zM9.499001502990723,24.95000457763672 h0.4059999883174896 v0.40400001406669617 h-0.4059999883174896 v-0.40400001406669617 zM7.593001365661621,25.313003540039062 h1.906000018119812 v0.40700000524520874 H7.593001365661621 v-0.40700000524520874 zM6.8220014572143555,25.313003540039062 h0.4050000011920929 v0.40700000524520874 H6.8220014572143555 v-0.40700000524520874 zM7.227001667022705,25.720001220703125 h0.3659999966621399 v0.36500000953674316 h-0.3659999966621399 v-0.36500000953674316 z" id="svg_11"/><path d="M7.227001667022705,23.813003540039062 h0.3659999966621399 v1.5410000085830688 h-0.3659999966621399 v-1.5410000085830688 zM6.4560017585754395,23.813003540039062 H6.8220014572143555 v1.5410000085830688 h-0.3659999966621399 v-1.5410000085830688 zM7.227001667022705,29.12799835205078 h0.3659999966621399 v0.7689999938011169 h-0.3659999966621399 v-0.7689999938011169 zM6.8220014572143555,23.447998046875 h0.4050000011920929 v0.36500000953674316 H6.8220014572143555 v-0.36500000953674316 zM7.593001365661621,23.447998046875 h0.4050000011920929 v0.36500000953674316 h-0.4050000011920929 v-0.36500000953674316 zM7.593001365661621,22.677001953125 h0.4050000011920929 v0.36500000953674316 h-0.4050000011920929 v-0.36500000953674316 z" id="svg_12"/><path d="M7.227001667022705,23.04199981689453 h0.3659999966621399 v0.4059999883174896 h-0.3659999966621399 v-0.4059999883174896 zM7.998001575469971,23.04199981689453 h0.36500000953674316 v0.4059999883174896 h-0.36500000953674316 v-0.4059999883174896 zM7.998001575469971,22.272003173828125 h0.36500000953674316 v0.4050000011920929 h-0.36500000953674316 v-0.4050000011920929 zM8.363001823425293,22.677001953125 h0.36500000953674316 v0.36500000953674316 h-0.36500000953674316 v-0.36500000953674316 zM7.593001365661621,21.54199981689453 h0.4050000011920929 v0.7300000190734863 h-0.4050000011920929 v-0.7300000190734863 zM8.728001594543457,23.04199981689453 h0.7710000276565552 v0.4059999883174896 h-0.7710000276565552 v-0.4059999883174896 zM9.499001502990723,22.677001953125 h0.7710000276565552 v0.36500000953674316 h-0.7710000276565552 v-0.36500000953674316 zM10.270001411437988,20.366004943847656 h0.36500000953674316 v0.40400001406669617 h-0.36500000953674316 v-0.40400001406669617 z" id="svg_13"/><path d="M9.905001640319824,18.86499786376953 h0.36500000953674316 v2.2709999084472656 h-0.36500000953674316 v-2.2709999084472656 zM7.998001575469971,20.366004943847656 h0.36500000953674316 v0.40400001406669617 h-0.36500000953674316 v-0.40400001406669617 zM8.363001823425293,18.86499786376953 h0.7710000276565552 v0.36500000953674316 h-0.7710000276565552 v-0.36500000953674316 zM7.998001575469971,16.95800018310547 h0.36500000953674316 v1.906999945640564 h-0.36500000953674316 v-1.906999945640564 zM8.728001594543457,17.322998046875 h0.4059999883174896 v0.7710000276565552 h-0.4059999883174896 v-0.7710000276565552 zM9.499001502990723,16.552001953125 h0.4059999883174896 v1.1770000457763672 h-0.4059999883174896 V16.552001953125 zM8.728001594543457,16.18700408935547 h0.4059999883174896 v0.36500000953674316 h-0.4059999883174896 v-0.36500000953674316 z" id="svg_14"/><path d="M8.363001823425293,16.552001953125 h0.36500000953674316 v0.4059999883174896 h-0.36500000953674316 v-0.4059999883174896 zM7.593001365661621,26.084999084472656 h0.4050000011920929 v0.7710000276565552 h-0.4050000011920929 v-0.7710000276565552 zM7.998001575469971,26.856002807617188 h0.36500000953674316 v0.3659999966621399 h-0.36500000953674316 v-0.3659999966621399 zM8.363001823425293,26.491004943847656 h0.7710000276565552 v0.36500000953674316 h-0.7710000276565552 v-0.36500000953674316 zM8.728001594543457,27.625999450683594 h0.4059999883174896 v0.36500000953674316 h-0.4059999883174896 v-0.36500000953674316 zM9.134001731872559,26.084999084472656 h0.36500000953674316 v0.4059999883174896 h-0.36500000953674316 v-0.4059999883174896 zM9.134001731872559,26.856002807617188 h0.36500000953674316 v0.7699999809265137 h-0.36500000953674316 v-0.7699999809265137 zM7.998001575469971,27.991004943847656 h0.7300000190734863 v0.4059999883174896 h-0.7300000190734863 v-0.4059999883174896 zM9.134001731872559,27.991004943847656 h0.7710000276565552 v0.4059999883174896 h-0.7710000276565552 v-0.4059999883174896 zM8.728001594543457,28.397003173828125 h0.4059999883174896 v0.3659999966621399 h-0.4059999883174896 v-0.3659999966621399 zM8.363001823425293,28.76300048828125 h0.36500000953674316 v0.7689999938011169 h-0.36500000953674316 v-0.7689999938011169 zM7.593001365661621,28.397003173828125 h0.4050000011920929 v0.7310000061988831 h-0.4050000011920929 v-0.7310000061988831 zM13.677001953125,20.366004943847656 h0.4059999883174896 v0.40400001406669617 h-0.4059999883174896 v-0.40400001406669617 zM14.448001861572266,21.136001586914062 h0.4059999883174896 v0.4059999883174896 h-0.4059999883174896 v-0.4059999883174896 zM14.083002090454102,21.54199981689453 h0.36500000953674316 v0.36500000953674316 h-0.36500000953674316 v-0.36500000953674316 zM14.854001998901367,20.770004272460938 h0.36500000953674316 v0.3659999966621399 h-0.36500000953674316 v-0.3659999966621399 zM14.083002090454102,20.770004272460938 h0.36500000953674316 v0.3659999966621399 h-0.36500000953674316 v-0.3659999966621399 zM7.593001365661621,29.897003173828125 h0.4050000011920929 v0.40700000524520874 h-0.4050000011920929 v-0.40700000524520874 zM7.998001575469971,30.304000854492188 h0.36500000953674316 v1.1360000371932983 h-0.36500000953674316 v-1.1360000371932983 zM8.363001823425293,31.44000244140625 h0.36500000953674316 v0.3659999966621399 h-0.36500000953674316 v-0.3659999966621399 zM10.635002136230469,31.44000244140625 h-0.36500000953674316 v-0.4059999883174896 h1.5410000085830688 v0.4059999883174896 h-0.7710000276565552 v0.3659999966621399 h0.7710000276565552 v0.40400001406669617 H8.728001594543457 v-0.40400001406669617 h1.906999945640564 v-0.3659999966621399 zM9.905001640319824,30.66899871826172 h0.36500000953674316 v0.36500000953674316 h-0.36500000953674316 v-0.36500000953674316 zM9.499001502990723,29.532005310058594 h0.4059999883174896 v1.1369999647140503 h-0.4059999883174896 v-1.1369999647140503 zM9.905001640319824,29.12799835205078 h0.36500000953674316 v0.40400001406669617 h-0.36500000953674316 v-0.40400001406669617 zM10.270001411437988,28.76300048828125 h0.7699999809265137 v0.36500000953674316 h-0.7699999809265137 v-0.36500000953674316 zM11.04000186920166,28.397003173828125 h0.3659999966621399 v0.3659999966621399 h-0.3659999966621399 v-0.3659999966621399 z" id="svg_15"/><path d="M11.771001815795898,31.44000244140625 h0.4050000011920929 v0.3659999966621399 h-0.4050000011920929 v-0.3659999966621399 zM12.17600154876709,31.805999755859375 h0.36500000953674316 v0.40400001406669617 h-0.36500000953674316 v-0.40400001406669617 zM11.771001815795898,30.66899871826172 h0.7699999809265137 v0.36500000953674316 h-0.7699999809265137 v-0.36500000953674316 zM11.406002044677734,27.991004943847656 h0.4050000011920929 v0.4059999883174896 h-0.4050000011920929 v-0.4059999883174896 zM11.771001815795898,28.397003173828125 H13.31200122833252 v0.3659999966621399 H11.771001815795898 v-0.3659999966621399 zM13.677001953125,26.491004943847656 h0.4059999883174896 v0.36500000953674316 h-0.4059999883174896 v-0.36500000953674316 zM13.31200122833252,28.76300048828125 h0.36500000953674316 v0.36500000953674316 H13.31200122833252 v-0.36500000953674316 zM13.31200122833252,27.991004943847656 h0.36500000953674316 v0.4059999883174896 H13.31200122833252 v-0.4059999883174896 zM12.541001319885254,27.625999450683594 h0.7710000276565552 v0.36500000953674316 h-0.7710000276565552 v-0.36500000953674316 zM11.406002044677734,26.491004943847656 h0.4050000011920929 v0.7310000061988831 h-0.4050000011920929 v-0.7310000061988831 zM11.04000186920166,26.084999084472656 h0.3659999966621399 v0.4059999883174896 h-0.3659999966621399 v-0.4059999883174896 zM9.905001640319824,27.625999450683594 h0.36500000953674316 v0.36500000953674316 h-0.36500000953674316 v-0.36500000953674316 zM14.083002090454102,26.856002807617188 h0.36500000953674316 v0.3659999966621399 h-0.36500000953674316 v-0.3659999966621399 zM14.854001998901367,27.991004943847656 h0.36500000953674316 v0.4059999883174896 h-0.36500000953674316 v-0.4059999883174896 zM14.448001861572266,27.222000122070312 h0.4059999883174896 v0.7689999938011169 h-0.4059999883174896 v-0.7689999938011169 zM15.219001770019531,28.397003173828125 h0.36500000953674316 v0.3659999966621399 h-0.36500000953674316 v-0.3659999966621399 zM15.584001541137695,28.76300048828125 h0.4059999883174896 v0.36500000953674316 h-0.4059999883174896 v-0.36500000953674316 zM15.990001678466797,29.12799835205078 h0.36500000953674316 v0.7689999938011169 h-0.36500000953674316 v-0.7689999938011169 zM15.584001541137695,29.897003173828125 h0.4059999883174896 v0.40700000524520874 h-0.4059999883174896 v-0.40700000524520874 zM16.76000213623047,31.44000244140625 h0.36500000953674316 v0.3659999966621399 h-0.36500000953674316 v-0.3659999966621399 zM20.57400131225586,31.805999755859375 h0.36399999260902405 v0.40400001406669617 h-0.36399999260902405 v-0.40400001406669617 zM20.167001724243164,31.44000244140625 h0.40700000524520874 v0.3659999966621399 h-0.40700000524520874 v-0.3659999966621399 z" id="svg_16"/><path d="M20.93800163269043,31.03400421142578 h0.36500000953674316 v0.7720000147819519 h-0.36500000953674316 v-0.7720000147819519 zM20.167001724243164,30.66899871826172 h0.7710000276565552 v0.36500000953674316 h-0.7710000276565552 v-0.36500000953674316 zM21.303001403808594,31.03400421142578 h0.4059999883174896 v0.4059999883174896 h-0.4059999883174896 v-0.4059999883174896 zM18.667001724243164,30.66899871826172 h0.36500000953674316 v0.36500000953674316 h-0.36500000953674316 v-0.36500000953674316 zM19.032001495361328,31.03400421142578 h0.36500000953674316 v0.7720000147819519 h-0.36500000953674316 v-0.7720000147819519 zM18.261001586914062,30.304000854492188 h0.4059999883174896 v0.36500000953674316 h-0.4059999883174896 v-0.36500000953674316 zM16.76000213623047,29.12799835205078 h0.36500000953674316 v1.1759999990463257 h-0.36500000953674316 v-1.1759999990463257 zM17.8960018157959,27.991004943847656 h0.36500000953674316 v2.312999963760376 h-0.36500000953674316 v-2.312999963760376 zM18.261001586914062,27.625999450683594 h0.4059999883174896 v0.36500000953674316 h-0.4059999883174896 v-0.36500000953674316 zM18.667001724243164,27.991004943847656 h0.7300000190734863 v0.4059999883174896 h-0.7300000190734863 v-0.4059999883174896 zM19.397001266479492,27.222000122070312 h0.4059999883174896 v1.5410000085830688 h-0.4059999883174896 V27.222000122070312 zM18.667001724243164,26.856002807617188 h0.7300000190734863 v0.3659999966621399 h-0.7300000190734863 v-0.3659999966621399 zM17.125001907348633,26.084999084472656 h0.3659999966621399 v0.4059999883174896 h-0.3659999966621399 v-0.4059999883174896 zM17.49100112915039,26.491004943847656 h1.1759999990463257 v0.36500000953674316 h-1.1759999990463257 v-0.36500000953674316 z" id="svg_17"/><path d="M17.8960018157959,26.491004943847656 h-0.4050000011920929 v0.36500000953674316 h0.4050000011920929 v-0.36500000953674316 zM16.35500144958496,25.720001220703125 h0.7699999809265137 v0.36500000953674316 h-0.7699999809265137 v-0.36500000953674316 zM15.990001678466797,25.313003540039062 h0.36500000953674316 v0.40700000524520874 h-0.36500000953674316 v-0.40700000524520874 zM15.219001770019531,24.95000457763672 h0.7710000276565552 v0.40400001406669617 h-0.7710000276565552 v-0.40400001406669617 zM16.76000213623047,23.04199981689453 h0.7310000061988831 v0.4059999883174896 h-0.7310000061988831 v-0.4059999883174896 zM17.49100112915039,23.447998046875 h0.4050000011920929 v0.36500000953674316 h-0.4050000011920929 v-0.36500000953674316 zM17.8960018157959,23.04199981689453 h0.36500000953674316 v0.4059999883174896 h-0.36500000953674316 v-0.4059999883174896 zM18.261001586914062,23.447998046875 h1.5420000553131104 v0.36500000953674316 h-1.5420000553131104 v-0.36500000953674316 zM19.803001403808594,23.04199981689453 h0.36399999260902405 v0.4059999883174896 h-0.36399999260902405 v-0.4059999883174896 zM19.803001403808594,23.813003540039062 h0.36399999260902405 v0.3659999966621399 h-0.36399999260902405 v-0.3659999966621399 zM15.584001541137695,20.366004943847656 h-0.36500000953674316 v0.40400001406669617 h0.36500000953674316 v-0.40400001406669617 zM15.990001678466797,21.907005310058594 h0.36500000953674316 v0.36500000953674316 h-0.36500000953674316 v-0.36500000953674316 zM16.76000213623047,20.366004943847656 h0.36500000953674316 v0.40400001406669617 h-0.36500000953674316 v-0.40400001406669617 zM15.219001770019531,18.458999633789062 h0.7710000276565552 v0.4059999883174896 h-0.7710000276565552 v-0.4059999883174896 zM17.125001907348633,20.770004272460938 h0.3659999966621399 v0.3659999966621399 h-0.3659999966621399 v-0.3659999966621399 zM17.49100112915039,21.136001586914062 h0.7699999809265137 v0.4059999883174896 h-0.7699999809265137 v-0.4059999883174896 zM18.261001586914062,21.54199981689453 h0.4059999883174896 v0.36500000953674316 h-0.4059999883174896 v-0.36500000953674316 zM19.397001266479492,21.54199981689453 h0.4059999883174896 v1.1349999904632568 h-0.4059999883174896 V21.54199981689453 zM18.667001724243164,21.907005310058594 h0.36500000953674316 v0.36500000953674316 h-0.36500000953674316 v-0.36500000953674316 zM19.032001495361328,22.272003173828125 h0.36500000953674316 v0.4050000011920929 h-0.36500000953674316 v-0.4050000011920929 zM19.803001403808594,21.136001586914062 h0.36399999260902405 v0.4059999883174896 h-0.36399999260902405 v-0.4059999883174896 zM19.803001403808594,19.636001586914062 h0.36399999260902405 v0.36500000953674316 h-0.36399999260902405 v-0.36500000953674316 zM19.803001403808594,18.86499786376953 h0.36399999260902405 v0.36500000953674316 h-0.36399999260902405 v-0.36500000953674316 zM17.49100112915039,20.000999450683594 h0.7699999809265137 v0.36500000953674316 h0.4059999883174896 v0.40400001406669617 h-1.1759999990463257 v-0.7689999938011169 zM18.261001586914062,19.636001586914062 h0.7710000276565552 v0.36500000953674316 h-0.7710000276565552 v-0.36500000953674316 zM19.032001495361328,19.230003356933594 h0.7710000276565552 v0.4059999883174896 h-0.7710000276565552 v-0.4059999883174896 zM17.125001907348633,18.09400177001953 h0.7710000276565552 v0.36500000953674316 h0.36500000953674316 v-1.1360000371932983 h-0.36500000953674316 v0.4059999883174896 h-0.7710000276565552 v0.36500000953674316 zM16.76000213623047,18.86499786376953 v0.36500000953674316 h-0.4050000011920929 v0.7710000276565552 h0.4050000011920929 v0.36500000953674316 h-0.7699999809265137 v-1.5010000467300415 h0.7699999809265137 zM15.219001770019531,15.416000366210938 v0.7710000276565552 h0.36500000953674316 v0.36500000953674316 h-0.36500000953674316 v0.4059999883174896 h-0.36500000953674316 v0.36500000953674316 h-0.7710000276565552 v-0.36500000953674316 h-0.4059999883174896 v-1.5420000553131104 h1.5420000553131104 zm-0.7710000276565552,1.5420000553131104 h0.4059999883174896 v-0.7710000276565552 h-0.4059999883174896 V15.821998596191406 h-0.36500000953674316 v0.7300000190734863 h0.36500000953674316 v0.4059999883174896 zM13.31200122833252,31.03400421142578 v0.4059999883174896 h0.36500000953674316 v0.7699999809265137 h-0.7300000190734863 v-0.40400001406669617 h-0.4059999883174896 v-0.7720000147819519 h0.7710000276565552 zM22.07400131225586,31.44000244140625 v0.7699999809265137 h-0.7710000276565552 v-0.40400001406669617 h0.4059999883174896 v-0.3659999966621399 h0.36500000953674316 zM9.134001731872559,18.09400177001953 h0.7710000276565552 v-0.36500000953674316 h0.36500000953674316 v0.7300000190734863 h-0.36500000953674316 v0.4059999883174896 h-0.4059999883174896 v-0.4059999883174896 h-0.36500000953674316 v-0.36500000953674316 zM10.270001411437988,15.051002502441406 h-0.36500000953674316 v0.7710000276565552 h-0.7710000276565552 v0.36500000953674316 h0.7710000276565552 v0.36500000953674316 h0.36500000953674316 v-1.5010000467300415 zM12.541001319885254,12.738998413085938 h0.7710000276565552 v0.4059999883174896 h-0.36500000953674316 v0.36500000953674316 h-0.4059999883174896 v1.906000018119812 h-0.36500000953674316 v-1.906000018119812 h-0.4050000011920929 v-0.36500000953674316 h0.7699999809265137 v-0.4059999883174896 z" id="svg_18"/><path d="M13.677001953125,13.915000915527344 v0.3659999966621399 H13.31200122833252 v0.36500000953674316 h-0.36500000953674316 v-0.7310000061988831 h0.7300000190734863 zM13.677001953125,18.09400177001953 v0.7710000276565552 H13.31200122833252 v-0.4059999883174896 h-0.36500000953674316 v-0.36500000953674316 h0.7300000190734863 zM15.219001770019531,20.366004943847656 h0.7710000276565552 v0.7699999809265137 h-0.4059999883174896 v-0.3659999966621399 h-0.36500000953674316 v-0.40400001406669617 zM16.35500144958496,13.145004272460938 v0.7699999809265137 h-0.36500000953674316 v-0.4050000011920929 h-0.4059999883174896 v-0.36500000953674316 h-0.7300000190734863 v-0.4059999883174896 h-0.4059999883174896 v-0.36500000953674316 h0.7710000276565552 v0.36500000953674316 h0.7710000276565552 v0.4059999883174896 h0.36500000953674316 zM15.219001770019531,13.510002136230469 v0.7710000276565552 h-0.7710000276565552 v0.7699999809265137 h-0.7710000276565552 v-0.4050000011920929 h0.4059999883174896 v-0.36500000953674316 h0.36500000953674316 v-0.3659999966621399 h0.4059999883174896 v-0.4050000011920929 h0.36500000953674316 zM46.0890007019043,27.625999450683594 h0.36500000953674316 v0.36500000953674316 h-0.36500000953674316 v-0.36500000953674316 zM19.397001266479492,31.03400421142578 h0.7699999809265137 v0.4059999883174896 h-0.7699999809265137 v-0.4059999883174896 zM20.167001724243164,8.561004638671875 h1.1360000371932983 v0.4050000011920929 h0.4059999883174896 v0.7310000061988831 h0.36500000953674316 v0.4050000011920929 h0.4059999883174896 v0.7710000276565552 h-0.4059999883174896 v0.36500000953674316 h-0.36500000953674316 v-0.36500000953674316 h0.36500000953674316 v-0.7710000276565552 h-0.7710000276565552 v-1.1360000371932983 h-0.7289999723434448 v0.36500000953674316 h0.36399999260902405 v0.7710000276565552 h0.36500000953674316 v1.1360000371932983 h-0.36500000953674316 V10.102005004882812 h-0.36399999260902405 v-0.7710000276565552 h-0.40700000524520874 v-0.7699999809265137 zM22.845001220703125,8.96600341796875 h0.36500000953674316 v1.1360000371932983 h0.4059999883174896 v0.36500000953674316 h-0.7710000276565552 v-1.5010000467300415 zM23.61600112915039,8.195999145507812 h1.1349999904632568 v0.36500000953674316 h-1.1349999904632568 v-0.36500000953674316 zM21.303001403808594,12.009002685546875 h0.7710000276565552 v0.36500000953674316 h-0.36500000953674316 v0.36500000953674316 h-0.4059999883174896 v-0.7300000190734863 zM21.709001541137695,12.738998413085938 h0.7710000276565552 v0.4059999883174896 h-0.4059999883174896 v0.36500000953674316 h-0.36500000953674316 v-0.7710000276565552 zM26.25200080871582,10.467002868652344 h0.7710000276565552 v0.4059999883174896 h-0.7710000276565552 v-0.4059999883174896 zM26.293001174926758,8.195999145507812 h0.7300000190734863 v0.36500000953674316 h-0.36500000953674316 v0.7699999809265137 h-0.36500000953674316 v-1.1349999904632568 zM28.15900230407715,8.195999145507812 h0.7710000276565552 v0.7699999809265137 h0.4050000011920929 v1.5010000467300415 h-0.4050000011920929 v-1.1360000371932983 h-0.36500000953674316 v-0.7699999809265137 h-0.4059999883174896 v-0.36500000953674316 zM28.15900230407715,10.467002868652344 h0.7710000276565552 v0.4059999883174896 h-0.7710000276565552 v-0.4059999883174896 zM30.47100257873535,8.195999145507812 h1.1360000371932983 v0.36500000953674316 h-1.1360000371932983 v-0.36500000953674316 zM32.37800216674805,8.96600341796875 h-0.4059999883174896 v1.1360000371932983 h-0.36500000953674316 v0.36500000953674316 h0.7710000276565552 v-1.5010000467300415 zM35.05500030517578,8.561004638671875 h-1.1759999990463257 v0.4050000011920929 h-0.36500000953674316 v0.7310000061988831 h-0.36500000953674316 v0.4050000011920929 h-0.4059999883174896 v0.7710000276565552 h0.4059999883174896 v0.36500000953674316 h0.36500000953674316 v-0.36500000953674316 h-0.36500000953674316 v-0.7710000276565552 h0.7300000190734863 v-1.1360000371932983 h0.7710000276565552 v0.36500000953674316 h-0.36500000953674316 v0.7710000276565552 h-0.4059999883174896 v1.1360000371932983 h0.4059999883174896 V10.102005004882812 h0.36500000953674316 v-0.7710000276565552 h0.4050000011920929 v-0.7699999809265137 zM14.448001861572266,22.272003173828125 h0.4059999883174896 v0.4050000011920929 h1.5010000467300415 v-0.4050000011920929 h0.4050000011920929 v0.7699999809265137 h-2.312000036239624 v-0.7699999809265137 zM12.541001319885254,26.084999084472656 v1.5410000085830688 h-0.7699999809265137 l0.03999999910593033,-0.40400001406669617 h0.36500000953674316 v-1.1369999647140503 h0.36500000953674316 zM15.990001678466797,30.304000854492188 h0.7699999809265137 v1.1360000371932983 h-0.4050000011920929 v-0.7710000276565552 h-0.36500000953674316 v-0.36500000953674316 z" id="svg_19"/><path d="M12.541001319885254,24.179000854492188 h0.7710000276565552 v-0.3659999966621399 h0.36500000953674316 v-0.36500000953674316 h0.4059999883174896 v-0.4059999883174896 h0.36500000953674316 v0.4059999883174896 h0.4059999883174896 v0.36500000953674316 h-0.7710000276565552 v0.7720000147819519 h1.1360000371932983 v0.36500000953674316 h-1.1360000371932983 v-0.36500000953674316 H13.31200122833252 v0.36500000953674316 h-0.36500000953674316 v0.7699999809265137 h0.36500000953674316 v0.36500000953674316 h0.36500000953674316 v0.4059999883174896 h-0.7300000190734863 v-0.4059999883174896 h-0.4059999883174896 v-1.906000018119812 zM10.635002136230469,20.770004272460938 h0.4050000011920929 v1.5019999742507935 h-0.4050000011920929 v0.4050000011920929 h-0.36500000953674316 v-0.4050000011920929 h-0.36500000953674316 v-0.36500000953674316 h0.7300000190734863 v-1.1369999647140503 zM12.541001319885254,15.821998596191406 h-0.36500000953674316 v2.63700008392334 h0.36500000953674316 v-0.36500000953674316 h0.4059999883174896 v-0.36500000953674316 h-0.4059999883174896 v-0.4059999883174896 h0.4059999883174896 v-0.36500000953674316 h-0.4059999883174896 V15.821998596191406 zM15.990001678466797,14.646003723144531 l0.36500000953674316,0.03999999910593033 v-0.7710000276565552 h0.4050000011920929 V15.821998596191406 h0.36500000953674316 v0.7300000190734863 h-0.36500000953674316 v-0.36500000953674316 h-0.4050000011920929 v-1.1360000371932983 h-0.36500000953674316 v-0.4050000011920929 zM23.61600112915039,10.467002868652344 h1.1349999904632568 v-0.36500000953674316 h0.3659999966621399 v-1.1759999990463257 h0.4050000011920929 v1.5410000085830688 h-0.4050000011920929 v0.4059999883174896 h0.4050000011920929 v0.36500000953674316 h0.36500000953674316 v-0.36500000953674316 h0.36500000953674316 l0.04100000113248825,0.36500000953674316 h2.63700008392334 v-0.36500000953674316 h0.4050000011920929 v0.36500000953674316 h0.3659999966621399 v-0.36500000953674316 h0.36500000953674316 v-0.4059999883174896 h-0.36500000953674316 v-1.5010000467300415 h0.36500000953674316 v1.1360000371932983 h0.4050000011920929 v0.36500000953674316 h1.1360000371932983 v0.4059999883174896 h-1.1360000371932983 v0.36500000953674316 h-0.36500000953674316 l-0.03999999910593033,0.36500000953674316 h-4.948999881744385 v-0.36500000953674316 h-0.3659999966621399 v-0.36500000953674316 h-1.1349999904632568 v-0.4059999883174896 zM30.066001892089844,15.416000366210938 h-0.7310000061988831 v0.4059999883174896 h-0.4050000011920929 v0.36500000953674316 h0.4050000011920929 v0.7710000276565552 h0.3659999966621399 V15.821998596191406 h0.36500000953674316 v-0.4059999883174896 zM28.56500244140625,17.72900390625 h0.36500000953674316 v0.7699999809265137 l0.4050000011920929,-0.03999999910593033 v-0.36500000953674316 h0.3659999966621399 v0.4050000011920929 l0.7699999809265137,-0.03999999910593033 v0.4059999883174896 h-1.906000018119812 v-0.4059999883174896 h-0.4059999883174896 v-0.36500000953674316 h0.4059999883174896 v-0.36500000953674316 zM30.836002349853516,16.552001953125 v0.4059999883174896 h0.4059999883174896 v0.36500000953674316 h0.36500000953674316 v-0.7710000276565552 h-0.7710000276565552 z" id="svg_20"/><path d="M19.803001403808594,16.95800018310547 h0.7710000276565552 v-1.906999945640564 h6.855000019073486 v5.315000057220459 h0.36500000953674316 v-5.315000057220459 h6.855999946594238 v1.906999945640564 h0.7699999809265137 v-0.4059999883174896 h-0.4050000011920929 l0.03999999910593033,-1.906000018119812 h-2.677000045776367 v-0.36500000953674316 h-0.7710000276565552 v0.36500000953674316 h-7.991000175476074 v-0.36500000953674316 h-0.7710000276565552 v0.36500000953674316 h-2.677999973297119 v1.906000018119812 h-0.36399999260902405 v0.4059999883174896 z" id="svg_21"/><path d="M20.57400131225586,17.72900390625 h0.36399999260902405 v0.36500000953674316 h2.2720000743865967 v-3.0429999828338623 h0.4059999883174896 v3.4079999923706055 h-3.0420000553131104 v-0.7300000190734863 zM20.57400131225586,19.230003356933594 h3.0420000553131104 v3.447000026702881 h-0.4059999883174896 v-3.0829999446868896 l-2.635999917984009,0.041999999433755875 v-0.4059999883174896 zM27.429000854492188,19.230003356933594 h-3.0429999828338623 v3.447000026702881 h0.36500000953674316 v-3.0829999446868896 l2.677999973297119,0.041999999433755875 v-0.4059999883174896 zM27.429000854492188,18.458999633789062 h-3.0429999828338623 v-3.4079999923706055 h0.36500000953674316 v3.0429999828338623 h2.677999973297119 v0.36500000953674316 z" id="svg_22"/><path d="M25.522001266479492,25.313003540039062 h0.36500000953674316 v-4.543000221252441 h3.447999954223633 v3.4089999198913574 h-0.4050000011920929 v0.7710000276565552 h0.4050000011920929 v-0.36500000953674316 h0.3659999966621399 v-4.218999862670898 H25.522001266479492 v4.947000026702881 zM27.794002532958984,27.261001586914062 h3.0420000553131104 v3.4079999923706055 h-0.36500000953674316 v-3.0429999828338623 h-2.677000045776367 v-0.36500000953674316 zM34.650001525878906,27.261001586914062 h-3.0429999828338623 v3.4079999923706055 h0.36500000953674316 v-3.0429999828338623 h2.677999973297119 v-0.36500000953674316 zM34.650001525878906,26.491004943847656 h-3.0429999828338623 V23.04199981689453 h0.36500000953674316 v3.0429999828338623 h2.677999973297119 v0.4059999883174896 z" id="svg_23"/><path d="M27.794002532958984,26.491004943847656 h3.0829999446868896 V23.04199981689453 h-0.4059999883174896 v3.0429999828338623 h-2.677000045776367 v0.4059999883174896 zM46.0890007019043,19.230003356933594 h-0.4059999883174896 v1.906000018119812 h-0.36500000953674316 v0.4059999883174896 h1.906999945640564 v-0.4059999883174896 h-1.1360000371932983 v-0.7699999809265137 h0.7710000276565552 v-0.36500000953674316 h-0.7710000276565552 v-0.7710000276565552 zM45.68300247192383,25.313003540039062 h1.906999945640564 v0.40700000524520874 h-1.906999945640564 v-0.40700000524520874 zM47.996002197265625,25.313003540039062 h0.36399999260902405 v0.40700000524520874 h-0.36399999260902405 v-0.40700000524520874 zM47.59000015258789,25.720001220703125 h0.4059999883174896 v0.36500000953674316 h-0.4059999883174896 v-0.36500000953674316 zM47.59000015258789,23.813003540039062 h0.4059999883174896 v1.5410000085830688 h-0.4059999883174896 v-1.5410000085830688 zM48.36000061035156,23.813003540039062 h0.4059999883174896 v1.5410000085830688 h-0.4059999883174896 v-1.5410000085830688 zM47.996002197265625,23.447998046875 h0.36399999260902405 v0.36500000953674316 h-0.36399999260902405 v-0.36500000953674316 zM47.22500228881836,23.447998046875 h0.36500000953674316 v0.36500000953674316 h-0.36500000953674316 v-0.36500000953674316 zM47.22500228881836,22.677001953125 h0.36500000953674316 v0.36500000953674316 h-0.36500000953674316 v-0.36500000953674316 zM47.59000015258789,23.04199981689453 h0.4059999883174896 v0.4059999883174896 h-0.4059999883174896 v-0.4059999883174896 zM46.86000061035156,23.04199981689453 h0.36500000953674316 v0.4059999883174896 h-0.36500000953674316 v-0.4059999883174896 zM46.86000061035156,22.272003173828125 h0.36500000953674316 v0.4050000011920929 h-0.36500000953674316 v-0.4050000011920929 zM46.454002380371094,22.677001953125 h0.4059999883174896 v0.36500000953674316 h-0.4059999883174896 v-0.36500000953674316 zM47.22500228881836,21.54199981689453 h0.36500000953674316 v0.7300000190734863 h-0.36500000953674316 v-0.7300000190734863 zM45.68300247192383,23.04199981689453 h0.7710000276565552 v0.4059999883174896 h-0.7710000276565552 v-0.4059999883174896 zM44.9530029296875,22.677001953125 h0.7300000190734863 v0.36500000953674316 h-0.7300000190734863 v-0.36500000953674316 zM44.547000885009766,20.366004943847656 h0.4059999883174896 v0.40400001406669617 h-0.4059999883174896 v-0.40400001406669617 z" id="svg_24"/><path d="M44.9530029296875,18.86499786376953 h0.36500000953674316 v2.2709999084472656 h-0.36500000953674316 v-2.2709999084472656 zM46.86000061035156,20.366004943847656 h0.36500000953674316 v0.40400001406669617 h-0.36500000953674316 v-0.40400001406669617 zM46.0890007019043,18.86499786376953 h0.7710000276565552 v0.36500000953674316 h-0.7710000276565552 v-0.36500000953674316 zM46.86000061035156,16.95800018310547 h0.36500000953674316 v1.906999945640564 h-0.36500000953674316 v-1.906999945640564 zM46.0890007019043,17.322998046875 h0.36500000953674316 v0.7710000276565552 h-0.36500000953674316 v-0.7710000276565552 zM45.31800079345703,16.552001953125 h0.36500000953674316 v1.1770000457763672 h-0.36500000953674316 V16.552001953125 zM46.0890007019043,16.18700408935547 h0.36500000953674316 v0.36500000953674316 h-0.36500000953674316 v-0.36500000953674316 zM46.454002380371094,16.552001953125 h0.4059999883174896 v0.4059999883174896 h-0.4059999883174896 v-0.4059999883174896 zM47.22500228881836,26.084999084472656 h0.36500000953674316 v0.7710000276565552 h-0.36500000953674316 v-0.7710000276565552 zM46.86000061035156,26.856002807617188 h0.36500000953674316 v0.3659999966621399 h-0.36500000953674316 v-0.3659999966621399 zM46.0890007019043,26.491004943847656 h0.7710000276565552 v0.36500000953674316 h-0.7710000276565552 v-0.36500000953674316 z" id="svg_25"/><path d="M46.0890007019043,18.09400177001953 h-0.7710000276565552 v-0.36500000953674316 h-0.36500000953674316 v0.7300000190734863 h0.36500000953674316 v0.4059999883174896 h0.36500000953674316 v-0.4059999883174896 h0.4059999883174896 v-0.36500000953674316 zM44.9530029296875,15.051002502441406 h0.36500000953674316 v0.7710000276565552 h0.7710000276565552 v0.36500000953674316 h-0.7710000276565552 v0.36500000953674316 h-0.36500000953674316 v-1.5010000467300415 zM44.547000885009766,20.770004272460938 h-0.36399999260902405 v1.5019999742507935 h0.36399999260902405 v0.4050000011920929 h0.4059999883174896 v-0.4050000011920929 h0.36500000953674316 v-0.36500000953674316 h-0.7710000276565552 v-1.1369999647140503 zM35.01499938964844,31.805999755859375 h3.0829999446868896 v0.40400001406669617 h-3.0829999446868896 v-0.40400001406669617 zM41.505001068115234,15.051002502441406 h0.3659999966621399 v0.36500000953674316 h-0.3659999966621399 v-0.36500000953674316 zM39.233001708984375,15.051002502441406 h0.3659999966621399 v1.1360000371932983 h-0.3659999966621399 v-1.1360000371932983 zM39.233001708984375,16.552001953125 h0.3659999966621399 v0.4059999883174896 h-0.3659999966621399 v-0.4059999883174896 zM37.69200134277344,16.552001953125 h0.4059999883174896 v0.4059999883174896 h-0.4059999883174896 v-0.4059999883174896 z" id="svg_26"/><path d="M38.057003021240234,16.95800018310547 h0.4059999883174896 v0.7710000276565552 h-0.4059999883174896 v-0.7710000276565552 zM37.327003479003906,18.458999633789062 h0.36500000953674316 v0.7710000276565552 h-0.36500000953674316 v-0.7710000276565552 zM36.555999755859375,18.458999633789062 h0.36500000953674316 v0.4059999883174896 h-0.36500000953674316 v-0.4059999883174896 zM35.78600311279297,18.09400177001953 h0.7699999809265137 v0.36500000953674316 h-0.7699999809265137 v-0.36500000953674316 zM35.42000198364258,16.95800018310547 h0.3659999966621399 v1.1360000371932983 h-0.3659999966621399 v-1.1360000371932983 zM39.9640007019043,13.915000915527344 v-0.4050000011920929 h0.4059999883174896 v0.4050000011920929 h-0.4059999883174896 zM38.8280029296875,12.374000549316406 h0.4050000011920929 v0.36500000953674316 h-0.4050000011920929 v-0.36500000953674316 zM40.73400115966797,12.009002685546875 h0.7710000276565552 v0.36500000953674316 h-0.7710000276565552 v-0.36500000953674316 zM41.505001068115234,12.374000549316406 h0.3659999966621399 v0.36500000953674316 h-0.3659999966621399 v-0.36500000953674316 zM42.2760009765625,15.416000366210938 h0.36500000953674316 v0.4059999883174896 h-0.36500000953674316 v-0.4059999883174896 zM41.871002197265625,15.821998596191406 h0.4050000011920929 v1.1360000371932983 h-0.4050000011920929 V15.821998596191406 zM42.2760009765625,18.458999633789062 h0.36500000953674316 v0.7710000276565552 h-0.36500000953674316 v-0.7710000276565552 zM41.871002197265625,19.230003356933594 h0.4050000011920929 v1.1360000371932983 h-0.4050000011920929 v-1.1360000371932983 zM41.871002197265625,20.770004272460938 h0.4050000011920929 v1.1369999647140503 h-0.4050000011920929 v-1.1369999647140503 zM42.2760009765625,20.366004943847656 h0.36500000953674316 v0.7699999809265137 h-0.36500000953674316 v-0.7699999809265137 zM42.2760009765625,21.907005310058594 h0.36500000953674316 v0.36500000953674316 h-0.36500000953674316 v-0.36500000953674316 zM42.2760009765625,23.447998046875 h0.36500000953674316 v0.36500000953674316 h-0.36500000953674316 v-0.36500000953674316 zM42.6410026550293,22.272003173828125 h0.4050000011920929 v0.4050000011920929 h-0.4050000011920929 v-0.4050000011920929 zM41.871002197265625,22.677001953125 h0.4050000011920929 v0.7710000276565552 h-0.4050000011920929 v-0.7710000276565552 zM42.6410026550293,23.813003540039062 h0.4050000011920929 v0.3659999966621399 h-0.4050000011920929 v-0.3659999966621399 zM43.04600143432617,22.677001953125 h0.3659999966621399 v0.36500000953674316 h-0.3659999966621399 v-0.36500000953674316 zM43.41200256347656,23.04199981689453 h0.36500000953674316 v0.4059999883174896 h-0.36500000953674316 v-0.4059999883174896 zM43.777000427246094,23.447998046875 h0.4059999883174896 v0.36500000953674316 h-0.4059999883174896 v-0.36500000953674316 zM44.18300247192383,23.813003540039062 h0.36399999260902405 v0.3659999966621399 h-0.36399999260902405 v-0.3659999966621399 zM44.547000885009766,24.179000854492188 h0.4059999883174896 v0.4059999883174896 h-0.4059999883174896 v-0.4059999883174896 zM43.777000427246094,24.584999084472656 h0.4059999883174896 v0.36500000953674316 h-0.4059999883174896 v-0.36500000953674316 zM43.04600143432617,24.179000854492188 h0.7310000061988831 v0.4059999883174896 h-0.7310000061988831 v-0.4059999883174896 zM44.9530029296875,24.584999084472656 h0.36500000953674316 v0.36500000953674316 h-0.36500000953674316 v-0.36500000953674316 zM45.31800079345703,24.95000457763672 h0.36500000953674316 v0.40400001406669617 h-0.36500000953674316 v-0.40400001406669617 zM47.59000015258789,29.12799835205078 h0.4059999883174896 v0.7689999938011169 h-0.4059999883174896 v-0.7689999938011169 zM46.0890007019043,27.625999450683594 h0.36500000953674316 v0.36500000953674316 h-0.36500000953674316 v-0.36500000953674316 zM45.68300247192383,26.084999084472656 h0.4059999883174896 v0.4059999883174896 h-0.4059999883174896 v-0.4059999883174896 zM45.68300247192383,26.856002807617188 h0.4059999883174896 v0.7699999809265137 h-0.4059999883174896 v-0.7699999809265137 zM46.454002380371094,27.991004943847656 h0.7710000276565552 v0.4059999883174896 h-0.7710000276565552 v-0.4059999883174896 zM45.31800079345703,27.991004943847656 h0.7710000276565552 v0.4059999883174896 h-0.7710000276565552 v-0.4059999883174896 zM46.0890007019043,28.397003173828125 h0.36500000953674316 v0.3659999966621399 h-0.36500000953674316 v-0.3659999966621399 zM46.454002380371094,28.76300048828125 h0.4059999883174896 v0.7689999938011169 h-0.4059999883174896 v-0.7689999938011169 zM47.22500228881836,28.397003173828125 h0.36500000953674316 v0.7310000061988831 h-0.36500000953674316 v-0.7310000061988831 zM41.1400032043457,20.366004943847656 h0.36500000953674316 v0.40400001406669617 h-0.36500000953674316 v-0.40400001406669617 zM40.37000274658203,21.136001586914062 h0.36399999260902405 v0.4059999883174896 h-0.36399999260902405 v-0.4059999883174896 zM40.73400115966797,21.54199981689453 h0.4059999883174896 v0.36500000953674316 h-0.4059999883174896 v-0.36500000953674316 zM39.9640007019043,20.770004272460938 h0.4059999883174896 v0.3659999966621399 h-0.4059999883174896 v-0.3659999966621399 zM40.73400115966797,20.770004272460938 h0.4059999883174896 v0.3659999966621399 h-0.4059999883174896 v-0.3659999966621399 zM47.22500228881836,29.897003173828125 h0.36500000953674316 v0.40700000524520874 h-0.36500000953674316 v-0.40700000524520874 zM46.86000061035156,30.304000854492188 h0.36500000953674316 v1.1360000371932983 h-0.36500000953674316 v-1.1360000371932983 zM44.547000885009766,31.44000244140625 h0.4059999883174896 v-0.4059999883174896 H43.41200256347656 v0.4059999883174896 h0.7710000276565552 v0.3659999966621399 h-0.7710000276565552 v0.40400001406669617 h3.0420000553131104 v-0.40400001406669617 h-1.906999945640564 v-0.3659999966621399 zM44.9530029296875,30.66899871826172 h0.36500000953674316 v0.36500000953674316 h-0.36500000953674316 v-0.36500000953674316 zM45.31800079345703,29.532005310058594 h0.36500000953674316 v1.1369999647140503 h-0.36500000953674316 v-1.1369999647140503 zM44.9530029296875,29.12799835205078 h0.36500000953674316 v0.40400001406669617 h-0.36500000953674316 v-0.40400001406669617 zM44.18300247192383,28.76300048828125 h0.7699999809265137 v0.36500000953674316 h-0.7699999809265137 v-0.36500000953674316 zM43.777000427246094,28.397003173828125 h0.4059999883174896 v0.3659999966621399 h-0.4059999883174896 v-0.3659999966621399 zM42.6410026550293,31.805999755859375 h0.4050000011920929 v0.40400001406669617 h-0.4050000011920929 v-0.40400001406669617 zM42.6410026550293,30.66899871826172 h0.7710000276565552 v0.36500000953674316 h-0.7710000276565552 v-0.36500000953674316 zM43.41200256347656,27.991004943847656 h0.36500000953674316 v0.4059999883174896 h-0.36500000953674316 v-0.4059999883174896 zM41.871002197265625,28.397003173828125 h1.5410000085830688 v0.3659999966621399 h-1.5410000085830688 v-0.3659999966621399 zM41.1400032043457,26.491004943847656 h0.36500000953674316 v0.36500000953674316 h-0.36500000953674316 v-0.36500000953674316 zM41.505001068115234,28.76300048828125 h0.3659999966621399 v0.36500000953674316 h-0.3659999966621399 v-0.36500000953674316 zM41.505001068115234,27.991004943847656 h0.3659999966621399 v0.4059999883174896 h-0.3659999966621399 v-0.4059999883174896 zM41.871002197265625,27.625999450683594 h0.7699999809265137 v0.36500000953674316 h-0.7699999809265137 v-0.36500000953674316 zM43.41200256347656,26.491004943847656 h0.36500000953674316 v0.7310000061988831 h-0.36500000953674316 v-0.7310000061988831 zM43.777000427246094,26.084999084472656 h0.4059999883174896 v0.4059999883174896 h-0.4059999883174896 v-0.4059999883174896 zM44.9530029296875,27.625999450683594 h0.36500000953674316 v0.36500000953674316 h-0.36500000953674316 v-0.36500000953674316 zM40.73400115966797,26.856002807617188 h0.4059999883174896 v0.3659999966621399 h-0.4059999883174896 v-0.3659999966621399 zM39.9640007019043,27.991004943847656 h0.4059999883174896 v0.4059999883174896 h-0.4059999883174896 v-0.4059999883174896 zM40.37000274658203,27.222000122070312 h0.36399999260902405 v0.7689999938011169 h-0.36399999260902405 v-0.7689999938011169 zM39.599002838134766,28.397003173828125 h0.36500000953674316 v0.3659999966621399 h-0.36500000953674316 v-0.3659999966621399 zM39.233001708984375,28.76300048828125 h0.3659999966621399 v0.36500000953674316 h-0.3659999966621399 v-0.36500000953674316 zM38.8280029296875,29.12799835205078 h0.4050000011920929 v0.7689999938011169 h-0.4050000011920929 v-0.7689999938011169 zM39.233001708984375,29.897003173828125 h0.3659999966621399 v0.40700000524520874 h-0.3659999966621399 v-0.40700000524520874 zM38.057003021240234,31.44000244140625 h0.4059999883174896 v0.3659999966621399 h-0.4059999883174896 v-0.3659999966621399 zM34.285003662109375,31.805999755859375 h0.36500000953674316 v0.40400001406669617 h-0.36500000953674316 v-0.40400001406669617 zM34.650001525878906,31.44000244140625 h0.36500000953674316 v0.3659999966621399 h-0.36500000953674316 v-0.3659999966621399 zM33.87900161743164,31.03400421142578 h0.4059999883174896 v0.7720000147819519 h-0.4059999883174896 v-0.7720000147819519 zM34.285003662109375,30.66899871826172 h0.7300000190734863 v0.36500000953674316 h-0.7300000190734863 v-0.36500000953674316 zM33.513999938964844,31.03400421142578 h0.36500000953674316 v0.4059999883174896 h-0.36500000953674316 v-0.4059999883174896 zM36.191001892089844,30.66899871826172 h0.36500000953674316 v0.36500000953674316 h-0.36500000953674316 v-0.36500000953674316 zM35.78600311279297,31.03400421142578 h0.4050000011920929 v0.7720000147819519 h-0.4050000011920929 v-0.7720000147819519 zM36.555999755859375,30.304000854492188 h0.36500000953674316 v0.36500000953674316 h-0.36500000953674316 v-0.36500000953674316 zM38.057003021240234,29.12799835205078 h0.4059999883174896 v1.1759999990463257 h-0.4059999883174896 v-1.1759999990463257 zM36.92100143432617,27.991004943847656 h0.4059999883174896 v2.312999963760376 h-0.4059999883174896 v-2.312999963760376 zM36.555999755859375,27.625999450683594 h0.36500000953674316 v0.36500000953674316 h-0.36500000953674316 v-0.36500000953674316 zM35.78600311279297,27.991004943847656 h0.7699999809265137 v0.4059999883174896 h-0.7699999809265137 v-0.4059999883174896 zM35.42000198364258,27.222000122070312 h0.3659999966621399 v1.5410000085830688 h-0.3659999966621399 V27.222000122070312 zM35.78600311279297,26.856002807617188 h0.7699999809265137 v0.3659999966621399 h-0.7699999809265137 v-0.3659999966621399 zM37.69200134277344,26.084999084472656 h0.4059999883174896 v0.4059999883174896 h-0.4059999883174896 v-0.4059999883174896 zM36.555999755859375,26.491004943847656 h1.1360000371932983 v0.36500000953674316 h-1.1360000371932983 v-0.36500000953674316 z" id="svg_27"/><path d="M37.327003479003906,26.491004943847656 h0.36500000953674316 v0.36500000953674316 h-0.36500000953674316 v-0.36500000953674316 zM38.057003021240234,25.720001220703125 h0.7710000276565552 v0.36500000953674316 h-0.7710000276565552 v-0.36500000953674316 zM38.8280029296875,25.313003540039062 h0.4050000011920929 v0.40700000524520874 h-0.4050000011920929 v-0.40700000524520874 z" id="svg_28"/><path d="M39.233001708984375,24.95000457763672 h0.7310000061988831 v0.40400001406669617 h-0.7310000061988831 v-0.40400001406669617 zM37.69200134277344,23.04199981689453 h0.7710000276565552 v0.4059999883174896 h-0.7710000276565552 v-0.4059999883174896 zM37.327003479003906,23.447998046875 h0.36500000953674316 v0.36500000953674316 h-0.36500000953674316 v-0.36500000953674316 zM36.92100143432617,23.04199981689453 h0.4059999883174896 v0.4059999883174896 h-0.4059999883174896 v-0.4059999883174896 zM35.42000198364258,23.447998046875 h1.5010000467300415 v0.36500000953674316 h-1.5010000467300415 v-0.36500000953674316 z" id="svg_29"/><path d="M35.01499938964844,23.04199981689453 h0.4050000011920929 v0.4059999883174896 h-0.4050000011920929 v-0.4059999883174896 zM35.01499938964844,23.813003540039062 h0.4050000011920929 v0.3659999966621399 h-0.4050000011920929 v-0.3659999966621399 zM39.599002838134766,20.366004943847656 h0.36500000953674316 v0.40400001406669617 h-0.36500000953674316 v-0.40400001406669617 zM38.8280029296875,21.907005310058594 h0.4050000011920929 v0.36500000953674316 h-0.4050000011920929 v-0.36500000953674316 zM38.057003021240234,20.366004943847656 h0.4059999883174896 v0.40400001406669617 h-0.4059999883174896 v-0.40400001406669617 zM39.233001708984375,18.458999633789062 h0.7310000061988831 v0.4059999883174896 h-0.7310000061988831 v-0.4059999883174896 zM37.69200134277344,20.770004272460938 h0.36500000953674316 v0.3659999966621399 h-0.36500000953674316 v-0.3659999966621399 zM36.92100143432617,21.136001586914062 h0.7710000276565552 v0.4059999883174896 h-0.7710000276565552 v-0.4059999883174896 zM36.555999755859375,21.54199981689453 h0.36500000953674316 v0.36500000953674316 h-0.36500000953674316 v-0.36500000953674316 zM35.42000198364258,21.54199981689453 h0.3659999966621399 v1.1349999904632568 h-0.3659999966621399 V21.54199981689453 zM36.191001892089844,21.907005310058594 h0.36500000953674316 v0.36500000953674316 h-0.36500000953674316 v-0.36500000953674316 zM35.78600311279297,22.272003173828125 h0.4050000011920929 v0.4050000011920929 h-0.4050000011920929 v-0.4050000011920929 zM35.01499938964844,21.136001586914062 h0.4050000011920929 v0.4059999883174896 h-0.4050000011920929 v-0.4059999883174896 zM35.01499938964844,19.636001586914062 h0.4050000011920929 v0.36500000953674316 h-0.4050000011920929 v-0.36500000953674316 zM35.01499938964844,18.86499786376953 h0.4050000011920929 v0.36500000953674316 h-0.4050000011920929 v-0.36500000953674316 zM37.69200134277344,20.000999450683594 h-0.7710000276565552 v0.36500000953674316 h-0.36500000953674316 v0.40400001406669617 h1.1360000371932983 v-0.7689999938011169 zM36.191001892089844,19.636001586914062 h0.7300000190734863 v0.36500000953674316 h-0.7300000190734863 v-0.36500000953674316 z" id="svg_30"/><path d="M35.42000198364258,19.230003356933594 h0.7710000276565552 v0.4059999883174896 h-0.7710000276565552 v-0.4059999883174896 zM38.09800338745117,18.09400177001953 h-0.7710000276565552 v0.36500000953674316 h-0.4059999883174896 v-1.1360000371932983 h0.4059999883174896 v0.4059999883174896 h0.7710000276565552 v0.36500000953674316 zM38.4630012512207,18.86499786376953 v0.36500000953674316 h0.36500000953674316 v0.7710000276565552 h-0.36500000953674316 v0.36500000953674316 h0.7699999809265137 v-1.5010000467300415 h-0.7699999809265137 zM41.505001068115234,15.416000366210938 v1.5420000553131104 h-0.36500000953674316 v0.36500000953674316 h-0.7710000276565552 v-0.36500000953674316 h-0.4059999883174896 v-0.4059999883174896 h-0.36500000953674316 v-0.36500000953674316 h0.36500000953674316 v-0.7710000276565552 h1.5420000553131104 zm-0.7710000276565552,1.1360000371932983 h0.4059999883174896 v-0.7300000190734863 h-0.4059999883174896 v0.36500000953674316 h-0.36500000953674316 v0.7710000276565552 h0.36500000953674316 v-0.4059999883174896 zM41.871002197265625,31.03400421142578 v0.4059999883174896 h-0.3659999966621399 v0.7699999809265137 h0.7710000276565552 v-0.40400001406669617 h0.36500000953674316 v-0.7720000147819519 h-0.7699999809265137 zM33.108001708984375,31.44000244140625 v0.7699999809265137 h0.7710000276565552 v-0.40400001406669617 h-0.36500000953674316 v-0.3659999966621399 h-0.4059999883174896 zM42.6410026550293,12.738998413085938 h-0.7699999809265137 v0.4059999883174896 h0.4050000011920929 v0.36500000953674316 h0.36500000953674316 v1.906000018119812 h0.4050000011920929 v-1.906000018119812 h0.3659999966621399 v-0.36500000953674316 h-0.7710000276565552 v-0.4059999883174896 z" id="svg_31"/><path d="M41.505001068115234,13.915000915527344 v0.3659999966621399 h0.3659999966621399 v0.36500000953674316 h0.4050000011920929 v-0.7310000061988831 h-0.7710000276565552 zM41.505001068115234,18.09400177001953 v0.7710000276565552 h0.3659999966621399 v-0.4059999883174896 h0.4050000011920929 v-0.36500000953674316 h-0.7710000276565552 zM39.9640007019043,20.366004943847656 h-0.7310000061988831 v0.7699999809265137 h0.3659999966621399 v-0.3659999966621399 h0.36500000953674316 v-0.40400001406669617 zM38.8280029296875,13.145004272460938 v0.7699999809265137 h0.4050000011920929 v-0.4050000011920929 h0.3659999966621399 v-0.36500000953674316 h0.7710000276565552 v-0.4059999883174896 h0.36399999260902405 v-0.36500000953674316 h-0.7699999809265137 v0.36500000953674316 h-0.7310000061988831 v0.4059999883174896 h-0.4050000011920929 zM39.9640007019043,13.510002136230469 v0.7710000276565552 h0.7699999809265137 v0.7699999809265137 h0.7710000276565552 v-0.4050000011920929 h-0.36500000953674316 v-0.36500000953674316 h-0.4059999883174896 v-0.3659999966621399 h-0.36399999260902405 v-0.4050000011920929 h-0.4059999883174896 zM35.01499938964844,31.03400421142578 h0.7710000276565552 v0.4059999883174896 h-0.7710000276565552 v-0.4059999883174896 zM40.73400115966797,22.272003173828125 h-0.36399999260902405 v0.4050000011920929 h-1.5420000553131104 v-0.4050000011920929 h-0.36500000953674316 v0.7699999809265137 h2.2709999084472656 v-0.7699999809265137 zM42.6410026550293,26.084999084472656 v1.5410000085830688 h0.7710000276565552 v-0.40400001406669617 h-0.3659999966621399 v-1.1369999647140503 h-0.4050000011920929 zM39.233001708984375,30.304000854492188 h-0.7699999809265137 v1.1360000371932983 h0.36500000953674316 v-0.7710000276565552 h0.4050000011920929 v-0.36500000953674316 z" id="svg_32"/><path d="M42.6410026550293,24.179000854492188 h-0.7699999809265137 v-0.3659999966621399 h-0.3659999966621399 v-0.36500000953674316 h-0.36500000953674316 v-0.4059999883174896 h-0.4059999883174896 v0.4059999883174896 h-0.36399999260902405 v0.36500000953674316 h0.7699999809265137 v0.7720000147819519 h-1.1759999990463257 v0.36500000953674316 h1.1759999990463257 v-0.36500000953674316 h0.7310000061988831 v0.36500000953674316 h0.4050000011920929 v0.7699999809265137 h-0.4050000011920929 v0.36500000953674316 h-0.3659999966621399 v0.4059999883174896 h0.7710000276565552 v-0.4059999883174896 h0.36500000953674316 v-1.906000018119812 zM42.6410026550293,15.821998596191406 h0.4050000011920929 v2.63700008392334 h-0.4050000011920929 v-0.36500000953674316 h-0.36500000953674316 v-0.36500000953674316 h0.36500000953674316 v-0.4059999883174896 h-0.36500000953674316 v-0.36500000953674316 h0.36500000953674316 V15.821998596191406 zM39.233001708984375,14.646003723144531 l-0.4050000011920929,0.03999999910593033 v-0.7710000276565552 h-0.36500000953674316 V15.821998596191406 h-0.4059999883174896 l0.04100000113248825,0.7300000190734863 h0.36500000953674316 v-0.36500000953674316 h0.36500000953674316 v-1.1360000371932983 h0.4050000011920929 v-0.4050000011920929 zM46.454002380371094,31.44000244140625 h0.4059999883174896 v0.3659999966621399 h-0.4059999883174896 v-0.3659999966621399 zM43.04600143432617,31.44000244140625 h0.3659999966621399 v0.3659999966621399 h-0.3659999966621399 v-0.3659999966621399 zM66.49299621582031,25.070999145507812 c-0.7710000276565552,1.3380000591278076 -1.906999945640564,2.068000078201294 -3.244999885559082,2.068000078201294 a3.315999984741211,3.315999984741211 0 0 1 -1.5420000553131104,-0.36500000953674316 l-0.6489999890327454,4.177999973297119 h-1.2569999694824219 l1.8250000476837158,-11.60099983215332 l1.2979999780654907,-0.2029999941587448 l-0.5270000100135803,2.759000062942505 c0.12200000137090683,-0.24400000274181366 0.24300000071525574,-0.4059999883174896 0.32499998807907104,-0.5270000100135803 a7.4710001945495605,7.4710001945495605 0 0 1 1.2170000076293945,-1.2990000247955322 c0.7300000190734863,-0.6489999890327454 1.6629999876022339,-1.0950000286102295 2.190000057220459,-1.0950000286102295 c0.8519999980926514,0 1.4199999570846558,0.9330000281333923 1.4199999570846558,2.2720000743865967 c0,1.2569999694824219 -0.36500000953674316,2.63700008392334 -1.0549999475479126,3.812999963760376 zm-0.8109999895095825,-4.868000030517578 c-0.24300000071525574,0 -0.8119999766349792,0.36399999260902405 -1.4199999570846558,0.9330000281333923 a22.534000396728516,22.534000396728516 0 0 0 -1.5420000553131104,1.74399995803833 c-0.32499998807907104,0.44699999690055847 -0.5680000185966492,1.0160000324249268 -0.6079999804496765,1.4609999656677246 l-0.24400000274181366,1.378999948501587 c0.44600000977516174,0.3240000009536743 0.8519999980926514,0.44699999690055847 1.4199999570846558,0.44699999690055847 c1.5820000171661377,0 2.880000114440918,-2.1500000953674316 2.880000114440918,-4.828000068664551 c0,-0.7310000061988831 -0.16200000047683716,-1.1360000371932983 -0.4860000014305115,-1.1360000371932983 zM74.36299896240234,20.527999877929688 c-0.16200000047683716,-0.12300000339746475 -0.2840000092983246,-0.12300000339746475 -0.4869999885559082,-0.12300000339746475 c-0.3240000009536743,0 -0.6489999890327454,0.12300000339746475 -1.0140000581741333,0.4880000054836273 a5.063000202178955,5.063000202178955 0 0 0 -1.3389999866485596,2.068000078201294 c-0.16200000047683716,0.4449999928474426 -0.4050000011920929,1.4609999656677246 -0.4860000014305115,2.0269999504089355 l-0.32499998807907104,1.906000018119812 h-1.2569999694824219 l1.1759999990463257,-7.544000148773193 l1.3380000591278076,-0.2029999941587448 l-0.4860000014305115,2.2309999465942383 c0.9330000281333923,-1.6230000257492065 1.6629999876022339,-2.2720000743865967 2.515000104904175,-2.2720000743865967 c0.36500000953674316,0 0.5680000185966492,0.08100000023841858 0.8920000195503235,0.24300000071525574 l-0.5270000100135803,1.1790000200271606 zM77.89199829101562,27.0989990234375 c-1.5420000553131104,0 -2.555999994277954,-1.2170000076293945 -2.555999994277954,-3.0409998893737793 c0,-2.759999990463257 1.8660000562667847,-4.989999771118164 4.0970001220703125,-4.989999771118164 c1.5820000171661377,0 2.555000066757202,1.2170000076293945 2.555000066757202,3.1640000343322754 c0.0010000000474974513,2.635999917984009 -1.8650000095367432,4.867000102996826 -4.0960001945495605,4.867000102996826 zm1.378999948501587,-6.9770002365112305 c-0.7300000190734863,0 -1.4600000381469727,0.5270000100135803 -1.9869999885559082,1.4199999570846558 c-0.4059999883174896,0.7300000190734863 -0.6489999890327454,1.6230000257492065 -0.6489999890327454,2.3929998874664307 c0,1.2990000247955322 0.5270000100135803,2.1500000953674316 1.3380000591278076,2.1500000953674316 c1.5010000467300415,0 2.7179999351501465,-1.74399995803833 2.7179999351501465,-3.8540000915527344 c0,-1.378999948501587 -0.4860000014305115,-2.1089999675750732 -1.4199999570846558,-2.1089999675750732 zM90.10200500488281,21.421005249023438 c-0.16200000047683716,0.8109999895095825 -0.44600000977516174,1.2170000076293945 -1.74399995803833,2.63700008392334 l-1.0549999475479126,1.2170000076293945 a30.070999145507812,30.070999145507812 0 0 1 -1.9470000267028809,1.8240000009536743 h-0.8930000066757202 v-7.748000144958496 l1.2170000076293945,-0.2029999941587448 v6.125999927520752 c0.16200000047683716,-0.2029999941587448 0.32499998807907104,-0.3240000009536743 0.4059999883174896,-0.4059999883174896 c0.12099999934434891,-0.16200000047683716 0.5669999718666077,-0.6480000019073486 1.2979999780654907,-1.4199999570846558 c0.4050000011920929,-0.4860000014305115 0.7300000190734863,-0.9340000152587891 1.0140000581741333,-1.2580000162124634 c0.32499998807907104,-0.4860000014305115 0.5270000100135803,-0.9319999814033508 0.5270000100135803,-1.4609999656677246 c0,-0.24199999868869781 -0.04100000113248825,-0.3630000054836273 -0.2029999941587448,-0.6480000019073486 c-0.12200000137090683,-0.2029999941587448 -0.2029999941587448,-0.28299999237060547 -0.4059999883174896,-0.5270000100135803 l1.1360000371932983,-0.4059999883174896 c0.5680000185966492,0.6489999890327454 0.7300000190734863,1.0549999475479126 0.7300000190734863,1.7039999961853027 c0.0010000000474974513,0.16300000250339508 -0.039000000804662704,0.3659999966621399 -0.07999999821186066,0.5690000057220459 zM94.92900085449219,16.228004455566406 c-0.12099999934434891,0.5669999718666077 -0.4860000014305115,0.9729999899864197 -0.8920000195503235,0.9729999899864197 c-0.32499998807907104,0 -0.5680000185966492,-0.44600000977516174 -0.5680000185966492,-1.0140000581741333 c0,-0.03999999910593033 0,-0.12200000137090683 0.04100000113248825,-0.2029999941587448 c0.08100000023841858,-0.5680000185966492 0.4869999885559082,-0.9330000281333923 0.8930000066757202,-0.9330000281333923 c0.3240000009536743,0 0.5680000185966492,0.44600000977516174 0.5680000185966492,0.9739999771118164 c-0.0010000000474974513,0.08100000023841858 -0.0010000000474974513,0.16200000047683716 -0.041999999433755875,0.2029999941587448 zm-1.8660000562667847,10.666999816894531 h-1.2979999780654907 l1.2170000076293945,-7.544000148773193 l1.2979999780654907,-0.2029999941587448 l-1.2170000076293945,7.747000217437744 zM103.447998046875,21.055999755859375 l-0.8930000066757202,5.840000152587891 h-1.2990000247955322 l0.8930000066757202,-5.63700008392334 l0.04100000113248825,-0.36500000953674316 c0.04100000113248825,-0.0820000022649765 0.04100000113248825,-0.164000004529953 0.04100000113248825,-0.24400000274181366 c0,-0.36500000953674316 -0.12099999934434891,-0.5270000100135803 -0.3240000009536743,-0.5270000100135803 c-0.4059999883174896,0 -0.9750000238418579,0.4059999883174896 -1.6640000343322754,1.1759999990463257 c-0.6079999804496765,0.6499999761581421 -1.2170000076293945,1.378999948501587 -1.6230000257492065,2.0290000438690186 a4.03000020980835,4.03000020980835 0 0 0 -0.36500000953674316,0.7300000190734863 c-0.12099999934434891,0.3240000009536743 -0.3240000009536743,0.9729999899864197 -0.36399999260902405,1.3380000591278076 l-0.24400000274181366,1.5 h-1.2569999694824219 l1.1759999990463257,-7.544000148773193 l1.2979999780654907,-0.2029999941587448 l-0.5680000185966492,3.0829999446868896 c0.16200000047683716,-0.24400000274181366 0.2840000092983246,-0.4059999883174896 0.4059999883174896,-0.5270000100135803 c0.4869999885559082,-0.6890000104904175 0.8109999895095825,-1.0549999475479126 1.2170000076293945,-1.4609999656677246 c0.8109999895095825,-0.8109999895095825 1.5820000171661377,-1.215999960899353 2.312000036239624,-1.215999960899353 c0.8930000066757202,0 1.2990000247955322,0.44600000977516174 1.2990000247955322,1.378000020980835 c0,0.20200000703334808 -0.04100000113248825,0.44600000977516174 -0.0820000022649765,0.6499999761581421 zM111.07500457763672,20.608001708984375 c-0.5270000100135803,-0.4449999928474426 -0.8539999723434448,-0.5669999718666077 -1.38100004196167,-0.5669999718666077 c-1.5,0 -2.7170000076293945,1.9869999885559082 -2.7170000076293945,4.461999893188477 c0,1.0140000581741333 0.2029999941587448,1.4199999570846558 0.6890000104904175,1.4199999570846558 c0.6890000104904175,0 1.6230000257492065,-0.6890000104904175 2.9200000762939453,-2.1089999675750732 l0.7300000190734863,0.6480000019073486 c-1.4199999570846558,1.7050000429153442 -2.757999897003174,2.556999921798706 -4.057000160217285,2.556999921798706 c-1.0140000581741333,0 -1.6619999408721924,-0.8930000066757202 -1.6619999408721924,-2.3540000915527344 c0,-3.0409998893737793 1.9470000267028809,-5.638000011444092 4.218999862670898,-5.638000011444092 c0.7699999809265137,0 1.3380000591278076,0.2029999941587448 1.9880000352859497,0.7300000190734863 l-0.7289999723434448,0.8510000109672546 zM116.22599792480469,16.228004455566406 c-0.12099999934434891,0.5669999718666077 -0.4860000014305115,0.9729999899864197 -0.8930000066757202,0.9729999899864197 c-0.3240000009536743,0 -0.5659999847412109,-0.44600000977516174 -0.5659999847412109,-1.0140000581741333 v-0.2029999941587448 c0.12099999934434891,-0.5680000185966492 0.4860000014305115,-0.9330000281333923 0.9319999814033508,-0.9330000281333923 c0.2849999964237213,0 0.5680000185966492,0.44600000977516174 0.5680000185966492,0.9739999771118164 c0,0.08100000023841858 0,0.16200000047683716 -0.04100000113248825,0.2029999941587448 zm-1.8660000562667847,10.666999816894531 h-1.2990000247955322 l1.2170000076293945,-7.544000148773193 l1.2990000247955322,-0.2029999941587448 l-1.2170000076293945,7.747000217437744 zM122.43299865722656,21.947998046875 l-3.5290000438690186,2.188999891281128 c-0.04100000113248825,0.16200000047683716 -0.04100000113248825,0.2029999941587448 -0.04100000113248825,0.4059999883174896 c0,0.9340000152587891 0.32600000500679016,1.4199999570846558 0.8930000066757202,1.4199999570846558 c0.8519999980926514,0 1.9880000352859497,-0.8119999766349792 3.002000093460083,-2.1500000953674316 l0.7300000190734863,0.7300000190734863 c-1.4609999656677246,1.6230000257492065 -2.757999897003174,2.4749999046325684 -3.936000108718872,2.4749999046325684 c-1.3380000591278076,0 -1.9859999418258667,-0.8519999980926514 -1.9859999418258667,-2.5160000324249268 c0,-2.9609999656677246 1.906000018119812,-5.517000198364258 4.13700008392334,-5.517000198364258 c1.0959999561309814,0 1.784999966621399,0.5680000185966492 1.784999966621399,1.4190000295639038 c-0.0010000000474974513,0.6520000100135803 -0.2840000092983246,1.097000002861023 -1.0549999475479126,1.5440000295639038 zm-0.8930000066757202,-1.9880000352859497 c-1.0549999475479126,0 -2.1500000953674316,1.2990000247955322 -2.4749999046325684,3.002000093460083 l3.1640000343322754,-2.0290000438690186 a0.4909999966621399,0.4909999966621399 0 0 0 0.0820000022649765,-0.28299999237060547 c0,-0.3659999966621399 -0.36500000953674316,-0.6899999976158142 -0.7710000276565552,-0.6899999976158142 zM148.47601318359375,26.16699981689453 c-0.8519999980926514,0.6890000104904175 -1.8650000095367432,1.0549999475479126 -3.0840001106262207,1.0549999475479126 c-1.1759999990463257,0 -2.2300000190734863,-0.36500000953674316 -3.0820000171661377,-1.0549999475479126 c-0.9340000152587891,-0.7300000190734863 -1.2990000247955322,-1.6230000257492065 -1.2990000247955322,-3.0840001106262207 v-7.3420000076293945 h1.38100004196167 v6.895999908447266 c0,1.4199999570846558 0.12099999934434891,1.784999966621399 0.6480000019073486,2.3929998874664307 c0.5680000185966492,0.609000027179718 1.378999948501587,0.9340000152587891 2.3519999980926514,0.9340000152587891 c0.9750000238418579,0 1.784999966621399,-0.3240000009536743 2.312000036239624,-0.9340000152587891 c0.5680000185966492,-0.6069999933242798 0.6499999761581421,-0.9729999899864197 0.6499999761581421,-2.3929998874664307 v-6.895999908447266 h1.378999948501587 v7.3420000076293945 c0,1.4609999656677246 -0.3240000009536743,2.3529999256134033 -1.2569999694824219,3.0840001106262207 zM156.75100708007812,24.74700164794922 c-0.36500000953674316,0.36500000953674316 -0.6480000019073486,0.6480000019073486 -0.8519999980926514,0.8109999895095825 c-0.609000027179718,0.5270000100135803 -1.2170000076293945,1.0140000581741333 -1.7050000429153442,1.2990000247955322 c-0.28299999237060547,0.16200000047683716 -0.40400001406669617,0.2029999941587448 -0.8519999980926514,0.24199999868869781 c-0.12099999934434891,-0.2029999941587448 -0.2029999941587448,-0.4860000014305115 -0.2029999941587448,-0.8930000066757202 c0,-0.16200000047683716 0.04100000113248825,-0.3630000054836273 0.04100000113248825,-0.6069999933242798 c0.04100000113248825,-0.3240000009536743 0.0820000022649765,-0.5680000185966492 0.0820000022649765,-0.7300000190734863 l0.7300000190734863,-4.584000110626221 h-1.4609999656677246 l0.12099999934434891,-0.9330000281333923 l1.5019999742507935,-0.12099999934434891 l0.36500000953674316,-2.109999895095825 l1.2970000505447388,-0.2029999941587448 l-0.36500000953674316,2.312000036239624 h1.5820000171661377 l-0.16200000047683716,1.0540000200271606 h-1.5820000171661377 l-0.8109999895095825,5.23199987411499 l0.4449999928474426,-0.36500000953674316 l0.609000027179718,-0.6069999933242798 l0.5270000100135803,-0.4860000014305115 l0.36500000953674316,-0.36500000953674316 l0.6480000019073486,0.7699999809265137 l-0.32100000977516174,0.2840000092983246 zM163.68798828125,20.527999877929688 c-0.164000004529953,-0.12300000339746475 -0.2849999964237213,-0.12300000339746475 -0.4880000054836273,-0.12300000339746475 c-0.36500000953674316,0 -0.6890000104904175,0.12300000339746475 -1.0549999475479126,0.4880000054836273 a5.406000137329102,5.406000137329102 0 0 0 -1.2970000505447388,2.068000078201294 c-0.2029999941587448,0.4449999928474426 -0.4059999883174896,1.4609999656677246 -0.5270000100135803,2.0269999504089355 l-0.2849999964237213,1.906000018119812 h-1.2970000505447388 l1.2170000076293945,-7.544000148773193 l1.2970000505447388,-0.2029999941587448 l-0.4449999928474426,2.2309999465942383 c0.9340000152587891,-1.6230000257492065 1.6619999408721924,-2.2720000743865967 2.5160000324249268,-2.2720000743865967 c0.36500000953674316,0 0.5659999847412109,0.08100000023841858 0.8519999980926514,0.24300000071525574 l-0.4880000054836273,1.1790000200271606 zM169.447998046875,21.947998046875 l-3.569999933242798,2.188999891281128 v0.4059999883174896 c0,0.9340000152587891 0.3240000009536743,1.4199999570846558 0.8930000066757202,1.4199999570846558 c0.8519999980926514,0 1.9470000267028809,-0.8119999766349792 3.002000093460083,-2.1500000953674316 l0.7300000190734863,0.7300000190734863 c-1.4609999656677246,1.6230000257492065 -2.759999990463257,2.4749999046325684 -3.936000108718872,2.4749999046325684 c-1.3380000591278076,0 -1.9880000352859497,-0.8519999980926514 -1.9880000352859497,-2.5160000324249268 c0,-2.9609999656677246 1.9079999923706055,-5.517000198364258 4.138999938964844,-5.517000198364258 c1.0959999561309814,0 1.784999966621399,0.5680000185966492 1.784999966621399,1.4190000295639038 c0,0.6520000100135803 -0.2849999964237213,1.097000002861023 -1.0549999475479126,1.5440000295639038 zm-0.8920000195503235,-1.9880000352859497 c-1.0549999475479126,0 -2.1500000953674316,1.2990000247955322 -2.4749999046325684,3.002000093460083 l3.1640000343322754,-2.0290000438690186 c0.07999999821186066,-0.12099999934434891 0.07999999821186066,-0.24199999868869781 0.07999999821186066,-0.28299999237060547 c0,-0.3659999966621399 -0.36500000953674316,-0.6899999976158142 -0.7689999938011169,-0.6899999976158142 zM177.84500122070312,20.608001708984375 c-0.5270000100135803,-0.4449999928474426 -0.8519999980926514,-0.5669999718666077 -1.378999948501587,-0.5669999718666077 c-1.5019999742507935,0 -2.7190001010894775,1.9869999885559082 -2.7190001010894775,4.461999893188477 c0,1.0140000581741333 0.2029999941587448,1.4199999570846558 0.7300000190734863,1.4199999570846558 c0.6480000019073486,0 1.6230000257492065,-0.6890000104904175 2.88100004196167,-2.1089999675750732 l0.7300000190734863,0.6480000019073486 c-1.38100004196167,1.7050000429153442 -2.759999990463257,2.556999921798706 -4.015999794006348,2.556999921798706 c-1.0570000410079956,0 -1.7050000429153442,-0.8930000066757202 -1.7050000429153442,-2.3540000915527344 c0,-3.0409998893737793 1.9470000267028809,-5.638000011444092 4.218999862670898,-5.638000011444092 c0.7710000276565552,0 1.378999948501587,0.2029999941587448 1.9880000352859497,0.7300000190734863 l-0.7289999723434448,0.8510000109672546 zM186.93099975585938,21.055999755859375 l-0.8930000066757202,5.840000152587891 h-1.2970000505447388 l0.8930000066757202,-5.63700008392334 l0.04100000113248825,-0.36500000953674316 c0.039000000804662704,-0.0820000022649765 0.039000000804662704,-0.164000004529953 0.039000000804662704,-0.24400000274181366 c0,-0.36500000953674316 -0.12099999934434891,-0.5270000100135803 -0.3240000009536743,-0.5270000100135803 c-0.4059999883174896,0 -0.9729999899864197,0.4059999883174896 -1.6619999408721924,1.1759999990463257 c-0.6499999761581421,0.6499999761581421 -1.218999981880188,1.378999948501587 -1.6230000257492065,2.0290000438690186 a4.553999900817871,4.553999900817871 0 0 0 -0.4059999883174896,0.7300000190734863 a7.243000030517578,7.243000030517578 0 0 0 -0.3240000009536743,1.3380000591278076 l-0.24400000274181366,1.5 h-1.2970000505447388 l1.9470000267028809,-12.208999633789062 l1.2970000505447388,-0.24300000071525574 l-0.7300000190734863,4.705999851226807 c-0.24199999868869781,1.621999979019165 -0.3240000009536743,1.9459999799728394 -0.5659999847412109,3.0829999446868896 c0.16200000047683716,-0.24400000274181366 0.28299999237060547,-0.4059999883174896 0.40400001406669617,-0.5270000100135803 c0.4880000054836273,-0.6890000104904175 0.8119999766349792,-1.0549999475479126 1.2170000076293945,-1.4609999656677246 c0.8119999766349792,-0.8109999895095825 1.5820000171661377,-1.215999960899353 2.312000036239624,-1.215999960899353 c0.8519999980926514,0 1.2580000162124634,0.44600000977516174 1.2580000162124634,1.378000020980835 c-0.0010000000474974513,0.20100000500679016 -0.0010000000474974513,0.4449999928474426 -0.041999999433755875,0.6489999890327454 zM193.22000122070312,24.74700164794922 c-0.32600000500679016,0.36500000953674316 -0.609000027179718,0.6480000019073486 -0.8539999723434448,0.8109999895095825 c-0.5659999847412109,0.5270000100135803 -1.1759999990463257,1.0140000581741333 -1.6619999408721924,1.2990000247955322 c-0.28299999237060547,0.16200000047683716 -0.4059999883174896,0.2029999941587448 -0.8519999980926514,0.24199999868869781 c-0.12300000339746475,-0.2029999941587448 -0.2029999941587448,-0.4860000014305115 -0.2029999941587448,-0.8930000066757202 c0,-0.16200000047683716 0.04100000113248825,-0.3630000054836273 0.04100000113248825,-0.6069999933242798 c0.039000000804662704,-0.3240000009536743 0.07999999821186066,-0.5680000185966492 0.07999999821186066,-0.7300000190734863 l0.7300000190734863,-4.584000110626221 h-1.5 l0.16200000047683716,-0.9330000281333923 l1.5,-0.12099999934434891 l0.3240000009536743,-2.109999895095825 l1.340000033378601,-0.2029999941587448 l-0.4059999883174896,2.312000036239624 h1.6230000257492065 l-0.16200000047683716,1.0540000200271606 h-1.6230000257492065 l-0.8119999766349792,5.23199987411499 l0.44699999690055847,-0.36500000953674316 l0.6480000019073486,-0.6069999933242798 l0.5270000100135803,-0.4860000014305115 l0.36500000953674316,-0.36500000953674316 l0.609000027179718,0.7699999809265137 l-0.32199999690055847,0.2840000092983246 z" id="svg_33"/></g></g></svg>